<?xml version="1.0" encoding="UTF-8" standalone="no"?>
<svg
   xmlns:dc="http://purl.org/dc/elements/1.1/"
   xmlns:cc="http://creativecommons.org/ns#"
   xmlns:rdf="http://www.w3.org/1999/02/22-rdf-syntax-ns#"
   xmlns:svg="http://www.w3.org/2000/svg"
   xmlns="http://www.w3.org/2000/svg"
   version="1.1"
   id="svg11705"
   viewBox="0 0 466.60898 999.10111"
   height="281.96854mm"
   width="131.68742mm">
  <defs
     id="defs11707" />
  <metadata
     id="metadata11710">
    <rdf:RDF>
      <cc:Work
         rdf:about="">
        <dc:format>image/svg+xml</dc:format>
        <dc:type
           rdf:resource="http://purl.org/dc/dcmitype/StillImage" />
        <dc:title></dc:title>
      </cc:Work>
    </rdf:RDF>
  </metadata>
  <g
     transform="translate(-163.29534,-26.978737)"
     id="layer1">
    <g
       transform="matrix(2.3279033,0,0,-2.3279033,532.05688,47.587239)"
       id="g1166">
      <path
         id="path1168"
         style="fill:#f8ad1c;fill-opacity:1;fill-rule:nonzero;stroke:none"
         d="m 0,0 c -0.58,0.247 -2.395,0.534 -3.036,0.158 -0.911,-0.534 -0.587,-1.903 -0.6,-2.738 -0.038,-2.364 -0.956,-4.681 -1.228,-7.024 -0.578,-4.968 -1.523,-9.954 -2.506,-14.857 -0.956,-4.764 -1.6,-9.744 -3.377,-14.289 -0.136,-0.346 0.213,-0.789 0.577,-0.757 0.04,0.004 0.081,0.007 0.121,0.01 1.035,-0.734 3.857,-2.159 3.864,-0.165 0.017,4.333 1.306,8.878 2.153,13.11 1.645,8.223 3.927,16.356 5.005,24.684 C 1.104,-0.859 0.916,-0.389 0,0" />
    </g>
    <g
       transform="matrix(2.3279033,0,0,-2.3279033,465.42531,127.83077)"
       id="g1170">
      <path
         id="path1172"
         style="fill:#f8ad1c;fill-opacity:1;fill-rule:nonzero;stroke:none"
         d="m 0,0 c -1.782,4.831 -2.813,9.804 -4.397,14.685 -1.448,4.455 -1.752,9.196 -3.318,13.602 -0.804,2.262 -2.856,0.797 -3.444,-0.759 -0.281,-0.011 -0.54,-0.19 -0.5,-0.537 0.092,-1.998 0.851,-4.089 1.298,-6.047 0.567,-2.487 0.964,-4.996 1.452,-7.498 1.012,-5.187 3.124,-10.188 4.796,-15.184 0.789,-2.361 1.543,-4.736 2.259,-7.12 0.533,-1.772 0.918,-4.552 2.2,-5.972 1.103,-1.225 4.821,-0.888 4.821,1.169 0,1.786 -1.533,4.014 -2.203,5.647 C 1.884,-5.378 0.985,-2.672 0,0" />
    </g>
    <g
       transform="matrix(2.3279033,0,0,-2.3279033,535.0941,29.959889)"
       id="g1174">
      <path
         id="path1176"
         style="fill:#e66021;fill-opacity:1;fill-rule:nonzero;stroke:none"
         d="m 0,0 c -2.371,3.159 -5.695,-0.207 -6.445,-2.778 -0.68,-2.326 0.497,-8.633 3.816,-8.316 0.04,0.004 0.071,0.019 0.108,0.029 0.909,10e-4 1.855,0.266 2.308,0.717 1.018,1.013 1.096,2.894 1.255,4.212 C 1.29,-4.084 1.285,-1.713 0,0" />
    </g>
    <g
       transform="matrix(2.3279033,0,0,-2.3279033,438.66349,40.419389)"
       id="g1178">
      <path
         id="path1180"
         style="fill:#e66021;fill-opacity:1;fill-rule:nonzero;stroke:none"
         d="m 0,0 c -0.587,-0.217 -1.034,-0.585 -1.324,-1.05 -2.689,-1.516 -1.358,-7.005 -0.782,-9.302 0.715,-2.851 3.714,-5.775 6.127,-2.697 2.293,2.926 0.976,8.092 -0.823,10.922 C 2.686,-1.321 1.194,0.442 0,0" />
    </g>
    <g
       transform="matrix(2.3279033,0,0,-2.3279033,511.79689,727.46577)"
       id="g1182">
      <path
         id="path1184"
         style="fill:#f9ba48;fill-opacity:1;fill-rule:nonzero;stroke:none"
         d="M 0,0 C -0.116,1.415 0.175,5.819 -2.268,5.321 -4.854,4.793 -8.341,4.916 -9.348,2.488 -9.544,2.408 -9.701,2.231 -9.709,1.951 c -0.395,-14.986 -0.266,-29.972 -2.385,-44.847 -2.206,-15.481 -4.613,-30.94 -8.354,-46.123 -1.768,-7.174 -3.826,-14.308 -5.771,-21.44 -0.758,-2.779 -2.263,-6.061 -2.263,-8.985 0,-1.931 3.112,-2.404 4.423,-2.482 2.68,-0.158 3.254,1.547 4.439,3.698 1.705,3.098 2.627,6.834 3.387,10.267 1.723,7.783 4.202,15.445 6.371,23.117 2.694,9.532 4.605,19.529 6.309,29.284 1.714,9.815 3.477,19.615 4.164,29.57 C 1.206,-17.386 0.709,-8.585 0,0" />
    </g>
    <g
       transform="matrix(2.3279033,0,0,-2.3279033,224.32133,723.48302)"
       id="g1186">
      <path
         id="path1188"
         style="fill:#f9ba48;fill-opacity:1;fill-rule:nonzero;stroke:none"
         d="m 0,0 c -2.586,-0.528 -6.073,-0.405 -7.08,-2.833 -0.196,-0.08 -0.354,-0.257 -0.361,-0.537 -0.395,-14.986 -0.266,-29.973 -2.385,-44.848 -2.206,-15.48 -4.613,-30.939 -8.355,-46.122 -1.767,-7.175 -3.826,-14.308 -5.77,-21.44 -0.758,-2.78 -2.264,-6.061 -2.264,-8.986 0,-1.93 3.112,-2.403 4.424,-2.481 2.68,-0.158 3.254,1.547 4.438,3.698 1.706,3.098 2.627,6.834 3.387,10.267 1.724,7.783 4.202,15.445 6.371,23.117 2.695,9.532 4.606,19.528 6.31,29.284 1.714,9.815 3.476,19.614 4.164,29.569 0.595,8.605 0.098,17.406 -0.611,25.991 C 2.151,-3.906 2.442,0.498 0,0" />
    </g>
    <g
       transform="matrix(2.3279033,0,0,-2.3279033,467.37795,785.36568)"
       id="g1190">
      <path
         id="path1192"
         style="fill:#f9ba48;fill-opacity:1;fill-rule:nonzero;stroke:none"
         d="m 0,0 c 0.402,3.73 0.249,7.74 0.208,11.497 -0.014,1.188 0.073,5.49 -1.92,5.522 -1.493,0.022 -2.714,-0.712 -4.128,-1.083 -1.333,-0.35 -2.272,-1.464 -3.556,-1.863 -0.252,0.007 -0.507,-0.099 -0.641,-0.302 -0.217,-0.239 -0.22,-0.594 -0.06,-0.88 0.19,-2.72 -0.242,-5.64 -0.542,-8.328 -0.477,-4.284 -1.044,-8.558 -1.775,-12.806 -1.274,-7.404 -3.211,-14.667 -4.785,-22.007 -1.634,-7.619 -4.103,-15.007 -5.94,-22.572 -1.77,-7.296 -3.743,-14.653 -6.234,-21.745 -2.404,-6.843 -4.021,-13.954 -6.361,-20.806 -0.512,-1.498 -2.02,-5.157 -0.333,-6.523 1.309,-1.059 3.936,-2.078 5.546,-1.135 0.878,0.514 1.396,2.041 1.848,2.885 0.844,1.579 1.606,3.209 2.364,4.83 1.604,3.42 2.759,7.033 4.098,10.56 1.33,3.506 2.921,6.902 4.212,10.423 1.406,3.834 2.408,7.81 3.727,11.676 5.616,16.467 10.266,32.912 12.496,50.209 C -1.241,-8.29 -0.45,-4.169 0,0" />
    </g>
    <g
       transform="matrix(2.3279033,0,0,-2.3279033,268.822,864.42783)"
       id="g1194">
      <path
         id="path1196"
         style="fill:#f9ba48;fill-opacity:1;fill-rule:nonzero;stroke:none"
         d="m 0,0 c 0,3.963 -0.142,7.913 -0.182,11.87 -0.045,4.515 -0.584,9.031 -0.475,13.54 0.178,7.491 -0.546,14.993 -0.546,22.481 0,2.979 -1.041,4.894 -3.692,6.219 -1.252,0.626 -4.849,2.11 -6.318,1.336 -0.258,-0.135 -0.364,-0.344 -0.38,-0.562 -0.089,-0.115 -0.151,-0.261 -0.141,-0.459 0.688,-14.365 1.775,-28.721 2.57,-43.098 0.414,-7.483 -0.04,-14.983 0.155,-22.475 0.202,-7.777 0.254,-15.562 0.392,-23.34 0.061,-3.528 0.179,-7.052 0.342,-10.576 0.172,-3.757 -0.171,-7.498 0.19,-11.247 0.252,-2.622 0.515,-4.174 2.417,-6.026 1.166,-1.136 3.158,-2.079 4.398,-0.597 1.457,1.741 1.16,5.414 1.238,7.522 0.135,3.586 -0.01,7.22 0.29,10.795 0.592,7.048 0.44,14.375 0.154,21.451 C 0.099,-15.445 0,-7.729 0,0" />
    </g>
    <g
       transform="matrix(2.3279033,0,0,-2.3279033,223.73237,624.10132)"
       id="g1198">
      <path
         id="path1200"
         style="fill:#f9ba48;fill-opacity:1;fill-rule:nonzero;stroke:none"
         d="m 0,0 c -0.937,0.702 -1.863,1.368 -2.768,2.113 -1.962,1.616 -2.876,3.64 -3.587,6.022 -1.293,4.323 0.341,9.201 2.674,12.82 1.093,1.695 4.282,4.654 3.659,6.919 -0.518,1.882 -3.278,0.373 -4.229,-0.064 -2.95,-1.358 -4.77,-4.229 -6.151,-7.019 -1.533,-3.095 -2.721,-6.851 -2.598,-10.321 0.115,-3.241 1.51,-6.154 2.994,-8.952 1.289,-2.429 3.244,-4.795 6.177,-4.901 0.252,-0.009 0.433,0.132 0.538,0.32 1.411,0.131 2.652,0.689 3.567,2.006 C 0.536,-0.683 0.314,-0.236 0,0" />
    </g>
    <g
       transform="matrix(2.3279033,0,0,-2.3279033,275.1965,534.22261)"
       id="g1202">
      <path
         id="path1204"
         style="fill:#e66021;fill-opacity:1;fill-rule:nonzero;stroke:none"
         d="m 0,0 c -1.885,4.431 -5.036,8.297 -8.989,11.059 -3.589,2.507 -8.416,3.452 -12.735,3.452 -1.246,0 -1.234,-0.905 -1.438,-1.886 -0.293,-1.414 -0.737,-2.812 -0.924,-4.232 -0.228,-1.012 -0.452,-2.026 -0.721,-3.022 -0.715,-2.653 -1.443,-5.305 -2.096,-7.975 -0.614,-2.5 -1.321,-5.098 -2.073,-7.563 -0.311,-1.021 -1.053,-3.457 -0.442,-4.501 1.678,-2.863 6.748,1.021 8.282,2.003 4.72,3.022 10.133,5.173 15.413,6.933 C -2.664,-4.713 1.794,-4.215 0,0" />
    </g>
    <g
       transform="matrix(2.3279033,0,0,-2.3279033,536.66961,478.66207)"
       id="g1206">
      <path
         id="path1208"
         style="fill:#f8ad1c;fill-opacity:1;fill-rule:nonzero;stroke:none"
         d="m 0,0 c -0.153,3.874 -0.369,7.745 -0.623,11.613 -0.239,3.661 -0.018,7.301 -0.346,10.97 -0.328,3.654 -0.26,7.314 -0.482,10.974 -0.243,3.996 -0.746,7.968 -0.915,11.97 -0.329,7.819 -1.092,15.549 -1.744,23.339 -0.643,7.681 -1.533,15.257 -3.036,22.819 -1.219,6.139 -2.277,12.712 -8.213,15.931 -3.605,1.955 -7.799,2.448 -11.515,4.168 -2.249,1.04 -3.556,2.684 -5.127,4.503 -1.059,1.227 -2.103,2.184 -3.235,3.239 -0.314,0.292 -0.685,0.269 -0.971,0.097 -0.368,-0.064 -0.713,-0.387 -0.624,-0.865 0.509,-2.733 0.932,-5.462 1.393,-8.203 0.631,-3.747 1.712,-7.391 2.285,-11.172 1.126,-7.437 1.739,-15.013 2.349,-22.513 0.613,-7.521 2.022,-14.937 2.879,-22.431 0.41,-3.58 1.194,-7.037 1.25,-10.66 0.059,-3.693 0.468,-7.48 0.74,-11.166 0.259,-3.5 0.306,-6.992 0.229,-10.505 -0.071,-3.235 -0.648,-6.443 -0.648,-9.662 0,-3.507 -0.769,-7.087 -1.099,-10.583 -0.369,-3.924 -0.719,-7.794 -1.389,-11.685 -1.359,-7.893 -4.569,-15.315 -8.599,-22.19 -4.016,-6.85 -8.638,-12.85 -15.288,-17.343 -12.261,-8.286 -26.954,-11.165 -41.546,-11.167 -3.237,-0.001 -6.431,-0.442 -9.675,-0.301 -3.888,0.168 -7.741,0.298 -11.646,0.297 -3.666,-10e-4 -7.331,0.081 -10.996,0.079 -3.207,-10e-4 -6.38,-0.511 -9.557,-0.75 -5.767,-0.434 -9.99,-4.166 -11.546,-9.557 -1.941,-6.719 -4.125,-13.608 -3.886,-20.692 0.222,-6.553 1.69,-13.742 4.737,-19.568 2.765,-5.288 8.159,-10.031 13.407,-12.739 6.093,-3.144 13.66,-4.061 20.389,-4.882 3.58,-0.436 7.138,-0.433 10.726,-0.658 3.355,-0.21 6.822,-0.602 10.173,-0.602 7.104,0 14.13,0.504 21.208,0.708 3.343,0.096 6.678,0.689 10,1.054 3.678,0.404 7.349,0.248 11.036,0.831 7.332,1.158 15.071,2.71 22.007,5.396 3.038,1.176 6.046,2.475 9.008,3.825 1.546,0.704 3.058,1.392 4.5,2.297 1.286,0.805 2.436,2.548 3.348,3.737 4.446,5.795 7.248,12.458 9.168,19.459 1.819,6.638 1.907,13.683 1.908,20.534 0.002,15.984 0.337,31.962 0.339,47.952 C 0.374,-16.062 0.318,-8.033 0,0" />
    </g>
    <g
       transform="matrix(2.3279033,0,0,-2.3279033,594.18046,114.5645)"
       id="g1210">
      <path
         id="path1212"
         style="fill:#e66021;fill-opacity:1;fill-rule:nonzero;stroke:none"
         d="m 0,0 c -0.877,7.228 -11.996,1.158 -14.771,-0.978 -3.017,-2.324 -5.53,-4.587 -7.849,-7.637 -1.036,-1.363 -2.006,-2.813 -2.968,-4.23 -0.568,-0.838 -1.353,-1.866 -1.721,-2.872 -0.389,-0.21 -0.453,-0.777 -0.162,-1.151 1.243,-1.598 2.647,-3.478 5.048,-2.682 3.424,1.134 6.711,2.951 9.791,4.814 C -7.631,-11.709 0.847,-6.975 0,0" />
    </g>
    <g
       transform="matrix(2.3279033,0,0,-2.3279033,460.20568,175.94829)"
       id="g1214">
      <path
         id="path1216"
         style="fill:#e66021;fill-opacity:1;fill-rule:nonzero;stroke:none"
         d="m 0,0 c -0.08,0.02 -0.148,0.015 -0.219,0.014 -0.128,0.123 -0.304,0.201 -0.495,0.17 -3.627,-0.584 -7.483,-0.442 -11.15,-0.664 -2.245,-0.137 -4.398,-0.139 -6.644,-0.435 -2.105,-0.277 -4.117,-0.78 -6.18,-1.271 -5.138,-1.218 -14.719,-6.602 -8.5,-12.484 5.926,-5.606 16.581,-1.163 22.346,2.423 3.671,2.284 7.345,4.638 10.747,7.311 C 1.274,-3.859 2.405,-0.602 0,0" />
    </g>
    <g
       transform="matrix(2.3279033,0,0,-2.3279033,575.68691,127.52954)"
       id="g1218">
      <path
         id="path1220"
         style="fill:#f38c6b;fill-opacity:1;fill-rule:nonzero;stroke:none"
         d="m 0,0 c -1.302,2.571 -7.127,-1.607 -8.281,-2.418 -1.689,-1.187 -3.271,-2.568 -4.624,-4.125 -1.181,-1.359 -2.909,-2.885 -3.4,-4.672 -0.117,-0.43 0.378,-0.752 0.712,-0.605 0.103,-0.029 0.215,-0.041 0.341,-0.016 1.99,0.392 3.733,1.644 5.439,2.687 1.853,1.132 3.76,2.138 5.655,3.197 C -2.209,-4.862 1.361,-2.689 0,0" />
    </g>
    <g
       transform="matrix(2.3279033,0,0,-2.3279033,452.61485,182.08626)"
       id="g1222">
      <path
         id="path1224"
         style="fill:#f38c6b;fill-opacity:1;fill-rule:nonzero;stroke:none"
         d="m 0,0 c -1.873,0.381 -3.979,-0.168 -5.797,-0.526 -2.794,-0.552 -5.565,-1.247 -8.321,-1.956 -2.097,-0.539 -8.892,-2.812 -7.08,-6.344 1.81,-3.534 7.297,-0.257 9.609,0.846 2.669,1.271 5.292,2.634 7.967,3.894 1.551,0.73 3.58,1.461 4.539,2.984 C 1.344,-0.422 0.606,0.18 0,0" />
    </g>
    <g
       transform="matrix(2.3279033,0,0,-2.3279033,596.61988,296.36491)"
       id="g1226">
      <path
         id="path1228"
         style="fill:#f9ba48;fill-opacity:1;fill-rule:nonzero;stroke:none"
         d="m 0,0 c -1.77,1.571 -3.553,2.958 -5.129,4.752 -1.822,2.074 -3.199,4.526 -4.763,6.793 -3.094,4.487 -5.629,9.749 -6.285,15.197 -0.658,5.477 -0.189,11.187 -0.189,16.685 0,5.01 -1.092,9.863 -3.128,14.46 -1.881,4.248 -4.771,7.384 -8.474,10.113 -3.673,2.707 -9.077,4.984 -13.729,4.238 -4.01,-0.643 -8.265,-2.892 -11.414,-5.398 -0.8,-0.636 -1.559,-1.292 -2.297,-1.959 -2.782,-1.801 -5.248,-4.231 -7.107,-6.568 -3.941,-4.959 -4.904,-11.709 -3.9,-17.778 1.199,-7.242 4.995,-13.682 9.346,-19.484 4.364,-5.821 7.696,-12.561 10.642,-19.192 1.484,-3.338 2.451,-6.876 3.571,-10.345 0.91,-2.822 1.118,-5.958 2.35,-8.677 0.838,-1.85 2.114,-3.508 4.318,-2.993 1.199,0.279 2.492,1.618 3.447,2.34 1.624,1.227 3.252,2.378 5.005,3.417 6.537,3.871 13.985,6.094 21.39,7.584 1.666,0.335 3.324,0.709 4.988,1.058 0.761,0.16 2.136,0.465 2.712,1.096 C 2.747,-3.135 1.246,-1.105 0,0" />
    </g>
    <g
       transform="matrix(2.3279033,0,0,-2.3279033,628.6991,314.04696)"
       id="g1230">
      <path
         id="path1232"
         style="fill:#f0dac3;fill-opacity:1;fill-rule:nonzero;stroke:none"
         d="m 0,0 c -0.545,2.873 -2.194,5.488 -4.109,7.646 -4.449,5.012 -12.884,4.113 -18.808,3.484 -6.852,-0.729 -13.538,-3.289 -19.836,-5.966 -6.045,-2.569 -14.36,-8.133 -14.415,-15.43 0,-0.009 0.004,-0.016 0.004,-0.025 -0.296,-1.335 -0.454,-2.683 -0.447,-3.927 0.031,-5.582 2.306,-11.259 7.006,-14.459 5.111,-3.482 13.49,-2.988 19.304,-2.133 7.07,1.04 13.726,3.51 19.802,7.251 2.833,1.746 5.213,3.884 7.285,6.476 1.975,2.47 3.064,5.465 4.158,8.406 C 0.887,-6.144 0.493,-2.605 0,0" />
    </g>
    <g
       transform="matrix(2.3279033,0,0,-2.3279033,566.5457,331.66546)"
       id="g1234">
      <path
         id="path1236"
         style="fill:#a03615;fill-opacity:1;fill-rule:nonzero;stroke:none"
         d="m 0,0 c -0.654,-0.244 -0.834,0.423 -0.879,0.915 -0.009,0.096 -0.016,0.209 -0.01,0.319 0.22,0.045 0.397,0.124 0.593,0.3 0.031,0.04 0.064,0.079 0.095,0.119 0.028,0.023 0.022,0.028 0.038,0.043 C -0.032,1.619 0.078,1.52 0.187,1.411 0.638,0.961 0.672,0.25 0,0 M 1.598,2.257 C 1.163,2.843 0.443,3.442 -0.33,3.372 -0.719,3.337 -1.085,3.121 -1.344,2.816 -1.535,2.73 -1.715,2.617 -1.872,2.485 -2.393,2.049 -2.44,1.22 -2.401,0.601 c 0.1,-1.563 1.465,-2.635 3.003,-2.099 1.628,0.569 1.957,2.46 0.996,3.755" />
    </g>
    <g
       transform="matrix(2.3279033,0,0,-2.3279033,603.78539,320.27596)"
       id="g1238">
      <path
         id="path1240"
         style="fill:#a03615;fill-opacity:1;fill-rule:nonzero;stroke:none"
         d="m 0,0 c -0.654,-0.244 -0.834,0.423 -0.879,0.915 -0.009,0.096 -0.016,0.209 -0.01,0.319 0.22,0.045 0.397,0.124 0.593,0.3 0.031,0.04 0.064,0.079 0.095,0.119 0.028,0.023 0.022,0.028 0.038,0.043 C -0.032,1.619 0.078,1.52 0.187,1.411 0.638,0.961 0.672,0.25 0,0 M 1.598,2.257 C 1.163,2.843 0.443,3.442 -0.33,3.372 -0.719,3.337 -1.085,3.121 -1.344,2.816 -1.535,2.73 -1.715,2.617 -1.872,2.485 -2.393,2.049 -2.44,1.22 -2.401,0.601 c 0.1,-1.563 1.465,-2.635 3.003,-2.099 1.628,0.569 1.957,2.46 0.996,3.755" />
    </g>
    <g
       transform="matrix(2.3279033,0,0,-2.3279033,574.43425,352.63916)"
       id="g1242">
      <path
         id="path1244"
         style="fill:#a03615;fill-opacity:1;fill-rule:nonzero;stroke:none"
         d="m 0,0 c -0.923,-0.194 -1.718,-0.704 -2.638,-0.954 -1.642,-0.448 -3.319,-0.547 -5.01,-0.548 -3.305,0 -6.3,0.498 -9.22,2.086 -1.362,0.741 -2.758,1.941 -3.394,3.396 -0.202,0.462 -0.476,1.221 -1.044,1.377 -0.814,0.225 -1.359,-0.313 -1.517,-0.999 -1.3,-1.273 -1.067,-4.475 -0.717,-5.954 0.721,-3.056 2.418,-5.601 5.329,-6.911 3.446,-1.55 7.701,-1.254 11.152,0.032 3.375,1.258 5.766,4.279 7.906,7.021 C 1.375,-0.777 0.906,0.191 0,0" />
    </g>
    <g
       transform="matrix(2.3279033,0,0,-2.3279033,474.3982,314.40382)"
       id="g1246">
      <path
         id="path1248"
         style="fill:#e66021;fill-opacity:1;fill-rule:nonzero;stroke:none"
         d="M 0,0 C 0.778,-0.848 1.513,-1.31 2.66,-0.932 3.862,-0.535 4.474,0.457 4.736,1.637 5.218,3.801 4.055,6.84 1.813,7.527 -0.322,8.183 -1.096,5.122 -0.891,3.355 -0.961,2.068 -0.587,0.639 0,0" />
    </g>
    <g
       transform="matrix(2.3279033,0,0,-2.3279033,485.80353,352.55746)"
       id="g1250">
      <path
         id="path1252"
         style="fill:#e66021;fill-opacity:1;fill-rule:nonzero;stroke:none"
         d="m 0,0 c -0.873,2.614 -2.877,5.681 -5.922,5.68 -0.297,0 -0.573,-0.052 -0.831,-0.146 0.244,-1.753 0.478,-3.507 0.679,-5.265 0.41,-3.581 1.193,-7.038 1.25,-10.661 0.058,-3.693 0.468,-7.48 0.74,-11.166 0.123,-1.659 0.195,-3.317 0.231,-4.976 0.117,-0.059 0.219,-0.132 0.341,-0.184 2.202,-0.928 4.221,0.861 4.92,2.863 1.166,3.335 0.68,7.456 0.681,10.937 C 2.09,-8.637 1.353,-4.054 0,0" />
    </g>
    <g
       transform="matrix(2.3279033,0,0,-2.3279033,512.72435,405.00792)"
       id="g1254">
      <path
         id="path1256"
         style="fill:#e66021;fill-opacity:1;fill-rule:nonzero;stroke:none"
         d="M 0,0 C 1.746,1.822 1.614,4.732 -0.465,6.214 -1.969,7.286 -3.744,6.91 -4.406,5.622 -4.734,5.327 -5.006,4.962 -5.183,4.611 -5.722,3.541 -5.645,2.059 -5.163,0.979 -4.235,-1.1 -1.594,-1.663 0,0" />
    </g>
    <g
       transform="matrix(2.3279033,0,0,-2.3279033,483.47331,436.83712)"
       id="g1258">
      <path
         id="path1260"
         style="fill:#e66021;fill-opacity:1;fill-rule:nonzero;stroke:none"
         d="M 0,0 C -0.997,0.582 -2.11,0.726 -3.117,0.114 -3.123,0.111 -3.128,0.106 -3.133,0.103 c -0.178,-1.875 -0.37,-3.749 -0.37,-5.624 0,-0.586 -0.027,-1.176 -0.064,-1.766 1.426,-0.435 3.155,0.341 4.095,1.462 C 1.757,-4.361 1.851,-1.081 0,0" />
    </g>
    <g
       transform="matrix(2.3279033,0,0,-2.3279033,505.50435,468.21375)"
       id="g1262">
      <path
         id="path1264"
         style="fill:#e66021;fill-opacity:1;fill-rule:nonzero;stroke:none"
         d="M 0,0 C 2.494,0.108 3.786,2.161 4.521,4.351 5.616,7.61 5.498,15.754 0.637,15.981 -1.283,16.071 -2.699,13.725 -3.287,12.232 -3.676,11.247 -3.945,10.345 -4.067,9.463 -4.683,7.642 -4.689,5.543 -4.145,3.778 -3.699,2.336 -1.693,-0.074 0,0" />
    </g>
    <g
       transform="matrix(2.3279033,0,0,-2.3279033,521.9973,490.88123)"
       id="g1266">
      <path
         id="path1268"
         style="fill:#e66021;fill-opacity:1;fill-rule:nonzero;stroke:none"
         d="M 0,0 C -1.127,0.863 -2.341,0.436 -3.345,-0.389 -3.83,-0.787 -4.131,-1.283 -4.314,-1.822 -4.398,-1.948 -4.478,-2.074 -4.553,-2.199 -5.395,-3.601 -5.256,-5.478 -4.761,-6.978 -3.858,-9.71 -0.408,-8.698 0.771,-6.897 2.04,-4.957 1.97,-1.511 0,0" />
    </g>
    <g
       transform="matrix(2.3279033,0,0,-2.3279033,483.83694,481.63783)"
       id="g1270">
      <path
         id="path1272"
         style="fill:#e66021;fill-opacity:1;fill-rule:nonzero;stroke:none"
         d="m 0,0 c -1.968,0.422 -3.703,-0.141 -5.19,-1.275 -0.251,-2.426 -0.539,-4.844 -0.956,-7.269 -1.017,-5.905 -3.072,-11.547 -5.729,-16.893 0.542,-1.02 1.28,-1.923 2.187,-2.615 2.722,-2.077 6.854,-1.831 9.842,-0.605 3.409,1.4 5.307,4.631 6.432,7.979 1.435,4.273 0.987,9.046 -0.28,13.288 C 5.284,-3.973 3.729,-0.8 0,0" />
    </g>
    <g
       transform="matrix(2.3279033,0,0,-2.3279033,499.05488,594.24109)"
       id="g1274">
      <path
         id="path1276"
         style="fill:#e66021;fill-opacity:1;fill-rule:nonzero;stroke:none"
         d="M 0,0 C 3.272,4.862 1.344,12.024 -4.05,14.416 -7.533,15.96 -10.82,13.354 -12.131,10.115 -13.735,7.53 -13.748,3.704 -12.507,1.004 -10.135,-4.157 -3.254,-4.833 0,0" />
    </g>
    <g
       transform="matrix(2.3279033,0,0,-2.3279033,451.32147,610.95705)"
       id="g1278">
      <path
         id="path1280"
         style="fill:#e66021;fill-opacity:1;fill-rule:nonzero;stroke:none"
         d="m 0,0 c -3.703,-1.824 -6.02,-5.268 -7.185,-9.058 -1.878,-4.266 -1.392,-9.838 1.549,-13.266 2.784,-3.244 6.987,-2.587 10.486,-1.086 4.229,1.814 6.876,5.301 8.584,9.439 1.681,4.078 0.659,8.714 -2.259,11.984 C 8.204,1.341 3.95,1.945 0,0" />
    </g>
    <g
       transform="matrix(2.3279033,0,0,-2.3279033,425.62585,629.0686)"
       id="g1282">
      <path
         id="path1284"
         style="fill:#e66021;fill-opacity:1;fill-rule:nonzero;stroke:none"
         d="m 0,0 c 2.551,3.519 3.612,7.15 2.901,11.433 -0.462,2.786 -1.618,5.378 -3.648,7.169 -1.334,-1.188 -2.748,-2.312 -4.28,-3.347 -7.025,-4.746 -14.847,-7.712 -22.991,-9.386 0.121,-4.33 2.943,-9.076 6.109,-11.449 C -14.814,-10.896 -4.667,-6.437 0,0" />
    </g>
    <g
       transform="matrix(2.3279033,0,0,-2.3279033,456.15675,589.30801)"
       id="g1286">
      <path
         id="path1288"
         style="fill:#e66021;fill-opacity:1;fill-rule:nonzero;stroke:none"
         d="M 0,0 C 1.318,1.732 1.354,5.325 -1.174,6.08 -3.171,6.675 -5.951,5.178 -6.031,2.986 -6.31,1.836 -6.32,0.683 -5.672,-0.368 -4.355,-2.498 -1.271,-1.669 0,0" />
    </g>
    <g
       transform="matrix(2.3279033,0,0,-2.3279033,502.70342,610.8318)"
       id="g1290">
      <path
         id="path1292"
         style="fill:#e66021;fill-opacity:1;fill-rule:nonzero;stroke:none"
         d="m 0,0 c -0.85,0.048 -1.466,-0.099 -2.003,-0.775 -0.408,-0.288 -0.666,-0.8 -0.861,-1.278 -0.349,-0.852 -0.38,-2.028 0.306,-2.734 1.254,-1.291 3.308,-0.706 4.258,0.641 0.571,0.809 0.755,1.672 0.317,2.58 C 1.632,-0.772 0.932,-0.054 0,0" />
    </g>
    <g
       transform="matrix(2.3279033,0,0,-2.3279033,409.50789,678.80938)"
       id="g1294">
      <path
         id="path1296"
         style="fill:#e66021;fill-opacity:1;fill-rule:nonzero;stroke:none"
         d="m 0,0 c -1.224,0.93 -3.004,1.8 -4.548,1.116 -0.985,-0.436 -1.848,-1.313 -2.177,-2.355 -0.892,-0.99 -0.922,-2.969 -0.723,-4.152 0.555,-3.294 4.342,-4.072 6.971,-2.7 C 2.438,-6.571 2.538,-1.93 0,0" />
    </g>
    <g
       transform="matrix(2.3279033,0,0,-2.3279033,438.11318,702.79327)"
       id="g1298">
      <path
         id="path1300"
         style="fill:#e66021;fill-opacity:1;fill-rule:nonzero;stroke:none"
         d="M 0,0 C -0.183,-0.044 -0.362,-0.104 -0.557,-0.239 -0.982,-0.536 -1.273,-0.981 -1.621,-1.357 -2.288,-2.078 -2.125,-3.565 -1.767,-4.374 -0.858,-6.422 1.765,-6.353 3.44,-5.503 5.575,-4.421 5.447,-1.71 3.937,-0.198 2.842,0.897 1.031,0.981 0,0" />
    </g>
    <g
       transform="matrix(2.3279033,0,0,-2.3279033,294.68362,620.25259)"
       id="g1302">
      <path
         id="path1304"
         style="fill:#e66021;fill-opacity:1;fill-rule:nonzero;stroke:none"
         d="m 0,0 c -2.322,0.101 -4.637,0.175 -6.953,0.229 0,-1.793 0.813,-3.678 1.852,-4.974 3.862,-4.817 10.82,-5.918 16.09,-2.956 3.463,1.946 4.21,5.164 3.121,8.102 C 12.632,0.34 11.153,0.301 9.675,0.301 6.438,0.3 3.244,-0.141 0,0" />
    </g>
    <g
       transform="matrix(2.3279033,0,0,-2.3279033,349.4757,650.98603)"
       id="g1306">
      <path
         id="path1308"
         style="fill:#e66021;fill-opacity:1;fill-rule:nonzero;stroke:none"
         d="M 0,0 C 1.271,1.021 1.873,3.036 0.795,4.402 0.219,5.132 -0.849,5.635 -1.778,5.569 -2.545,5.517 -3.247,5.055 -3.489,4.374 -3.592,4.277 -3.69,4.179 -3.775,4.08 -4.404,3.347 -4.557,2.371 -4.354,1.448 -3.912,-0.557 -1.511,-1.212 0,0" />
    </g>
    <g
       transform="matrix(2.3279033,0,0,-2.3279033,366.81672,674.72647)"
       id="g1310">
      <path
         id="path1312"
         style="fill:#e66021;fill-opacity:1;fill-rule:nonzero;stroke:none"
         d="m 0,0 c -3.02,2.6 -8.893,2.157 -12.397,-0.399 -1.419,-0.494 -2.57,-1.362 -3.582,-2.959 -1.684,-2.663 -1.516,-6.091 -0.259,-8.84 2.841,-6.211 11.466,-7.482 16.799,-4.01 C 6.752,-12.179 4.846,-4.171 0,0" />
    </g>
    <g
       transform="matrix(2.3279033,0,0,-2.3279033,305.90015,708.81301)"
       id="g1314">
      <path
         id="path1316"
         style="fill:#e66021;fill-opacity:1;fill-rule:nonzero;stroke:none"
         d="m 0,0 c -1.34,0.305 -2.785,0.037 -3.936,-0.687 -0.106,-0.067 -0.19,-0.144 -0.277,-0.22 -0.281,-0.141 -0.538,-0.378 -0.746,-0.677 -0.939,-1.345 -0.936,-2.944 -0.08,-4.33 1.664,-2.695 5.57,-2.102 7.577,-0.257 C 5.116,-3.802 2.707,-0.615 0,0" />
    </g>
    <g
       transform="matrix(2.3279033,0,0,-2.3279033,299.56429,690.53758)"
       id="g1318">
      <path
         id="path1320"
         style="fill:#e66021;fill-opacity:1;fill-rule:nonzero;stroke:none"
         d="m 0,0 c 2.396,3.781 2.786,8.565 0.728,12.563 -2.283,4.431 -7.563,6.726 -12.235,7.434 -5.661,0.857 -10.626,0.024 -15.389,-3.29 -1.312,-0.912 -2.181,-2.152 -2.758,-3.557 -1.73,-2.602 -2.276,-6.261 -2.204,-9.183 0.121,-4.967 2.579,-8.826 6.779,-11.368 C -16.082,-12.847 -5.349,-8.439 0,0" />
    </g>
    <g
       transform="matrix(2.3279033,0,0,-2.3279033,216.56686,621.53247)"
       id="g1322">
      <path
         id="path1324"
         style="fill:#e66021;fill-opacity:1;fill-rule:nonzero;stroke:none"
         d="m 0,0 c -5.067,-0.877 -8.757,-4.424 -10.188,-9.381 -0.826,-2.858 -1.694,-5.748 -2.403,-8.67 1.884,-1.919 4.838,-2.221 7.344,-1.826 5.857,0.925 8.775,8.004 8.361,13.215 C 2.908,-4.074 1.716,-1.934 0,0" />
    </g>
    <g
       transform="matrix(2.3279033,0,0,-2.3279033,410.71049,995.25873)"
       id="g1326">
      <path
         id="path1328"
         style="fill:#a03615;fill-opacity:1;fill-rule:nonzero;stroke:none"
         d="m 0,0 c -3.115,1.24 -6.531,1.134 -9.696,0.147 -0.534,-1.796 -1.09,-3.585 -1.696,-5.356 -0.511,-1.498 -2.019,-5.157 -0.333,-6.522 1.31,-1.06 3.937,-2.079 5.546,-1.136 0.879,0.514 1.397,2.041 1.849,2.886 0.844,1.578 1.605,3.209 2.364,4.829 0.781,1.665 1.453,3.376 2.095,5.1 C 0.086,-0.034 0.04,-0.017 0,0" />
    </g>
    <g
       transform="matrix(2.3279033,0,0,-2.3279033,473.47519,981.14353)"
       id="g1330">
      <path
         id="path1332"
         style="fill:#a03615;fill-opacity:1;fill-rule:nonzero;stroke:none"
         d="m 0,0 c -3.041,1.053 -6.332,0.884 -9.378,-0.108 -0.126,-0.459 -0.254,-0.919 -0.379,-1.378 -0.758,-2.78 -2.264,-6.061 -2.264,-8.986 0,-1.93 3.113,-2.403 4.424,-2.481 2.68,-0.158 3.254,1.547 4.439,3.698 C -1.619,-6.459 -0.72,-3.144 0,0" />
    </g>
    <g
       transform="matrix(2.3279033,0,0,-2.3279033,249.62588,981.49363)"
       id="g1334">
      <path
         id="path1336"
         style="fill:#a03615;fill-opacity:1;fill-rule:nonzero;stroke:none"
         d="m 0,0 c -0.023,-2.008 -0.032,-4.014 0.161,-6.022 0.252,-2.623 0.515,-4.175 2.417,-6.027 1.166,-1.136 3.158,-2.079 4.399,-0.597 1.457,1.741 1.159,5.415 1.237,7.522 0.09,2.401 0.062,4.824 0.12,7.236 C 5.459,2.168 2.557,1.367 0,0" />
    </g>
    <g
       transform="matrix(2.3279033,0,0,-2.3279033,191.38966,989.05933)"
       id="g1338">
      <path
         id="path1340"
         style="fill:#a03615;fill-opacity:1;fill-rule:nonzero;stroke:none"
         d="m 0,0 c -3.029,1.068 -6.31,0.919 -9.353,-0.053 -0.15,-0.548 -0.302,-1.095 -0.452,-1.643 -0.758,-2.78 -2.263,-6.061 -2.263,-8.986 0,-1.93 3.112,-2.403 4.423,-2.481 2.68,-0.158 3.254,1.547 4.439,3.698 C -1.633,-6.606 -0.729,-3.206 0,0" />
    </g>
    <g
       transform="matrix(2.3279033,0,0,-2.3279033,539.48615,186.192)"
       id="g1342">
      <path
         id="path1344"
         style="fill:#3f2322;fill-opacity:1;fill-rule:nonzero;stroke:none"
         d="M 0,0 C -0.044,-0.033 -0.092,-0.049 -0.134,-0.088 -0.995,-0.883 -1.216,-1.973 -1.25,-3.102 -1.331,-5.7 1.759,-6.753 3.782,-5.668 5.672,-4.656 5.596,-2.123 4.363,-0.654 3.382,0.515 1.1,1.428 0,0" />
    </g>
    <g
       transform="matrix(2.3279033,0,0,-2.3279033,477.27387,206.34279)"
       id="g1346">
      <path
         id="path1348"
         style="fill:#3f2322;fill-opacity:1;fill-rule:nonzero;stroke:none"
         d="M 0,0 C -0.043,-0.033 -0.092,-0.049 -0.133,-0.088 -0.994,-0.883 -1.215,-1.973 -1.25,-3.103 -1.33,-5.701 1.759,-6.754 3.782,-5.669 5.673,-4.656 5.596,-2.123 4.364,-0.655 3.383,0.514 1.101,1.427 0,0" />
    </g>
    <g
       transform="matrix(2.3279033,0,0,-2.3279033,483.67117,213.46059)"
       id="g1350">
      <path
         id="path1352"
         style="fill:#643e39;fill-opacity:1;fill-rule:nonzero;stroke:none"
         d="M 0,0 C -0.012,0.042 -0.039,0.076 -0.059,0.114 -0.149,0.468 -0.363,0.794 -0.743,0.967 -1.097,1.128 -1.475,1.125 -1.78,0.972 -1.796,0.965 -1.812,0.963 -1.826,0.956 -1.866,0.937 -1.895,0.902 -1.931,0.877 -1.972,0.846 -2.017,0.825 -2.053,0.786 -2.294,0.547 -2.413,0.184 -2.449,-0.149 c -0.055,-0.507 0.381,-0.943 0.84,-1.139 0.021,-0.01 0.042,-0.017 0.064,-0.025 0.098,-0.037 0.195,-0.067 0.288,-0.079 0.003,0 0.005,10e-4 0.008,0 0.14,-0.016 0.277,-0.007 0.411,0.023 0.067,0.015 0.125,0.041 0.185,0.066 0.07,0.029 0.135,0.062 0.198,0.102 0.024,0.017 0.049,0.033 0.071,0.053 C -0.062,-0.902 0.133,-0.5 0,0" />
    </g>
    <g
       transform="matrix(2.3279033,0,0,-2.3279033,482.34125,212.58321)"
       id="g1354">
      <path
         id="path1356"
         style="fill:#f6e1d0;fill-opacity:1;fill-rule:nonzero;stroke:none"
         d="M 0,0 C -1.003,0 -1.003,-1.555 0,-1.555 1.002,-1.555 1.002,0 0,0" />
    </g>
    <g
       transform="matrix(2.3279033,0,0,-2.3279033,487.31294,212.11482)"
       id="g1358">
      <path
         id="path1360"
         style="fill:#f6e1d0;fill-opacity:1;fill-rule:nonzero;stroke:none"
         d="M 0,0 C -0.711,0 -0.711,-1.102 0,-1.102 0.71,-1.102 0.71,0 0,0" />
    </g>
    <g
       transform="matrix(2.3279033,0,0,-2.3279033,485.57167,216.09996)"
       id="g1362">
      <path
         id="path1364"
         style="fill:#f6e1d0;fill-opacity:1;fill-rule:nonzero;stroke:none"
         d="M 0,0 C -0.569,0 -0.569,-0.883 0,-0.883 0.569,-0.883 0.569,0 0,0" />
    </g>
    <g
       transform="matrix(2.3279033,0,0,-2.3279033,545.29682,193.70529)"
       id="g1366">
      <path
         id="path1368"
         style="fill:#643e39;fill-opacity:1;fill-rule:nonzero;stroke:none"
         d="M 0,0 C -0.011,0.042 -0.039,0.076 -0.059,0.114 -0.148,0.468 -0.363,0.794 -0.742,0.967 -1.097,1.128 -1.475,1.125 -1.78,0.972 -1.795,0.965 -1.811,0.963 -1.825,0.956 -1.866,0.937 -1.895,0.902 -1.931,0.877 -1.971,0.846 -2.017,0.825 -2.052,0.786 -2.293,0.547 -2.412,0.184 -2.448,-0.149 c -0.055,-0.507 0.381,-0.943 0.839,-1.139 0.021,-0.01 0.043,-0.017 0.064,-0.025 0.098,-0.037 0.195,-0.067 0.289,-0.079 0.003,0 0.005,10e-4 0.008,0 0.139,-0.016 0.277,-0.007 0.41,0.023 0.067,0.015 0.125,0.041 0.185,0.066 0.07,0.029 0.135,0.062 0.199,0.102 0.023,0.017 0.048,0.033 0.07,0.053 C -0.062,-0.902 0.133,-0.5 0,0" />
    </g>
    <g
       transform="matrix(2.3279033,0,0,-2.3279033,543.9669,192.82767)"
       id="g1370">
      <path
         id="path1372"
         style="fill:#f6e1d0;fill-opacity:1;fill-rule:nonzero;stroke:none"
         d="M 0,0 C -1.002,0 -1.002,-1.555 0,-1.555 1.003,-1.555 1.003,0 0,0" />
    </g>
    <g
       transform="matrix(2.3279033,0,0,-2.3279033,548.93884,192.35954)"
       id="g1374">
      <path
         id="path1376"
         style="fill:#f6e1d0;fill-opacity:1;fill-rule:nonzero;stroke:none"
         d="M 0,0 C -0.71,0 -0.71,-1.102 0,-1.102 0.711,-1.102 0.711,0 0,0" />
    </g>
    <g
       transform="matrix(2.3279033,0,0,-2.3279033,547.19967,196.34467)"
       id="g1378">
      <path
         id="path1380"
         style="fill:#f6e1d0;fill-opacity:1;fill-rule:nonzero;stroke:none"
         d="M 0,0 C -0.569,0 -0.569,-0.883 0,-0.883 0.569,-0.883 0.569,0 0,0" />
    </g>
    <g
       transform="matrix(2.3279033,0,0,-2.3279033,514.07476,278.68961)"
       id="g1382">
      <path
         id="path1384"
         style="fill:#f38c6b;fill-opacity:1;fill-rule:nonzero;stroke:none"
         d="m 0,0 c -0.088,0.401 -0.269,0.809 -0.484,1.204 -0.375,1.25 -1.502,2.384 -2.584,2.976 -1.258,0.689 -2.676,0.909 -4.074,0.606 -1.307,-0.282 -2.241,-1.169 -2.982,-2.222 -0.45,-0.638 -0.685,-1.389 -0.758,-2.17 -0.035,-0.209 -0.063,-0.422 -0.089,-0.638 -0.104,-0.892 0.155,-1.741 0.566,-2.515 0.079,-0.206 0.163,-0.408 0.257,-0.597 0.923,-1.879 2.984,-3.14 5.074,-3.094 1.424,0.031 2.919,0.64 3.893,1.695 C 0.052,-3.421 0.38,-1.738 0,0" />
    </g>
    <g
       transform="matrix(2.3279033,0,0,-2.3279033,403.10151,1000.0213)"
       id="g1386">
      <path
         id="path1388"
         style="fill:#e66021;fill-opacity:1;fill-rule:nonzero;stroke:none"
         d="m 0,0 c -1.315,-1.09 -2.119,-2.923 -3.153,-4.26 -0.505,-0.651 -0.951,-1.359 -1.454,-2.008 0.09,0.586 0.178,1.172 0.258,1.758 0.223,1.625 0.597,3.409 0.336,5.036 -0.055,0.35 -0.59,0.315 -0.671,0 -0.735,-2.879 -0.942,-5.871 -1.529,-8.765 -0.1,-0.492 0.286,-0.855 0.769,-0.769 0.995,0.176 1.715,1.781 2.221,2.547 0.667,1.01 1.51,1.888 2.146,2.919 C -0.521,-2.64 0.145,-1.649 0.9,-0.9 1.494,-0.312 0.621,0.515 0,0" />
    </g>
    <g
       transform="matrix(2.3279033,0,0,-2.3279033,467.07114,984.33523)"
       id="g1390">
      <path
         id="path1392"
         style="fill:#e66021;fill-opacity:1;fill-rule:nonzero;stroke:none"
         d="M 0,0 C -1.057,-1.252 -1.531,-2.845 -2.25,-4.297 -2.64,-5.084 -3.032,-5.85 -3.519,-6.581 -3.53,-6.599 -3.551,-6.636 -3.57,-6.67 c 0.076,0.935 0.118,1.875 0.157,2.789 0.056,1.313 0.218,2.488 -0.107,3.748 -0.102,0.4 -0.703,0.4 -0.805,0 -0.71,-2.758 -0.345,-5.839 -0.897,-8.638 -0.079,-0.401 0.189,-0.927 0.668,-0.877 1.3,0.133 1.897,1.838 2.545,2.799 0.513,0.76 0.944,1.659 1.291,2.503 0.524,1.273 1.286,2.492 1.593,3.836 C 0.983,-0.035 0.359,0.426 0,0" />
    </g>
    <g
       transform="matrix(2.3279033,0,0,-2.3279033,265.56643,982.98043)"
       id="g1394">
      <path
         id="path1396"
         style="fill:#e66021;fill-opacity:1;fill-rule:nonzero;stroke:none"
         d="m 0,0 c -0.106,0.09 -0.199,0.167 -0.327,0.225 -0.269,0.122 -0.638,0.042 -0.712,-0.289 -0.285,-1.285 -0.333,-2.624 -0.482,-3.951 -0.146,-1.3 -0.08,-2.797 -0.145,-4.23 -0.695,2.447 -1.308,4.92 -2.283,7.281 -0.206,0.5 -0.928,0.323 -0.822,-0.226 0.656,-3.389 1.61,-6.881 2.679,-10.164 0.206,-0.632 1.065,-0.625 1.274,0 0.45,1.346 0.258,2.815 0.331,4.217 0.107,2.086 0.182,4.493 0.649,6.525 C 0.209,-0.406 0.173,-0.146 0,0" />
    </g>
    <g
       transform="matrix(2.3279033,0,0,-2.3279033,184.18083,992.67613)"
       id="g1398">
      <path
         id="path1400"
         style="fill:#e66021;fill-opacity:1;fill-rule:nonzero;stroke:none"
         d="m 0,0 c -0.729,-1.657 -1.593,-3.209 -2.569,-4.733 -0.497,-0.776 -1.022,-1.534 -1.52,-2.309 -0.016,-0.025 -0.032,-0.062 -0.048,-0.096 0.094,1.061 0.344,2.142 0.514,3.11 0.255,1.445 0.293,2.878 0.345,4.339 0.019,0.537 -0.764,0.615 -0.913,0.124 -0.518,-1.711 -0.587,-3.612 -0.94,-5.375 -0.277,-1.385 -0.529,-3.003 -0.29,-4.403 0.068,-0.399 0.51,-0.54 0.852,-0.483 1.248,0.207 1.835,2.344 2.432,3.254 1.225,1.864 2.762,3.879 3.301,6.082 C 1.329,0.184 0.301,0.683 0,0" />
    </g>
    <g
       transform="matrix(2.3279033,0,0,-2.3279033,259.70127,512.80309)"
       id="g1402">
      <path
         id="path1404"
         style="fill:#a03615;fill-opacity:1;fill-rule:nonzero;stroke:none"
         d="m 0,0 c -3.996,-2.884 -7.497,-6.49 -10.896,-10.002 -2.338,-2.414 -4.402,-5.141 -6.445,-7.805 -1.14,-1.488 -2.25,-3 -3.358,-4.512 -0.52,-0.708 -1.014,-1.434 -1.521,-2.152 0.238,-0.182 0.501,-0.309 0.792,-0.371 1.602,2.515 3.577,4.877 5.388,7.217 2.026,2.619 4.141,5.208 6.456,7.577 2.082,2.131 4.181,4.238 6.425,6.201 1.275,1.116 2.642,2.09 4.022,3.046 C 0.582,-0.527 0.294,-0.262 0,0" />
    </g>
    <g
       transform="matrix(2.3279033,0,0,-2.3279033,234.08083,517.48171)"
       id="g1406">
      <path
         id="path1408"
         style="fill:#a03615;fill-opacity:1;fill-rule:nonzero;stroke:none"
         d="M 0,0 C 1.103,2.07 2.347,4.151 3.336,6.314 2.969,6.419 2.603,6.521 2.23,6.608 -0.151,2.134 -2.209,-2.532 -4.795,-6.897 c -2.642,-4.46 -4.999,-9.209 -7.192,-13.941 0.009,-0.399 0.076,-0.756 0.231,-1.021 0.051,-0.087 0.114,-0.149 0.171,-0.223 2.565,4.888 4.726,9.991 7.586,14.72 C -2.561,-4.984 -1.307,-2.454 0,0" />
    </g>
    <g
       transform="matrix(2.3279033,0,0,-2.3279033,213.48891,570.44595)"
       id="g1410">
      <path
         id="path1412"
         style="fill:#a03615;fill-opacity:1;fill-rule:nonzero;stroke:none"
         d="m 0,0 c 0.766,0.192 1.574,0.561 2.34,0.979 3.469,2.842 6.692,6.004 10.378,8.61 2.634,1.862 5.383,3.565 8.105,5.296 1.52,0.967 3.103,1.849 4.674,2.749 -0.2,0.373 -0.399,0.747 -0.619,1.11 C 20.479,16.275 16.231,13.301 12.232,10.419 8.011,7.376 3.409,4.019 0,0" />
    </g>
    <g
       transform="matrix(2.3279033,0,0,-2.3279033,266.21661,519.52306)"
       id="g1414">
      <path
         id="path1416"
         style="fill:#a03615;fill-opacity:1;fill-rule:nonzero;stroke:none"
         d="m 0,0 c -3.76,-2.362 -7.257,-5.189 -10.659,-7.961 -2.551,-2.078 -4.879,-4.392 -7.162,-6.756 -2.144,-2.22 -4.585,-4.62 -6.26,-7.258 0.286,-0.043 0.586,-0.047 0.903,-0.004 1.74,2.403 3.998,4.461 5.939,6.68 1.939,2.219 4.282,4.207 6.532,6.106 2.727,2.298 5.589,4.546 8.549,6.533 0.929,0.624 1.897,1.189 2.872,1.742 C 0.48,-0.609 0.247,-0.3 0,0" />
    </g>
    <g
       transform="matrix(2.3279033,0,0,-2.3279033,227.98359,541.16977)"
       id="g1418">
      <path
         id="path1420"
         style="fill:#a03615;fill-opacity:1;fill-rule:nonzero;stroke:none"
         d="M 0,0 C 3.542,4.691 7.591,9.343 10.762,14.372 10.443,14.575 10.127,14.779 9.793,14.96 8.531,13.196 7.325,11.386 6.02,9.659 4.053,7.061 2.052,4.461 0.173,1.798 c -3.153,-4.469 -6.5,-8.849 -9.216,-13.604 0.143,-0.21 0.306,-0.376 0.486,-0.507 1.322,1.537 2.349,3.603 3.461,5.224 C -3.455,-4.697 -1.748,-2.315 0,0" />
    </g>
  </g>
</svg>
