<?xml version="1.0" encoding="UTF-8" standalone="no"?>
<svg
   xmlns:dc="http://purl.org/dc/elements/1.1/"
   xmlns:cc="http://creativecommons.org/ns#"
   xmlns:rdf="http://www.w3.org/1999/02/22-rdf-syntax-ns#"
   xmlns:svg="http://www.w3.org/2000/svg"
   xmlns="http://www.w3.org/2000/svg"
   version="1.1"
   id="svg8973"
   viewBox="0 0 657.88755 327.97963"
   height="92.563141mm"
   width="185.67049mm">
  <defs
     id="defs8975" />
  <metadata
     id="metadata8978">
    <rdf:RDF>
      <cc:Work
         rdf:about="">
        <dc:format>image/svg+xml</dc:format>
        <dc:type
           rdf:resource="http://purl.org/dc/dcmitype/StillImage" />
        <dc:title></dc:title>
      </cc:Work>
    </rdf:RDF>
  </metadata>
  <g
     transform="translate(-40.619473,-352.86364)"
     id="layer1">
    <g
       transform="matrix(3.1433571,0,0,-3.1433571,617.76281,488.41557)"
       id="g2298">
      <path
         id="path2300"
         style="fill:#3f2322;fill-opacity:1;fill-rule:nonzero;stroke:none"
         d="m 0,0 c -0.882,-0.18 -2.139,-1.316 -2.062,-2.291 0.014,-0.169 0.041,-0.367 0.08,-0.572 -0.019,-0.22 -0.013,-0.441 0.047,-0.659 0.578,-2.1 3.84,-2.817 4.855,-0.725 C 3.861,-2.304 2.277,0.463 0,0" />
    </g>
    <g
       transform="matrix(3.1433571,0,0,-3.1433571,620.10212,496.59461)"
       id="g2302">
      <path
         id="path2304"
         style="fill:#643e39;fill-opacity:1;fill-rule:nonzero;stroke:none"
         d="M 0,0 C -0.011,0.042 -0.039,0.076 -0.059,0.114 -0.148,0.468 -0.363,0.794 -0.742,0.967 -1.097,1.128 -1.475,1.125 -1.78,0.972 -1.795,0.965 -1.811,0.963 -1.825,0.956 -1.866,0.937 -1.895,0.902 -1.931,0.877 -1.971,0.846 -2.017,0.825 -2.052,0.786 -2.293,0.547 -2.412,0.184 -2.448,-0.149 c -0.055,-0.507 0.381,-0.943 0.839,-1.139 0.021,-0.01 0.043,-0.017 0.064,-0.025 0.098,-0.037 0.195,-0.067 0.289,-0.079 0.003,0 0.005,10e-4 0.008,0 0.139,-0.016 0.277,-0.007 0.41,0.023 0.067,0.015 0.125,0.041 0.185,0.066 0.07,0.029 0.135,0.062 0.199,0.102 0.023,0.017 0.048,0.033 0.07,0.053 C -0.062,-0.902 0.133,-0.5 0,0" />
    </g>
    <g
       transform="matrix(3.1433571,0,0,-3.1433571,618.30631,495.40987)"
       id="g2306">
      <path
         id="path2308"
         style="fill:#f6e1d0;fill-opacity:1;fill-rule:nonzero;stroke:none"
         d="M 0,0 C -1.002,0 -1.002,-1.555 0,-1.555 1.003,-1.555 1.003,0 0,0" />
    </g>
    <g
       transform="matrix(3.1433571,0,0,-3.1433571,625.01957,494.77742)"
       id="g2310">
      <path
         id="path2312"
         style="fill:#f6e1d0;fill-opacity:1;fill-rule:nonzero;stroke:none"
         d="M 0,0 C -0.71,0 -0.71,-1.102 0,-1.102 0.711,-1.102 0.711,0 0,0" />
    </g>
    <g
       transform="matrix(3.1433571,0,0,-3.1433571,622.67151,500.15855)"
       id="g2314">
      <path
         id="path2316"
         style="fill:#f6e1d0;fill-opacity:1;fill-rule:nonzero;stroke:none"
         d="M 0,0 C -0.569,0 -0.569,-0.883 0,-0.883 0.569,-0.883 0.569,0 0,0" />
    </g>
    <g
       transform="matrix(3.1433571,0,0,-3.1433571,639.88292,405.96375)"
       id="g2318">
      <path
         id="path2320"
         style="fill:#4c706c;fill-opacity:1;fill-rule:nonzero;stroke:none"
         d="m 0,0 c -6.983,-0.931 -7.711,-10.305 -13.279,-13.215 -1.718,-0.422 -3.069,-1.359 -2.852,-3.414 0.231,-2.181 3.484,-2.614 5.125,-2.609 6.226,0.018 13.692,2.705 16.555,8.585 C 7.727,-6.182 6.011,0.802 0,0" />
    </g>
    <g
       transform="matrix(3.1433571,0,0,-3.1433571,632.31315,425.94135)"
       id="g2322">
      <path
         id="path2324"
         style="fill:#f38c6b;fill-opacity:1;fill-rule:nonzero;stroke:none"
         d="m 0,0 c -3.666,-2.672 -5.976,-7.196 -10.449,-8.743 -0.325,-0.112 -0.411,-0.412 -0.331,-0.656 -0.117,-0.277 -0.078,-0.614 0.26,-0.805 1.235,-0.698 2.561,-0.207 3.878,0.053 1.899,0.374 3.959,0.972 5.719,1.784 3.172,1.464 6.557,3.394 6.854,7.225 C 6.242,2.891 1.822,1.329 0,0" />
    </g>
    <g
       transform="matrix(3.1433571,0,0,-3.1433571,249.02628,564.67436)"
       id="g2326">
      <path
         id="path2328"
         style="fill:#81b5b0;fill-opacity:1;fill-rule:nonzero;stroke:none"
         d="m 0,0 c -2.621,2.033 -5.062,4.159 -7.396,6.519 -1.022,1.034 -3.278,4.181 -5.139,3.782 -0.106,0.048 -0.228,0.058 -0.344,-0.009 -0.392,-0.228 -0.769,-0.479 -1.153,-0.719 -2.646,-1.403 -7.95,-5.111 -7.959,-5.274 -3.341,-2.038 -6.743,-3.969 -10.201,-5.8 -6.839,-3.621 -13.839,-6.789 -21.108,-9.435 -2.908,-1.059 -6.096,-1.859 -8.899,-3.134 -1.498,-0.68 -4.829,-1.929 -3.959,-4.11 0.76,-1.902 4.549,-0.846 5.912,-0.667 3.727,0.491 7.378,1.472 11.041,2.29 7.633,1.705 15.364,2.948 23.021,4.539 7.683,1.597 15.507,2.285 23.144,4.128 1.898,0.458 5.867,0.994 6.753,3.075 C 4.495,-2.977 1.103,-0.855 0,0" />
    </g>
    <g
       transform="matrix(3.1433571,0,0,-3.1433571,696.34078,572.63993)"
       id="g2330">
      <path
         id="path2332"
         style="fill:#81b5b0;fill-opacity:1;fill-rule:nonzero;stroke:none"
         d="m 0,0 c -1.035,2.397 -4.062,2.858 -6.264,3.582 -3.689,1.212 -7.114,3.379 -9.996,5.943 -5.468,4.866 -8.786,12.766 -11.342,19.419 -2.058,5.36 -3.022,12.76 -9.237,14.934 -3.682,1.289 -8.157,-0.019 -11.356,-2.03 -1.69,-1.061 -3.236,-2.257 -4.774,-3.52 -1.194,-0.981 -2.209,-2.201 -3.326,-3.268 -0.58,-0.554 -1.059,-1.278 -1.604,-1.915 -0.241,0.053 -0.509,-0.02 -0.691,-0.292 -0.213,-0.318 -0.399,-0.576 -0.564,-0.831 -0.103,-0.087 -0.166,-0.19 -0.183,-0.301 -0.174,-0.321 -0.301,-0.665 -0.348,-1.141 -0.107,-1.096 0.125,-2.403 0.123,-3.517 -0.005,-3.508 0.017,-7.027 0.984,-10.425 1.748,-6.141 7.186,-10.094 12.123,-13.613 11.329,-8.076 25.702,-14.243 39.851,-12.704 2.183,0.238 4.959,0.801 6.314,2.76 C 1.038,-5 0.894,-2.071 0,0" />
    </g>
    <g
       transform="matrix(3.1433571,0,0,-3.1433571,671.37495,572.42526)"
       id="g2334">
      <path
         id="path2336"
         style="fill:#f6e1d0;fill-opacity:1;fill-rule:nonzero;stroke:none"
         d="m 0,0 c -3.471,-0.619 -6.131,-0.029 -9.191,1.742 -2.821,1.632 -4.657,3.596 -6.538,6.24 -0.331,0.465 -1.128,0.47 -1.283,-0.167 -0.482,-1.999 -0.178,-5.57 1.155,-7.994 0.763,-1.512 1.984,-2.751 3.836,-3.432 4.494,-1.654 9.301,-1.06 12.802,2.268 C 1.409,-0.746 0.742,0.132 0,0" />
    </g>
    <g
       transform="matrix(3.1433571,0,0,-3.1433571,261.85747,567.24815)"
       id="g2338">
      <path
         id="path2340"
         style="fill:#4c706c;fill-opacity:1;fill-rule:nonzero;stroke:none"
         d="m 0,0 c -2.146,-0.271 -3.689,-1.893 -4.74,-3.786 -2.342,-2.487 -4.151,-5.935 -5.631,-8.817 -1.985,-3.865 -3.31,-8.34 -3.775,-12.644 -0.4,-3.706 0.542,-7.773 3.676,-10.065 2.559,-1.87 5.632,-0.345 6.578,2.37 1.493,4.286 0.809,9.115 1.958,13.52 1.292,4.951 3.948,9.383 5.577,14.202 C 4.593,-2.411 3.18,0.402 0,0" />
    </g>
    <g
       transform="matrix(3.1433571,0,0,-3.1433571,324.34396,638.60298)"
       id="g2342">
      <path
         id="path2344"
         style="fill:#4c706c;fill-opacity:1;fill-rule:nonzero;stroke:none"
         d="m 0,0 c -2.799,4.664 -2.223,10.177 -2.228,15.365 -0.003,3.414 -0.793,7.095 -3.89,8.954 -2.4,1.439 -5.561,-0.21 -5.814,-2.878 -10e-4,-0.015 0.005,-0.025 0.005,-0.04 -0.169,-0.881 -0.172,-1.823 -0.225,-2.674 -0.159,-2.491 0.043,-5.003 -0.069,-7.498 -0.197,-4.42 0.17,-8.805 1.183,-13.113 0.833,-3.543 2.282,-7.005 5.529,-8.927 2.714,-1.605 6.112,-0.29 7.907,2.127 C 4.859,-5.374 1.525,-2.542 0,0" />
    </g>
    <g
       transform="matrix(3.1433571,0,0,-3.1433571,487.23684,636.45104)"
       id="g2346">
      <path
         id="path2348"
         style="fill:#4c706c;fill-opacity:1;fill-rule:nonzero;stroke:none"
         d="m 0,0 c -0.989,1.613 -1.291,3.243 -1.46,5.114 -0.456,5.04 1.337,9.875 2.433,14.717 0.715,3.165 1.203,6.905 -1.897,8.849 -1.625,1.02 -3.51,0.269 -4.829,-1.027 -0.101,-10e-4 -0.198,-0.037 -0.269,-0.129 -2.317,-2.988 -3.968,-7.61 -4.773,-11.276 -1.062,-4.84 -1.643,-9.513 -1.193,-14.47 0.312,-3.447 0.911,-8.079 4.052,-10.159 2.846,-1.884 6.659,-1.318 8.205,1.883 0.627,1.297 1.066,2.776 0.694,4.225 C 0.742,-1.413 0.459,-0.75 0,0" />
    </g>
    <g
       transform="matrix(3.1433571,0,0,-3.1433571,559.61698,622.35655)"
       id="g2350">
      <path
         id="path2352"
         style="fill:#4c706c;fill-opacity:1;fill-rule:nonzero;stroke:none"
         d="m 0,0 c -0.602,0.652 -1.166,1.102 -1.926,1.544 -1.636,0.951 -2.675,2.243 -3.711,3.81 -2.792,4.221 -3.507,9.327 -4.839,14.11 -0.87,3.126 -2.215,6.65 -5.866,6.891 -1.914,0.127 -3.217,-1.428 -3.764,-3.195 -0.088,-0.048 -0.158,-0.126 -0.176,-0.241 -0.621,-3.73 0.116,-8.581 1.146,-12.19 1.361,-4.765 3.065,-9.155 5.813,-13.306 1.91,-2.886 4.634,-6.68 8.386,-7.021 3.399,-0.309 6.487,1.997 6.33,5.549 C 1.329,-2.61 1.015,-1.099 0,0" />
    </g>
    <g
       transform="matrix(3.1433571,0,0,-3.1433571,536.99018,443.53378)"
       id="g2354">
      <path
         id="path2356"
         style="fill:#9ed9d5;fill-opacity:1;fill-rule:nonzero;stroke:none"
         d="m 0,0 c -1.36,6.155 -5.612,12.234 -10.123,16.485 -10.136,9.553 -23.665,12.361 -37.171,12.36 -14.703,-10e-4 -28.951,-6.709 -40.832,-14.816 -11.96,-8.16 -22.3,-18.684 -27.874,-32.261 -2.154,-5.248 -3.676,-10.809 -3.392,-16.533 0.055,-1.096 0.227,-2.217 0.492,-3.314 0.081,-0.778 0.204,-1.562 0.395,-2.363 1.525,-6.387 7.034,-9.153 13.054,-9.894 2.856,-0.352 5.773,0.152 8.558,0.787 1.838,0.42 3.584,1.114 5.436,1.501 1.941,0.407 3.915,0.647 5.858,1.049 7.268,1.509 14.556,4.23 22.036,4.425 3.183,0.084 6.373,0.587 9.566,0.648 3.886,0.075 7.689,0.069 11.571,-0.208 7.285,-0.519 14.551,-0.586 21.833,0.056 5.813,0.512 12.966,2.693 17.355,6.683 4.374,3.978 4.539,9.924 4.744,15.463 C 1.754,-13.245 1.45,-6.561 0,0" />
    </g>
    <g
       transform="matrix(3.1433571,0,0,-3.1433571,561.55078,499.95138)"
       id="g2358">
      <path
         id="path2360"
         style="fill:#3f2322;fill-opacity:1;fill-rule:nonzero;stroke:none"
         d="m 0,0 c -0.882,-0.18 -2.139,-1.316 -2.062,-2.291 0.014,-0.169 0.041,-0.367 0.08,-0.572 -0.019,-0.22 -0.013,-0.441 0.047,-0.659 0.578,-2.1 3.84,-2.817 4.855,-0.725 C 3.861,-2.304 2.277,0.463 0,0" />
    </g>
    <g
       transform="matrix(3.1433571,0,0,-3.1433571,543.07763,459.18142)"
       id="g2362">
      <path
         id="path2364"
         style="fill:#4c706c;fill-opacity:1;fill-rule:nonzero;stroke:none"
         d="m 0,0 c -1.538,1.221 -3.241,2.181 -4.749,3.464 -1.892,1.608 -3.103,4.084 -4.239,6.245 -1.723,3.278 -3.633,7.291 -7.385,8.586 -2.85,0.985 -5.869,-1.293 -6.703,-3.962 -1.061,-3.398 0.094,-7.555 2.11,-10.367 2.447,-3.412 6.237,-5.357 9.984,-6.997 2.552,-1.118 6.567,-2.196 9.551,-1.498 0.301,0.024 0.603,0.042 0.896,0.083 C 2.399,-4.041 1.801,-1.429 0,0" />
    </g>
    <g
       transform="matrix(3.1433571,0,0,-3.1433571,513.59917,445.18216)"
       id="g2366">
      <path
         id="path2368"
         style="fill:#f38c6b;fill-opacity:1;fill-rule:nonzero;stroke:none"
         d="m 0,0 c -1.649,2.006 -3.091,4.258 -4.636,6.349 -1.191,1.613 -4.187,3.459 -5.374,0.691 -1.734,-4.047 1.555,-7.524 4.79,-9.632 1.46,-0.951 3.165,-1.87 4.831,-2.386 C 0.75,-5.332 2.783,-6.287 4.172,-5.969 4.29,-5.987 4.413,-6.015 4.53,-6.028 5.273,-6.112 5.704,-5.256 5.148,-4.729 3.411,-3.085 1.558,-1.895 0,0" />
    </g>
    <g
       transform="matrix(3.1433571,0,0,-3.1433571,587.48978,541.45502)"
       id="g2370">
      <path
         id="path2372"
         style="fill:#f38c6b;fill-opacity:1;fill-rule:nonzero;stroke:none"
         d="m 0,0 c -1.055,2.205 -3.382,3.585 -5.731,3.901 -2.623,0.351 -4.566,-1.869 -5.241,-4.162 -0.667,-2.268 0.118,-4.824 2.2,-5.987 0.172,-0.15 0.35,-0.296 0.543,-0.419 1.88,-1.191 4.132,-0.96 6.067,-0.073 C 0.419,-5.557 1.154,-2.413 0,0" />
    </g>
    <g
       transform="matrix(3.1433571,0,0,-3.1433571,251.72454,661.46746)"
       id="g2374">
      <path
         id="path2376"
         style="fill:#81b5b0;fill-opacity:1;fill-rule:nonzero;stroke:none"
         d="m 0,0 c -1.355,0.903 -2.895,-0.09 -3.82,-1.23 -1.132,0.983 -2.814,0.518 -3.425,-0.879 -0.982,0.399 -1.877,0.617 -2.706,0.133 0.162,-0.35 0.354,-0.683 0.558,-1.01 0.59,0.294 1.933,-0.564 2.269,-0.718 0.508,-0.232 1.035,0.045 1.076,0.617 0.062,0.876 1.097,1.377 1.64,0.23 0.229,-0.484 1.023,-0.468 1.257,0 0.306,0.613 1.803,2.928 2.854,1.19 0.135,0.539 0.246,1.085 0.335,1.636 C 0.025,-0.021 0.014,-0.009 0,0" />
    </g>
    <g
       transform="matrix(3.1433571,0,0,-3.1433571,329.87249,646.52583)"
       id="g2378">
      <path
         id="path2380"
         style="fill:#81b5b0;fill-opacity:1;fill-rule:nonzero;stroke:none"
         d="m 0,0 c -0.193,-0.029 -0.392,-0.078 -0.595,-0.162 -1.53,-0.637 -1.829,-1.901 -2.002,-3.314 -0.882,0.42 -1.864,0.656 -2.749,0.055 -1.056,-0.718 -1.075,-1.423 -1.007,-2.338 -1.063,0.413 -2.153,0.267 -3.073,-0.773 0.352,-0.383 0.74,-0.736 1.159,-1.063 0.225,0.802 0.829,1.181 2.186,0.038 0.478,-0.402 1.215,-0.152 1.237,0.513 0.041,0.264 0.039,0.526 -0.007,0.787 -0.194,1.403 1.509,1.545 2.487,0.956 0.532,-0.321 1.053,0.111 1.121,0.643 0.073,0.579 0.111,1.161 0.194,1.739 0.188,1.304 1.617,0.899 2.443,0.148 C 1.16,-1.807 0.615,-0.885 0,0" />
    </g>
    <g
       transform="matrix(3.1433571,0,0,-3.1433571,489.40416,640.8791)"
       id="g2382">
      <path
         id="path2384"
         style="fill:#81b5b0;fill-opacity:1;fill-rule:nonzero;stroke:none"
         d="m 0,0 c -0.164,0.439 -0.363,0.854 -0.619,1.285 -1.244,-0.406 -1.736,-1.459 -2.084,-2.804 -1.161,0.585 -2.573,0.792 -3.61,-0.245 -0.659,-0.658 -0.608,-1.397 -0.871,-2.214 -0.016,-0.049 -0.035,-0.102 -0.053,-0.156 -0.701,0.334 -1.524,0.474 -2.083,0.047 -0.476,-0.364 -0.79,-0.777 -0.994,-1.223 0.335,-0.469 0.718,-0.899 1.164,-1.269 0.227,1.197 0.828,2.209 2.06,0.626 0.217,-0.277 0.77,-0.273 0.986,0 0.312,0.392 0.612,0.938 0.315,1.445 -0.139,0.237 -0.048,0.072 0.082,0.449 0.652,1.884 1.951,1.668 2.965,0.863 0.403,-0.321 1.098,-0.269 1.232,0.325 C -1.419,-2.467 -1.075,0.013 0,0" />
    </g>
    <g
       transform="matrix(3.1433571,0,0,-3.1433571,560.73729,623.74717)"
       id="g2386">
      <path
         id="path2388"
         style="fill:#81b5b0;fill-opacity:1;fill-rule:nonzero;stroke:none"
         d="m 0,0 c -0.108,0.153 -0.227,0.301 -0.356,0.442 -0.401,0.434 -0.79,0.776 -1.226,1.088 -0.691,-0.723 -0.836,-1.697 -0.773,-2.739 -1,0.339 -2.132,0.568 -2.834,-0.318 -0.444,-0.56 -0.689,-0.875 -0.748,-1.626 -0.046,-0.603 0.105,-1.151 0.227,-1.692 -1.227,0.315 -2.528,0.253 -3.264,-1.003 -0.3,-0.512 -0.399,-0.999 -0.39,-1.473 0.493,-0.406 1.012,-0.765 1.559,-1.056 -0.527,1.24 0.333,1.84 2.602,1.792 0.53,-0.245 1.087,0.049 1.128,0.648 0.037,0.545 -0.115,0.924 -0.325,1.432 -0.257,0.922 0.166,1.566 1.267,1.931 0.5,-0.126 0.992,-0.369 1.483,-0.532 0.616,-0.207 1.043,0.416 0.955,0.955 -0.053,0.381 -0.106,0.762 -0.159,1.143 C -0.56,-0.54 -0.275,-0.21 0,0" />
    </g>
    <g
       transform="matrix(3.1433571,0,0,-3.1433571,563.67826,507.84059)"
       id="g2390">
      <path
         id="path2392"
         style="fill:#643e39;fill-opacity:1;fill-rule:nonzero;stroke:none"
         d="M 0,0 C -0.012,0.042 -0.039,0.076 -0.059,0.114 -0.149,0.468 -0.363,0.794 -0.743,0.967 -1.097,1.128 -1.475,1.125 -1.78,0.972 -1.796,0.965 -1.812,0.963 -1.826,0.956 -1.866,0.937 -1.895,0.902 -1.931,0.877 -1.972,0.846 -2.017,0.825 -2.053,0.786 -2.294,0.547 -2.413,0.184 -2.449,-0.149 c -0.055,-0.507 0.381,-0.943 0.84,-1.139 0.021,-0.01 0.042,-0.017 0.064,-0.025 0.098,-0.037 0.195,-0.067 0.288,-0.079 0.003,0 0.005,10e-4 0.008,0 0.14,-0.016 0.277,-0.007 0.411,0.023 0.067,0.015 0.125,0.041 0.185,0.066 0.07,0.029 0.135,0.062 0.198,0.102 0.024,0.017 0.049,0.033 0.071,0.053 C -0.062,-0.902 0.133,-0.5 0,0" />
    </g>
    <g
       transform="matrix(3.1433571,0,0,-3.1433571,561.88244,506.65554)"
       id="g2394">
      <path
         id="path2396"
         style="fill:#f6e1d0;fill-opacity:1;fill-rule:nonzero;stroke:none"
         d="M 0,0 C -1.003,0 -1.003,-1.555 0,-1.555 1.002,-1.555 1.002,0 0,0" />
    </g>
    <g
       transform="matrix(3.1433571,0,0,-3.1433571,568.5957,506.02342)"
       id="g2398">
      <path
         id="path2400"
         style="fill:#f6e1d0;fill-opacity:1;fill-rule:nonzero;stroke:none"
         d="M 0,0 C -0.711,0 -0.711,-1.102 0,-1.102 0.71,-1.102 0.71,0 0,0" />
    </g>
    <g
       transform="matrix(3.1433571,0,0,-3.1433571,566.24448,511.40452)"
       id="g2402">
      <path
         id="path2404"
         style="fill:#f6e1d0;fill-opacity:1;fill-rule:nonzero;stroke:none"
         d="M 0,0 C -0.569,0 -0.569,-0.883 0,-0.883 0.569,-0.883 0.569,0 0,0" />
    </g>
    <g
       transform="matrix(3.1433571,0,0,-3.1433571,158.01636,589.74579)"
       id="g2406">
      <path
         id="path2408"
         style="fill:#9ed9d5;fill-opacity:1;fill-rule:nonzero;stroke:none"
         d="M 0,0 C -0.812,2.44 -1.06,4.958 -1.42,7.473 -1.906,7.209 -2.387,6.935 -2.875,6.675 -2.926,2.742 -1.705,-1.291 0.598,-4.472 1.23,-4.346 1.865,-4.226 2.498,-4.095 1.484,-2.926 0.565,-1.7 0,0" />
    </g>
    <g
       transform="matrix(3.1433571,0,0,-3.1433571,143.54276,591.1826)"
       id="g2410">
      <path
         id="path2412"
         style="fill:#9ed9d5;fill-opacity:1;fill-rule:nonzero;stroke:none"
         d="M 0,0 C -0.683,1.706 -0.979,3.803 -0.902,5.776 -1.41,5.516 -1.918,5.254 -2.428,5 c 0.01,-1.402 0.282,-2.86 0.476,-3.88 0.418,-2.195 1.459,-4.27 2.916,-5.969 0.642,0.122 1.282,0.251 1.924,0.375 C 1.797,-3.092 0.711,-1.775 0,0" />
    </g>
    <g
       transform="matrix(3.1433571,0,0,-3.1433571,125.88903,580.34179)"
       id="g2414">
      <path
         id="path2416"
         style="fill:#9ed9d5;fill-opacity:1;fill-rule:nonzero;stroke:none"
         d="m 0,0 c -0.522,-0.248 -1.046,-0.494 -1.571,-0.737 -0.039,-1.996 0.439,-4.22 0.812,-5.502 0.253,-0.866 0.708,-2.069 1.333,-3.194 0.691,0.131 1.381,0.265 2.072,0.394 C 0.847,-6.345 -0.213,-3.293 0,0" />
    </g>
    <g
       transform="matrix(3.1433571,0,0,-3.1433571,114.14419,602.41603)"
       id="g2418">
      <path
         id="path2420"
         style="fill:#9ed9d5;fill-opacity:1;fill-rule:nonzero;stroke:none"
         d="M 0,0 C -0.839,1.815 -0.848,3.364 -0.616,5.021 -1.165,4.778 -1.72,4.549 -2.271,4.313 c -0.312,-2.576 0.496,-5.423 2,-7.604 0.637,0.126 1.277,0.245 1.916,0.369 C 1.069,-1.966 0.472,-1.019 0,0" />
    </g>
    <g
       transform="matrix(3.1433571,0,0,-3.1433571,102.86332,614.93255)"
       id="g2422">
      <path
         id="path2424"
         style="fill:#9ed9d5;fill-opacity:1;fill-rule:nonzero;stroke:none"
         d="M 0,0 C -0.795,1.075 -1.354,2.185 -1.68,3.678 -1.921,4.788 -1.777,5.916 -1.687,7.023 -2.184,6.822 -2.688,6.641 -3.187,6.445 -3.423,4.094 -3.138,1.472 -1.9,-0.399 -1.269,-0.261 -0.634,-0.133 0,0" />
    </g>
    <g
       transform="matrix(3.1433571,0,0,-3.1433571,82.713767,609.16481)"
       id="g2426">
      <path
         id="path2428"
         style="fill:#9ed9d5;fill-opacity:1;fill-rule:nonzero;stroke:none"
         d="M 0,0 C -0.204,1.142 -0.066,2.258 0.015,3.374 -0.121,3.324 -0.255,3.268 -0.391,3.218 -0.748,3.088 -1.118,2.97 -1.482,2.846 -1.716,0.757 -1.657,-1.703 -0.775,-3.437 -0.13,-3.289 0.517,-3.142 1.162,-2.99 0.582,-2.136 0.218,-1.218 0,0" />
    </g>
    <g
       transform="matrix(3.1433571,0,0,-3.1433571,67.383941,617.70753)"
       id="g2430">
      <path
         id="path2432"
         style="fill:#9ed9d5;fill-opacity:1;fill-rule:nonzero;stroke:none"
         d="M 0,0 C -0.538,1.526 -0.156,2.974 -0.005,4.449 -0.548,4.272 -1.084,4.084 -1.619,3.896 -1.681,3.598 -1.731,3.292 -1.743,2.956 -1.783,1.755 -1.809,0.761 -1.524,-0.42 c 0.085,-0.355 0.204,-0.836 0.364,-1.345 0.6,0.097 1.201,0.189 1.798,0.305 C 0.4,-0.968 0.168,-0.479 0,0" />
    </g>
    <g
       transform="matrix(3.1433571,0,0,-3.1433571,53.512006,608.90077)"
       id="g2434">
      <path
         id="path2436"
         style="fill:#9ed9d5;fill-opacity:1;fill-rule:nonzero;stroke:none"
         d="m 0,0 c -0.394,-0.179 -0.914,-0.398 -1.451,-0.662 -0.055,-0.568 -0.046,-1.133 -0.017,-1.591 0.071,-1.103 0.426,-2.1 1.061,-2.903 0.576,0.067 1.13,0.167 1.597,0.251 -0.589,0.936 -1.075,1.901 -1.179,3.044 -0.058,0.625 -0.019,1.257 0.049,1.885 C 0.04,0.016 0.019,0.009 0,0" />
    </g>
    <g
       transform="matrix(3.1433571,0,0,-3.1433571,295.4675,554.64547)"
       id="g2438">
      <path
         id="path2440"
         style="fill:#4c706c;fill-opacity:1;fill-rule:nonzero;stroke:none"
         d="m 0,0 c -4.864,4.097 -9.218,8.481 -12.728,13.829 -3.571,5.442 -6.409,11.374 -8.417,17.554 -0.917,2.826 -1.478,5.791 -1.715,8.756 -0.414,-0.389 -0.828,-0.778 -1.234,-1.175 0.259,-2.693 0.861,-5.365 1.62,-7.947 1.87,-6.355 4.935,-12.351 8.446,-17.949 3.443,-5.489 7.972,-10.052 12.925,-14.17 2.992,-2.487 6.063,-4.721 9.358,-6.601 0.887,0.137 1.776,0.249 2.669,0.331 C 10.02,-6.921 9.119,-6.464 8.233,-5.979 5.229,-4.333 2.61,-2.199 0,0" />
    </g>
    <g
       transform="matrix(3.1433571,0,0,-3.1433571,411.90376,435.76278)"
       id="g2442">
      <path
         id="path2444"
         style="fill:#4c706c;fill-opacity:1;fill-rule:nonzero;stroke:none"
         d="M 0,0 C 0.635,3.655 1.351,7.238 2.564,10.75 4.229,15.565 6.381,20.282 9.089,24.627 8.637,24.732 8.186,24.84 7.73,24.935 7.463,24.489 7.195,24.048 6.922,23.635 4.879,20.547 3.486,17.092 2.092,13.679 -0.782,6.646 -1.936,-0.984 -2.79,-8.497 c -0.817,-7.193 -0.57,-14.762 0.098,-21.963 0.353,-3.821 0.997,-7.526 1.648,-11.299 0.172,-0.998 0.367,-1.997 0.599,-2.986 0.582,-0.033 1.164,-0.063 1.746,-0.09 -2.872,10.854 -2.806,22.219 -2.804,33.437 0,3.773 0.859,7.692 1.503,11.398" />
    </g>
    <g
       transform="matrix(3.1433571,0,0,-3.1433571,348.16495,536.43918)"
       id="g2446">
      <path
         id="path2448"
         style="fill:#4c706c;fill-opacity:1;fill-rule:nonzero;stroke:none"
         d="m 0,0 c -3.397,6.581 -5.562,13.708 -7.306,20.89 -1.662,6.845 -2.797,14.458 -2.14,21.505 0.365,3.909 1.039,7.691 1.904,11.518 0.047,0.208 0.116,0.408 0.175,0.611 -0.561,-0.206 -1.12,-0.413 -1.677,-0.633 -0.84,-2.816 -1.357,-5.899 -1.633,-8.711 -0.752,-7.672 -0.103,-15.301 1.445,-22.844 1.57,-7.657 3.984,-15.364 7.476,-22.36 1.652,-3.309 3.631,-6.333 5.716,-9.376 0.648,-0.947 1.352,-1.971 2.116,-2.97 0.797,0.016 1.589,0.025 2.38,0.032 -1.083,1.233 -2.212,2.441 -3.139,3.731 C 3.346,-5.864 1.551,-3.004 0,0" />
    </g>
    <g
       transform="matrix(3.1433571,0,0,-3.1433571,340.93271,565.85909)"
       id="g2450">
      <path
         id="path2452"
         style="fill:#4c706c;fill-opacity:1;fill-rule:nonzero;stroke:none"
         d="m 0,0 c -2.188,2.535 -4.443,4.801 -6.352,7.583 -3.773,5.504 -7.502,11 -10.404,17.041 -1.447,3.014 -2.352,6.188 -3.326,9.365 -1.167,3.809 -2.347,7.82 -2.797,11.782 -0.334,2.943 -0.39,6.02 -0.096,9.008 -0.507,-0.326 -1.009,-0.656 -1.509,-0.988 -0.097,-1.422 -0.125,-2.855 -0.111,-4.307 0.075,-7.841 2.664,-15.844 5.421,-23.115 2.659,-7.011 7.147,-13.513 11.486,-19.567 1.907,-2.661 3.898,-4.998 6.159,-7.37 0.907,-0.952 1.831,-1.978 2.808,-2.955 0.784,0.059 1.569,0.13 2.353,0.201 C 2.364,-2.273 1.069,-1.238 0,0" />
    </g>
    <g
       transform="matrix(3.1433571,0,0,-3.1433571,380.8018,539.42755)"
       id="g2454">
      <path
         id="path2456"
         style="fill:#4c706c;fill-opacity:1;fill-rule:nonzero;stroke:none"
         d="m 0,0 c -2.304,7.572 -4.902,15.099 -5.041,23.113 -0.063,3.627 -0.453,7.212 -0.307,10.845 0.168,4.148 0.571,8.364 1.326,12.445 0.808,4.371 2.242,8.685 3.927,12.879 -0.476,-0.025 -0.95,-0.067 -1.425,-0.104 -0.046,-0.114 -0.093,-0.228 -0.14,-0.341 -1.486,-3.617 -2.734,-7.341 -3.604,-11.154 -1.765,-7.735 -1.797,-15.809 -1.36,-23.68 0.436,-7.868 2.15,-15.212 4.587,-22.693 1.432,-4.396 2.885,-8.652 4.765,-12.734 0.531,-0.013 1.061,-0.021 1.593,-0.042 -0.181,0.419 -0.353,0.842 -0.504,1.277 C 2.63,-6.765 1.064,-3.497 0,0" />
    </g>
    <g
       transform="matrix(3.1433571,0,0,-3.1433571,391.86485,524.05151)"
       id="g2458">
      <path
         id="path2460"
         style="fill:#4c706c;fill-opacity:1;fill-rule:nonzero;stroke:none"
         d="m 0,0 c -0.844,6.4 -1.635,12.867 -1.748,19.333 -0.11,6.352 0.469,12.544 1.355,18.828 0.451,3.196 1.457,6.256 2.621,9.255 0.973,2.51 2.431,4.573 3.791,6.754 -0.54,0.045 -1.082,0.084 -1.624,0.118 -6.726,-9.716 -7.586,-22.56 -7.575,-34.099 0.007,-7.039 0.949,-14.069 1.867,-21.03 0.472,-3.587 1.467,-7.092 2.344,-10.593 0.389,-1.549 0.716,-3.316 1.206,-5.002 0.501,-0.027 1.001,-0.046 1.505,-0.083 -0.581,1.814 -0.918,3.789 -1.339,5.463 C 1.483,-7.398 0.493,-3.748 0,0" />
    </g>
    <g
       transform="matrix(3.1433571,0,0,-3.1433571,342.63641,458.41097)"
       id="g2462">
      <path
         id="path2464"
         style="fill:#4c706c;fill-opacity:1;fill-rule:nonzero;stroke:none"
         d="m 0,0 c -0.243,2.66 -0.252,5.368 -0.256,8.04 -0.003,2.959 -0.347,6.108 0.162,9.046 0.548,3.164 0.743,6.284 1.595,9.415 0.528,1.944 1.133,3.865 1.683,5.798 -0.519,-0.113 -1.035,-0.236 -1.55,-0.363 -0.416,-1.409 -0.76,-2.847 -1.17,-4.192 -1.09,-3.579 -1.341,-7.154 -1.98,-10.785 -0.468,-2.67 -0.142,-5.583 -0.145,-8.273 -0.004,-3.076 0.01,-6.169 0.288,-9.23 1.194,-13.148 5.073,-25.897 12.749,-36.613 0.598,10e-4 1.193,0 1.789,-0.006 -3.157,4.461 -5.612,9.137 -7.919,14.204 C 1.961,-15.744 0.714,-7.831 0,0" />
    </g>
    <g
       transform="matrix(3.1433571,0,0,-3.1433571,347.82702,561.77335)"
       id="g2466">
      <path
         id="path2468"
         style="fill:#4c706c;fill-opacity:1;fill-rule:nonzero;stroke:none"
         d="m 0,0 c -1.713,2.311 -3.396,4.598 -4.897,7.059 -3.436,5.633 -5.871,11.825 -8.077,18.025 -2.17,6.098 -4.199,12.422 -4.343,18.956 -0.071,3.189 -0.306,6.284 -0.121,9.478 0.095,1.675 0.378,3.273 0.704,4.859 -0.503,-0.261 -1.006,-0.524 -1.504,-0.794 -2.123,-10.941 0.009,-22.51 3.806,-32.901 2.313,-6.327 4.732,-12.604 8.229,-18.386 2.144,-3.545 4.731,-7.803 7.963,-10.891 0.76,0.068 1.52,0.13 2.28,0.182 C 2.63,-3.014 1.224,-1.65 0,0" />
    </g>
    <g
       transform="matrix(3.1433571,0,0,-3.1433571,304.68885,545.46406)"
       id="g2470">
      <path
         id="path2472"
         style="fill:#4c706c;fill-opacity:1;fill-rule:nonzero;stroke:none"
         d="m 0,0 c -3.647,4.178 -6.981,8.421 -10.002,13.085 -3.038,4.69 -4.933,9.91 -6.52,15.226 -0.775,2.594 -1.365,5.26 -1.922,7.908 -0.405,1.917 -0.878,4.214 -0.996,6.428 -0.454,-0.353 -0.91,-0.704 -1.357,-1.065 0.125,-4.063 1.469,-8.478 2.343,-11.931 1.486,-5.871 3.673,-11.392 6.722,-16.622 2.847,-4.885 6.371,-9.219 10.084,-13.449 2.246,-2.56 4.601,-4.978 7.178,-7.209 0.978,-0.846 1.949,-1.766 2.967,-2.621 0.612,0.049 1.227,0.087 1.842,0.104 0.239,0.006 0.478,0.027 0.718,0.038 C 7.192,-6.917 3.35,-3.836 0,0" />
    </g>
  </g>
</svg>
