<?xml version="1.0" encoding="UTF-8" standalone="no"?>
<svg
   xmlns:dc="http://purl.org/dc/elements/1.1/"
   xmlns:cc="http://creativecommons.org/ns#"
   xmlns:rdf="http://www.w3.org/1999/02/22-rdf-syntax-ns#"
   xmlns:svg="http://www.w3.org/2000/svg"
   xmlns="http://www.w3.org/2000/svg"
   version="1.1"
   id="svg8149"
   viewBox="0 0 667.23339 681.88592"
   height="192.44336mm"
   width="188.30809mm">
  <defs
     id="defs8151" />
  <metadata
     id="metadata8154">
    <rdf:RDF>
      <cc:Work
         rdf:about="">
        <dc:format>image/svg+xml</dc:format>
        <dc:type
           rdf:resource="http://purl.org/dc/dcmitype/StillImage" />
        <dc:title></dc:title>
      </cc:Work>
    </rdf:RDF>
  </metadata>
  <g
     transform="translate(-44.928587,-167.13353)"
     id="layer1">
    <g
       transform="matrix(5.7747714,0,0,-5.7747714,241.54437,316.93091)"
       id="g1922">
      <path
         id="path1924"
         style="fill:#36443b;fill-opacity:1;fill-rule:nonzero;stroke:none"
         d="m 0,0 c 1.699,1.433 0.095,2.444 -1.008,3.542 -1.098,1.094 -3.047,2.28 -4.459,1.013 -0.684,-0.615 -0.45,-1.932 -0.318,-2.712 0.177,-1.037 0.119,-2.01 0.618,-2.967 0.153,-0.294 0.415,-0.348 0.646,-0.268 0.057,-0.035 0.122,-0.062 0.196,-0.072 0.241,-0.035 0.468,-0.085 0.692,0.047 0.335,0.196 0.678,0.031 1.058,0.313 0.267,0.199 1.015,0.336 1.355,0.464 0.429,0.16 0.867,0.343 1.22,0.64" />
    </g>
    <g
       transform="matrix(5.7747714,0,0,-5.7747714,257.95507,306.46989)"
       id="g1926">
      <path
         id="path1928"
         style="fill:#36443b;fill-opacity:1;fill-rule:nonzero;stroke:none"
         d="M 0,0 C 0.113,-0.261 0.574,-0.261 0.687,0 0.717,0.068 0.723,0.136 0.743,0.204 2.175,0.215 4.472,1.279 5.229,2.532 5.591,3.131 5.671,3.816 5.2,4.391 4.573,5.156 3.817,5.903 3.097,6.59 2.563,7.099 1.967,7.526 1.211,7.552 0.316,7.582 -0.077,6.466 -0.305,5.8 -0.668,4.738 -0.477,3.433 -0.457,2.334 -0.443,1.524 -0.325,0.745 0,0" />
    </g>
    <g
       transform="matrix(5.7747714,0,0,-5.7747714,337.189,275.19313)"
       id="g1930">
      <path
         id="path1932"
         style="fill:#36443b;fill-opacity:1;fill-rule:nonzero;stroke:none"
         d="M 0,0 C 1.154,1.62 -0.917,2.964 -2.126,3.799 -3.392,4.674 -4.44,4.467 -4.858,2.936 -5.291,1.347 -5.787,-0.542 -5.526,-2.181 c 0.063,-0.392 0.613,-0.458 0.854,-0.207 0.245,-0.048 0.481,0.061 0.635,0.241 0.541,0.153 1.113,0.408 1.559,0.652 C -1.617,-1.023 -0.603,-0.846 0,0" />
    </g>
    <g
       transform="matrix(5.7747714,0,0,-5.7747714,360.61494,272.79373)"
       id="g1934">
      <path
         id="path1936"
         style="fill:#36443b;fill-opacity:1;fill-rule:nonzero;stroke:none"
         d="M 0,0 C 0.022,-0.002 0.047,0.001 0.069,0.001 L 0.066,-0.021 C 1.015,-0.065 1.834,0.328 2.762,0.459 3.413,0.551 4.326,0.937 4.81,1.398 6.189,2.711 4.455,4.195 3.264,4.826 2.25,5.363 1.003,6.252 -0.054,5.371 -0.543,4.963 -0.613,4.112 -0.713,3.536 -0.897,2.48 -1.028,1.444 -0.851,0.375 -0.785,-0.017 -0.325,-0.137 0,0" />
    </g>
    <g
       transform="matrix(5.7747714,0,0,-5.7747714,410.56902,257.55873)"
       id="g1938">
      <path
         id="path1940"
         style="fill:#36443b;fill-opacity:1;fill-rule:nonzero;stroke:none"
         d="M 0,0 C 0.138,-0.018 0.286,0.005 0.441,0.118 0.99,0.516 1.897,0.763 2.535,1.026 3.228,1.311 4.065,1.586 4.619,2.108 6.161,3.563 4.111,4.603 2.944,5.183 2.206,5.549 1.776,5.78 0.937,5.817 0.277,5.846 -0.147,5.455 -0.365,4.869 -0.652,4.098 -0.695,3.248 -0.779,2.435 -0.864,1.621 -1.138,0.914 -0.903,0.098 -0.776,-0.343 -0.212,-0.357 0,0" />
    </g>
    <g
       transform="matrix(5.7747714,0,0,-5.7747714,469.49539,205.47893)"
       id="g1942">
      <path
         id="path1944"
         style="fill:#36443b;fill-opacity:1;fill-rule:nonzero;stroke:none"
         d="m 0,0 c -0.523,0.05 -0.933,0.448 -1.455,0.545 -0.698,0.13 -1.3,-0.301 -1.378,-0.996 -0.07,-0.62 0.013,-1.307 0.258,-1.884 0.096,-0.226 0.089,-0.683 0.171,-0.957 0.109,-0.362 0.27,-0.639 0.429,-0.965 0.108,-0.22 0.288,-0.302 0.471,-0.299 0.318,-0.251 0.8,-0.278 1.033,0.186 0.252,0.501 0.914,0.951 1.321,1.319 0.46,0.418 1.005,0.968 1.158,1.593 C 2.301,-0.255 0.812,-0.078 0,0" />
    </g>
    <g
       transform="matrix(5.7747714,0,0,-5.7747714,170.33507,356.80455)"
       id="g1946">
      <path
         id="path1948"
         style="fill:#36443b;fill-opacity:1;fill-rule:nonzero;stroke:none"
         d="M 0,0 C 0.028,-0.275 0.189,-0.532 0.496,-0.597 0.548,-0.608 0.601,-0.62 0.652,-0.63 1.086,-0.722 1.403,-0.504 1.564,-0.113 1.506,-0.255 2.234,0.302 2.377,0.411 2.825,0.753 3.311,1.038 3.819,1.279 4.675,1.685 5.605,2.083 6.104,2.929 7.043,4.524 4.1,5.78 3.18,6.341 2.225,6.924 0.226,8.397 -0.408,6.562 -1.104,4.545 -0.562,2.11 -0.045,0.096 -0.035,0.058 -0.015,0.032 0,0" />
    </g>
    <g
       transform="matrix(5.7747714,0,0,-5.7747714,137.09086,396.23525)"
       id="g1950">
      <path
         id="path1952"
         style="fill:#36443b;fill-opacity:1;fill-rule:nonzero;stroke:none"
         d="M 0,0 C -0.014,-0.084 -0.043,-0.159 -0.042,-0.254 -0.03,-1.024 0.978,-1.088 1.231,-0.427 1.133,-0.684 1.744,0.032 1.768,0.061 2.163,0.525 2.535,1.009 2.916,1.484 3.538,2.263 5.037,3.332 5.225,4.367 5.348,5.044 5.103,5.523 4.421,5.738 3.114,6.15 1.825,6.616 0.51,6.999 -0.033,7.157 -1.117,7.427 -1.58,6.933 -2.119,6.356 -1.983,5.646 -1.947,4.913 -1.875,3.459 -1.391,0.94 0,0" />
    </g>
    <g
       transform="matrix(5.7747714,0,0,-5.7747714,99.177183,427.19555)"
       id="g1954">
      <path
         id="path1956"
         style="fill:#36443b;fill-opacity:1;fill-rule:nonzero;stroke:none"
         d="m 0,0 c 0.588,-0.862 1.59,-1.515 2.058,-2.418 0.159,-0.308 0.495,-0.371 0.803,-0.327 0.053,0.007 0.107,0.015 0.16,0.022 0.432,0.062 0.576,0.568 0.442,0.938 0.097,0.182 0.199,0.36 0.327,0.531 0.119,0.159 0.144,0.325 0.11,0.477 0.265,0.508 0.556,0.996 0.881,1.512 C 5.249,1.477 5.693,2.212 5.585,3.113 5.38,4.812 2.568,4.531 1.433,4.761 -0.162,5.084 -1.545,4.533 -1.272,2.737 -1.126,1.774 -0.534,0.783 0,0" />
    </g>
    <g
       transform="matrix(5.7747714,0,0,-5.7747714,84.587803,477.69648)"
       id="g1958">
      <path
         id="path1960"
         style="fill:#36443b;fill-opacity:1;fill-rule:nonzero;stroke:none"
         d="m 0,0 c 0.521,-0.515 1.099,-1.471 1.854,-1.621 0.019,-0.004 0.034,10e-4 0.052,-0.001 0.196,-0.093 0.429,-0.115 0.664,0.005 0.042,0.022 0.085,0.044 0.128,0.066 0.129,0.067 0.207,0.18 0.259,0.307 0.131,0.176 0.219,0.381 0.201,0.617 -0.04,0.509 0.243,1.014 0.369,1.512 C 3.782,1.9 4.258,2.977 4.097,4.033 3.952,4.972 2.87,5.112 2.128,5.113 0.976,5.114 -0.341,5.307 -1.474,5.081 -2.071,4.961 -3.222,4.562 -3.131,3.739 -3.051,3.015 -2.598,2.519 -2.092,2.026 -1.396,1.349 -0.69,0.683 0,0" />
    </g>
    <g
       transform="matrix(5.7747714,0,0,-5.7747714,69.068073,524.63382)"
       id="g1962">
      <path
         id="path1964"
         style="fill:#36443b;fill-opacity:1;fill-rule:nonzero;stroke:none"
         d="m 0,0 c 0.728,-0.58 1.644,-1.573 2.557,-1.774 0.359,-0.079 0.662,0.19 0.751,0.491 0.018,0.022 0.028,0.048 0.044,0.072 0.007,0.014 0.012,0.03 0.02,0.045 0.042,0.081 0.064,0.173 0.065,0.277 0.001,0.014 0.008,0.022 0.008,0.036 C 3.488,0.982 4.458,2.656 4.652,4.48 4.882,6.633 1.109,5.099 0.333,4.886 -0.917,4.543 -2.862,3.824 -1.953,2.163 -1.472,1.285 -0.777,0.62 0,0" />
    </g>
    <g
       transform="matrix(5.7747714,0,0,-5.7747714,63.727613,577.22407)"
       id="g1966">
      <path
         id="path1968"
         style="fill:#36443b;fill-opacity:1;fill-rule:nonzero;stroke:none"
         d="m 0,0 c 0.604,-0.354 1.208,-0.835 1.864,-1.134 0.192,-0.277 0.601,-0.379 0.919,-0.264 0.01,0 0.019,-0.003 0.028,-0.004 0.612,-0.051 0.794,0.694 0.474,1.084 C 3.413,0.36 3.548,1.021 3.551,1.733 3.555,2.737 3.899,3.684 3.883,4.698 3.85,6.726 0.808,5.54 -0.214,5.091 -1.513,4.521 -4.263,3.684 -2.873,1.904 -2.643,1.608 -2.028,1.355 -1.725,1.125 -1.173,0.708 -0.595,0.35 0,0" />
    </g>
    <g
       transform="matrix(5.7747714,0,0,-5.7747714,81.937183,636.07707)"
       id="g1970">
      <path
         id="path1972"
         style="fill:#36443b;fill-opacity:1;fill-rule:nonzero;stroke:none"
         d="M 0,0 C 0.144,-0.041 0.3,-0.033 0.445,0.062 0.453,0.067 0.461,0.073 0.47,0.078 0.539,0.123 0.595,0.174 0.639,0.229 0.788,0.344 0.892,0.523 0.884,0.778 0.832,2.48 0.832,4.384 0.376,6.039 -0.216,8.191 -2.394,6.39 -3.297,5.513 -4.156,4.677 -6.373,3.122 -5.112,1.821 -4.529,1.219 -3.581,1.025 -2.841,0.703 -2.044,0.356 -0.907,-0.017 0,0" />
    </g>
    <g
       transform="matrix(5.7747714,0,0,-5.7747714,95.398723,681.66603)"
       id="g1974">
      <path
         id="path1976"
         style="fill:#36443b;fill-opacity:1;fill-rule:nonzero;stroke:none"
         d="M 0,0 C 0.661,0.662 0.182,1.729 0.018,2.487 -0.166,3.338 -0.282,4.171 -0.407,5.029 -0.535,5.902 -1.381,7.86 -2.547,6.777 -3.314,6.064 -4.013,5.175 -4.692,4.374 -5.054,3.949 -5.433,3.537 -5.8,3.116 -5.929,2.97 -6.053,2.818 -6.17,2.662 -6.197,2.625 -6.539,2.177 -6.637,1.988 -6.753,1.762 -7.017,1.278 -6.82,0.979 -6.656,0.728 -6.226,0.495 -5.841,0.478 -4.631,0.424 -3.477,0.05 -2.31,-0.246 -1.577,-0.432 -0.6,-0.6 0,0" />
    </g>
    <g
       transform="matrix(5.7747714,0,0,-5.7747714,121.83623,726.65787)"
       id="g1978">
      <path
         id="path1980"
         style="fill:#36443b;fill-opacity:1;fill-rule:nonzero;stroke:none"
         d="M 0,0 C 0.399,0.739 -0.235,1.956 -0.722,2.509 -1.408,3.29 -1.831,4.247 -2.328,5.146 -2.717,5.85 -3.638,6.643 -4.476,6.151 -5.279,5.681 -5.555,4.407 -5.788,3.585 -5.956,2.999 -6.091,2.403 -6.253,1.815 -6.331,1.533 -6.524,0.532 -6.519,0.551 c -0.2,-0.681 0.131,-0.922 0.136,-0.926 0.61,-0.445 1.624,-0.415 2.274,-0.52 0.127,-0.034 0.254,-0.034 0.38,0 0.026,0.007 0.034,0.012 0.053,0.018 0.022,-0.006 0.033,-0.012 0.066,-0.019 0.483,-0.109 1.045,0.104 1.525,0.139 C -1.272,-0.698 -0.438,-0.81 0,0" />
    </g>
    <g
       transform="matrix(5.7747714,0,0,-5.7747714,142.65714,749.66627)"
       id="g1982">
      <path
         id="path1984"
         style="fill:#36443b;fill-opacity:1;fill-rule:nonzero;stroke:none"
         d="M 0,0 C -0.399,0.515 -0.829,1.002 -1.107,1.597 -1.257,1.916 -1.612,2.426 -1.997,2.484 -2.819,2.61 -3.228,2.248 -3.486,1.485 -3.871,0.352 -4.65,-2.122 -4.61,-2.229 -4.626,-2.324 -4.639,-2.416 -4.647,-2.5 c -0.142,-1.383 3.68,-0.957 4.623,-0.93 0.735,0.022 1.547,0.067 1.547,1.045 C 1.523,-1.49 0.502,-0.648 0,0" />
    </g>
    <g
       transform="matrix(5.7747714,0,0,-5.7747714,171.99875,777.60983)"
       id="g1986">
      <path
         id="path1988"
         style="fill:#36443b;fill-opacity:1;fill-rule:nonzero;stroke:none"
         d="m 0,0 c -0.547,0.437 -1.575,1.426 -2.36,1.349 -1.019,-0.101 -1.002,-1.066 -1.105,-1.895 -0.11,-0.897 -0.286,-2.025 -0.128,-2.978 -0.007,-0.134 0.002,-0.264 0.033,-0.378 0.23,-0.844 0.973,-0.628 1.638,-0.535 0.682,0.094 5.121,0.999 4.017,2.459 C 1.521,-1.219 0.741,-0.592 0,0" />
    </g>
    <g
       transform="matrix(5.7747714,0,0,-5.7747714,216.44893,807.64553)"
       id="g1990">
      <path
         id="path1992"
         style="fill:#36443b;fill-opacity:1;fill-rule:nonzero;stroke:none"
         d="m 0,0 c -0.383,0.335 -0.864,0.507 -1.254,0.83 -0.549,0.455 -1.511,1.376 -2.308,0.92 -0.799,-0.459 -0.664,-1.551 -0.612,-2.345 0.06,-0.932 0.101,-2.057 0.445,-2.932 0.023,-0.056 0.052,-0.099 0.083,-0.142 0.223,-0.46 0.661,-0.706 1.401,-0.423 0.776,0.297 4.581,1.847 3.211,3.167 C 0.645,-0.615 0.336,-0.294 0,0" />
    </g>
    <g
       transform="matrix(5.7747714,0,0,-5.7747714,260.80841,821.24225)"
       id="g1994">
      <path
         id="path1996"
         style="fill:#36443b;fill-opacity:1;fill-rule:nonzero;stroke:none"
         d="M 0,0 C -0.529,0.19 -1.05,0.406 -1.583,0.586 -2.063,0.749 -2.545,0.99 -3.052,1.051 -3.439,1.098 -3.806,1.04 -4.192,1.042 -4.546,1.043 -4.787,0.809 -4.906,0.498 c -0.275,-0.715 0.372,-1.769 0.698,-2.353 0.297,-0.532 0.616,-1.527 1.206,-1.888 0.003,-0.003 0.004,-0.005 0.007,-0.008 0.17,-0.149 0.417,-0.252 0.644,-0.17 0.81,0.291 1.544,0.998 2.246,1.49 0.547,0.385 1.403,1.109 0.954,1.875 C 0.663,-0.238 0.327,-0.117 0,0" />
    </g>
    <g
       transform="matrix(5.7747714,0,0,-5.7747714,303.00868,822.7789)"
       id="g1998">
      <path
         id="path2000"
         style="fill:#36443b;fill-opacity:1;fill-rule:nonzero;stroke:none"
         d="m 0,0 c -0.894,0.113 -1.781,0.156 -2.68,0.195 -0.707,0.03 -1.465,0.082 -1.88,-0.627 -0.397,-0.678 0.213,-1.614 0.557,-2.179 0.407,-0.672 1.058,-1.657 1.832,-1.914 0.093,-0.031 0.186,-0.021 0.272,0.008 0.616,-0.01 1.176,0.86 1.552,1.215 0.576,0.545 1.543,1.215 1.762,2.008 C 1.664,-0.387 0.66,-0.083 0,0" />
    </g>
    <g
       transform="matrix(5.7747714,0,0,-5.7747714,346.10465,817.71733)"
       id="g2002">
      <path
         id="path2004"
         style="fill:#36443b;fill-opacity:1;fill-rule:nonzero;stroke:none"
         d="m 0,0 c -0.735,0.246 -1.743,-0.041 -2.467,-0.214 -0.615,-0.147 -1.709,-0.445 -2.054,-1.036 -0.384,-0.655 0.218,-1.26 0.654,-1.687 0.59,-0.576 1.349,-1.502 2.206,-1.62 0.011,-0.002 0.02,0.004 0.032,0.003 0.466,-0.169 0.846,0.176 1.094,0.574 0.288,0.464 0.506,1.042 0.649,1.568 0.158,0.579 0.477,1.106 0.403,1.733 C 0.478,-0.349 0.327,-0.109 0,0" />
    </g>
    <g
       transform="matrix(5.7747714,0,0,-5.7747714,378.24993,803.41613)"
       id="g2006">
      <path
         id="path2008"
         style="fill:#36443b;fill-opacity:1;fill-rule:nonzero;stroke:none"
         d="m 0,0 c -0.547,0.012 -1.095,-0.436 -1.544,-0.691 -0.467,-0.267 -1.098,-0.328 -1.483,-0.739 -0.349,-0.371 -0.503,-0.972 -0.064,-1.359 0.437,-0.384 0.907,-0.707 1.44,-0.943 0.502,-0.224 1.159,-0.563 1.681,-0.275 0.032,0.018 0.05,0.047 0.075,0.071 0.914,0.372 0.82,2.157 0.812,2.912 C 0.911,-0.434 0.616,-0.014 0,0" />
    </g>
    <g
       transform="matrix(5.7747714,0,0,-5.7747714,408.39826,796.09021)"
       id="g2010">
      <path
         id="path2012"
         style="fill:#36443b;fill-opacity:1;fill-rule:nonzero;stroke:none"
         d="M 0,0 C -0.008,0.522 0.004,1.075 -0.117,1.586 -0.214,1.993 -0.665,2.337 -1.083,2.224 -1.501,2.111 -1.872,1.742 -2.18,1.45 -2.849,0.816 -4.057,-0.287 -3.191,-1.197 c 0.347,-0.366 0.884,-0.566 1.333,-0.773 0.474,-0.219 0.95,-0.367 1.433,-0.177 0.031,0.007 0.061,0.017 0.091,0.03 0.014,0.006 0.026,0.006 0.04,0.013 0.015,0.008 0.018,0.021 0.031,0.03 0.041,0.024 0.084,0.039 0.123,0.075 0.015,0.014 0.03,0.027 0.044,0.04 0.163,0.145 0.224,0.409 0.163,0.614 C -0.049,-0.953 0.007,-0.406 0,0" />
    </g>
    <g
       transform="matrix(5.7747714,0,0,-5.7747714,428.81268,775.27794)"
       id="g2014">
      <path
         id="path2016"
         style="fill:#36443b;fill-opacity:1;fill-rule:nonzero;stroke:none"
         d="M 0,0 C -0.072,0.271 -0.176,0.531 -0.284,0.789 -0.457,1.199 -0.604,1.6 -0.832,1.983 -1.02,2.299 -1.326,2.611 -1.726,2.563 -2.137,2.513 -2.38,2.206 -2.59,1.875 -2.979,1.262 -4.126,-0.006 -3.4,-0.731 c 0.296,-0.296 0.853,-0.356 1.239,-0.451 0.545,-0.134 1.172,-0.274 1.715,-0.076 0.019,0.008 0.025,0.024 0.044,0.032 0.383,0.086 0.712,0.527 0.448,0.925 C 0.165,-0.481 0.023,-0.087 0,0" />
    </g>
    <g
       transform="matrix(5.7747714,0,0,-5.7747714,436.55027,734.31291)"
       id="g2018">
      <path
         id="path2020"
         style="fill:#36443b;fill-opacity:1;fill-rule:nonzero;stroke:none"
         d="m 0,0 c -0.793,0.889 -1.513,-0.492 -1.817,-1.062 -0.292,-0.543 -1.223,-2.201 -0.128,-2.487 0.874,-0.228 1.778,-0.301 2.631,-0.019 0.221,0.073 0.349,0.27 0.377,0.475 0.106,0.179 0.14,0.401 0.014,0.636 C 0.655,-1.667 0.611,-0.685 0,0" />
    </g>
    <g
       transform="matrix(5.7747714,0,0,-5.7747714,442.91121,716.77146)"
       id="g2022">
      <path
         id="path2024"
         style="fill:#36443b;fill-opacity:1;fill-rule:nonzero;stroke:none"
         d="m 0,0 c -0.399,0.337 -1.104,1.008 -1.626,0.485 -0.416,-0.416 -0.353,-1.161 -0.46,-1.69 -0.041,-0.205 -0.017,-0.473 0.163,-0.615 0.258,-0.204 0.615,-0.318 0.966,-0.313 0.094,-0.103 0.226,-0.166 0.396,-0.143 0.543,0.07 1.322,0.171 1.618,0.692 C 1.46,-0.873 0.418,-0.354 0,0" />
    </g>
    <g
       transform="matrix(5.7747714,0,0,-5.7747714,443.63305,694.63672)"
       id="g2026">
      <path
         id="path2028"
         style="fill:#36443b;fill-opacity:1;fill-rule:nonzero;stroke:none"
         d="m 0,0 c -0.399,0.337 -1.104,1.008 -1.626,0.485 -0.416,-0.416 -0.353,-1.161 -0.46,-1.69 -0.041,-0.205 -0.017,-0.473 0.163,-0.615 0.258,-0.204 0.615,-0.318 0.966,-0.313 0.094,-0.103 0.226,-0.166 0.396,-0.143 0.543,0.07 1.322,0.171 1.618,0.692 C 1.46,-0.873 0.418,-0.354 0,0" />
    </g>
    <g
       transform="matrix(5.7747714,0,0,-5.7747714,432.79958,672.10763)"
       id="g2030">
      <path
         id="path2032"
         style="fill:#36443b;fill-opacity:1;fill-rule:nonzero;stroke:none"
         d="m 0,0 c -0.416,-0.416 -0.353,-1.161 -0.46,-1.69 -0.041,-0.205 -0.017,-0.473 0.163,-0.615 0.258,-0.204 0.615,-0.318 0.966,-0.313 0.094,-0.103 0.226,-0.166 0.396,-0.143 0.543,0.071 1.322,0.171 1.618,0.692 0.403,0.711 -0.639,1.231 -1.057,1.584 C 1.227,-0.148 0.522,0.523 0,0" />
    </g>
    <g
       transform="matrix(5.7747714,0,0,-5.7747714,693.13254,197.49649)"
       id="g2034">
      <path
         id="path2036"
         style="fill:#f6e1d0;fill-opacity:1;fill-rule:nonzero;stroke:none"
         d="m 0,0 c -2.609,2.25 -7.507,1.81 -9.547,-0.889 -2.983,-2.01 -4.199,-6.189 -2.694,-9.7 1.893,-4.42 8.539,-5.404 12.227,-2.987 C 4.861,-10.38 3.906,-3.368 0,0" />
    </g>
    <g
       transform="matrix(5.7747714,0,0,-5.7747714,662.45414,252.17609)"
       id="g2038">
      <path
         id="path2040"
         style="fill:#3f2322;fill-opacity:1;fill-rule:nonzero;stroke:none"
         d="M 0,0 C 0.773,-0.176 1.582,0.173 2.038,0.806 3.033,2.187 2.312,4.007 0.831,4.679 -0.243,5.166 -2.13,4.833 -1.809,3.411 -2.048,2.8 -2.02,2.075 -1.73,1.501 -1.385,0.813 -0.769,0.175 0,0" />
    </g>
    <g
       transform="matrix(5.7747714,0,0,-5.7747714,665.70824,236.70141)"
       id="g2042">
      <path
         id="path2044"
         style="fill:#643e39;fill-opacity:1;fill-rule:nonzero;stroke:none"
         d="M 0,0 C -0.011,0.042 -0.039,0.076 -0.059,0.114 -0.149,0.468 -0.363,0.794 -0.743,0.967 -1.097,1.128 -1.475,1.125 -1.78,0.972 -1.796,0.965 -1.812,0.963 -1.825,0.956 -1.866,0.937 -1.895,0.902 -1.931,0.877 -1.972,0.846 -2.017,0.825 -2.052,0.786 -2.294,0.547 -2.413,0.184 -2.448,-0.149 c -0.055,-0.507 0.381,-0.943 0.839,-1.139 0.021,-0.01 0.042,-0.017 0.064,-0.025 0.098,-0.037 0.195,-0.067 0.288,-0.079 0.004,0 0.006,10e-4 0.008,0 0.14,-0.016 0.277,-0.007 0.411,0.023 0.067,0.015 0.125,0.041 0.185,0.066 0.07,0.029 0.135,0.062 0.199,0.102 0.023,0.017 0.048,0.033 0.07,0.053 C -0.062,-0.902 0.133,-0.5 0,0" />
    </g>
    <g
       transform="matrix(5.7747714,0,0,-5.7747714,662.40904,234.52492)"
       id="g2046">
      <path
         id="path2048"
         style="fill:#f6e1d0;fill-opacity:1;fill-rule:nonzero;stroke:none"
         d="M 0,0 C -1.002,0 -1.002,-1.555 0,-1.555 1.002,-1.555 1.002,0 0,0" />
    </g>
    <g
       transform="matrix(5.7747714,0,0,-5.7747714,674.74224,233.36299)"
       id="g2050">
      <path
         id="path2052"
         style="fill:#f6e1d0;fill-opacity:1;fill-rule:nonzero;stroke:none"
         d="M 0,0 C -0.71,0 -0.71,-1.102 0,-1.102 0.71,-1.102 0.71,0 0,0" />
    </g>
    <g
       transform="matrix(5.7747714,0,0,-5.7747714,670.42844,243.24885)"
       id="g2054">
      <path
         id="path2056"
         style="fill:#f6e1d0;fill-opacity:1;fill-rule:nonzero;stroke:none"
         d="M 0,0 C -0.57,0 -0.57,-0.883 0,-0.883 0.568,-0.883 0.568,0 0,0" />
    </g>
    <g
       transform="matrix(5.7747714,0,0,-5.7747714,282.55444,500.26022)"
       id="g2058">
      <path
         id="path2060"
         style="fill:#36443b;fill-opacity:1;fill-rule:nonzero;stroke:none"
         d="M 0,0 C -0.448,0.175 -1.369,0.259 -1.825,0.174 -1.968,0.147 -2.325,0.013 -2.681,-0.097 -2.198,0.589 -1.937,1.351 -3.088,1.9 -3.625,2.158 -4.123,2.39 -4.691,1.975 -4.907,1.818 -5.511,1.09 -5.647,1.472 -5.98,2.402 -6.326,3.327 -6.576,4.285 -6.949,5.72 -7.816,8.14 -9.305,8.748 c -1.467,0.598 -2.009,-2.504 -2.199,-3.265 -0.1,-0.402 0.175,-0.797 0.581,-0.846 -0.012,-0.091 -10e-4,-0.24 0.074,-0.502 0.232,-0.809 0.621,-1.639 0.94,-2.419 0.679,-1.656 1.413,-3.218 1.906,-4.944 0.194,-0.68 0.709,-1.977 1.389,-2.316 1.255,-0.626 3.662,-0.074 4.55,-1.088 0.844,-0.966 2.892,-1.324 3.346,0.327 0.363,1.319 -0.258,2.204 -1.181,2.822 1.115,-0.121 2.225,0.048 1.958,1.419 C 1.829,-0.886 1.066,-0.416 0,0" />
    </g>
    <g
       transform="matrix(5.7747714,0,0,-5.7747714,331.09833,464.43008)"
       id="g2062">
      <path
         id="path2064"
         style="fill:#36443b;fill-opacity:1;fill-rule:nonzero;stroke:none"
         d="M 0,0 C -0.448,0.175 -1.369,0.259 -1.825,0.174 -1.968,0.147 -2.325,0.013 -2.681,-0.097 -2.198,0.589 -1.937,1.351 -3.088,1.9 -3.625,2.158 -4.123,2.39 -4.691,1.975 -4.907,1.818 -5.511,1.09 -5.647,1.472 -5.98,2.402 -6.326,3.327 -6.576,4.285 -6.949,5.72 -7.816,8.14 -9.305,8.748 c -1.467,0.598 -2.009,-2.504 -2.199,-3.265 -0.1,-0.402 0.175,-0.797 0.581,-0.846 -0.012,-0.091 -10e-4,-0.24 0.074,-0.502 0.232,-0.809 0.621,-1.639 0.94,-2.419 0.679,-1.656 1.413,-3.218 1.906,-4.944 0.194,-0.68 0.709,-1.977 1.389,-2.316 1.255,-0.626 3.662,-0.074 4.55,-1.088 0.844,-0.966 2.892,-1.324 3.346,0.327 0.363,1.319 -0.258,2.204 -1.181,2.822 1.115,-0.121 2.225,0.048 1.958,1.419 C 1.829,-0.886 1.066,-0.416 0,0" />
    </g>
    <g
       transform="matrix(5.7747714,0,0,-5.7747714,449.5545,459.43896)"
       id="g2066">
      <path
         id="path2068"
         style="fill:#36443b;fill-opacity:1;fill-rule:nonzero;stroke:none"
         d="m 0,0 c -0.363,0.315 -1.203,0.703 -1.661,0.774 -0.144,0.023 -0.526,0.017 -0.898,0.032 0.685,0.485 1.186,1.115 0.286,2.018 -0.42,0.423 -0.812,0.808 -1.487,0.607 -0.256,-0.076 -1.068,-0.56 -1.069,-0.154 -0.002,0.988 -0.019,1.975 0.066,2.961 0.129,1.478 0.121,4.049 -1.078,5.119 -1.182,1.055 -3.266,-3.15 -2.9,-3.333 -0.041,-0.081 -0.081,-0.225 -0.098,-0.497 -0.053,-0.84 0.036,-1.753 0.075,-2.593 0.086,-1.789 0.255,-3.506 0.143,-5.298 -0.045,-0.705 0.006,-2.1 0.533,-2.647 0.973,-1.01 3.426,-1.295 3.924,-2.548 0.473,-1.192 2.282,-2.215 3.263,-0.811 0.783,1.121 0.495,2.163 -0.169,3.054 1.009,-0.488 2.113,-0.7 2.319,0.682 C 1.428,-1.447 0.866,-0.749 0,0" />
    </g>
    <g
       transform="matrix(5.7747714,0,0,-5.7747714,514.7799,439.28963)"
       id="g2070">
      <path
         id="path2072"
         style="fill:#36443b;fill-opacity:1;fill-rule:nonzero;stroke:none"
         d="M 0,0 C -0.398,1.133 -1.221,1.487 -2.337,1.743 -2.806,1.852 -3.729,1.801 -4.167,1.649 -4.305,1.603 -4.64,1.418 -4.975,1.257 -4.598,2.006 -4.449,2.798 -5.668,3.174 -6.237,3.351 -6.764,3.508 -7.266,3.015 -7.456,2.828 -7.947,2.02 -8.139,2.378 c -0.464,0.872 -0.94,1.736 -1.327,2.647 -0.578,1.367 -1.789,3.634 -3.349,4.018 -1.539,0.379 -1.412,-4.312 -1.003,-4.302 0.002,-0.091 0.034,-0.237 0.147,-0.485 0.346,-0.767 0.852,-1.532 1.28,-2.256 0.913,-1.541 1.867,-2.979 2.607,-4.615 0.29,-0.644 0.988,-1.853 1.71,-2.089 1.333,-0.437 3.634,0.459 4.66,-0.415 0.976,-0.832 3.054,-0.888 3.263,0.811 0.168,1.358 -0.576,2.143 -1.579,2.62 C -0.609,-1.646 0.465,-1.317 0,0" />
    </g>
    <g
       transform="matrix(5.7747714,0,0,-5.7747714,705.79894,349.74085)"
       id="g2074">
      <path
         id="path2076"
         style="fill:#5b7866;fill-opacity:1;fill-rule:nonzero;stroke:none"
         d="m 0,0 c -1.633,3.762 -3.102,7.602 -4.664,11.395 -2.585,6.278 -5.649,12.799 -11.139,17.064 -5.071,3.939 -11.029,4.081 -16.628,1.079 -6.239,-3.347 -11.444,-7.987 -18.043,-10.757 -7.113,-2.987 -14.888,-4.24 -22.161,-6.834 -6.139,-2.19 -12.145,-4.92 -17.319,-8.944 -5.37,-4.175 -10.657,-9.761 -13.721,-15.879 -1.122,-2.242 -2.063,-4.548 -2.849,-6.901 -1.268,-3.328 -2.106,-6.825 -2.693,-10.486 -1.118,-6.978 -1.384,-14.078 -0.314,-21.086 0.995,-6.518 3.617,-12.631 7.972,-17.596 2.175,-2.479 4.441,-4.797 7.006,-6.881 2.547,-2.07 5.398,-3.445 8.239,-5.011 2.689,-1.484 5.832,-1.723 8.751,-2.448 3.537,-0.879 7.035,-0.97 10.655,-0.607 6.723,0.675 12.326,3.706 16.677,8.81 4.294,5.04 5.915,11.48 5.289,17.991 -0.524,5.434 -3.429,12.102 -8.702,14.466 -3.296,1.478 -7.436,0.598 -10.502,-1.023 -3.532,-1.866 -5.286,-5.506 -5.701,-9.324 -0.609,-5.613 7.536,-12.239 11.37,-6.324 0.265,0.255 0.523,0.555 0.793,0.92 0.388,0.522 -0.147,1.176 -0.691,1.205 -0.828,0.043 -3.161,2.113 -1.714,2.999 1.243,0.761 2.472,0.833 3.751,0.189 2.187,-1.1 2.609,-3.952 2.176,-6.106 -0.723,-3.592 -3.96,-7.04 -6.971,-8.831 -3.558,-2.116 -8.142,-2.218 -11.996,-1.014 -4.047,1.267 -6.981,4.111 -8.874,7.874 -6.391,12.706 -5.489,29.346 2.669,41.064 4.546,6.529 12.742,9.296 20.279,10.106 6.316,0.679 12.577,0.929 18.932,1.167 7.38,0.277 14.771,-0.529 22.123,-10e-4 3.271,0.236 6.488,0.624 9.704,1.269 2.983,0.598 6.155,1.378 8.494,3.41 C 1.642,-3.792 0.59,-1.36 0,0" />
    </g>
    <g
       transform="matrix(5.7747714,0,0,-5.7747714,568.46744,210.00751)"
       id="g2078">
      <path
         id="path2080"
         style="fill:#f6e1d0;fill-opacity:1;fill-rule:nonzero;stroke:none"
         d="m 0,0 c -2.609,2.25 -7.507,1.81 -9.547,-0.889 -2.983,-2.01 -4.199,-6.189 -2.694,-9.7 1.893,-4.42 8.539,-5.404 12.227,-2.987 C 4.861,-10.38 3.906,-3.368 0,0" />
    </g>
    <g
       transform="matrix(5.7747714,0,0,-5.7747714,616.43614,359.12772)"
       id="g2082">
      <path
         id="path2084"
         style="fill:#f6e1d0;fill-opacity:1;fill-rule:nonzero;stroke:none"
         d="M 0,0 C -0.531,0.223 -1.17,0.123 -1.733,0.121 -2.998,0.115 -4.414,1.208 -5.294,2.022 -6.791,3.408 -6.299,5.659 -7.562,6.991 -7.72,7.157 -8.033,7.266 -8.256,7.174 -8.783,6.956 -9.169,6.583 -9.473,6.138 c -0.923,-0.42 -1.534,-2.079 -1.729,-2.827 -0.534,-2.05 0.409,-4.378 1.889,-5.78 1.368,-1.296 3.726,-1.535 5.501,-1.273 1.561,0.231 4.262,1.049 4.405,2.964 C 0.621,-0.391 0.317,-0.133 0,0" />
    </g>
    <g
       transform="matrix(5.7747714,0,0,-5.7747714,414.32493,241.28658)"
       id="g2086">
      <path
         id="path2088"
         style="fill:#7e9988;fill-opacity:1;fill-rule:nonzero;stroke:none"
         d="m 0,0 c -0.612,-0.257 -1.235,-0.486 -1.857,-0.72 -0.031,-0.45 -0.067,-0.897 -0.068,-1.362 -0.006,-2.735 0.162,-6.344 1.363,-8.849 0.717,-1.498 2.197,-5.066 4.411,-5.004 2.514,0.07 2.959,1.94 2.89,4.141 C 6.642,-8.637 5.716,-5.562 5.557,-2.387 5.466,-0.585 5.822,1.279 5.938,3.116 4.046,1.96 2.097,0.88 0,0" />
    </g>
    <g
       transform="matrix(5.7747714,0,0,-5.7747714,345.49599,323.97151)"
       id="g2090">
      <path
         id="path2092"
         style="fill:#7e9988;fill-opacity:1;fill-rule:nonzero;stroke:none"
         d="m 0,0 c 1.138,-1.775 2.385,-2.892 4.492,-3.165 1.907,-0.247 2.8,1.575 2.779,3.157 C 7.232,2.74 5.43,5.609 4.727,8.232 4.422,9.369 4.357,10.543 4.354,11.723 1.839,10.993 -0.702,10.33 -3.23,9.635 -2.809,6.181 -1.795,2.801 0,0" />
    </g>
    <g
       transform="matrix(5.7747714,0,0,-5.7747714,255.45691,292.84489)"
       id="g2094">
      <path
         id="path2096"
         style="fill:#7e9988;fill-opacity:1;fill-rule:nonzero;stroke:none"
         d="m 0,0 c 0.661,-2.563 1.64,-5.113 3.111,-7.292 1.084,-1.606 3.27,-4.052 5.35,-4.289 2.028,-0.23 3.279,0.446 3.542,2.543 0.339,2.701 -2.32,6.177 -3.274,8.532 C 8.27,0.626 7.977,1.759 7.752,2.896 6.947,2.64 6.145,2.378 5.35,2.095 3.548,1.452 1.762,0.755 0,0" />
    </g>
    <g
       transform="matrix(5.7747714,0,0,-5.7747714,216.57883,361.44858)"
       id="g2098">
      <path
         id="path2100"
         style="fill:#7e9988;fill-opacity:1;fill-rule:nonzero;stroke:none"
         d="M 0,0 C 1.471,-1.85 8.681,-7.025 9.019,-1.736 9.07,-0.934 8.298,0.05 7.906,0.667 6.904,2.247 5.904,3.832 4.9,5.413 3.985,6.853 3.229,8.369 2.624,9.961 0.393,8.821 -1.761,7.539 -3.805,6.081 -2.78,3.896 -1.546,1.945 0,0" />
    </g>
    <g
       transform="matrix(5.7747714,0,0,-5.7747714,222.2462,404.24315)"
       id="g2102">
      <path
         id="path2104"
         style="fill:#7e9988;fill-opacity:1;fill-rule:nonzero;stroke:none"
         d="m 0,0 c -0.861,2.382 -3.568,3.429 -5.21,5.229 -1.422,1.56 -2.866,3.008 -4.075,4.64 -2.162,-1.926 -4.238,-4.054 -6.084,-6.339 1.689,-2.226 3.728,-4.155 6.478,-5.634 1.814,-0.976 3.994,-1.783 6.088,-1.34 C -1.344,-3.135 0.665,-1.84 0,0" />
    </g>
    <g
       transform="matrix(5.7747714,0,0,-5.7747714,124.22754,477.87148)"
       id="g2106">
      <path
         id="path2108"
         style="fill:#7e9988;fill-opacity:1;fill-rule:nonzero;stroke:none"
         d="M 0,0 C 2.438,-1.056 10.135,-2.216 8.252,2.917 7.445,5.117 4.567,6.102 2.758,7.177 1.227,8.088 -0.268,9.326 -1.572,10.532 -1.737,10.685 -1.885,10.85 -2.025,11.02 -2.352,10.454 -2.678,9.888 -2.966,9.312 -3.992,7.262 -4.86,5.156 -5.604,3.011 -3.894,1.752 -1.896,0.821 0,0" />
    </g>
    <g
       transform="matrix(5.7747714,0,0,-5.7747714,135.49471,526.38473)"
       id="g2110">
      <path
         id="path2112"
         style="fill:#7e9988;fill-opacity:1;fill-rule:nonzero;stroke:none"
         d="m 0,0 c 3.308,1.217 0.993,4.364 -1.426,4.894 -2.422,0.53 -4.839,0.677 -7.224,1.456 -0.165,0.054 -0.322,0.122 -0.482,0.184 -0.546,-2.016 -0.986,-4.081 -1.327,-6.208 -0.038,-0.24 -0.067,-0.48 -0.104,-0.72 C -7.119,-1.309 -3.316,-1.221 0,0" />
    </g>
    <g
       transform="matrix(5.7747714,0,0,-5.7747714,119.45064,561.17136)"
       id="g2114">
      <path
         id="path2116"
         style="fill:#7e9988;fill-opacity:1;fill-rule:nonzero;stroke:none"
         d="m 0,0 c -2.815,0.501 -5.672,0.046 -8.426,0.132 -0.19,-2.346 -0.279,-4.698 -0.23,-7.05 3.431,-0.611 6.751,-0.264 10.065,1.457 1.177,0.61 1.895,1.859 1.864,3.154 C 3.236,-0.71 1.197,-0.213 0,0" />
    </g>
    <g
       transform="matrix(5.7747714,0,0,-5.7747714,120.53921,624.84052)"
       id="g2118">
      <path
         id="path2120"
         style="fill:#7e9988;fill-opacity:1;fill-rule:nonzero;stroke:none"
         d="m 0,0 c -1.946,0.189 -4.415,-1.071 -6.346,-1.405 -0.657,-0.114 -1.371,-0.201 -2.103,-0.246 0.079,-0.687 0.161,-1.374 0.265,-2.059 0.276,-1.801 0.687,-3.566 1.213,-5.29 2.678,0.446 5.401,1.619 7.128,3.19 1.247,1.134 2.554,2.195 2.322,4.022 C 2.313,-0.474 1.099,-0.107 0,0" />
    </g>
    <g
       transform="matrix(5.7747714,0,0,-5.7747714,117.3417,745.4426)"
       id="g2122">
      <path
         id="path2124"
         style="fill:#7e9988;fill-opacity:1;fill-rule:nonzero;stroke:none"
         d="M 0,0 C 1.543,0.936 2.926,2.108 3.814,3.096 5.128,4.556 7.457,9.17 4.097,10.094 2.478,10.54 0.976,9.016 -0.187,8.176 -1.009,7.583 -2.432,6.564 -3.924,5.796 -2.837,3.74 -1.526,1.801 0,0" />
    </g>
    <g
       transform="matrix(5.7747714,0,0,-5.7747714,169.97412,742.22545)"
       id="g2126">
      <path
         id="path2128"
         style="fill:#7e9988;fill-opacity:1;fill-rule:nonzero;stroke:none"
         d="m 0,0 c -1.615,-0.444 -2.234,-2.641 -3.053,-3.883 -0.403,-0.613 -0.841,-1.167 -1.298,-1.695 0.834,-0.784 1.687,-1.552 2.585,-2.283 1.003,-0.815 2.055,-1.521 3.133,-2.175 0.916,1.011 1.634,2.109 2.177,3.534 C 4.413,-4.222 3.751,1.032 0,0" />
    </g>
    <g
       transform="matrix(5.7747714,0,0,-5.7747714,248.84193,810.61436)"
       id="g2130">
      <path
         id="path2132"
         style="fill:#7e9988;fill-opacity:1;fill-rule:nonzero;stroke:none"
         d="M 0,0 C -0.437,2.567 -1.458,5.521 -4.732,4.621 -6.06,4.256 -5.794,2.085 -6.108,1.123 c -0.228,-0.698 -0.42,-1.525 -0.651,-2.36 1.99,-0.989 4.196,-1.381 6.368,-1.814 C -0.098,-2.028 0.148,-0.874 0,0" />
    </g>
    <g
       transform="matrix(5.7747714,0,0,-5.7747714,278.20087,834.27185)"
       id="g2134">
      <path
         id="path2136"
         style="fill:#7e9988;fill-opacity:1;fill-rule:nonzero;stroke:none"
         d="M 0,0 C 2.087,-0.232 4.182,-0.229 6.312,-0.057 6.141,1.108 5.797,2.218 5.453,2.958 4.884,4.186 4.308,5.153 2.994,5.61 2.283,5.858 0.918,5.436 0.526,4.768 -0.113,3.676 0.396,2.37 0.204,1.213 0.135,0.797 0.07,0.397 0,0" />
    </g>
    <g
       transform="matrix(5.7747714,0,0,-5.7747714,368.47671,806.06906)"
       id="g2138">
      <path
         id="path2140"
         style="fill:#7e9988;fill-opacity:1;fill-rule:nonzero;stroke:none"
         d="m 0,0 c -1.616,1.655 -3.539,1.936 -4.74,-0.221 -0.549,-0.983 0.074,-2.145 0.524,-3.014 0.129,-0.249 0.235,-0.498 0.33,-0.747 1.901,0.548 3.683,1.327 5.362,2.298 C 0.964,-1.019 0.423,-0.433 0,0" />
    </g>
    <g
       transform="matrix(5.7747714,0,0,-5.7747714,423.3145,773.41961)"
       id="g2142">
      <path
         id="path2144"
         style="fill:#7e9988;fill-opacity:1;fill-rule:nonzero;stroke:none"
         d="m 0,0 c -0.057,0.047 -0.115,0.094 -0.171,0.141 -0.808,0.686 -1.622,1.573 -2.734,1.722 -2.428,0.325 -2.4,-2.29 -2.019,-3.948 0.153,-0.666 0.708,-1.364 1.28,-2.019 0.808,0.744 1.593,1.526 2.33,2.39 C -0.842,-1.16 -0.408,-0.586 0,0" />
    </g>
    <g
       transform="matrix(5.7747714,0,0,-5.7747714,542.58834,237.66871)"
       id="g2146">
      <path
         id="path2148"
         style="fill:#3f2322;fill-opacity:1;fill-rule:nonzero;stroke:none"
         d="m 0,0 c -1.074,0.487 -2.961,0.154 -2.64,-1.268 -0.239,-0.611 -0.211,-1.336 0.078,-1.909 0.346,-0.688 0.962,-1.326 1.731,-1.502 0.773,-0.176 1.582,0.173 2.038,0.806 C 2.202,-2.492 1.48,-0.672 0,0" />
    </g>
    <g
       transform="matrix(5.7747714,0,0,-5.7747714,540.42804,248.33005)"
       id="g2150">
      <path
         id="path2152"
         style="fill:#643e39;fill-opacity:1;fill-rule:nonzero;stroke:none"
         d="M 0,0 C -0.011,0.042 -0.039,0.076 -0.059,0.114 -0.149,0.468 -0.363,0.794 -0.743,0.967 -1.097,1.128 -1.475,1.125 -1.78,0.972 -1.796,0.965 -1.812,0.963 -1.825,0.956 -1.866,0.937 -1.895,0.902 -1.931,0.877 -1.972,0.846 -2.017,0.825 -2.052,0.786 -2.294,0.547 -2.413,0.184 -2.448,-0.149 c -0.055,-0.507 0.381,-0.943 0.839,-1.139 0.021,-0.01 0.042,-0.017 0.064,-0.025 0.098,-0.037 0.195,-0.067 0.288,-0.079 0.004,0 0.006,10e-4 0.008,0 0.14,-0.016 0.277,-0.007 0.411,0.023 0.067,0.015 0.125,0.041 0.185,0.066 0.07,0.029 0.135,0.062 0.199,0.102 0.023,0.017 0.048,0.033 0.07,0.053 C -0.062,-0.902 0.133,-0.5 0,0" />
    </g>
    <g
       transform="matrix(5.7747714,0,0,-5.7747714,537.12884,246.153)"
       id="g2154">
      <path
         id="path2156"
         style="fill:#f6e1d0;fill-opacity:1;fill-rule:nonzero;stroke:none"
         d="M 0,0 C -1.002,0 -1.002,-1.555 0,-1.555 1.002,-1.555 1.002,0 0,0" />
    </g>
    <g
       transform="matrix(5.7747714,0,0,-5.7747714,549.46264,244.99167)"
       id="g2158">
      <path
         id="path2160"
         style="fill:#f6e1d0;fill-opacity:1;fill-rule:nonzero;stroke:none"
         d="M 0,0 C -0.71,0 -0.71,-1.102 0,-1.102 0.71,-1.102 0.71,0 0,0" />
    </g>
    <g
       transform="matrix(5.7747714,0,0,-5.7747714,545.14824,254.87748)"
       id="g2162">
      <path
         id="path2164"
         style="fill:#f6e1d0;fill-opacity:1;fill-rule:nonzero;stroke:none"
         d="M 0,0 C -0.57,0 -0.57,-0.883 0,-0.883 0.568,-0.883 0.568,0 0,0" />
    </g>
    <g
       transform="matrix(5.7747714,0,0,-5.7747714,530.22624,311.38191)"
       id="g2166">
      <path
         id="path2168"
         style="fill:#f38c6b;fill-opacity:1;fill-rule:nonzero;stroke:none"
         d="M 0,0 C -0.787,1.655 -2.824,2.512 -4.56,2.426 -5.233,2.392 -5.818,2.239 -6.364,1.993 -7.28,1.952 -8.097,1.417 -8.799,0.82 c -1.098,-0.936 -1.519,-2.641 -1.43,-4.03 0.097,-1.505 0.642,-2.978 1.757,-4.031 1.309,-1.235 3.493,-1.843 5.212,-1.148 C 0.093,-7.032 1.553,-3.266 0,0" />
    </g>
    <g
       transform="matrix(5.7747714,0,0,-5.7747714,442.06,484.86468)"
       id="g2170">
      <path
         id="path2172"
         style="fill:#5b7866;fill-opacity:1;fill-rule:nonzero;stroke:none"
         d="m 0,0 c -0.505,0.157 -1.086,-0.072 -1.396,-0.491 -0.154,-0.207 -0.208,-0.413 -0.129,-0.661 0.065,-0.208 0.291,-0.34 0.495,-0.247 0.308,0.141 0.31,0.699 0.792,0.533 C 0.308,-1.055 0.554,-0.172 0,0" />
    </g>
    <g
       transform="matrix(5.7747714,0,0,-5.7747714,433.4088,479.06686)"
       id="g2174">
      <path
         id="path2176"
         style="fill:#5b7866;fill-opacity:1;fill-rule:nonzero;stroke:none"
         d="m 0,0 c -0.32,-0.088 -0.491,-0.38 -0.607,-0.667 -0.122,-0.301 0.346,-0.569 0.548,-0.319 0.142,0.175 0.233,0.236 0.448,0.237 0.198,0.001 0.292,0.176 0.267,0.352 C 0.611,-0.076 0.307,0.084 0,0" />
    </g>
    <g
       transform="matrix(5.7747714,0,0,-5.7747714,429.50621,474.76696)"
       id="g2178">
      <path
         id="path2180"
         style="fill:#5b7866;fill-opacity:1;fill-rule:nonzero;stroke:none"
         d="m 0,0 c -0.645,0.322 -1.178,-0.418 -1.008,-1.021 0.084,-0.298 0.566,-0.328 0.633,0 0.05,0.244 0.289,0.297 0.447,0.457 C 0.228,-0.408 0.21,-0.104 0,0" />
    </g>
    <g
       transform="matrix(5.7747714,0,0,-5.7747714,450.51311,465.80336)"
       id="g2182">
      <path
         id="path2184"
         style="fill:#5b7866;fill-opacity:1;fill-rule:nonzero;stroke:none"
         d="m 0,0 c -0.395,0.231 -0.892,0.006 -1.005,-0.443 -0.13,-0.516 -0.248,-0.991 0.117,-1.432 0.22,-0.265 0.599,-0.079 0.7,0.185 0.075,0.198 0.068,0.362 0.063,0.571 C -0.129,-0.92 -0.082,-0.73 0,-0.668 0.224,-0.499 0.273,-0.16 0,0" />
    </g>
    <g
       transform="matrix(5.7747714,0,0,-5.7747714,440.45231,462.61102)"
       id="g2186">
      <path
         id="path2188"
         style="fill:#5b7866;fill-opacity:1;fill-rule:nonzero;stroke:none"
         d="m 0,0 c -0.34,-0.239 -0.648,-0.541 -0.51,-0.985 0.09,-0.289 0.402,-0.335 0.62,-0.164 0.209,0.164 0.265,0.419 0.398,0.641 C 0.69,-0.202 0.313,0.22 0,0" />
    </g>
    <g
       transform="matrix(5.7747714,0,0,-5.7747714,436.80958,463.75327)"
       id="g2190">
      <path
         id="path2192"
         style="fill:#5b7866;fill-opacity:1;fill-rule:nonzero;stroke:none"
         d="m 0,0 -0.062,0.148 c -0.138,0.336 -0.608,0.384 -0.73,0 L -0.839,0 c -0.079,-0.247 0.141,-0.584 0.419,-0.55 0.131,0.015 0.204,0.046 0.308,0.127 C -0.004,-0.339 0.052,-0.126 0,0" />
    </g>
    <g
       transform="matrix(5.7747714,0,0,-5.7747714,431.95937,442.30924)"
       id="g2194">
      <path
         id="path2196"
         style="fill:#5b7866;fill-opacity:1;fill-rule:nonzero;stroke:none"
         d="m 0,0 c -0.103,0.239 -0.522,0.179 -0.564,-0.074 -0.078,-0.47 0.251,-1.179 0.807,-1.161 0.183,0.006 0.35,0.152 0.344,0.343 C 0.574,-0.476 0.152,-0.355 0,0" />
    </g>
    <g
       transform="matrix(5.7747714,0,0,-5.7747714,428.45751,446.80663)"
       id="g2198">
      <path
         id="path2200"
         style="fill:#5b7866;fill-opacity:1;fill-rule:nonzero;stroke:none"
         d="m 0,0 c -0.037,0.358 -0.576,0.49 -0.668,0.09 -0.087,-0.381 0.027,-0.641 0.331,-0.875 0.186,-0.142 0.456,-0.022 0.566,0.149 0.055,0.084 0.073,0.161 0.053,0.261 C 0.254,-0.223 0.01,-0.095 0,0" />
    </g>
    <g
       transform="matrix(5.7747714,0,0,-5.7747714,482.56194,425.06692)"
       id="g2202">
      <path
         id="path2204"
         style="fill:#5b7866;fill-opacity:1;fill-rule:nonzero;stroke:none"
         d="m 0,0 c -0.181,0.167 -0.436,0.197 -0.605,0.354 -0.119,0.108 -0.251,0.192 -0.412,0.214 -0.337,0.046 -0.601,-0.402 -0.25,-0.592 0.133,-0.072 0.245,-0.281 0.373,-0.377 0.219,-0.162 0.367,-0.244 0.64,-0.212 C 0.032,-0.581 0.255,-0.234 0,0" />
    </g>
    <g
       transform="matrix(5.7747714,0,0,-5.7747714,479.66933,427.99649)"
       id="g2206">
      <path
         id="path2208"
         style="fill:#5b7866;fill-opacity:1;fill-rule:nonzero;stroke:none"
         d="M 0,0 C -0.194,0.104 -0.371,0.131 -0.577,0.208 -0.773,0.28 -0.952,0.096 -0.963,-0.086 -0.997,-0.673 -0.197,-0.875 0.107,-0.406 0.192,-0.274 0.139,-0.073 0,0" />
    </g>
    <g
       transform="matrix(5.7747714,0,0,-5.7747714,509.64844,440.12411)"
       id="g2210">
      <path
         id="path2212"
         style="fill:#5b7866;fill-opacity:1;fill-rule:nonzero;stroke:none"
         d="M 0,0 C -0.082,0.257 -0.091,0.56 -0.067,0.825 -0.038,1.159 -0.579,1.316 -0.715,1 c -0.208,-0.481 -0.372,-1.194 -0.03,-1.659 0.127,-0.173 0.322,-0.29 0.544,-0.222 l 0.061,0.019 C 0.03,-0.81 0.154,-0.659 0.153,-0.478 0.152,-0.283 0.056,-0.173 0,0" />
    </g>
    <g
       transform="matrix(5.7747714,0,0,-5.7747714,502.30011,436.54315)"
       id="g2214">
      <path
         id="path2216"
         style="fill:#5b7866;fill-opacity:1;fill-rule:nonzero;stroke:none"
         d="m 0,0 c 0.119,0.321 -0.353,0.588 -0.574,0.334 -0.432,-0.493 -0.781,-1.555 0.026,-1.865 0.193,-0.074 0.437,0.08 0.481,0.273 0.051,0.228 -0.018,0.37 -0.046,0.591 C -0.142,-0.446 -0.075,-0.205 0,0" />
    </g>
    <g
       transform="matrix(5.7747714,0,0,-5.7747714,491.08319,437.96143)"
       id="g2218">
      <path
         id="path2220"
         style="fill:#5b7866;fill-opacity:1;fill-rule:nonzero;stroke:none"
         d="m 0,0 c -0.117,-0.439 -0.117,-1.041 0.479,-1.051 0.144,-0.003 0.257,0.098 0.301,0.229 0.064,0.194 0.023,0.391 0.064,0.59 C 0.958,0.316 0.146,0.549 0,0" />
    </g>
    <g
       transform="matrix(5.7747714,0,0,-5.7747714,508.55992,458.26036)"
       id="g2222">
      <path
         id="path2224"
         style="fill:#5b7866;fill-opacity:1;fill-rule:nonzero;stroke:none"
         d="m 0,0 c -0.426,-0.047 -0.803,-0.116 -1.072,-0.486 -0.284,-0.391 -0.484,-0.928 -0.115,-1.323 0.183,-0.195 0.49,-0.127 0.625,0.081 0.255,0.388 0.154,0.777 0.666,0.953 C 0.502,-0.639 0.466,0.051 0,0" />
    </g>
    <g
       transform="matrix(5.7747714,0,0,-5.7747714,503.58035,455.07439)"
       id="g2226">
      <path
         id="path2228"
         style="fill:#5b7866;fill-opacity:1;fill-rule:nonzero;stroke:none"
         d="m 0,0 c -0.729,0.323 -1.472,-0.542 -1.235,-1.251 0.076,-0.228 0.419,-0.314 0.542,-0.071 0.102,0.2 0.193,0.389 0.386,0.518 0.173,0.116 0.305,0.2 0.417,0.382 C 0.191,-0.291 0.151,-0.067 0,0" />
    </g>
    <g
       transform="matrix(5.7747714,0,0,-5.7747714,497.32055,454.32423)"
       id="g2230">
      <path
         id="path2232"
         style="fill:#5b7866;fill-opacity:1;fill-rule:nonzero;stroke:none"
         d="m 0,0 c -0.023,0.297 -0.297,0.449 -0.564,0.324 0.056,0.026 -0.209,-0.096 -0.28,-0.153 -0.13,-0.104 -0.238,-0.23 -0.31,-0.381 -0.166,-0.344 0.097,-0.698 0.47,-0.62 0.101,0.021 0.161,0.084 0.196,0.161 0.028,0 0.222,0.162 0.276,0.208 C -0.084,-0.351 0.014,-0.176 0,0" />
    </g>
    <g
       transform="matrix(5.7747714,0,0,-5.7747714,287.83263,529.37662)"
       id="g2234">
      <path
         id="path2236"
         style="fill:#5b7866;fill-opacity:1;fill-rule:nonzero;stroke:none"
         d="m 0,0 c -0.789,1.219 -2.838,-1.102 -1.681,-1.711 0.131,-0.068 0.271,-0.049 0.379,0.049 0.009,0.008 0.018,0.016 0.027,0.024 0.086,0.076 0.098,0.184 0.085,0.291 0.068,0.249 0.135,0.449 0.37,0.615 0.204,0.144 0.461,0.084 0.681,0.203 C 0.04,-0.432 0.111,-0.173 0,0" />
    </g>
    <g
       transform="matrix(5.7747714,0,0,-5.7747714,278.05941,523.76243)"
       id="g2238">
      <path
         id="path2240"
         style="fill:#5b7866;fill-opacity:1;fill-rule:nonzero;stroke:none"
         d="m 0,0 c -0.703,0.088 -1.11,-0.721 -1.022,-1.318 0.022,-0.152 0.18,-0.248 0.33,-0.256 0.185,-0.042 0.382,0.09 0.381,0.293 0,0.005 -0.001,0.008 -0.001,0.013 0.105,0.284 0.391,0.399 0.578,0.628 C 0.484,-0.372 0.334,-0.042 0,0" />
    </g>
    <g
       transform="matrix(5.7747714,0,0,-5.7747714,272.07037,521.30926)"
       id="g2242">
      <path
         id="path2244"
         style="fill:#5b7866;fill-opacity:1;fill-rule:nonzero;stroke:none"
         d="m 0,0 c -0.548,0.109 -0.917,-0.369 -0.766,-0.891 0.08,-0.277 0.485,-0.351 0.628,-0.082 0.093,0.174 0.237,0.288 0.353,0.445 C 0.349,-0.348 0.213,-0.043 0,0" />
    </g>
    <g
       transform="matrix(5.7747714,0,0,-5.7747714,288.28422,510.42498)"
       id="g2246">
      <path
         id="path2248"
         style="fill:#5b7866;fill-opacity:1;fill-rule:nonzero;stroke:none"
         d="M 0,0 C -0.054,0.178 0.094,0.443 0.119,0.628 0.151,0.853 -0.015,1.095 -0.27,1.018 -1.172,0.745 -1.313,-0.759 -0.354,-1.049 -0.086,-1.13 0.168,-0.912 0.176,-0.646 0.184,-0.398 0.069,-0.231 0,0" />
    </g>
    <g
       transform="matrix(5.7747714,0,0,-5.7747714,280.80584,510.26157)"
       id="g2250">
      <path
         id="path2252"
         style="fill:#5b7866;fill-opacity:1;fill-rule:nonzero;stroke:none"
         d="M 0,0 C -0.051,0.135 -0.004,0.379 -0.034,0.532 -0.073,0.729 -0.374,0.816 -0.505,0.656 -0.72,0.393 -0.858,0.248 -0.84,-0.113 -0.821,-0.481 -0.609,-0.724 -0.289,-0.855 -0.01,-0.97 0.205,-0.647 0.158,-0.408 0.126,-0.245 0.058,-0.155 0,0" />
    </g>
    <g
       transform="matrix(5.7747714,0,0,-5.7747714,275.05939,510.26735)"
       id="g2254">
      <path
         id="path2256"
         style="fill:#5b7866;fill-opacity:1;fill-rule:nonzero;stroke:none"
         d="M 0,0 C -0.022,0.068 -0.037,0.138 -0.044,0.209 0.001,0.438 -0.249,0.712 -0.479,0.545 -0.737,0.359 -0.865,0.104 -0.77,-0.212 -0.62,-0.703 0.139,-0.498 0,0" />
    </g>
    <g
       transform="matrix(5.7747714,0,0,-5.7747714,263.84825,492.64967)"
       id="g2258">
      <path
         id="path2260"
         style="fill:#5b7866;fill-opacity:1;fill-rule:nonzero;stroke:none"
         d="M 0,0 C -0.272,0.091 -0.48,0.286 -0.748,0.396 -0.908,0.463 -1.123,0.295 -1.104,0.125 -1.057,-0.315 -0.479,-0.923 0,-0.737 0.35,-0.602 0.377,-0.126 0,0" />
    </g>
    <g
       transform="matrix(5.7747714,0,0,-5.7747714,260.7466,497.68874)"
       id="g2262">
      <path
         id="path2264"
         style="fill:#5b7866;fill-opacity:1;fill-rule:nonzero;stroke:none"
         d="M 0,0 C -0.193,0.254 -0.508,0.232 -0.709,0.461 -0.898,0.676 -1.257,0.45 -1.18,0.187 -1.048,-0.259 -0.467,-0.753 -0.042,-0.322 0.035,-0.245 0.071,-0.094 0,0" />
    </g>
    <g
       transform="matrix(5.7747714,0,0,-5.7747714,314.34918,458.05186)"
       id="g2266">
      <path
         id="path2268"
         style="fill:#5b7866;fill-opacity:1;fill-rule:nonzero;stroke:none"
         d="M 0,0 C -0.095,0.161 -0.296,0.211 -0.462,0.261 -0.698,0.333 -0.8,0.491 -0.919,0.69 -1.062,0.929 -1.407,0.87 -1.49,0.615 -1.698,-0.028 -0.861,-0.747 -0.234,-0.574 0.019,-0.504 0.129,-0.22 0,0" />
    </g>
    <g
       transform="matrix(5.7747714,0,0,-5.7747714,308.69859,461.30592)"
       id="g2270">
      <path
         id="path2272"
         style="fill:#5b7866;fill-opacity:1;fill-rule:nonzero;stroke:none"
         d="m 0,0 c -0.156,0.076 -0.378,0.121 -0.477,0.275 -0.141,0.219 -0.546,0.154 -0.524,-0.142 0.036,-0.479 0.434,-0.849 0.929,-0.69 C 0.16,-0.482 0.252,-0.122 0,0" />
    </g>
    <g
       transform="matrix(5.7747714,0,0,-5.7747714,330.04385,493.47316)"
       id="g2274">
      <path
         id="path2276"
         style="fill:#5b7866;fill-opacity:1;fill-rule:nonzero;stroke:none"
         d="m 0,0 c -0.565,-0.12 -1.036,-0.74 -0.986,-1.317 0.034,-0.392 0.605,-0.515 0.714,-0.097 0.034,0.135 0.189,0.479 0.399,0.554 0.231,0.083 0.488,-0.032 0.723,-0.026 0.13,0.004 0.264,0.09 0.294,0.224 C 1.296,0.031 0.482,0.102 0,0" />
    </g>
    <g
       transform="matrix(5.7747714,0,0,-5.7747714,327.60172,488.5415)"
       id="g2278">
      <path
         id="path2280"
         style="fill:#5b7866;fill-opacity:1;fill-rule:nonzero;stroke:none"
         d="m 0,0 c -0.306,0.175 -0.511,0.091 -0.788,-0.109 -0.34,-0.245 -0.362,-0.419 -0.43,-0.796 -0.047,-0.261 0.281,-0.528 0.489,-0.284 0.117,0.134 0.183,0.303 0.334,0.406 0.223,0.151 0.364,0.145 0.498,0.393 C 0.176,-0.254 0.139,-0.079 0,0" />
    </g>
    <g
       transform="matrix(5.7747714,0,0,-5.7747714,322.42522,484.03834)"
       id="g2282">
      <path
         id="path2284"
         style="fill:#5b7866;fill-opacity:1;fill-rule:nonzero;stroke:none"
         d="m 0,0 c -0.657,0.194 -1.126,-0.423 -1.115,-1.026 0.006,-0.315 0.486,-0.495 0.634,-0.171 0.154,0.34 0.405,0.355 0.639,0.596 C 0.349,-0.405 0.261,-0.077 0,0" />
    </g>
    <g
       transform="matrix(5.7747714,0,0,-5.7747714,336.25866,469.73654)"
       id="g2286">
      <path
         id="path2288"
         style="fill:#5b7866;fill-opacity:1;fill-rule:nonzero;stroke:none"
         d="m 0,0 c -0.865,-0.081 -1.014,-1.109 -0.596,-1.728 0.187,-0.277 0.621,-0.106 0.542,0.229 C -0.169,-1.01 0.07,-0.882 0.287,-0.5 0.401,-0.297 0.26,0.024 0,0" />
    </g>
    <g
       transform="matrix(5.7747714,0,0,-5.7747714,329.497,468.09821)"
       id="g2290">
      <path
         id="path2292"
         style="fill:#5b7866;fill-opacity:1;fill-rule:nonzero;stroke:none"
         d="m 0,0 c -0.791,0 -0.847,-1.146 -0.528,-1.63 0.198,-0.302 0.712,-0.117 0.599,0.253 -0.134,0.442 0.188,0.546 0.287,0.907 C 0.424,-0.232 0.256,0 0,0" />
    </g>
    <g
       transform="matrix(5.7747714,0,0,-5.7747714,324.91184,469.52518)"
       id="g2294">
      <path
         id="path2296"
         style="fill:#5b7866;fill-opacity:1;fill-rule:nonzero;stroke:none"
         d="m 0,0 c -0.061,0.105 -0.199,0.167 -0.318,0.129 -0.426,-0.137 -0.469,-0.535 -0.343,-0.921 0.097,-0.302 0.513,-0.302 0.609,0 C 0.044,-0.497 0.165,-0.288 0,0" />
    </g>
  </g>
</svg>
