<?xml version="1.0" encoding="UTF-8" standalone="no"?>
<svg
   xmlns:dc="http://purl.org/dc/elements/1.1/"
   xmlns:cc="http://creativecommons.org/ns#"
   xmlns:rdf="http://www.w3.org/1999/02/22-rdf-syntax-ns#"
   xmlns:svg="http://www.w3.org/2000/svg"
   xmlns="http://www.w3.org/2000/svg"
   version="1.1"
   id="svg9444"
   viewBox="0 0 671.74444 453.87257"
   height="128.09293mm"
   width="189.58121mm">
  <defs
     id="defs9446" />
  <metadata
     id="metadata9449">
    <rdf:RDF>
      <cc:Work
         rdf:about="">
        <dc:format>image/svg+xml</dc:format>
        <dc:type
           rdf:resource="http://purl.org/dc/dcmitype/StillImage" />
        <dc:title></dc:title>
      </cc:Work>
    </rdf:RDF>
  </metadata>
  <g
     transform="translate(-44.526193,-269.09062)"
     id="layer1">
    <g
       transform="matrix(2.473147,0,0,-2.473147,241.07109,322.22351)"
       id="g2870">
      <path
         id="path2872"
         style="fill:#3f2322;fill-opacity:1;fill-rule:nonzero;stroke:none"
         d="m 0,0 c -1.315,0.573 -2.861,0.225 -3.981,-0.612 -0.659,-0.491 -1.05,-1.17 -1.22,-1.914 -0.409,-1.319 -0.266,-2.901 0.527,-3.78 2.036,-2.257 5.208,-2.412 6.778,0.423 C 3.317,-3.692 2.223,-0.967 0,0" />
    </g>
    <g
       transform="matrix(2.473147,0,0,-2.473147,234.54989,329.54379)"
       id="g2874">
      <path
         id="path2876"
         style="fill:#643e39;fill-opacity:1;fill-rule:nonzero;stroke:none"
         d="M 0,0 C -0.012,0.042 -0.039,0.076 -0.059,0.114 -0.149,0.468 -0.363,0.794 -0.743,0.967 -1.097,1.128 -1.475,1.125 -1.78,0.972 -1.796,0.965 -1.812,0.963 -1.826,0.956 -1.866,0.937 -1.895,0.902 -1.931,0.877 -1.972,0.846 -2.017,0.825 -2.053,0.786 -2.294,0.547 -2.413,0.184 -2.449,-0.149 c -0.055,-0.507 0.381,-0.943 0.84,-1.139 0.021,-0.01 0.042,-0.017 0.064,-0.025 0.098,-0.037 0.195,-0.067 0.288,-0.079 0.003,0 0.005,10e-4 0.008,0 0.14,-0.016 0.277,-0.007 0.411,0.023 0.067,0.015 0.125,0.041 0.185,0.066 0.07,0.029 0.135,0.062 0.198,0.102 0.024,0.017 0.049,0.033 0.071,0.053 C -0.062,-0.902 0.133,-0.5 0,0" />
    </g>
    <g
       transform="matrix(2.473147,0,0,-2.473147,233.13723,328.61167)"
       id="g2878">
      <path
         id="path2880"
         style="fill:#f6e1d0;fill-opacity:1;fill-rule:nonzero;stroke:none"
         d="M 0,0 C -1.003,0 -1.003,-1.555 0,-1.555 1.002,-1.555 1.002,0 0,0" />
    </g>
    <g
       transform="matrix(2.473147,0,0,-2.473147,238.41915,328.11407)"
       id="g2882">
      <path
         id="path2884"
         style="fill:#f6e1d0;fill-opacity:1;fill-rule:nonzero;stroke:none"
         d="M 0,0 C -0.711,0 -0.711,-1.102 0,-1.102 0.71,-1.102 0.71,0 0,0" />
    </g>
    <g
       transform="matrix(2.473147,0,0,-2.473147,236.56921,332.34784)"
       id="g2886">
      <path
         id="path2888"
         style="fill:#f6e1d0;fill-opacity:1;fill-rule:nonzero;stroke:none"
         d="M 0,0 C -0.569,0 -0.569,-0.883 0,-0.883 0.569,-0.883 0.569,0 0,0" />
    </g>
    <g
       transform="matrix(2.473147,0,0,-2.473147,698.46551,552.06073)"
       id="g2890">
      <path
         id="path2892"
         style="fill:#6a7e0d;fill-opacity:1;fill-rule:nonzero;stroke:none"
         d="m 0,0 c -2.082,0.366 -2.251,-1.659 -2.529,-3.079 -0.169,-0.862 -0.428,-1.714 -0.646,-2.566 -0.303,-1.18 -0.388,-1.252 -1.698,-1.001 -0.914,0.176 -2.411,0.628 -3.35,0.37 -1.707,-0.47 -1.696,-3.131 -1.698,-4.498 0,-0.214 0.167,-3.161 -0.064,-3.1 -1.616,0.425 -3.303,0.539 -4.915,0.993 -1.591,0.448 -3.612,1.637 -4.883,-0.061 -1.478,-1.975 -2.525,-4.463 -3.335,-6.778 -0.304,-0.87 -2.93,1.302 -3.302,1.517 -1.313,0.759 -2.825,1.146 -4.172,1.868 -2.139,1.147 -3.134,-0.099 -4.599,-1.644 -0.964,-1.015 -1.812,-2.131 -2.801,-3.143 -0.399,-0.408 -0.765,-0.856 -1.158,-1.271 -0.715,-0.757 -0.909,0.234 -1.282,0.728 -1.951,2.582 -4.006,4.882 -6.351,7.112 -1.506,1.432 -3.478,-0.489 -4.748,-1.279 -1.164,-0.723 -2.297,-1.502 -3.454,-2.238 -0.544,-0.346 -1.102,-0.625 -1.714,-0.837 -0.652,-0.225 -1.047,1.604 -1.179,1.901 -0.926,2.092 -1.654,4.541 -3.147,6.309 -0.405,0.478 -1.148,0.407 -1.681,0.305 -1.706,-0.326 -3.443,-1.354 -5.094,-1.922 -2.421,-0.835 -1.554,2.075 -1.684,3.428 -0.133,1.365 -0.245,3.033 -0.609,4.357 -0.569,2.071 -3.104,1.685 -4.73,1.723 -1.6,0.038 -3.355,0.053 -4.93,0.318 -1.357,0.228 -0.551,2.197 -0.464,3.071 0.173,1.726 0.876,5.407 -1.056,6.547 -1.462,0.862 -2.982,0.865 -4.618,1.05 -2.128,0.24 -4.235,0.662 -6.355,0.796 -0.87,0.054 -0.841,-1.249 0,-1.336 0.083,-0.009 0.166,-0.022 0.249,-0.032 0.176,-5.803 4.5,-11.324 7.87,-15.746 3.756,-4.927 8.693,-9.277 14.373,-11.839 2.97,-1.339 5.585,-2.552 8.777,-3.256 1.325,-0.292 2.641,-0.092 3.96,-0.373 1.795,-0.383 3.612,-0.46 5.408,-0.935 6.622,-1.75 13.444,-1.776 20.213,-2.245 6.516,-0.451 13.667,-0.397 19.36,3.274 2.466,1.59 4.79,3.357 6.794,5.507 2.265,2.43 3.76,5.559 5.629,8.28 1.559,2.269 2.119,4.668 2.989,7.214 C 4.041,-0.564 1.314,-0.23 0,0" />
    </g>
    <g
       transform="matrix(2.473147,0,0,-2.473147,496.32211,513.91169)"
       id="g2894">
      <path
         id="path2896"
         style="fill:#6a7e0d;fill-opacity:1;fill-rule:nonzero;stroke:none"
         d="m 0,0 c -0.215,0.782 -1.523,1.307 -2.136,1.652 -0.601,0.34 -4.467,1.566 -3.533,2.64 2.287,2.631 0.251,3.886 -2.399,4.939 -0.75,0.299 -1.618,0.702 -2.443,0.716 -1.093,0.019 -0.656,0.899 -0.496,1.622 0.364,1.641 1.58,3.146 0.901,4.856 -0.344,0.863 -1.574,1.497 -2.417,1.714 -0.76,0.195 -1.435,0.269 -2.224,0.28 -1.141,0.015 -0.876,-0.211 -0.876,0.876 0,2.193 1.997,6.843 -1.011,7.837 -0.789,0.261 -2.317,0.015 -3.036,-0.36 -1.465,-0.764 -1.751,-0.286 -1.402,1.318 0.275,1.269 0.515,2.595 1.038,3.785 1.345,3.065 -1.461,3.375 -3.967,3.273 -1.251,-0.05 -2.316,-0.017 -3.566,0.183 -1.42,0.227 -0.887,0.807 -0.552,1.908 0.45,1.477 1.273,3.454 0.415,4.919 -0.675,1.153 -3.235,1.84 -4.434,2.238 -1.672,0.558 -3.512,0.585 -5.15,1.237 0.706,1.253 2.277,2.75 3.072,3.582 1.108,1.159 2.492,2.865 2.492,4.566 0,2.624 -8.876,6.515 -5.262,8.623 2.63,1.534 6.903,3.596 5.381,7.207 -0.643,1.524 -2.09,2.602 -3.482,3.389 -0.719,0.407 -1.523,0.68 -2.316,0.89 -0.775,0.204 -2.188,0.382 -3.154,0.692 0.25,0.463 0.595,0.835 0.89,1.34 0.52,0.887 0.786,2.209 1.084,3.197 0.427,1.413 0.842,3.156 0.172,4.54 -0.548,1.133 -2.558,1.125 -3.571,1.214 -2.368,0.207 -4.725,-0.015 -7.079,-0.241 -0.832,-0.08 -1.524,0.052 -2.316,0.065 -0.21,0.003 -0.175,2.477 -0.206,2.801 -0.11,1.121 0.006,3.592 -0.684,4.549 -2.82,3.914 -9.346,-3.508 -11.059,1.456 -0.542,1.574 -1.213,3.443 -2.431,4.607 -1.018,0.973 -2.171,0.279 -3.199,-0.25 -0.879,-0.452 -1.742,-0.927 -2.633,-1.357 -0.497,-0.175 -0.953,-0.425 -1.37,-0.751 -1.248,-0.804 -1.842,0.351 -2.407,1.123 -0.575,0.785 -1.489,2.406 -2.771,2.072 -1.909,-0.496 -3.412,-1.646 -4.93,-2.86 -1.948,-1.556 -3.259,-0.052 -5.353,-0.628 -2.558,-0.703 -1.727,-5.993 -2.206,-7.965 -0.135,-0.556 0.402,-0.882 0.823,-0.777 1.873,-1.077 4,-0.583 6.058,-0.334 1.554,0.188 3.265,-0.104 4.833,-0.108 1.954,-0.004 3.905,0.002 5.856,-0.104 7.633,-0.412 13.672,-6.845 18.11,-12.561 2.416,-3.112 4.329,-6.039 5.726,-9.74 1.376,-3.648 1.625,-7.492 2.026,-11.338 0.319,-3.071 1.214,-5.282 2.62,-8.001 1.582,-3.06 2.97,-6.201 4.558,-9.268 3.261,-6.295 8.394,-11.728 13.646,-16.44 5.399,-4.845 9.888,-10.609 15.069,-15.674 2.387,-2.332 4.905,-4.437 6.299,-7.561 0.613,-1.374 1.807,-1.761 2.714,-0.449 0.715,1.032 0.935,2.331 1.753,3.337 C -0.16,-1.062 0.177,-0.642 0,0" />
    </g>
    <g
       transform="matrix(2.473147,0,0,-2.473147,716.12526,567.87528)"
       id="g2898">
      <path
         id="path2900"
         style="fill:#bab115;fill-opacity:1;fill-rule:nonzero;stroke:none"
         d="m 0,0 c -0.058,1.93 -0.834,5.266 -2.972,5.973 -2.692,0.89 -3.655,-1.136 -5.232,-2.944 -2.546,-2.919 -4.314,-6.59 -7.146,-9.279 -5.429,-5.154 -14.03,-8.155 -21.213,-9.682 -3.671,-0.78 -7.855,-0.828 -11.603,-0.72 -4.182,0.121 -8.397,0.56 -12.408,1.822 -7.525,2.368 -15.282,5.164 -21.345,10.35 -2.535,2.168 -5.014,4.57 -7.16,7.125 -2.542,3.025 -4.253,6.871 -6.227,10.272 -1.505,2.595 -3.098,6.234 -3.428,9.261 -0.077,0.7 -1.16,0.73 -1.118,0 0.001,-0.018 0.004,-0.036 0.005,-0.053 -0.12,0.076 -0.259,0.133 -0.443,0.133 l -0.249,0 c -0.12,0 -0.223,-0.027 -0.315,-0.064 -1.324,-0.151 -2.559,-0.498 -3.837,-0.944 -1.388,-0.485 -2.877,-1.371 -4.292,-1.665 -1.33,-0.276 -2.779,-1.298 -3.938,-1.972 -1.712,-0.994 -3.412,-2.009 -5.077,-3.08 -4.86,-3.122 -10.075,-7.321 -11.859,-13.03 -1.849,-5.921 1.216,-12.958 4.677,-17.649 3.889,-5.271 10.263,-9.043 15.8,-12.348 5.868,-3.503 12.32,-6.738 18.79,-8.96 6.938,-2.381 14.444,-3.31 21.747,-3.625 7.473,-0.322 14.648,-0.624 22.099,0.388 3.368,0.457 6.695,1.131 10.058,1.601 3.415,0.475 6.925,2.07 10.123,3.313 C -14.624,-31.139 -3.636,-22 -0.578,-9.108 0.168,-5.964 0.096,-3.184 0,0" />
    </g>
    <g
       transform="matrix(2.473147,0,0,-2.473147,436.71531,590.77835)"
       id="g2902">
      <path
         id="path2904"
         style="fill:#6a7e0d;fill-opacity:1;fill-rule:nonzero;stroke:none"
         d="m 0,0 c -2.339,3.963 -8.031,5.436 -12.274,4.75 -0.319,-0.051 -0.56,-0.417 -0.551,-0.722 10e-4,-0.013 0,-0.027 10e-4,-0.04 -2.242,-2.024 -3.791,-4.605 -5.416,-7.132 -2.012,-3.126 -3.799,-6.406 -5.403,-9.759 -2.896,-6.059 -3.924,-12.516 -4.414,-19.136 -0.221,-3.003 0.066,-6.235 0.448,-9.22 0.362,-2.831 1.013,-5.596 2.683,-7.95 2.166,-3.057 8.084,-6.489 10.889,-2.28 0.927,1.39 -0.539,4.501 -0.776,5.924 -0.655,3.919 -0.927,7.719 -0.158,11.641 0.789,4.02 1.298,7.676 3.063,11.437 1.511,3.22 3.138,6.488 5.013,9.512 1.868,3.012 4.089,5.756 6.315,8.506 C 0.659,-2.939 1.02,-1.728 0,0" />
    </g>
    <g
       transform="matrix(2.473147,0,0,-2.473147,465.5213,348.55487)"
       id="g2906">
      <path
         id="path2908"
         style="fill:#6a7e0d;fill-opacity:1;fill-rule:nonzero;stroke:none"
         d="m 0,0 c -1.39,3.58 -3.888,7.231 -8.143,6.02 -4.704,-1.338 -1.98,-6.837 -1.296,-10.013 1.266,-5.88 1.6,-12.078 -0.121,-17.854 -0.946,-3.178 -2.667,-5.743 -5.014,-8.056 -2.011,-1.982 -5.254,-4.17 -8.152,-4.376 -0.74,-0.053 -0.75,-1.123 0,-1.156 0.015,-10e-4 0.03,0 0.043,0 0.039,-0.074 0.085,-0.148 0.157,-0.219 0.083,-0.083 0.167,-0.165 0.25,-0.248 0.158,-0.157 0.335,-0.214 0.506,-0.217 1.636,-1.069 2.529,-3.02 4.167,-4.143 1.513,-1.037 4.023,-0.739 5.653,-0.24 1.999,0.612 3.446,2.29 4.866,3.709 1.753,1.75 3.771,3.233 4.897,5.496 C 2.519,-21.843 3.875,-9.98 0,0" />
    </g>
    <g
       transform="matrix(2.473147,0,0,-2.473147,336.93917,464.83877)"
       id="g2910">
      <path
         id="path2912"
         style="fill:#6a7e0d;fill-opacity:1;fill-rule:nonzero;stroke:none"
         d="M 0,0 C 0.06,0.161 0.071,0.347 -0.018,0.551 -0.064,0.659 -0.11,0.767 -0.157,0.875 -0.196,0.966 -0.249,1.036 -0.304,1.1 c 0.004,0.013 0.011,0.025 0.016,0.039 0.242,0.711 -0.757,1.092 -1.076,0.423 -1.249,-2.623 -4.471,-4.844 -7.05,-5.992 -3.01,-1.342 -6.025,-2.007 -9.33,-1.728 -6.006,0.506 -11.654,3.079 -16.667,6.405 -2.707,1.795 -6.832,6.337 -9.795,2.447 -2.681,-3.52 -0.193,-7.178 2.633,-9.778 7.877,-7.251 19.416,-10.317 29.936,-9.388 2.517,0.222 4.634,1.56 6.905,2.553 1.838,0.804 3.928,1.54 5.228,3.177 1.061,1.335 2.253,3.563 1.84,5.35 C 1.888,-3.456 0.397,-1.913 0,0" />
    </g>
    <g
       transform="matrix(2.473147,0,0,-2.473147,511.33237,606.39874)"
       id="g2914">
      <path
         id="path2916"
         style="fill:#bab115;fill-opacity:1;fill-rule:nonzero;stroke:none"
         d="m 0,0 c -0.454,3.125 -1.744,5.998 -2.787,8.955 -1.028,2.918 -1.444,6.013 -2.068,9.03 -0.67,3.234 -1.094,6.493 -1.713,9.739 -0.614,3.219 -1.952,6.467 -3.146,9.511 -2.004,5.109 -5.155,9.756 -7.611,14.663 -1.399,2.795 -3.249,5.4 -5.007,7.974 -1.695,2.484 -3.2,5.087 -4.901,7.567 -3.546,5.168 -7.761,9.852 -12.155,14.309 -4.024,4.083 -8.235,8.468 -13.535,10.882 -5.192,2.365 -11.09,1.614 -16.467,0.537 -2.339,-0.469 -4.483,-2.234 -6.109,-3.868 -0.847,-0.852 -1.684,-1.752 -2.296,-2.767 -0.294,-0.074 -0.554,-0.298 -0.581,-0.685 -0.022,-0.316 -0.078,-0.629 -0.142,-0.942 -0.028,-0.103 -0.044,-0.212 -0.067,-0.317 -0.226,-0.983 -0.553,-1.962 -0.629,-2.978 -0.131,-1.743 -0.413,-3.482 -0.599,-5.22 -0.403,-3.787 -0.141,-7.785 0.17,-11.575 0.603,-7.337 1.59,-15.169 3.969,-22.151 2.265,-6.648 4.919,-12.872 8.007,-19.17 1.521,-3.103 3.42,-5.977 5.483,-8.742 2.105,-2.82 4.058,-5.908 6.429,-8.503 4.42,-4.838 10.064,-8.242 15.556,-11.648 2.951,-1.83 5.798,-3.695 8.911,-5.289 2.935,-1.503 5.913,-2.39 8.994,-3.505 2.243,-0.813 4.842,-1.078 7.209,-1.253 3.181,-0.234 6.167,-0.213 9.072,1.187 4.56,2.196 6.68,9.67 6.013,14.259" />
    </g>
    <g
       transform="matrix(2.473147,0,0,-2.473147,428.33456,515.8546)"
       id="g2918">
      <path
         id="path2920"
         style="fill:#6a7e0d;fill-opacity:1;fill-rule:nonzero;stroke:none"
         d="m 0,0 c -3.271,6.981 -7.028,13.713 -10.241,20.724 -3.128,6.823 -5.418,13.939 -9.071,20.51 -2.818,5.068 -4.932,14.216 -12.756,12.488 -2.558,-0.566 -4.268,-3.235 -4.482,-5.806 -0.294,-3.553 -0.522,-7.104 -0.515,-10.679 0.019,-9.719 1.936,-19.561 5.695,-28.612 0.277,-0.948 0.558,-1.9 0.846,-2.858 3.886,-12.992 11.199,-25.563 24.891,-29.68 4.853,-1.459 10.875,-1.781 11.473,4.62 C 6.459,-12.666 2.727,-5.821 0,0" />
    </g>
    <g
       transform="matrix(2.473147,0,0,-2.473147,404.86391,350.26852)"
       id="g2922">
      <path
         id="path2924"
         style="fill:#9ba520;fill-opacity:1;fill-rule:nonzero;stroke:none"
         d="m 0,0 c -0.612,3.357 -1.972,6.433 -4.033,9.139 -2.058,2.699 -3.835,5.084 -6.513,7.238 -2.787,2.243 -5.684,4.262 -8.772,6.06 -2.76,1.607 -5.417,3.193 -8.396,4.371 -3.206,1.268 -6.847,2.891 -10.329,3.133 -6.472,0.45 -12.58,-2.34 -17.117,-6.795 -5.052,-4.96 -8.042,-11.349 -12.135,-17.004 -2.409,-3.33 -4.968,-6.236 -8.627,-8.2 -3.386,-1.816 -7.572,-2.876 -11.307,-3.689 -4.124,-0.897 -8.123,-2.189 -12.274,-2.99 -2.006,-0.387 -3.986,-0.963 -5.968,-1.458 -2.376,-0.595 -4.837,-0.686 -7.227,-1.213 -4.434,-0.977 -8.971,-1.618 -13.454,-2.371 -2.122,-0.357 -4.491,-0.288 -6.292,0.992 -0.498,1.107 -1.76,2 -2.605,2.676 -1.703,1.361 -3.944,2.448 -6.165,2.164 -4.813,-0.616 -3.886,-8.303 -4.307,-11.554 -0.64,-4.943 0.339,-11.803 4.509,-15.018 2.449,-1.888 6.345,-2.207 9.276,-2.698 3.405,-0.571 6.772,-0.859 10.191,-1.277 1.735,-0.212 3.493,0.173 5.259,-0.075 1.391,-0.195 2.808,-0.172 4.21,-0.174 3.501,-0.005 6.989,0.249 10.484,0.249 7.304,-10e-4 14.541,0.672 21.824,1.092 7.6,0.438 15.235,1.259 22.737,2.549 7.726,1.33 15.462,2.303 23.084,4.219 7.125,1.792 14.185,3.84 20.43,7.802 5.188,3.291 10.305,7.928 12.164,13.94 C -0.456,-5.99 0.562,-3.082 0,0" />
    </g>
    <g
       transform="matrix(2.473147,0,0,-2.473147,74.406441,409.24863)"
       id="g2926">
      <path
         id="path2928"
         style="fill:#6a7e0d;fill-opacity:1;fill-rule:nonzero;stroke:none"
         d="m 0,0 c -0.339,-0.026 -0.691,0.53 -0.884,0.736 -0.205,0.218 -0.631,0.859 -0.937,1.539 -0.023,0.536 -0.195,1.128 -0.197,1.631 0,0.038 0.005,0.096 0.012,0.16 0.021,0.026 0.026,0.063 0.051,0.086 0.168,0.153 0.216,0.343 0.196,0.529 C -1.366,4.466 -0.735,3.217 -0.621,2.992 -0.306,2.366 0.064,1.733 0.254,1.055 0.281,0.959 0.38,0.029 0,0 M 1.731,1.845 C 1.406,3.05 0.547,4.386 -0.223,5.354 -0.825,6.112 -1.875,6.659 -2.773,6.05 -3.363,5.65 -3.686,4.581 -3.677,3.553 c 0,-0.016 10e-4,-0.033 10e-4,-0.05 0.003,-0.122 0.01,-0.241 0.022,-0.36 10e-4,-0.012 0.002,-0.023 0.004,-0.034 0.032,-0.3 0.092,-0.587 0.188,-0.842 0.367,-1.158 1.127,-2.302 1.691,-2.915 0.632,-0.686 1.626,-1.29 2.569,-0.783 1.185,0.639 1.247,2.115 0.933,3.276" />
    </g>
    <g
       transform="matrix(2.473147,0,0,-2.473147,56.043818,403.12733)"
       id="g2930">
      <path
         id="path2932"
         style="fill:#6a7e0d;fill-opacity:1;fill-rule:nonzero;stroke:none"
         d="m 0,0 c -0.339,-0.026 -0.691,0.53 -0.884,0.736 -0.205,0.218 -0.631,0.859 -0.938,1.539 -0.022,0.536 -0.194,1.128 -0.196,1.631 0,0.038 0.005,0.096 0.012,0.16 0.021,0.026 0.026,0.063 0.05,0.086 0.168,0.153 0.217,0.343 0.196,0.529 C -1.366,4.466 -0.735,3.217 -0.622,2.992 -0.306,2.366 0.063,1.733 0.253,1.055 0.28,0.959 0.38,0.029 0,0 M 1.73,1.845 C 1.405,3.05 0.547,4.386 -0.223,5.354 -0.825,6.112 -1.876,6.659 -2.773,6.05 -3.363,5.65 -3.686,4.581 -3.677,3.553 c 0,-0.016 10e-4,-0.033 10e-4,-0.05 0.002,-0.122 0.009,-0.241 0.022,-0.36 l 0.003,-0.034 c 0.032,-0.3 0.092,-0.587 0.189,-0.842 0.366,-1.158 1.126,-2.302 1.691,-2.915 0.632,-0.686 1.625,-1.29 2.569,-0.783 1.184,0.639 1.246,2.115 0.932,3.276" />
    </g>
    <g
       transform="matrix(2.473147,0,0,-2.473147,219.7716,385.81158)"
       id="g2934">
      <path
         id="path2936"
         style="fill:#f6e1d0;fill-opacity:1;fill-rule:nonzero;stroke:none"
         d="m 0,0 c -0.337,0.358 -0.866,0.298 -1.21,0 -0.778,-0.672 -0.864,-2.112 -1.04,-3.043 -0.445,-2.353 -2.719,-4.354 -4.42,-5.885 -3.67,-3.302 -9.066,-4.229 -13.734,-3.028 -0.106,0.069 -0.228,0.122 -0.385,0.128 l -0.249,0.011 c -0.147,0.005 -0.262,-0.031 -0.362,-0.082 -0.064,0.015 -0.126,0.03 -0.19,0.045 -0.488,0.113 -0.902,-0.224 -0.933,-0.712 -0.124,-1.908 4.248,-3.393 5.512,-3.843 3.357,-1.193 6.829,-1.521 10.3,-0.503 3.302,0.967 5.822,3.34 7.056,6.516 C 1.381,-7.726 2.184,-2.319 0,0" />
    </g>
    <g
       transform="matrix(2.473147,0,0,-2.473147,310.09438,325.92112)"
       id="g2938">
      <path
         id="path2940"
         style="fill:#3f2322;fill-opacity:1;fill-rule:nonzero;stroke:none"
         d="m 0,0 c -1.315,0.573 -2.862,0.225 -3.981,-0.612 -0.659,-0.491 -1.05,-1.17 -1.221,-1.914 -0.409,-1.319 -0.266,-2.901 0.528,-3.78 2.036,-2.257 5.207,-2.412 6.778,0.423 C 3.316,-3.692 2.223,-0.967 0,0" />
    </g>
    <g
       transform="matrix(2.473147,0,0,-2.473147,303.70403,333.81986)"
       id="g2942">
      <path
         id="path2944"
         style="fill:#643e39;fill-opacity:1;fill-rule:nonzero;stroke:none"
         d="M 0,0 C -0.012,0.042 -0.039,0.076 -0.059,0.114 -0.149,0.468 -0.363,0.794 -0.743,0.967 -1.097,1.128 -1.475,1.125 -1.78,0.972 -1.796,0.965 -1.812,0.963 -1.826,0.956 -1.866,0.937 -1.895,0.902 -1.931,0.877 -1.972,0.846 -2.017,0.825 -2.053,0.786 -2.294,0.547 -2.413,0.184 -2.449,-0.149 c -0.055,-0.507 0.381,-0.943 0.84,-1.139 0.021,-0.01 0.042,-0.017 0.064,-0.025 0.098,-0.037 0.195,-0.067 0.288,-0.079 0.003,0 0.005,10e-4 0.008,0 0.14,-0.016 0.277,-0.007 0.411,0.023 0.067,0.015 0.125,0.041 0.185,0.066 0.07,0.029 0.135,0.062 0.198,0.102 0.024,0.017 0.049,0.033 0.071,0.053 C -0.062,-0.902 0.133,-0.5 0,0" />
    </g>
    <g
       transform="matrix(2.473147,0,0,-2.473147,302.29111,332.88772)"
       id="g2946">
      <path
         id="path2948"
         style="fill:#f6e1d0;fill-opacity:1;fill-rule:nonzero;stroke:none"
         d="M 0,0 C -1.003,0 -1.003,-1.555 0,-1.555 1.002,-1.555 1.002,0 0,0" />
    </g>
    <g
       transform="matrix(2.473147,0,0,-2.473147,307.57302,332.39012)"
       id="g2950">
      <path
         id="path2952"
         style="fill:#f6e1d0;fill-opacity:1;fill-rule:nonzero;stroke:none"
         d="M 0,0 C -0.711,0 -0.711,-1.102 0,-1.102 0.71,-1.102 0.71,0 0,0" />
    </g>
    <g
       transform="matrix(2.473147,0,0,-2.473147,305.72311,336.62391)"
       id="g2954">
      <path
         id="path2956"
         style="fill:#f6e1d0;fill-opacity:1;fill-rule:nonzero;stroke:none"
         d="M 0,0 C -0.569,0 -0.569,-0.883 0,-0.883 0.569,-0.883 0.569,0 0,0" />
    </g>
    <g
       transform="matrix(2.473147,0,0,-2.473147,528.85438,685.06609)"
       id="g2958">
      <path
         id="path2960"
         style="fill:#6a7e0d;fill-opacity:1;fill-rule:nonzero;stroke:none"
         d="m 0,0 c -2.946,2.667 -5.518,5.477 -7.35,9.029 -1.877,3.642 -3.747,6.825 -4.698,10.868 -0.814,3.463 -1.566,7.035 -1.973,10.57 -0.406,3.52 -0.368,7.051 -0.33,10.588 0.022,1.969 -0.447,3.143 -2.319,3.864 -4.295,1.656 -9.671,-0.723 -12.572,-3.895 -0.218,-0.237 -0.18,-0.674 0.016,-0.908 0.009,-0.01 0.017,-0.021 0.027,-0.031 -0.503,-2.978 -0.115,-5.963 0.179,-8.953 0.365,-3.7 0.999,-7.381 1.823,-11.005 1.491,-6.548 4.692,-12.249 8.419,-17.743 1.689,-2.491 3.921,-4.847 6.073,-6.95 2.041,-1.996 4.268,-3.759 7.039,-4.568 C -2.07,-10.186 4.7,-9.203 4.286,-4.163 4.149,-2.497 1.07,-0.968 0,0" />
    </g>
    <g
       transform="matrix(2.473147,0,0,-2.473147,400.73152,706.01166)"
       id="g2962">
      <path
         id="path2964"
         style="fill:#bab115;fill-opacity:1;fill-rule:nonzero;stroke:none"
         d="m 0,0 c -0.191,0.028 -0.386,0.046 -0.58,0.046 -1.555,-0.003 -1.685,-0.369 -2.374,-1.131 -0.547,0.752 -0.868,1.335 -2.246,0.846 -0.88,-0.312 -1.347,-0.985 -1.583,-1.769 -1.167,0.689 -2.688,1.404 -3.814,0.673 -0.149,-0.097 -0.278,-0.2 -0.397,-0.306 0.189,-0.332 0.393,-0.657 0.618,-0.975 2.166,-3.056 8.084,-6.488 10.889,-2.28 C 1.256,-3.78 0.466,-1.57 0,0" />
    </g>
    <g
       transform="matrix(2.473147,0,0,-2.473147,445.38343,333.66652)"
       id="g2966">
      <path
         id="path2968"
         style="fill:#bab115;fill-opacity:1;fill-rule:nonzero;stroke:none"
         d="m 0,0 c -3.17,-0.902 -2.965,-3.692 -2.286,-6.389 0.589,-0.173 1.305,-0.207 1.735,-0.059 1.087,0.374 0.949,0.728 1.313,1.356 1.049,-0.947 2.282,-2.515 3.44,-0.538 0.169,0.288 0.245,0.651 0.333,0.968 0.053,0.193 1.005,-0.163 1.272,-0.084 0.516,0.153 1.006,0.409 1.408,0.76 C 5.729,-1.218 3.438,0.979 0,0" />
    </g>
    <g
       transform="matrix(2.473147,0,0,-2.473147,232.7628,481.0604)"
       id="g2970">
      <path
         id="path2972"
         style="fill:#bab115;fill-opacity:1;fill-rule:nonzero;stroke:none"
         d="M 0,0 C 0.937,0.841 1.292,2.099 1.082,3.359 1.823,3.37 2.507,3.271 3.032,4.126 3.515,4.911 3.333,5.421 3.112,6.066 3.774,6.106 4.226,6.167 4.97,6.785 5.458,7.19 5.752,7.65 5.896,8.156 3.366,10.106 0.274,12.349 -2.083,9.253 -4.588,5.964 -2.58,2.555 0,0" />
    </g>
    <g
       transform="matrix(2.473147,0,0,-2.473147,530.25048,686.16737)"
       id="g2974">
      <path
         id="path2976"
         style="fill:#bab115;fill-opacity:1;fill-rule:nonzero;stroke:none"
         d="m 0,0 c -1.054,-0.68 -1.671,-1.748 -2.071,-3.076 -0.796,0.516 -1.659,1.146 -2.624,0.509 -1.204,-0.795 -1.436,-1.4 -1.547,-2.393 -0.775,0.23 -1.404,0.352 -2.379,-0.128 -0.835,-0.411 -1.339,-0.936 -1.51,-1.683 1.189,-0.826 2.472,-1.5 3.901,-1.918 C -2.635,-9.74 4.136,-8.758 3.722,-3.717 3.604,-2.288 1.322,-0.96 0,0" />
    </g>
    <g
       transform="matrix(2.473147,0,0,-2.473147,318.9364,372.14523)"
       id="g2978">
      <path
         id="path2980"
         style="fill:#f38c6b;fill-opacity:1;fill-rule:nonzero;stroke:none"
         d="M 0,0 C -1.59,1.004 -3.563,1.193 -5.369,0.868 -5.854,0.781 -8.066,-0.1 -6.52,0.476 -7.717,0.03 -8.499,-0.447 -9.492,-1.242 c -2.812,-2.248 -3.956,-6.911 -1.776,-9.962 2.165,-3.027 6.164,-4.423 9.62,-2.878 0.415,0.143 0.833,0.311 1.26,0.504 0.836,0.378 2.059,1.493 2.465,2.35 -0.648,-0.679 -0.535,-0.494 0.342,0.558 0.314,0.526 0.564,1.12 0.771,1.689 C 4.484,-5.423 3.158,-1.994 0,0" />
    </g>
    <g
       transform="matrix(2.473147,0,0,-2.473147,461.66169,400.63711)"
       id="g2982">
      <path
         id="path2984"
         style="fill:#9ba520;fill-opacity:1;fill-rule:nonzero;stroke:none"
         d="M 0,0 C -0.457,0.142 -0.676,0.076 -1.172,0.04 -1.705,0 -2.239,0.118 -2.752,0.247 -3.677,0.479 -4.211,1.121 -4.905,1.697 -5.324,2.045 -6.035,1.599 -5.703,1.082 -5.14,0.206 -4.414,-0.521 -3.409,-0.876 -2.372,-1.242 -0.645,-1.685 0.198,-0.751 0.428,-0.497 0.333,-0.104 0,0" />
    </g>
    <g
       transform="matrix(2.473147,0,0,-2.473147,459.83577,395.4529)"
       id="g2986">
      <path
         id="path2988"
         style="fill:#9ba520;fill-opacity:1;fill-rule:nonzero;stroke:none"
         d="M 0,0 C -0.255,0.092 -0.464,0.013 -0.723,0.012 -0.995,0.01 -1.236,0.071 -1.496,0.15 -1.924,0.281 -2.318,0.566 -2.751,0.663 -2.911,0.699 -3.137,0.616 -3.164,0.428 c -0.099,-0.694 0.69,-1.081 1.215,-1.353 0.609,-0.317 1.884,-0.658 2.261,0.156 C 0.462,-0.447 0.337,-0.123 0,0" />
    </g>
    <g
       transform="matrix(2.473147,0,0,-2.473147,467.6247,395.13536)"
       id="g2990">
      <path
         id="path2992"
         style="fill:#9ba520;fill-opacity:1;fill-rule:nonzero;stroke:none"
         d="M 0,0 C -1.056,2.498 -5.107,3.13 -7.33,2.086 -7.648,1.937 -7.444,1.53 -7.17,1.497 -6.007,1.355 -4.802,1.351 -3.658,1.099 -2.445,0.832 -1.768,-0.149 -0.802,-0.802 -0.257,-1.17 0.203,-0.481 0,0" />
    </g>
    <g
       transform="matrix(2.473147,0,0,-2.473147,279.27676,489.53883)"
       id="g2994">
      <path
         id="path2996"
         style="fill:#9ba520;fill-opacity:1;fill-rule:nonzero;stroke:none"
         d="M 0,0 C 0.168,1.188 0.927,2.073 1.208,3.184 1.276,3.453 1.017,3.779 0.723,3.669 -0.58,3.181 -1.045,1.602 -1.35,0.373 -1.702,-1.046 -1.362,-2.907 -0.505,-4.083 -0.217,-4.479 0.63,-4.42 0.551,-3.797 0.386,-2.508 -0.189,-1.331 0,0" />
    </g>
    <g
       transform="matrix(2.473147,0,0,-2.473147,285.07085,489.76588)"
       id="g2998">
      <path
         id="path3000"
         style="fill:#9ba520;fill-opacity:1;fill-rule:nonzero;stroke:none"
         d="M 0,0 C -0.052,0.406 -0.133,0.807 -0.187,1.213 -0.241,1.61 -0.933,1.61 -0.986,1.213 -1.041,0.807 -1.123,0.406 -1.175,0 -1.233,-0.462 -1.403,-0.889 -1.42,-1.363 -1.429,-1.6 -1.285,-1.819 -1.089,-1.94 c 0.235,-0.145 0.439,-0.126 0.676,0 0.334,0.177 0.331,0.569 0.375,0.894 C 0.01,-0.687 0.046,-0.36 0,0" />
    </g>
    <g
       transform="matrix(2.473147,0,0,-2.473147,287.57786,483.49596)"
       id="g3002">
      <path
         id="path3004"
         style="fill:#9ba520;fill-opacity:1;fill-rule:nonzero;stroke:none"
         d="M 0,0 C -0.318,0.247 -0.736,-0.05 -0.559,-0.431 -0.156,-1.292 0.219,-2.245 0.269,-3.204 0.325,-4.311 -0.145,-5.214 -0.413,-6.248 -0.572,-6.863 0.15,-7.223 0.599,-6.837 2.525,-5.178 1.873,-1.452 0,0" />
    </g>
    <g
       transform="matrix(2.473147,0,0,-2.473147,490.09571,637.63435)"
       id="g3006">
      <path
         id="path3008"
         style="fill:#9ba520;fill-opacity:1;fill-rule:nonzero;stroke:none"
         d="m 0,0 c -1.504,0.606 -3.857,0.034 -5.265,-0.662 -1.197,-0.592 -2.381,-2.205 -2.392,-3.57 -0.004,-0.482 0.734,-0.735 0.953,-0.258 0.497,1.08 1.094,2.002 2.128,2.65 1.195,0.751 3.085,0.602 4.432,0.781 C 0.467,-0.978 0.583,-0.235 0,0" />
    </g>
    <g
       transform="matrix(2.473147,0,0,-2.473147,485.38364,644.94495)"
       id="g3010">
      <path
         id="path3012"
         style="fill:#9ba520;fill-opacity:1;fill-rule:nonzero;stroke:none"
         d="m 0,0 c -0.494,0.394 -1.132,0.313 -1.714,0.144 -0.613,-0.179 -0.965,-0.544 -1.215,-1.109 -0.193,-0.435 0.333,-0.948 0.705,-0.544 0.258,0.28 0.441,0.438 0.821,0.527 0.447,0.106 0.882,0.007 1.303,0.209 C 0.168,-0.646 0.239,-0.19 0,0" />
    </g>
    <g
       transform="matrix(2.473147,0,0,-2.473147,486.10825,648.49889)"
       id="g3014">
      <path
         id="path3016"
         style="fill:#9ba520;fill-opacity:1;fill-rule:nonzero;stroke:none"
         d="m 0,0 c -0.417,-0.086 -0.679,-0.313 -1.025,-0.551 -0.173,-0.117 -0.355,-0.222 -0.536,-0.328 -0.176,-0.105 -0.44,-0.361 -0.657,-0.332 -0.443,0.06 -0.749,-0.493 -0.319,-0.757 0.629,-0.386 1.232,-0.051 1.841,0.219 0.622,0.276 1.205,0.585 1.259,1.32 C 0.586,-0.124 0.264,0.055 0,0" />
    </g>
    <g
       transform="matrix(2.473147,0,0,-2.473147,493.45524,649.63899)"
       id="g3018">
      <path
         id="path3020"
         style="fill:#9ba520;fill-opacity:1;fill-rule:nonzero;stroke:none"
         d="m 0,0 c -0.796,-1.083 -1.191,-1.725 -2.555,-2.177 -1.44,-0.478 -2.485,-0.906 -3.988,-0.36 -0.449,0.163 -0.657,-0.486 -0.307,-0.728 1.765,-1.217 3.209,-0.784 5.164,-0.186 1.483,0.453 2.682,1.539 2.814,3.145 C 1.183,0.357 0.318,0.434 0,0" />
    </g>
    <g
       transform="matrix(2.473147,0,0,-2.473147,398.57715,647.57269)"
       id="g3022">
      <path
         id="path3024"
         style="fill:#9ba520;fill-opacity:1;fill-rule:nonzero;stroke:none"
         d="M 0,0 C -0.898,1.82 -2.996,2.585 -4.888,2.759 -6.345,2.893 -8.877,2.532 -9.502,0.99 c -0.11,-0.271 0.224,-0.603 0.495,-0.495 1.396,0.56 2.586,0.937 4.119,0.839 1.822,-0.115 2.678,-1.218 4.08,-2.141 C -0.277,-1.156 0.243,-0.494 0,0" />
    </g>
    <g
       transform="matrix(2.473147,0,0,-2.473147,389.00583,649.83337)"
       id="g3026">
      <path
         id="path3028"
         style="fill:#9ba520;fill-opacity:1;fill-rule:nonzero;stroke:none"
         d="m 0,0 c -0.523,1.417 -2.54,1.026 -3.511,0.38 -0.387,-0.258 -0.145,-0.855 0.317,-0.75 0.445,0.102 0.888,0.14 1.345,0.114 0.433,-0.025 0.769,-0.343 1.186,-0.407 C -0.3,-0.718 0.159,-0.428 0,0" />
    </g>
    <g
       transform="matrix(2.473147,0,0,-2.473147,386.50597,653.85102)"
       id="g3030">
      <path
         id="path3032"
         style="fill:#9ba520;fill-opacity:1;fill-rule:nonzero;stroke:none"
         d="M 0,0 C -0.396,0.174 -0.751,0.059 -1.17,0.045 -1.597,0.031 -2.021,0.089 -2.435,0.197 -2.908,0.322 -3.144,-0.307 -2.757,-0.566 -2.13,-0.987 -0.252,-1.736 0.19,-0.727 0.295,-0.487 0.286,-0.125 0,0" />
    </g>
    <g
       transform="matrix(2.473147,0,0,-2.473147,392.93517,657.01368)"
       id="g3034">
      <path
         id="path3036"
         style="fill:#9ba520;fill-opacity:1;fill-rule:nonzero;stroke:none"
         d="M 0,0 C -1.062,-0.396 -1.948,-0.944 -3.105,-1.064 -4.722,-1.232 -6.121,-0.522 -7.234,0.587 -7.562,0.914 -8.021,0.503 -7.842,0.119 -6.424,-2.911 -1.397,-3.694 0.719,-0.935 1.055,-0.497 0.498,0.187 0,0" />
    </g>
  </g>
</svg>
