<?xml version="1.0" encoding="UTF-8" standalone="no"?>
<svg
   xmlns:dc="http://purl.org/dc/elements/1.1/"
   xmlns:cc="http://creativecommons.org/ns#"
   xmlns:rdf="http://www.w3.org/1999/02/22-rdf-syntax-ns#"
   xmlns:svg="http://www.w3.org/2000/svg"
   xmlns="http://www.w3.org/2000/svg"
   version="1.1"
   id="svg11302"
   viewBox="0 0 504.93261 816.33738"
   height="230.38855mm"
   width="142.5032mm">
  <defs
     id="defs11304" />
  <metadata
     id="metadata11307">
    <rdf:RDF>
      <cc:Work
         rdf:about="">
        <dc:format>image/svg+xml</dc:format>
        <dc:type
           rdf:resource="http://purl.org/dc/dcmitype/StillImage" />
        <dc:title></dc:title>
      </cc:Work>
    </rdf:RDF>
  </metadata>
  <g
     transform="translate(-134.47944,-149.90782)"
     id="layer1">
    <g
       transform="matrix(3.2551391,0,0,-3.2551391,538.22142,650.34244)"
       id="g1422">
      <path
         id="path1424"
         style="fill:#f8ad1c;fill-opacity:1;fill-rule:nonzero;stroke:none"
         d="m 0,0 c -1.233,5.267 -2.713,10.61 -4.892,15.571 -1.286,2.928 -2.012,5.346 -3.24,8.319 -1.094,2.649 -3.131,5.566 -4.37,8.162 -1.115,2.332 -2.938,4.574 -4.421,6.692 -0.969,1.384 -2.747,3.423 -4.68,3.074 -2.084,-0.377 -3.004,-1.88 -4.344,-3.362 -0.482,-0.533 -1.084,-1.216 -1.241,-1.937 -0.767,-0.119 -0.752,-1.209 0.056,-1.274 -0.2,0.016 1.407,-2.142 1.319,-2.014 0.759,-1.103 1.484,-2.19 2.096,-3.384 1.374,-2.678 2.654,-5.38 3.733,-8.193 2.379,-6.203 5.31,-12.124 7.372,-18.453 1.212,-3.721 1.796,-9.647 6.572,-10.143 1.548,-0.161 4.103,0.705 5.278,1.713 C 0.883,-3.819 0.444,-1.9 0,0" />
    </g>
    <g
       transform="matrix(3.2551391,0,0,-3.2551391,278.66866,504.32081)"
       id="g1426">
      <path
         id="path1428"
         style="fill:#f8ad1c;fill-opacity:1;fill-rule:nonzero;stroke:none"
         d="m 0,0 c -0.383,1.961 -0.396,3.724 -1.987,5.122 -1.476,1.296 -4.05,0.467 -5.594,-0.219 -2.362,-1.049 -5.082,-2.028 -7.241,-3.451 -2.401,-1.583 -5.651,-3.031 -7.954,-4.737 -2.586,-1.913 -4.456,-3.608 -7.069,-5.452 -4.426,-3.126 -8.45,-6.94 -12.224,-10.815 -1.362,-1.399 -2.727,-2.816 -2.046,-4.873 0.487,-1.47 2.228,-3.53 3.637,-4.191 4.348,-2.04 7.906,2.736 10.865,5.298 5.031,4.359 10.596,7.917 15.836,12.003 2.376,1.852 4.866,3.507 7.424,5.092 1.141,0.707 2.323,1.265 3.542,1.818 -0.142,-0.065 2.348,0.954 2.168,1.044 0.727,-0.362 1.302,0.565 0.706,1.062 C 0.301,-1.601 0.138,-0.705 0,0" />
    </g>
    <g
       transform="matrix(3.2551391,0,0,-3.2551391,277.753,739.94796)"
       id="g1430">
      <path
         id="path1432"
         style="fill:#e66021;fill-opacity:1;fill-rule:nonzero;stroke:none"
         d="m 0,0 c -1.428,0.886 -6.411,2.312 -6.411,-0.583 0,-0.092 0.026,-0.166 0.05,-0.242 -1.05,-2.777 -1.751,-5.625 -2.282,-8.543 -0.305,-1.685 -1.086,-3.432 -1.483,-5.129 -0.488,-2.091 -0.95,-4.187 -1.353,-6.296 -1.42,-7.434 -1.746,-15.176 -1.437,-22.724 0.297,-7.232 1.523,-14.265 4.114,-21.031 0.649,-1.694 1.056,-4.143 3.219,-4.332 1.47,-0.128 2.879,-0.514 4.347,-0.626 1.672,-0.129 3.465,0.681 5.113,0.527 1.89,-0.177 1.705,1.885 1.606,3.146 -0.111,1.41 -0.867,3.112 -1.285,4.474 -0.566,1.852 -0.743,3.761 -1.235,5.624 -1.958,7.409 -1.754,16.005 0.126,23.412 0.893,3.522 1.559,7.087 2.723,10.534 1.008,2.983 3.042,6.211 3.419,9.331 C 9.947,-6.544 4.375,-2.714 0,0" />
    </g>
    <g
       transform="matrix(3.2551391,0,0,-3.2551391,443.81294,935.49783)"
       id="g1434">
      <path
         id="path1436"
         style="fill:#e66021;fill-opacity:1;fill-rule:nonzero;stroke:none"
         d="m 0,0 c -0.677,1.242 -2.063,2.487 -3,3.56 -1.273,1.459 -2.215,3.129 -3.424,4.628 -4.813,5.964 -8.137,13.894 -9.445,21.423 -0.623,3.58 -1.47,7.106 -1.816,10.728 -0.298,3.135 0.241,6.911 -0.689,9.914 -1.762,5.69 -8.412,6.911 -13.514,7.602 -1.665,0.226 -6.796,-0.507 -5.614,-3.15 0.038,-0.084 0.092,-0.141 0.144,-0.201 0.176,-2.963 0.699,-5.85 1.407,-8.73 0.408,-1.662 0.408,-3.576 0.74,-5.287 0.408,-2.108 0.842,-4.21 1.336,-6.299 1.738,-7.367 4.603,-14.566 7.967,-21.33 3.224,-6.481 7.216,-12.4 12.344,-17.518 1.284,-1.281 2.656,-3.351 4.707,-2.64 1.393,0.484 2.837,0.706 4.223,1.203 1.579,0.566 2.885,2.036 4.452,2.569 C 1.616,-2.918 0.605,-1.11 0,0" />
    </g>
    <g
       transform="matrix(3.2551391,0,0,-3.2551391,634.8551,760.56275)"
       id="g1438">
      <path
         id="path1440"
         style="fill:#a03615;fill-opacity:1;fill-rule:nonzero;stroke:none"
         d="m 0,0 c -0.543,4.475 -2.667,9.187 -6.317,11.963 -7.456,5.671 -18.917,4.282 -25.078,-2.612 -3.569,-3.995 -4.612,-9.275 -4.505,-14.476 0.126,-6.182 1.168,-13.081 -4.602,-17.133 -2.57,-1.805 -6.236,-1.612 -9.216,-1.135 -3.239,0.519 -6.089,2.662 -8.732,4.456 -2.675,1.815 -4.607,4.713 -5.629,7.735 -0.899,2.654 -0.736,5.249 -0.88,7.952 -0.016,0.301 -0.192,0.484 -0.407,0.555 -0.077,0.061 -0.162,0.115 -0.259,0.146 -4.199,1.365 -4.62,-6.415 -4.692,-8.767 -0.076,-2.444 1.239,-4.803 2.333,-6.926 1.251,-2.428 3.068,-4.568 5.008,-6.466 3.59,-3.513 8.518,-6.57 13.658,-6.571 5.499,-0.002 10.686,0.45 15.266,3.844 4.282,3.175 5.354,8.762 4.991,13.747 -0.087,1.222 -0.3,2.438 -0.525,3.64 -0.278,1.487 -0.155,2.949 -0.332,4.446 -0.434,3.674 1.141,7.226 2.841,10.344 1.774,3.258 5.226,5.149 8.843,5.466 3.249,0.286 7.003,-1.755 9.371,-3.823 2.011,-1.758 3.431,-5.05 3.731,-7.709 0.133,-1.179 0.125,-2.408 0.347,-3.576 0.195,-1.035 -0.124,-2.077 0.18,-3.067 0.112,-0.367 0.413,-0.574 0.787,-0.599 C -0.037,-8.819 0.306,-2.522 0,0" />
    </g>
    <g
       transform="matrix(3.2551391,0,0,-3.2551391,629.98832,770.90368)"
       id="g1442">
      <path
         id="path1444"
         style="fill:#e66021;fill-opacity:1;fill-rule:nonzero;stroke:none"
         d="m 0,0 c -0.475,0.534 -1.37,0.11 -1.381,-0.559 -0.388,-0.135 -0.67,-0.566 -0.94,-1.006 -1.288,-2.103 -2.846,-3.992 -3.799,-6.289 -1.733,-4.169 -2.577,-9.455 0.453,-13.313 0.212,-0.27 0.744,-0.335 1.018,-0.131 C 1.774,-16.518 6.013,-6.77 0,0" />
    </g>
    <g
       transform="matrix(3.2551391,0,0,-3.2551391,444.56943,693.01862)"
       id="g1446">
      <path
         id="path1448"
         style="fill:#f8ad1c;fill-opacity:1;fill-rule:nonzero;stroke:none"
         d="m 0,0 c -0.032,5.879 -0.5,11.737 -0.499,17.625 0,5.542 0.25,11.083 0.25,16.616 0,2.866 -0.02,5.735 0.009,8.601 0.023,2.341 0.365,4.815 -0.039,7.137 -0.322,1.849 -0.479,3.486 -1.738,4.945 -1.351,1.568 -4.11,1.835 -5.976,2.126 -5.439,0.848 -10.943,1.312 -16.423,1.791 -5.367,0.469 -12.103,0.65 -16.791,3.6 -0.019,0.013 -0.04,0.017 -0.06,0.027 0,0.011 0,0.021 -10e-4,0.032 -0.037,0.765 -1.149,0.765 -1.187,0 -0.191,-3.877 -0.507,-7.449 -1.859,-11.121 -1.457,-3.953 -3.684,-7.697 -5.673,-11.4 -3.657,-6.807 -7.971,-13.233 -11.534,-20.083 -6.248,-12.004 -12.049,-26.903 -7.906,-40.416 1.752,-5.712 4.755,-12.001 9.705,-15.558 5.952,-4.277 13.06,-6.908 20.272,-8.039 7.179,-1.126 13.346,-0.731 19.994,2.319 2.774,1.274 5.695,2.722 7.922,4.846 2.329,2.222 4.384,4.709 6.215,7.35 1.362,1.965 2.366,4.263 3.077,6.54 0.725,2.325 0.799,4.759 1.41,7.097 C 0.532,-10.75 0.028,-5.321 0,0" />
    </g>
    <g
       transform="matrix(3.2551391,0,0,-3.2551391,398.64137,519.57439)"
       id="g1450">
      <path
         id="path1452"
         style="fill:#f6e1d0;fill-opacity:1;fill-rule:nonzero;stroke:none"
         d="m 0,0 c -1.821,1.799 -4.198,1.515 -6.467,1.95 -3.245,0.621 -6.861,0.27 -10.078,1.16 -0.12,0.09 -0.265,0.158 -0.457,0.158 -0.083,-10e-4 -0.166,0 -0.25,0.002 -0.5,0.01 -0.756,-0.354 -0.769,-0.741 -0.207,-0.103 -0.348,-0.324 -0.357,-0.562 -0.122,-3.395 -1.709,-7.137 -2.806,-10.331 -1.316,-3.835 -3,-7.534 -4.463,-11.314 -1.349,-3.479 -2.375,-7.063 -3.604,-10.584 -1.257,-3.603 -2.525,-7.184 -3.221,-10.947 -0.942,-5.092 -0.686,-11.746 2.786,-15.93 1.764,-2.124 4.192,-3.606 6.769,-4.57 2.811,-1.051 6.932,-1.979 9.899,-1.175 5.71,1.547 9.673,7.002 10.762,12.644 1.332,6.9 1.821,14.041 2.144,21.064 0.35,7.643 0.279,15.307 0.798,22.943 C 0.819,-4.261 1.576,-1.555 0,0" />
    </g>
    <g
       transform="matrix(3.2551391,0,0,-3.2551391,621.85373,364.1321)"
       id="g1454">
      <path
         id="path1456"
         style="fill:#e66021;fill-opacity:1;fill-rule:nonzero;stroke:none"
         d="m 0,0 c -0.118,5.192 -3.152,10.14 -6.937,13.527 -1.873,1.676 -3.879,2.624 -6.003,3.095 3.44,5.217 4.089,12.452 1.029,17.886 -1.857,3.295 -5.276,6.545 -8.575,8.325 -3.191,1.721 -8.32,3.125 -11.949,2.216 0.762,0.191 -0.481,4.721 -0.638,5.242 -0.62,2.066 -1.41,3.937 -2.563,5.767 -2.167,3.441 -5.873,6.043 -9.636,7.474 -4.518,1.718 -9.178,1.607 -13.876,0.814 -2.276,-0.384 -4.575,-0.965 -6.694,-1.888 -1.95,-0.85 -3.578,-2.244 -5.484,-3.147 -2.762,3.046 -6.258,6.06 -10.527,6.419 -4.812,0.407 -9.974,-0.754 -14.375,-2.673 -4.761,-2.076 -8.043,-5.256 -10.939,-9.516 -2.372,-3.491 -3.68,-9.312 -3.139,-13.49 0.117,-0.895 0.221,-1.732 0.274,-2.626 0.071,-1.227 -0.919,-0.741 -1.838,-0.83 -1.804,-0.174 -3.848,-0.477 -5.506,-1.218 -4.159,-1.861 -7.812,-3.264 -10.432,-7.251 -2.779,-4.23 -3.722,-8.57 -3.726,-13.575 -0.001,-2.153 1.07,-4.532 1.753,-6.544 0.552,-1.628 1.303,-2.905 2.468,-4.08 -4.419,-4.987 -8.73,-10.975 -9.062,-17.842 -0.187,-3.859 1.152,-7.677 3.346,-10.808 1.828,-2.611 5.535,-5.524 8.835,-5.811 0.837,-0.072 1.633,-0.063 2.468,-0.013 -0.441,-0.026 -0.767,-1.373 -0.848,-1.595 -0.622,-1.702 -0.767,-3.254 -0.489,-5.078 0.673,-4.408 1.854,-8.897 4.387,-12.631 2.116,-3.121 5.802,-4.625 9.256,-5.69 2.002,-0.617 4.005,-0.657 6.077,-0.478 1.793,0.157 3.267,1.03 4.869,1.653 0.381,-1.188 0.46,-2.528 0.958,-3.674 0.85,-1.955 1.536,-3.645 2.871,-5.346 2.536,-3.227 5.669,-5.209 9.648,-6.111 3.727,-0.846 7.95,-0.658 11.449,0.957 1.693,0.781 3.274,1.699 4.645,2.967 0.671,0.619 1.211,1.095 1.747,1.834 0.285,0.336 0.538,0.693 0.759,1.074 0.603,0.949 0.082,0.352 0.625,-0.121 6.079,-5.303 14.958,-8.553 22.95,-6.112 3.359,1.026 7.221,3.821 9.252,6.701 1.2,1.7 1.797,3.634 2.335,5.63 0.412,1.528 0.146,3.089 0.302,4.586 4.12,-0.581 7.92,-0.276 11.9,1.378 3.257,1.354 6.486,4.087 8.574,6.9 2.45,3.303 3.361,7.464 3.433,11.504 0.08,4.474 -1.705,7.848 -3.773,11.627 C -3.906,-16.438 0.184,-8.053 0,0" />
    </g>
    <g
       transform="matrix(3.2551391,0,0,-3.2551391,253.14251,316.95146)"
       id="g1458">
      <path
         id="path1460"
         style="fill:#f8ad1c;fill-opacity:1;fill-rule:nonzero;stroke:none"
         d="m 0,0 c -4.811,-0.909 -9.3,-5.253 -10.169,-10.097 -0.765,-4.266 1.347,-9.907 5.736,-11.151 0.498,-0.141 0.945,0.54 0.525,0.901 -1.216,1.044 -2.248,1.508 -3.262,2.886 -1.661,2.258 -1.91,5.126 -1.413,7.794 0.858,4.607 5.529,6.52 8.971,8.746 C 0.882,-0.601 0.558,0.105 0,0" />
    </g>
    <g
       transform="matrix(3.2551391,0,0,-3.2551391,316.04547,234.30478)"
       id="g1462">
      <path
         id="path1464"
         style="fill:#f8ad1c;fill-opacity:1;fill-rule:nonzero;stroke:none"
         d="m 0,0 c -4.549,1.978 -9.569,-0.9 -12.498,-4.354 -3.317,-3.913 -2.723,-9.932 1.277,-13.041 0.433,-0.335 1.14,0.085 0.811,0.625 -0.726,1.189 -1.599,1.951 -2.126,3.336 -1.002,2.63 -0.783,5.187 0.773,7.523 1.304,1.955 3.331,3.541 5.529,4.333 2.079,0.75 3.797,0.515 5.924,0.435 C 0.27,-1.164 0.571,-0.248 0,0" />
    </g>
    <g
       transform="matrix(3.2551391,0,0,-3.2551391,417.34571,212.19749)"
       id="g1466">
      <path
         id="path1468"
         style="fill:#f8ad1c;fill-opacity:1;fill-rule:nonzero;stroke:none"
         d="m 0,0 c -0.862,4.383 -6.314,7.133 -10.478,6.478 -4.126,-0.651 -9.164,-4.259 -9.127,-8.866 0.005,-0.655 1.03,-0.829 1.167,-0.158 0.763,3.753 4.001,6.536 7.629,7.4 4.44,1.058 7.407,-2.096 9.596,-5.366 C -0.786,-1.149 0.146,-0.743 0,0" />
    </g>
    <g
       transform="matrix(3.2551391,0,0,-3.2551391,508.76924,222.25522)"
       id="g1470">
      <path
         id="path1472"
         style="fill:#f8ad1c;fill-opacity:1;fill-rule:nonzero;stroke:none"
         d="m 0,0 c -1.647,1.759 -3.958,2.475 -6.272,2.772 -2.738,0.352 -4.369,-0.943 -6.556,-2.132 -0.54,-0.293 -0.157,-1.066 0.4,-0.95 1.525,0.318 2.685,1.396 4.357,1.603 2.267,0.282 4.64,-0.55 6.397,-1.948 3.622,-2.883 2.913,-6.91 1.653,-10.738 -0.178,-0.54 0.579,-0.984 0.959,-0.559 C 4.139,-8.374 3.062,-3.268 0,0" />
    </g>
    <g
       transform="matrix(3.2551391,0,0,-3.2551391,559.72615,318.25154)"
       id="g1474">
      <path
         id="path1476"
         style="fill:#f8ad1c;fill-opacity:1;fill-rule:nonzero;stroke:none"
         d="M 0,0 C -0.549,2.323 -2.264,3.726 -4.354,4.667 -5.251,5.071 -6.404,6.018 -7.468,5.892 -8.402,5.78 -9.246,5.528 -10.151,5.327 -10.398,5.272 -10.593,4.959 -10.499,4.714 l 0.059,-0.153 c 0.157,-0.415 0.685,-0.415 0.843,0 -0.093,-0.245 2.654,-0.263 3.175,-0.489 2.106,-0.914 4.09,-2.239 4.794,-4.521 0.585,-1.897 0.398,-3.977 -0.643,-5.658 -1.031,-1.665 -2.6,-2.413 -3.982,-3.699 -0.476,-0.444 0.018,-1.419 0.669,-1.15 C -0.89,-9.011 1.159,-4.903 0,0" />
    </g>
    <g
       transform="matrix(3.2551391,0,0,-3.2551391,545.2688,390.59604)"
       id="g1478">
      <path
         id="path1480"
         style="fill:#f8ad1c;fill-opacity:1;fill-rule:nonzero;stroke:none"
         d="m 0,0 c -0.562,0.158 -0.867,-0.621 -0.389,-0.921 1.575,-0.985 3.004,-1.848 3.745,-3.672 0.555,-1.363 0.752,-3.054 0.692,-4.504 -0.194,-4.671 -4.752,-5.986 -8.44,-6.912 -0.602,-0.151 -0.661,-1.162 0,-1.273 4.633,-0.777 9.103,2.88 10.036,7.288 C 6.561,-5.661 4.249,-1.193 0,0" />
    </g>
    <g
       transform="matrix(3.2551391,0,0,-3.2551391,279.09769,464.55017)"
       id="g1482">
      <path
         id="path1484"
         style="fill:#f8ad1c;fill-opacity:1;fill-rule:nonzero;stroke:none"
         d="m 0,0 c -3.348,-0.886 -6.351,-1.014 -8.959,1.659 -2.646,2.714 -0.581,7.468 1.59,9.726 0.273,0.285 0.004,0.877 -0.414,0.712 -3.831,-1.514 -4.785,-6.98 -3.238,-10.416 1.847,-4.1 8.295,-5.398 11.587,-2.654 C 1.032,-0.583 0.53,0.141 0,0" />
    </g>
    <g
       transform="matrix(3.2551391,0,0,-3.2551391,350.21792,505.43016)"
       id="g1486">
      <path
         id="path1488"
         style="fill:#f8ad1c;fill-opacity:1;fill-rule:nonzero;stroke:none"
         d="m 0,0 c -1.139,-1.18 -1.96,-2.401 -3.427,-3.233 -2.18,-1.237 -5.094,-0.954 -7.407,-0.416 -3.477,0.808 -5.048,5.346 -4.522,8.566 0.055,0.342 -0.392,0.741 -0.666,0.388 -2.484,-3.191 0.611,-8.851 3.777,-10.259 4.462,-1.984 11.717,-0.911 13.237,4.376 C 1.155,-0.009 0.413,0.428 0,0" />
    </g>
    <g
       transform="matrix(3.2551391,0,0,-3.2551391,430.8972,513.9749)"
       id="g1490">
      <path
         id="path1492"
         style="fill:#f8ad1c;fill-opacity:1;fill-rule:nonzero;stroke:none"
         d="m 0,0 c -0.61,-1.599 -0.858,-3.529 -1.998,-4.876 -1.084,-1.281 -3.136,-1.785 -4.73,-1.959 -3.549,-0.388 -5.349,2.855 -6.73,5.538 -0.48,0.934 -1.868,0.112 -1.403,-0.821 1.895,-3.8 4.245,-6.85 8.872,-6.401 4.633,0.449 7.108,3.898 7.293,8.342 C 1.337,0.621 0.251,0.66 0,0" />
    </g>
    <g
       transform="matrix(3.2551391,0,0,-3.2551391,522.95969,481.9004)"
       id="g1494">
      <path
         id="path1496"
         style="fill:#f8ad1c;fill-opacity:1;fill-rule:nonzero;stroke:none"
         d="m 0,0 c -0.109,0.607 -1.058,0.575 -1.19,0 -0.702,-3.037 -0.008,-6.025 -2.483,-8.377 -2.977,-2.831 -9.44,-1.881 -11.443,1.671 -0.296,0.525 -1.083,0.164 -0.949,-0.4 1.075,-4.539 7.787,-5.216 11.362,-3.884 C -0.295,-9.347 0.749,-4.168 0,0" />
    </g>
    <g
       transform="matrix(3.2551391,0,0,-3.2551391,538.0339,273.00088)"
       id="g1498">
      <path
         id="path1500"
         style="fill:#a03615;fill-opacity:1;fill-rule:nonzero;stroke:none"
         d="m 0,0 c -3.605,-0.284 -7.175,-2.201 -9.954,-4.43 -1.752,-1.406 -3.292,-2.996 -4.676,-4.765 -1.047,-1.337 -2.708,-2.717 -3.148,-4.393 -0.136,-0.516 0.238,-0.846 0.64,-0.886 0.32,-0.945 0.879,-1.896 1.221,-2.777 0.374,-0.96 0.667,-2.936 1.668,-3.509 1.404,-0.802 3.194,-0.49 4.759,-0.795 1.848,-0.359 3.939,-0.354 5.816,-0.358 3.781,-0.009 8.122,-1.076 11.658,0.772 3.728,1.948 4.991,4.801 5.671,8.855 C 14.957,-4.541 6.816,0.537 0,0" />
    </g>
    <g
       transform="matrix(3.2551391,0,0,-3.2551391,327.45734,246.05841)"
       id="g1502">
      <path
         id="path1504"
         style="fill:#a03615;fill-opacity:1;fill-rule:nonzero;stroke:none"
         d="m 0,0 c -1.315,3.311 -3.473,6.74 -6.468,8.767 -5.662,3.833 -15.249,3.437 -17.941,-3.941 -1.409,-3.862 -1.72,-6.967 0.559,-10.501 2.163,-3.353 6.464,-4.568 9.757,-6.428 1.634,-0.923 3.45,-1.96 5.235,-2.56 1.51,-0.507 2.914,-1.662 4.531,-1.658 1.153,0.003 2.384,1.577 3.182,2.228 0.734,0.596 1.689,1.148 2.433,1.812 0.37,-0.164 0.858,-0.062 0.995,0.454 0.445,1.675 -0.319,3.695 -0.569,5.375 C 1.384,-4.23 0.829,-2.088 0,0" />
    </g>
    <g
       transform="matrix(3.2551391,0,0,-3.2551391,534.03172,300.97295)"
       id="g1506">
      <path
         id="path1508"
         style="fill:#f38c6b;fill-opacity:1;fill-rule:nonzero;stroke:none"
         d="m 0,0 c -2.701,-0.464 -5.262,-1.565 -7.665,-2.853 -1.596,-0.855 -4.24,-1.973 -5.27,-3.491 -0.231,-0.34 -0.072,-0.695 0.206,-0.883 1.307,-3.019 7.631,-2.082 10.054,-2.013 3.132,0.088 8.25,0.926 9.14,4.578 C 7.254,-1.42 2.448,0.42 0,0" />
    </g>
    <g
       transform="matrix(3.2551391,0,0,-3.2551391,296.07259,243.82213)"
       id="g1510">
      <path
         id="path1512"
         style="fill:#f38c6b;fill-opacity:1;fill-rule:nonzero;stroke:none"
         d="m 0,0 c -1.922,1.575 -7.009,2.347 -7.924,-0.862 -1.029,-3.615 3.008,-6.871 5.688,-8.493 2.072,-1.256 7.11,-5.194 9.737,-3.214 0.334,0.027 0.647,0.256 0.615,0.666 -0.146,1.828 -1.893,4.107 -2.86,5.638 C 3.803,-3.958 2.12,-1.737 0,0" />
    </g>
    <g
       transform="matrix(3.2551391,0,0,-3.2551391,501.09557,305.32962)"
       id="g1514">
      <path
         id="path1516"
         style="fill:#f8ad1c;fill-opacity:1;fill-rule:nonzero;stroke:none"
         d="m 0,0 c -2.59,7.727 -6.823,16.085 -14.634,19.728 -3.59,1.674 -8.166,1.674 -12.041,1.809 -2.73,0.095 -5.51,0.205 -8.017,-0.609 -2.527,-0.531 -5.007,-1.417 -7.335,-2.452 -6.277,-2.79 -11.91,-8.288 -16.47,-13.306 -8.775,-9.657 -15.688,-23.066 -13.043,-36.379 1.334,-6.713 4.852,-11.541 10.292,-15.569 5.439,-4.028 12.322,-6.965 18.868,-8.596 3.362,-0.837 6.851,-1.188 10.293,-1.505 3.882,-0.359 7.543,-0.72 11.441,-0.486 6.501,0.389 12.505,1.577 17.645,5.862 6.533,5.446 8.813,14.634 8.865,22.772 C 5.925,-19.127 3.029,-9.037 0,0" />
    </g>
    <g
       transform="matrix(3.2551391,0,0,-3.2551391,430.20091,379.30136)"
       id="g1518">
      <path
         id="path1520"
         style="fill:#e66021;fill-opacity:1;fill-rule:nonzero;stroke:none"
         d="M 0,0 C 1.684,0 3.17,0.265 3.518,2.047 3.941,4.216 3.161,7.068 2.857,9.229 1.885,16.146 1.406,22.948 1.095,29.911 c -0.209,4.658 0.062,9.357 0.049,14.031 -2.049,0.217 -4.129,0.253 -6.04,0.319 -0.204,0.008 -0.41,0.014 -0.615,0.021 -1.03,-2.4 -2.464,-4.715 -3.633,-6.988 -1.507,-2.933 -2.699,-6.027 -4.11,-9.011 -2.834,-5.993 -6.407,-11.666 -8.873,-17.827 -0.852,-2.129 -1.667,-4.053 -0.643,-6.236 0.832,-1.769 3.801,-2.252 5.439,-2.65 C -11.787,0.226 -5.693,0.003 0,0" />
    </g>
    <g
       transform="matrix(3.2551391,0,0,-3.2551391,427.0096,435.0791)"
       id="g1522">
      <path
         id="path1524"
         style="fill:#f6e1d0;fill-opacity:1;fill-rule:nonzero;stroke:none"
         d="m 0,0 c -5.444,-0.456 -5.666,3.933 -7.576,7.195 -0.736,1.255 -2.802,0.436 -3.873,0.989 -0.46,0.238 -0.914,0.161 -1.302,-0.168 -0.176,-0.149 -0.351,-0.308 -0.524,-0.474 -0.1,-0.052 -0.2,-0.116 -0.294,-0.206 l -0.264,-0.25 c -0.259,-0.072 -0.506,-0.237 -0.698,-0.532 -0.665,-1.02 -1.549,-1.728 -2.552,-2.234 -0.083,-0.041 -0.168,-0.081 -0.252,-0.122 -1.491,-0.687 -3.222,-0.945 -4.919,-1.055 -0.231,0.03 -0.464,0.055 -0.69,0.104 -0.047,0.01 -0.09,-0.002 -0.136,0.002 -0.579,0.767 -2.068,0.449 -2.027,-0.676 0.19,-5.184 5.89,-8.241 10.294,-9.27 6.141,-1.436 11.326,0.147 15.644,4.692 C 1.485,-1.317 1.073,0.09 0,0" />
    </g>
    <g
       transform="matrix(3.2551391,0,0,-3.2551391,386.78746,403.08567)"
       id="g1526">
      <path
         id="path1528"
         style="fill:#a03615;fill-opacity:1;fill-rule:nonzero;stroke:none"
         d="m 0,0 c -2.49,-2.951 -4.548,-5.341 -8.694,-5.495 -3.541,-0.132 -7.509,0.738 -8.773,4.529 -0.151,0.452 -0.813,0.487 -0.949,0 -1.15,-4.119 4.99,-6.215 8.09,-6.33 5.126,-0.19 9.356,1.797 11.312,6.722 C 1.203,-0.028 0.371,0.439 0,0" />
    </g>
    <g
       transform="matrix(3.2551391,0,0,-3.2551391,458.46106,425.82703)"
       id="g1530">
      <path
         id="path1532"
         style="fill:#a03615;fill-opacity:1;fill-rule:nonzero;stroke:none"
         d="m 0,0 c -1.44,-0.789 -2.719,-1.955 -4.317,-2.43 -2.225,-0.661 -4.477,-0.097 -6.661,0.427 -3.281,0.786 -4.637,5.429 -5.684,8.19 -0.232,0.61 -1.221,0.569 -1.197,-0.162 0.124,-3.809 2.734,-8.476 6.405,-9.758 3.761,-1.315 10.509,-1.39 12.308,3.076 C 1.059,-0.152 0.404,0.222 0,0" />
    </g>
    <g
       transform="matrix(3.2551391,0,0,-3.2551391,430.53489,436.64938)"
       id="g1534">
      <path
         id="path1536"
         style="fill:#a03615;fill-opacity:1;fill-rule:nonzero;stroke:none"
         d="m 0,0 c -1.796,-1.873 -3.228,-3.267 -5.567,-4.503 -3.208,-1.695 -6.575,-1.952 -10.074,-1.196 -2.765,0.598 -5.015,1.812 -7.23,3.568 -1.991,1.578 -2.278,4.238 -2.975,6.49 -0.216,0.701 -1.328,0.593 -1.303,-0.176 0.193,-6.215 5.096,-10.49 11.033,-11.606 6.513,-1.224 13.577,0.665 17.398,6.434 C 1.799,-0.208 0.635,0.663 0,0" />
    </g>
    <g
       transform="matrix(3.2551391,0,0,-3.2551391,460.54956,330.90364)"
       id="g1538">
      <path
         id="path1540"
         style="fill:#3f2322;fill-opacity:1;fill-rule:nonzero;stroke:none"
         d="m 0,0 c -1.034,0.313 -2.109,-0.059 -2.894,-0.737 -1.343,-0.697 -2.01,-2.784 -1.385,-4.267 1.12,-2.661 4.643,-2.92 6.383,-0.776 C 3.739,-3.767 2.315,-0.701 0,0" />
    </g>
    <g
       transform="matrix(3.2551391,0,0,-3.2551391,350.76479,310.98315)"
       id="g1542">
      <path
         id="path1544"
         style="fill:#3f2322;fill-opacity:1;fill-rule:nonzero;stroke:none"
         d="m 0,0 c -1.034,0.313 -2.109,-0.059 -2.894,-0.737 -1.343,-0.697 -2.01,-2.784 -1.385,-4.267 1.12,-2.661 4.643,-2.92 6.383,-0.776 C 3.739,-3.767 2.315,-0.701 0,0" />
    </g>
    <g
       transform="matrix(3.2551391,0,0,-3.2551391,458.43567,337.59326)"
       id="g1546">
      <path
         id="path1548"
         style="fill:#643e39;fill-opacity:1;fill-rule:nonzero;stroke:none"
         d="M 0,0 C -0.012,0.042 -0.039,0.076 -0.059,0.114 -0.149,0.468 -0.363,0.794 -0.743,0.967 -1.097,1.128 -1.475,1.125 -1.78,0.972 -1.796,0.965 -1.812,0.963 -1.826,0.956 -1.866,0.937 -1.895,0.902 -1.931,0.877 -1.972,0.846 -2.017,0.825 -2.053,0.786 -2.294,0.547 -2.413,0.184 -2.449,-0.149 c -0.055,-0.507 0.381,-0.943 0.84,-1.139 0.021,-0.01 0.042,-0.017 0.064,-0.025 0.098,-0.037 0.195,-0.067 0.288,-0.079 0.003,0 0.005,10e-4 0.008,0 0.14,-0.016 0.277,-0.007 0.411,0.023 0.067,0.015 0.125,0.041 0.185,0.066 0.07,0.029 0.135,0.062 0.198,0.102 0.024,0.017 0.049,0.033 0.071,0.053 C -0.062,-0.902 0.133,-0.5 0,0" />
    </g>
    <g
       transform="matrix(3.2551391,0,0,-3.2551391,456.576,336.36641)"
       id="g1550">
      <path
         id="path1552"
         style="fill:#f6e1d0;fill-opacity:1;fill-rule:nonzero;stroke:none"
         d="M 0,0 C -1.003,0 -1.003,-1.555 0,-1.555 1.002,-1.555 1.002,0 0,0" />
    </g>
    <g
       transform="matrix(3.2551391,0,0,-3.2551391,463.52801,335.71145)"
       id="g1554">
      <path
         id="path1556"
         style="fill:#f6e1d0;fill-opacity:1;fill-rule:nonzero;stroke:none"
         d="M 0,0 C -0.711,0 -0.711,-1.102 0,-1.102 0.71,-1.102 0.71,0 0,0" />
    </g>
    <g
       transform="matrix(3.2551391,0,0,-3.2551391,461.09317,341.28394)"
       id="g1558">
      <path
         id="path1560"
         style="fill:#f6e1d0;fill-opacity:1;fill-rule:nonzero;stroke:none"
         d="M 0,0 C -0.569,0 -0.569,-0.883 0,-0.883 0.569,-0.883 0.569,0 0,0" />
    </g>
    <g
       transform="matrix(3.2551391,0,0,-3.2551391,348.10403,317.90196)"
       id="g1562">
      <path
         id="path1564"
         style="fill:#643e39;fill-opacity:1;fill-rule:nonzero;stroke:none"
         d="M 0,0 C -0.011,0.042 -0.039,0.076 -0.059,0.114 -0.148,0.468 -0.363,0.794 -0.742,0.967 -1.097,1.128 -1.475,1.125 -1.78,0.972 -1.795,0.965 -1.811,0.963 -1.825,0.956 -1.866,0.937 -1.895,0.902 -1.931,0.877 -1.971,0.846 -2.017,0.825 -2.052,0.786 -2.293,0.547 -2.412,0.184 -2.448,-0.149 c -0.055,-0.507 0.381,-0.943 0.839,-1.139 0.021,-0.01 0.043,-0.017 0.064,-0.025 0.098,-0.037 0.195,-0.067 0.289,-0.079 0.003,0 0.005,10e-4 0.008,0 0.139,-0.016 0.277,-0.007 0.41,0.023 0.067,0.015 0.125,0.041 0.185,0.066 0.07,0.029 0.135,0.062 0.199,0.102 0.023,0.017 0.048,0.033 0.07,0.053 C -0.062,-0.902 0.133,-0.5 0,0" />
    </g>
    <g
       transform="matrix(3.2551391,0,0,-3.2551391,346.24436,316.67509)"
       id="g1566">
      <path
         id="path1568"
         style="fill:#f6e1d0;fill-opacity:1;fill-rule:nonzero;stroke:none"
         d="M 0,0 C -1.002,0 -1.002,-1.555 0,-1.555 1.003,-1.555 1.003,0 0,0" />
    </g>
    <g
       transform="matrix(3.2551391,0,0,-3.2551391,353.19671,316.02015)"
       id="g1570">
      <path
         id="path1572"
         style="fill:#f6e1d0;fill-opacity:1;fill-rule:nonzero;stroke:none"
         d="M 0,0 C -0.71,0 -0.71,-1.102 0,-1.102 0.711,-1.102 0.711,0 0,0" />
    </g>
    <g
       transform="matrix(3.2551391,0,0,-3.2551391,350.76479,321.59261)"
       id="g1574">
      <path
         id="path1576"
         style="fill:#f6e1d0;fill-opacity:1;fill-rule:nonzero;stroke:none"
         d="M 0,0 C -0.569,0 -0.569,-0.883 0,-0.883 0.569,-0.883 0.569,0 0,0" />
    </g>
    <g
       transform="matrix(3.2551391,0,0,-3.2551391,443.42167,365.65941)"
       id="g1578">
      <path
         id="path1580"
         style="fill:#3f2322;fill-opacity:1;fill-rule:nonzero;stroke:none"
         d="m 0,0 c -2.7,1.025 -5.536,1.511 -8.326,2.223 -4.824,1.23 -10.19,2.09 -15.158,1.673 -0.802,-0.067 -1.555,-0.185 -2.234,-0.378 -0.764,-0.108 -1.511,-0.311 -2.136,-0.814 -1.254,-1.009 -1.461,-2.331 -1.159,-3.706 0.002,-0.058 -10e-4,-0.11 0.003,-0.169 0.007,-0.126 0.059,-0.246 0.13,-0.35 0.597,-1.944 2.082,-3.931 3.013,-5.243 2.426,-3.425 5.296,-7.645 9.61,-8.832 1.704,-0.469 3.911,0.391 5.527,0.798 2.249,0.565 4.345,1.711 6.119,3.193 1.657,1.384 3.132,2.87 4.426,4.598 1.049,1.399 2.504,3.135 2.504,5.003 C 2.319,-0.755 0.891,-0.338 0,0" />
    </g>
    <g
       transform="matrix(3.2551391,0,0,-3.2551391,433.62792,370.07499)"
       id="g1582">
      <path
         id="path1584"
         style="fill:#643e39;fill-opacity:1;fill-rule:nonzero;stroke:none"
         d="m 0,0 c -2.937,1.439 -6.078,2.813 -9.34,3.248 -3.945,0.525 -8.866,1.471 -12.427,-0.685 -1.735,-1.051 -1.788,-3.657 0,-4.695 2.994,-1.74 7.028,-1.212 10.414,-1.558 2.696,-0.275 5.269,-1.405 7.663,-2.624 C 0.513,-8.456 4.22,-2.069 0,0" />
    </g>
    <g
       transform="matrix(3.2551391,0,0,-3.2551391,437.78247,370.19087)"
       id="g1586">
      <path
         id="path1588"
         style="fill:#f6e1d0;fill-opacity:1;fill-rule:nonzero;stroke:none"
         d="m 0,0 c -2.469,2.317 -7.926,3.489 -11.228,3.615 -2.492,0.095 -4.865,0.315 -7.355,0.02 -1.451,-0.172 -2.834,0.421 -4.124,-0.513 -0.599,-0.434 -0.599,-1.185 0,-1.62 1.565,-1.133 5.727,-0.053 7.594,-0.291 3.812,-0.484 9.996,-0.543 12.992,-3.332 C -0.708,-3.437 1.414,-1.327 0,0" />
    </g>
    <g
       transform="matrix(3.2551391,0,0,-3.2551391,436.40294,385.61307)"
       id="g1590">
      <path
         id="path1592"
         style="fill:#f6e1d0;fill-opacity:1;fill-rule:nonzero;stroke:none"
         d="M 0,0 C -0.072,0.126 -0.171,0.236 -0.267,0.346 -0.747,0.89 -1.704,1.005 -2.315,0.622 -2.336,0.618 -2.35,0.616 -2.379,0.609 -2.753,0.52 -3.079,0.272 -3.367,0.037 c -0.579,-0.471 -0.583,-1.618 0,-2.088 0.867,-0.7 1.763,-0.751 2.754,-0.287 C 0.236,-1.941 0.431,-0.751 0,0" />
    </g>
    <g
       transform="matrix(3.2551391,0,0,-3.2551391,147.47453,573.22689)"
       id="g1594">
      <path
         id="path1596"
         style="fill:#e66021;fill-opacity:1;fill-rule:nonzero;stroke:none"
         d="m 0,0 c -0.39,-0.348 -0.619,-0.846 -0.969,-1.234 -0.422,-0.47 -0.929,-0.723 -1.532,-0.872 -0.147,-0.037 -0.289,-0.171 -0.321,-0.322 -0.015,-0.07 -0.031,-0.136 -0.01,-0.209 0.003,-0.011 0.007,-0.023 0.01,-0.035 0.056,-0.201 0.237,-0.334 0.443,-0.338 1.358,-0.029 2.954,1.356 3.107,2.709 C 0.772,0.099 0.247,0.221 0,0" />
    </g>
    <g
       transform="matrix(3.2551391,0,0,-3.2551391,159.55401,581.60627)"
       id="g1598">
      <path
         id="path1600"
         style="fill:#e66021;fill-opacity:1;fill-rule:nonzero;stroke:none"
         d="M 0,0 C -0.112,0.345 -0.541,0.477 -0.81,0.213 -1.057,-0.027 -1.138,-0.324 -1.26,-0.639 -1.409,-1.025 -1.598,-1.275 -1.943,-1.513 -2.425,-1.844 -3.138,-2.172 -3.541,-2.278 -3.77,-2.34 -3.844,-2.636 -3.68,-2.801 -3.025,-3.459 -2.004,-2.95 -1.32,-2.578 -0.482,-2.123 0.325,-1 0,0" />
    </g>
    <g
       transform="matrix(3.2551391,0,0,-3.2551391,520.66156,667.3525)"
       id="g1602">
      <path
         id="path1604"
         style="fill:#e66021;fill-opacity:1;fill-rule:nonzero;stroke:none"
         d="M 0,0 C -0.119,0.234 -0.281,0.368 -0.472,0.546 -0.738,0.795 -0.901,1.056 -1.078,1.371 -1.343,1.845 -1.184,2.497 -1.316,3.01 -1.358,3.168 -1.549,3.294 -1.711,3.233 -2.431,2.967 -2.484,1.916 -2.353,1.272 -2.178,0.417 -1.427,-0.789 -0.449,-0.782 -0.038,-0.779 0.176,-0.348 0,0" />
    </g>
    <g
       transform="matrix(3.2551391,0,0,-3.2551391,533.25601,663.09282)"
       id="g1606">
      <path
         id="path1608"
         style="fill:#e66021;fill-opacity:1;fill-rule:nonzero;stroke:none"
         d="M 0,0 C -0.124,0.481 -0.578,0.736 -0.861,1.124 -1.212,1.604 -0.962,2.299 -1.02,2.842 -1.062,3.238 -1.558,3.561 -1.88,3.198 -2.429,2.578 -2.495,1.701 -2.321,0.92 -2.17,0.242 -1.296,-0.81 -0.543,-0.712 -0.183,-0.665 0.1,-0.389 0,0" />
    </g>
    <g
       transform="matrix(3.2551391,0,0,-3.2551391,529.33651,636.63211)"
       id="g1610">
      <path
         id="path1612"
         style="fill:#f38c6b;fill-opacity:1;fill-rule:nonzero;stroke:none"
         d="m 0,0 c -0.23,1.047 -0.886,1.824 -1.757,2.404 -0.32,0.213 -0.684,0.328 -1.058,0.375 -0.164,0.068 -0.326,0.139 -0.498,0.18 -2.074,0.49 -4.106,-0.891 -4.602,-2.925 -0.429,-1.76 0.272,-3.832 1.961,-4.673 2.032,-1.011 4.272,-0.258 5.51,1.58 C 0.147,-2.179 0.222,-1.007 0,0" />
    </g>
    <g
       transform="matrix(3.2551391,0,0,-3.2551391,175.318,557.35809)"
       id="g1614">
      <path
         id="path1616"
         style="fill:#f38c6b;fill-opacity:1;fill-rule:nonzero;stroke:none"
         d="m 0,0 c -0.951,0.617 -2.169,0.64 -3.237,0.42 -1.318,-0.271 -2.327,-1.379 -2.742,-2.613 -0.1,-0.176 -0.178,-0.36 -0.228,-0.541 -0.259,-0.934 -0.059,-1.905 0.444,-2.698 0.188,-0.38 0.429,-0.729 0.74,-1.005 0.749,-0.667 1.486,-0.861 2.45,-0.979 0.705,-0.087 1.36,0.185 1.896,0.61 0.545,0.23 1.042,0.536 1.45,0.985 0.664,0.728 0.939,1.514 1.064,2.483 C 2.015,-1.965 1.087,-0.707 0,0" />
    </g>
    <g
       transform="matrix(3.2551391,0,0,-3.2551391,419.34827,943.23822)"
       id="g1618">
      <path
         id="path1620"
         style="fill:#f8ad1c;fill-opacity:1;fill-rule:nonzero;stroke:none"
         d="m 0,0 c -0.727,0.522 -3.487,1.111 -3.39,-0.443 0.024,-0.377 0.505,-0.652 0.794,-0.329 0.169,0.189 0.726,0.06 0.95,0.046 0.307,-0.019 0.589,-0.142 0.845,-0.305 0.242,-0.156 0.417,-0.46 0.52,-0.719 C -0.146,-2.092 -0.16,-2.203 -0.3,-2.537 -0.47,-2.945 0.04,-3.445 0.445,-3.282 1.93,-2.686 0.914,-0.657 0,0" />
    </g>
    <g
       transform="matrix(3.2551391,0,0,-3.2551391,436.42833,936.2387)"
       id="g1622">
      <path
         id="path1624"
         style="fill:#f8ad1c;fill-opacity:1;fill-rule:nonzero;stroke:none"
         d="m 0,0 c -0.449,0.572 -1.283,0.915 -1.977,1.029 -0.771,0.127 -1.294,-0.144 -1.939,-0.5 -0.191,-0.104 -0.298,-0.358 -0.231,-0.568 0.001,-0.004 0.001,-0.007 0.002,-0.01 0.077,-0.241 0.283,-0.358 0.488,-0.356 -10e-4,-0.001 -0.003,-0.003 -0.005,-0.004 0.381,-0.041 0.687,0.193 1.062,0.228 0.492,0.046 1.01,-0.223 1.38,-0.527 0.289,-0.237 0.472,-0.622 0.52,-0.989 0.055,-0.431 -0.307,-0.758 -0.122,-1.219 0.112,-0.281 0.373,-0.486 0.692,-0.393 0.593,0.173 0.825,0.84 0.854,1.42 C 0.758,-1.182 0.425,-0.541 0,0" />
    </g>
    <g
       transform="matrix(3.2551391,0,0,-3.2551391,262.84738,947.23429)"
       id="g1626">
      <path
         id="path1628"
         style="fill:#f8ad1c;fill-opacity:1;fill-rule:nonzero;stroke:none"
         d="m 0,0 c -0.366,0.135 -0.708,-0.34 -0.502,-0.654 0.227,-0.348 0.649,-0.652 0.771,-1.04 0.085,-0.276 0.433,-1.213 0.027,-1.405 -0.484,-0.226 -0.465,-1.02 0,-1.254 1.05,-0.527 1.576,0.99 1.598,1.755 C 1.928,-1.348 1.103,-0.408 0,0" />
    </g>
    <g
       transform="matrix(3.2551391,0,0,-3.2551391,284.9628,951.21719)"
       id="g1630">
      <path
         id="path1632"
         style="fill:#f8ad1c;fill-opacity:1;fill-rule:nonzero;stroke:none"
         d="M 0,0 C -0.065,0.407 -0.307,0.918 -0.594,1.215 -0.78,1.407 -0.969,1.59 -1.172,1.765 -1.33,1.9 -1.573,1.885 -1.713,2.004 -2.008,2.255 -2.569,2.118 -2.54,1.661 c 0.032,-0.506 0.458,-0.875 0.767,-1.257 0.304,-0.379 0.336,-0.883 0.343,-1.344 0.005,-0.376 -0.245,-0.622 -0.444,-0.906 -0.036,-0.039 -0.074,-0.069 -0.11,-0.118 -0.147,-0.197 -0.124,-0.528 0,-0.728 0.012,-0.022 0.026,-0.042 0.039,-0.064 0.097,-0.158 0.246,-0.238 0.402,-0.282 0.023,-0.01 0.038,-0.024 0.064,-0.032 0.338,-0.11 0.685,0.072 0.87,0.353 C -0.002,-1.787 0.18,-1.122 0,0" />
    </g>
    <g
       transform="matrix(3.2551391,0,0,-3.2551391,491.92163,386.77482)"
       id="g1634">
      <path
         id="path1636"
         style="fill:#f38c6b;fill-opacity:1;fill-rule:nonzero;stroke:none"
         d="M 0,0 C -0.896,0.334 -1.834,0.395 -2.752,0.273 -7.854,0.887 -10.234,-5.829 -7.926,-9.829 -4.771,-15.292 4.929,-13.211 4.631,-6.576 4.505,-3.763 2.638,-0.984 0,0" />
    </g>
    <g
       transform="matrix(3.2551391,0,0,-3.2551391,314.74537,364.11288)"
       id="g1638">
      <path
         id="path1640"
         style="fill:#f38c6b;fill-opacity:1;fill-rule:nonzero;stroke:none"
         d="m 0,0 c -1.396,0.915 -3.078,1.146 -4.666,0.847 -1.175,0.148 -2.443,-0.108 -3.48,-0.63 -2.093,-1.056 -3.097,-3.666 -3.332,-5.836 -0.534,-4.945 5.109,-8.097 9.439,-6.737 2.348,0.737 4.335,2.598 4.687,5.122 C 3.037,-4.452 2.519,-1.649 0,0" />
    </g>
    <g
       transform="matrix(3.2551391,0,0,-3.2551391,632.10547,773.52276)"
       id="g1642">
      <path
         id="path1644"
         style="fill:#f8ad1c;fill-opacity:1;fill-rule:nonzero;stroke:none"
         d="m 0,0 c -0.203,0.271 -0.417,0.541 -0.65,0.805 -0.135,0.151 -0.304,0.219 -0.477,0.232 0.028,-0.672 0.055,-1.339 0.052,-1.987 -0.007,-2.327 -0.382,-4.728 -0.736,-7.026 -0.472,-3.069 -1.368,-6.035 -2.563,-8.897 -0.515,-1.233 -1.17,-2.406 -1.83,-3.577 0.249,-0.185 0.668,-0.22 0.904,-0.043 0.18,0.134 0.358,0.272 0.533,0.414 C -1.594,-13.98 0.166,-6.883 0,0" />
    </g>
    <g
       transform="matrix(3.2551391,0,0,-3.2551391,635.29063,778.5806)"
       id="g1646">
      <path
         id="path1648"
         style="fill:#f8ad1c;fill-opacity:1;fill-rule:nonzero;stroke:none"
         d="m 0,0 c -0.343,0.656 -0.76,1.295 -1.258,1.911 0.165,-0.742 0.339,-1.481 0.484,-2.214 0.591,-2.991 0.131,-6.258 -0.56,-9.195 -0.613,-2.606 -1.497,-5.072 -2.834,-7.397 -0.115,-0.2 -0.252,-0.385 -0.373,-0.581 0.899,0.854 1.729,1.805 2.467,2.824 0.673,1.55 1.243,3.16 1.67,4.861 C 0.437,-6.442 0.477,-3.223 0,0" />
    </g>
    <g
       transform="matrix(3.2551391,0,0,-3.2551391,620.37559,807.59365)"
       id="g1650">
      <path
         id="path1652"
         style="fill:#f8ad1c;fill-opacity:1;fill-rule:nonzero;stroke:none"
         d="M 0,0 C 0.617,2.324 1.223,4.64 1.892,6.949 2.281,8.292 2.832,9.631 3.174,11.005 3.1,11.094 3.031,11.184 2.953,11.271 2.811,11.433 2.629,11.498 2.445,11.505 1.13,7.513 -0.024,3.485 -1.12,-0.577 c -0.751,-2.782 -1.568,-5.556 -2.241,-8.361 0.195,-0.327 0.404,-0.648 0.647,-0.958 0.032,-0.04 0.082,-0.066 0.126,-0.097 0.13,0.68 0.266,1.358 0.416,2.033 C -1.573,-5.268 -0.707,-2.661 0,0" />
    </g>
    <g
       transform="matrix(3.2551391,0,0,-3.2551391,612.12967,840.25962)"
       id="g1654">
      <path
         id="path1656"
         style="fill:#f8ad1c;fill-opacity:1;fill-rule:nonzero;stroke:none"
         d="M 0,0 C -0.212,3.654 -0.056,7.149 0.677,10.904 1.46,14.915 3.217,18.073 5.371,21.399 4.881,21.767 4.115,21.368 4.105,20.748 3.718,20.612 3.436,20.182 3.165,19.741 2.908,19.321 2.636,18.914 2.364,18.507 1.201,16.351 0.434,14.378 -0.144,11.978 -0.895,8.852 -1.433,5.447 -1.353,2.122 -1.052,1.432 -0.672,0.766 -0.181,0.14 -0.135,0.082 -0.069,0.038 0,0" />
    </g>
  </g>
</svg>
