<?xml version="1.0" encoding="UTF-8" standalone="no"?>
<svg
   xmlns:dc="http://purl.org/dc/elements/1.1/"
   xmlns:cc="http://creativecommons.org/ns#"
   xmlns:rdf="http://www.w3.org/1999/02/22-rdf-syntax-ns#"
   xmlns:svg="http://www.w3.org/2000/svg"
   xmlns="http://www.w3.org/2000/svg"
   version="1.1"
   id="svg7620"
   viewBox="0 0 660.09817 774.69546"
   height="218.63628mm"
   width="186.29437mm">
  <defs
     id="defs7622" />
  <metadata
     id="metadata7625">
    <rdf:RDF>
      <cc:Work
         rdf:about="">
        <dc:format>image/svg+xml</dc:format>
        <dc:type
           rdf:resource="http://purl.org/dc/dcmitype/StillImage" />
        <dc:title></dc:title>
      </cc:Work>
    </rdf:RDF>
  </metadata>
  <g
     transform="translate(-55.192685,-133.58589)"
     id="layer1">
    <g
       transform="matrix(3.6387893,0,0,-3.6387893,411.77693,146.82665)"
       id="g2662">
      <path
         id="path2664"
         style="fill:#7e7a8c;fill-opacity:1;fill-rule:nonzero;stroke:none"
         d="m 0,0 c -2.077,4.18 -6.854,4.379 -10.734,2.505 -4.479,-2.163 -6.202,-6.418 -5.151,-11.098 0.072,-0.323 0.381,-0.436 0.655,-0.385 1.052,-1.309 2.778,-1.87 4.376,-2.321 2.045,-0.576 4.819,-1.305 6.808,-0.148 C -0.491,-9.38 1.954,-3.933 0,0" />
    </g>
    <g
       transform="matrix(3.6387893,0,0,-3.6387893,271.90405,180.57971)"
       id="g2666">
      <path
         id="path2668"
         style="fill:#7e7a8c;fill-opacity:1;fill-rule:nonzero;stroke:none"
         d="m 0,0 c -0.461,0.295 -0.944,0.545 -1.399,0.702 -2.953,1.016 -6.47,0.929 -9.249,-0.547 -2.258,-1.199 -3.996,-4.342 -4.3,-6.811 -0.394,-3.183 0.864,-5.34 3.35,-7.25 4.165,-3.198 13.192,-4.416 15.652,1.662 1.084,2.68 1.953,6.747 -0.042,9.233 C 2.996,-1.745 1.57,-0.678 0,0" />
    </g>
    <g
       transform="matrix(3.6387893,0,0,-3.6387893,120.99036,635.92579)"
       id="g2670">
      <path
         id="path2672"
         style="fill:#a8a0b8;fill-opacity:1;fill-rule:nonzero;stroke:none"
         d="m 0,0 c -1.234,1.234 -2.601,-0.128 -3.548,-1.147 -1.279,-0.13 -3.286,0.314 -3.796,0.486 -2.247,0.757 -3.143,2.848 -4.119,4.796 -0.808,1.614 -2.675,3.095 -4.522,2.915 -2.065,-0.201 -2.236,-2.773 -2.032,-4.322 0.295,-2.24 1.981,-4.082 3.723,-5.373 3.561,-2.637 10.363,-4.151 14,-1.072 C 0.754,-2.831 1.015,-1.015 0,0" />
    </g>
    <g
       transform="matrix(3.6387893,0,0,-3.6387893,241.92663,751.86597)"
       id="g2674">
      <path
         id="path2676"
         style="fill:#a8a0b8;fill-opacity:1;fill-rule:nonzero;stroke:none"
         d="m 0,0 c -0.04,0.987 -0.072,2.354 -0.638,3.194 -0.993,1.478 -2.803,1.433 -4.437,1.639 -2.778,0.351 -5.807,0.474 -8.611,0.471 -0.227,0 -0.397,-0.086 -0.522,-0.209 -0.31,-0.004 -0.619,-0.204 -0.597,-0.576 0.061,-0.995 0.216,-1.963 0.443,-2.933 0.478,-2.05 0.184,-4.294 -0.099,-6.358 -0.504,-3.663 -2.132,-6.891 -3.583,-10.235 -1.314,-3.028 -2.627,-5.892 -4.67,-8.514 -2.117,-2.717 -4.786,-5.041 -7.525,-7.104 -1.331,-1.002 -3.576,-2.001 -4.238,-3.571 -0.537,-1.275 2.241,-3.51 2.956,-4.158 1.859,-1.688 3.39,-3.328 5.777,-4.395 2.137,-0.956 5.049,1.239 6.889,2.082 5.084,2.332 9.673,7.028 12.757,11.591 3.348,4.951 5.729,11.025 6.418,16.968 0.315,2.704 0.034,5.365 0.034,8.059 C 0.354,-2.68 0.057,-1.369 0,0" />
    </g>
    <g
       transform="matrix(3.6387893,0,0,-3.6387893,396.31208,778.22393)"
       id="g2678">
      <path
         id="path2680"
         style="fill:#a8a0b8;fill-opacity:1;fill-rule:nonzero;stroke:none"
         d="m 0,0 c -1.472,3.93 -3.966,7.366 -6.138,10.936 -0.978,1.608 -2.065,3.225 -3.324,4.628 -1.152,1.285 -2.791,2.31 -4.11,3.432 -0.771,0.654 -1.755,0.423 -2.601,0.066 -1.838,-0.776 -3.605,-1.11 -5.316,-2.198 -2.652,-1.686 -6.243,-4.073 -7.371,-7.159 -0.268,-0.731 0.762,-1.264 1.269,-0.739 0.044,0.045 0.089,0.09 0.133,0.135 2.396,-0.739 4.929,-3.063 6.416,-4.767 2.902,-3.323 5.192,-7.354 6.799,-11.453 1.499,-3.825 2.594,-7.782 2.903,-11.885 0.247,-3.269 -0.59,-6.263 -1.61,-9.335 -0.119,-0.36 0.075,-0.767 0.387,-0.954 4.428,-2.65 15.336,-1.885 15.353,5.075 0.01,3.774 0.15,7.512 0.028,11.298 C 2.671,-8.35 1.596,-4.261 0,0" />
    </g>
    <g
       transform="matrix(3.6387893,0,0,-3.6387893,269.78628,405.54495)"
       id="g2682">
      <path
         id="path2684"
         style="fill:#a8a0b8;fill-opacity:1;fill-rule:nonzero;stroke:none"
         d="m 0,0 c -0.049,0.033 -0.104,0.057 -0.169,0.067 -2.275,0.366 -4.537,-0.426 -6.891,0.076 -3.102,0.664 -6.489,2.966 -8.489,5.382 -2.321,2.804 -3.967,5.747 -4.692,9.328 -0.685,3.38 -0.597,6.676 -0.514,10.084 -0.012,-0.002 -0.024,-0.004 -0.037,-0.005 -0.015,0.158 -0.082,0.29 -0.17,0.404 0.125,2.235 -4.259,1.114 -5.807,0.63 -1.796,-0.561 -3.377,-1.584 -4.782,-2.814 -0.551,-0.483 -1.29,-0.968 -1.721,-1.575 -0.026,-0.024 -0.054,-0.043 -0.079,-0.068 -0.875,-0.875 -0.835,-1.947 -1.157,-3.048 -0.42,-1.439 -0.511,-3.042 -0.346,-4.63 0.055,-1.378 0.267,-2.778 0.667,-4.273 1.04,-3.879 2.394,-7.111 4.933,-10.261 4.472,-5.547 12.699,-10.905 20.089,-9.267 0.111,0.025 0.198,0.069 0.27,0.122 2.833,0.28 5.319,2.333 7.013,4.659 0.779,1.069 3.59,3.536 2.307,4.96 C 0.294,-0.083 0.146,-0.023 0,0" />
    </g>
    <g
       transform="matrix(3.6387893,0,0,-3.6387893,489.42835,547.51083)"
       id="g2686">
      <path
         id="path2688"
         style="fill:#a8a0b8;fill-opacity:1;fill-rule:nonzero;stroke:none"
         d="m 0,0 c -0.171,1.368 -0.499,2.745 -1.024,4.201 -1.362,3.778 -2.984,6.885 -5.779,9.81 -4.923,5.151 -13.572,9.798 -20.797,7.543 -0.109,-0.034 -0.192,-0.085 -0.259,-0.144 -2.799,-0.518 -5.104,-2.772 -6.596,-5.233 -0.687,-1.131 -3.28,-3.825 -1.882,-5.137 0.143,-0.134 0.295,-0.181 0.443,-0.192 0.051,-0.029 0.109,-0.048 0.174,-0.052 2.298,-0.173 4.486,0.806 6.872,0.504 3.149,-0.401 6.717,-2.409 8.913,-4.649 2.548,-2.598 4.437,-5.392 5.46,-8.9 0.967,-3.311 1.158,-6.602 1.361,-10.004 0.012,0.002 0.024,0.005 0.037,0.008 0.027,-0.157 0.106,-0.283 0.203,-0.389 0.063,-2.238 4.337,-0.752 5.84,-0.139 1.742,0.71 3.232,1.862 4.528,3.207 0.508,0.527 1.203,1.073 1.583,1.714 0.023,0.026 0.049,0.047 0.072,0.075 0.797,0.945 0.668,2.009 0.896,3.134 C 0.343,-3.174 0.298,-1.569 0,0" />
    </g>
    <g
       transform="matrix(3.6387893,0,0,-3.6387893,454.38352,649.51958)"
       id="g2690">
      <path
         id="path2692"
         style="fill:#7e7a8c;fill-opacity:1;fill-rule:nonzero;stroke:none"
         d="m 0,0 c -0.998,3.006 -3.073,5.686 -4.93,8.208 -2.089,2.836 -4.063,5.837 -6.383,8.491 -5.439,6.228 -6.672,13.834 -4.559,21.701 1.859,6.923 5.163,13.588 6.101,20.71 0.826,6.275 -4.663,12.501 -8.908,16.364 -6.398,5.822 -13.082,11.292 -21.202,14.483 -0.224,0.088 -0.453,0.029 -0.635,-0.104 -0.366,0.318 -1.074,0.159 -1.098,-0.476 -0.011,-0.291 0.156,-0.539 0.108,-0.748 -0.207,-0.898 -0.973,-1.759 -1.477,-2.504 -2.122,-3.136 -5.008,-5.932 -7.645,-8.631 -2.453,-2.512 -5.385,-5.051 -8.237,-7.095 -2.774,-1.986 -5.203,-4.477 -7.685,-6.811 -5.624,-5.29 -10.662,-10.98 -15.415,-17.056 -4.406,-5.634 -8.368,-11.303 -11.104,-17.943 -2.793,-6.779 -4.14,-13.797 -4.369,-21.114 -0.226,-7.284 1.497,-14.161 4.419,-20.8 5.808,-13.186 19.129,-20.113 32.658,-22.796 14.302,-2.837 30,-0.864 43.047,5.674 5.633,2.823 11.512,7.303 15.161,12.493 1.868,2.659 3.186,5.563 3.799,8.761 C 2.238,-6.111 0.954,-2.872 0,0" />
    </g>
    <g
       transform="matrix(3.6387893,0,0,-3.6387893,352.1423,465.84441)"
       id="g2694">
      <path
         id="path2696"
         style="fill:#f0dac3;fill-opacity:1;fill-rule:nonzero;stroke:none"
         d="m 0,0 c 1.122,3.256 2.056,6.468 3.894,9.412 2.776,4.45 7.741,8.943 8.438,14.341 0.303,2.346 -1.069,4.8 -2.378,6.62 -1.673,2.326 -4.613,2.93 -6.734,4.637 -0.315,0.252 -0.753,0.255 -1.032,0.039 -1.635,-0.117 -4.069,-3.225 -5.084,-4.214 -2.779,-2.706 -4.954,-5.939 -7.383,-8.949 -4.534,-5.614 -7.925,-11.725 -10.605,-18.413 -2.903,-7.245 -5.438,-14.514 -6.48,-22.285 -1.023,-7.625 -0.885,-15.392 -0.011,-23.025 0.69,-6.027 2.883,-12.166 7.329,-16.462 4.407,-4.259 11.403,-6.427 17.291,-4.347 5.891,2.08 8.406,7.505 7.614,13.425 -0.425,3.178 -2.003,6.236 -3.218,9.171 -1.429,3.451 -2.918,7.012 -3.474,10.729 -0.468,3.121 -1.11,5.998 -1.138,9.177 -0.028,3.235 0.381,6.417 0.683,9.63 C -1.947,-6.878 -1.187,-3.444 0,0" />
    </g>
    <g
       transform="matrix(3.6387893,0,0,-3.6387893,399.8268,150.67323)"
       id="g2698">
      <path
         id="path2700"
         style="fill:#f38c6b;fill-opacity:1;fill-rule:nonzero;stroke:none"
         d="m 0,0 c -1.453,0.798 -3.492,-1.309 -4.232,-2.27 -1.522,-1.975 -2.105,-4.087 -2.815,-6.403 -0.083,-0.27 0.199,-0.584 0.481,-0.481 0.082,0.03 0.15,0.08 0.222,0.124 0.279,-0.176 0.644,-0.208 0.886,0.084 0.562,0.677 1.616,1.196 2.324,1.731 0.862,0.651 2.015,1.171 2.665,2.062 C 0.401,-3.962 1.849,-1.016 0,0" />
    </g>
    <g
       transform="matrix(3.6387893,0,0,-3.6387893,280.89443,215.35053)"
       id="g2702">
      <path
         id="path2704"
         style="fill:#f38c6b;fill-opacity:1;fill-rule:nonzero;stroke:none"
         d="m 0,0 c 0.054,0.246 -0.012,0.519 -0.267,0.668 -1.346,0.789 -2.543,2.192 -4.071,2.623 -1.574,0.444 -3.126,0.715 -4.76,0.76 -1.62,0.045 -5.418,-0.44 -5.418,-2.686 0,-2.156 3.077,-3.058 4.691,-3.373 3.205,-0.625 6.813,-0.145 9.964,0.555 C 0.924,-1.278 0.78,0.029 0,0" />
    </g>
    <g
       transform="matrix(3.6387893,0,0,-3.6387893,570.19599,375.90518)"
       id="g2706">
      <path
         id="path2708"
         style="fill:#a8a0b8;fill-opacity:1;fill-rule:nonzero;stroke:none"
         d="m 0,0 c -0.619,10.034 -7.807,18.478 -14.74,25.122 -3.719,3.563 -7.715,6.839 -11.364,10.478 -3.745,3.734 -7.621,7.493 -11.625,10.946 -7.21,6.216 -15.713,12.672 -25.375,13.924 -4.533,0.588 -9.26,0.557 -13.482,-1.468 -2.167,-1.039 -3.642,-3.106 -4.707,-5.393 -1.498,-1.94 -2.59,-3.918 -3.132,-6.463 -1.35,-6.34 -0.372,-12.953 1.343,-19.133 0.957,-3.448 2.626,-6.5 3.851,-9.839 1.223,-3.339 2.644,-6.599 4.522,-9.626 3.52,-5.672 8.063,-11.156 13.301,-15.319 2.499,-1.987 4.637,-4.412 7.188,-6.368 3.132,-2.399 6.597,-4.338 10.088,-6.157 6.063,-3.161 13.254,-4.482 20.028,-4.849 6.924,-0.374 12.687,2.384 17.812,6.775 C -1.319,-13.109 0.388,-6.286 0,0" />
    </g>
    <g
       transform="matrix(3.6387893,0,0,-3.6387893,714.45767,325.179)"
       id="g2710">
      <path
         id="path2712"
         style="fill:#f0dac3;fill-opacity:1;fill-rule:nonzero;stroke:none"
         d="m 0,0 c -0.737,6.138 -2.555,12.176 -5.857,17.439 -6.596,10.511 -16.82,17.469 -28.863,20.103 -11.972,2.619 -24.94,-0.565 -35.742,-5.767 -5.406,-2.605 -10.305,-5.937 -14.753,-9.978 -2.7,-2.454 -5.94,-5.97 -7.529,-9.632 -1.61,-2.902 -2.697,-5.844 -3.454,-9.093 -1.491,-6.401 -1.325,-13.409 0.293,-19.782 0.756,-2.977 1.652,-5.789 3.08,-8.505 1.657,-3.153 3.65,-5.495 6.078,-8.089 4.747,-5.071 9.987,-9.113 16.304,-12.006 3.042,-1.393 5.892,-2.726 9.189,-3.325 3.608,-0.656 7.056,-0.964 10.705,-1.243 7.361,-0.561 14.55,1.376 21.423,3.788 12.473,4.376 22.942,15.962 26.942,28.418 C -0.337,-11.924 0.723,-6.018 0,0" />
    </g>
    <g
       transform="matrix(3.6387893,0,0,-3.6387893,662.10747,300.76273)"
       id="g2714">
      <path
         id="path2716"
         style="fill:#7e7a8c;fill-opacity:1;fill-rule:nonzero;stroke:none"
         d="m 0,0 c -1.111,-1.169 -2.569,-0.784 -3.377,0.474 -0.365,0.568 -0.185,1.512 0.077,2.169 0.039,0 0.076,-0.012 0.114,-10e-4 0.976,0.265 1.9,1.301 2.945,0.695 C 1.026,2.603 0.868,0.913 0,0 M 1.429,4.048 C 0.469,5.142 -1.223,5.382 -2.449,4.745 -3.145,4.815 -3.798,4.344 -4.3,3.809 -5.184,2.865 -5.157,1.27 -4.944,0.102 c 0.173,-0.947 1.312,-1.784 2.092,-2.193 1.112,-0.583 2.298,-0.234 3.321,0.362 2.059,1.199 2.54,3.979 0.96,5.777" />
    </g>
    <g
       transform="matrix(3.6387893,0,0,-3.6387893,587.47296,351.363)"
       id="g2718">
      <path
         id="path2720"
         style="fill:#7e7a8c;fill-opacity:1;fill-rule:nonzero;stroke:none"
         d="m 0,0 c -1.111,-1.169 -2.569,-0.784 -3.377,0.474 -0.365,0.568 -0.185,1.512 0.077,2.169 0.039,0 0.076,-0.012 0.114,-10e-4 0.976,0.265 1.9,1.301 2.945,0.695 C 1.026,2.603 0.868,0.913 0,0 M 1.429,4.048 C 0.469,5.142 -1.223,5.382 -2.449,4.745 -3.145,4.815 -3.798,4.344 -4.3,3.809 -5.184,2.865 -5.157,1.27 -4.944,0.102 c 0.173,-0.947 1.312,-1.784 2.092,-2.193 1.112,-0.583 2.298,-0.234 3.321,0.362 2.059,1.199 2.54,3.979 0.96,5.777" />
    </g>
    <g
       transform="matrix(3.6387893,0,0,-3.6387893,572.89673,416.00464)"
       id="g2722">
      <path
         id="path2724"
         style="fill:#7e7a8c;fill-opacity:1;fill-rule:nonzero;stroke:none"
         d="m 0,0 c -1.959,0.086 -4.054,-0.893 -6.049,-1 -3.045,-0.164 -5.761,0.156 -8.546,1.439 -5.318,2.45 -7.192,7.314 -8.619,12.542 0.135,0.364 -0.064,0.83 -0.599,0.893 -0.058,0.006 -0.116,0.013 -0.174,0.02 -0.141,0.016 -0.268,-0.042 -0.38,-0.125 -0.296,-0.013 -0.587,-0.172 -0.71,-0.529 -1.421,-4.125 -2.921,-8.551 -2.423,-12.958 0.481,-4.256 2.754,-6.997 6.373,-9.05 3.74,-2.121 8.572,-1.373 12.458,-0.123 3.572,1.149 8.135,4.138 9.508,7.789 C 1.048,-0.547 0.521,-0.023 0,0" />
    </g>
    <g
       transform="matrix(3.6387893,0,0,-3.6387893,196.09719,351.29532)"
       id="g2726">
      <path
         id="path2728"
         style="fill:#7e7a8c;fill-opacity:1;fill-rule:nonzero;stroke:none"
         d="m 0,0 c -0.672,3.361 -0.587,6.639 -0.504,10.028 -0.012,-0.002 -0.024,-0.004 -0.037,-0.005 -0.015,0.159 -0.082,0.29 -0.17,0.404 0.125,2.236 -4.259,1.115 -5.807,0.631 C -8.314,10.497 -9.896,9.474 -11.3,8.243 -11.851,7.761 -12.59,7.275 -13.021,6.668 -13.047,6.644 -13.075,6.625 -13.1,6.6 c -0.875,-0.875 -0.835,-1.946 -1.157,-3.048 -0.42,-1.439 -0.511,-3.041 -0.346,-4.63 0.048,-1.19 0.221,-2.401 0.523,-3.672 0.471,0.011 0.971,0.052 1.533,0.158 3.91,0.734 8.126,1.624 11.515,3.844 C -0.664,-0.506 -0.327,-0.255 0,0" />
    </g>
    <g
       transform="matrix(3.6387893,0,0,-3.6387893,489.42835,547.51083)"
       id="g2730">
      <path
         id="path2732"
         style="fill:#7e7a8c;fill-opacity:1;fill-rule:nonzero;stroke:none"
         d="m 0,0 c -0.171,1.368 -0.499,2.745 -1.024,4.201 -0.413,1.144 -0.855,2.22 -1.34,3.255 -1.139,-1.443 -1.92,-3.139 -3.365,-4.417 -1.658,-1.467 -3.556,-2.796 -5.415,-4.002 -1,-0.649 -2.167,-1.037 -3.309,-1.368 0.946,-3.283 1.137,-6.548 1.339,-9.922 0.012,0.002 0.024,0.005 0.037,0.008 0.027,-0.157 0.106,-0.283 0.203,-0.389 0.063,-2.238 4.337,-0.752 5.84,-0.139 1.742,0.71 3.232,1.862 4.528,3.207 0.508,0.527 1.203,1.073 1.583,1.714 0.023,0.026 0.049,0.047 0.072,0.075 0.797,0.945 0.668,2.009 0.896,3.134 C 0.343,-3.174 0.298,-1.569 0,0" />
    </g>
    <g
       transform="matrix(3.6387893,0,0,-3.6387893,406.58185,826.10237)"
       id="g2734">
      <path
         id="path2736"
         style="fill:#7e7a8c;fill-opacity:1;fill-rule:nonzero;stroke:none"
         d="m 0,0 c -0.854,-0.714 -1.675,-1.462 -2.588,-2.146 -1.963,-1.471 -5.35,-2.184 -7.721,-2.626 -1.285,-0.24 -2.606,-0.296 -3.929,-0.302 0.025,-0.257 0.056,-0.513 0.076,-0.772 0.247,-3.27 -0.59,-6.263 -1.61,-9.336 -0.12,-0.36 0.075,-0.767 0.387,-0.953 4.428,-2.65 15.336,-1.885 15.353,5.074 C -0.022,-7.366 0.108,-3.705 0,0" />
    </g>
    <g
       transform="matrix(3.6387893,0,0,-3.6387893,199.36261,881.69506)"
       id="g2738">
      <path
         id="path2740"
         style="fill:#7e7a8c;fill-opacity:1;fill-rule:nonzero;stroke:none"
         d="m 0,0 c -0.698,0.238 -1.348,0.457 -1.8,0.663 -2.543,1.162 -4.97,2.467 -7.078,4.328 -1.605,1.417 -2.921,3.128 -4.054,4.972 -1.716,-1.801 -3.641,-3.426 -5.61,-4.909 -1.331,-1.002 -3.576,-2.001 -4.237,-3.571 -0.537,-1.275 2.24,-3.509 2.955,-4.158 1.859,-1.688 3.39,-3.327 5.777,-4.395 2.137,-0.955 5.049,1.239 6.889,2.083 C -4.604,-3.816 -2.176,-2.048 0,0" />
    </g>
    <g
       transform="matrix(3.6387893,0,0,-3.6387893,326.51064,242.54393)"
       id="g2742">
      <path
         id="path2744"
         style="fill:#3f2322;fill-opacity:1;fill-rule:nonzero;stroke:none"
         d="M 0,0 C 1.608,1.254 1.994,3.711 0.123,4.913 -0.642,5.404 -2.083,5.689 -2.918,5.246 -3.074,5.163 -3.246,5.042 -3.418,4.905 -3.928,4.763 -4.366,4.237 -4.647,3.799 -5.193,2.954 -5.289,1.789 -4.862,0.877 -3.948,-1.073 -1.57,-1.224 0,0" />
    </g>
    <g
       transform="matrix(3.6387893,0,0,-3.6387893,395.2674,188.61416)"
       id="g2746">
      <path
         id="path2748"
         style="fill:#3f2322;fill-opacity:1;fill-rule:nonzero;stroke:none"
         d="m 0,0 c -0.765,0.491 -2.206,0.776 -3.041,0.333 -0.156,-0.083 -0.328,-0.204 -0.5,-0.341 -0.51,-0.142 -0.948,-0.668 -1.23,-1.106 -0.545,-0.845 -0.641,-2.011 -0.214,-2.922 0.914,-1.95 3.292,-2.101 4.862,-0.877 C 1.485,-3.659 1.871,-1.202 0,0" />
    </g>
    <g
       transform="matrix(3.6387893,0,0,-3.6387893,389.23356,196.78179)"
       id="g2750">
      <path
         id="path2752"
         style="fill:#643e39;fill-opacity:1;fill-rule:nonzero;stroke:none"
         d="M 0,0 C -0.012,0.042 -0.039,0.076 -0.059,0.114 -0.149,0.468 -0.363,0.794 -0.743,0.967 -1.097,1.128 -1.475,1.125 -1.78,0.972 -1.796,0.965 -1.812,0.963 -1.826,0.956 -1.866,0.937 -1.895,0.902 -1.931,0.877 -1.972,0.846 -2.017,0.825 -2.053,0.786 -2.294,0.547 -2.413,0.184 -2.449,-0.149 c -0.055,-0.507 0.381,-0.943 0.84,-1.139 0.021,-0.01 0.042,-0.017 0.064,-0.025 0.098,-0.037 0.195,-0.067 0.288,-0.079 0.003,0 0.005,10e-4 0.008,0 0.14,-0.016 0.277,-0.007 0.411,0.023 0.067,0.015 0.125,0.041 0.185,0.066 0.07,0.029 0.135,0.062 0.198,0.102 0.024,0.017 0.049,0.033 0.071,0.053 C -0.062,-0.902 0.133,-0.5 0,0" />
    </g>
    <g
       transform="matrix(3.6387893,0,0,-3.6387893,387.1547,195.41031)"
       id="g2754">
      <path
         id="path2756"
         style="fill:#f6e1d0;fill-opacity:1;fill-rule:nonzero;stroke:none"
         d="M 0,0 C -1.003,0 -1.003,-1.555 0,-1.555 1.002,-1.555 1.002,0 0,0" />
    </g>
    <g
       transform="matrix(3.6387893,0,0,-3.6387893,394.92643,194.67819)"
       id="g2758">
      <path
         id="path2760"
         style="fill:#f6e1d0;fill-opacity:1;fill-rule:nonzero;stroke:none"
         d="M 0,0 C -0.711,0 -0.711,-1.102 0,-1.102 0.71,-1.102 0.71,0 0,0" />
    </g>
    <g
       transform="matrix(3.6387893,0,0,-3.6387893,392.20426,200.90745)"
       id="g2762">
      <path
         id="path2764"
         style="fill:#f6e1d0;fill-opacity:1;fill-rule:nonzero;stroke:none"
         d="M 0,0 C -0.569,0 -0.569,-0.883 0,-0.883 0.569,-0.883 0.569,0 0,0" />
    </g>
    <g
       transform="matrix(3.6387893,0,0,-3.6387893,320.16424,232.72901)"
       id="g2766">
      <path
         id="path2768"
         style="fill:#643e39;fill-opacity:1;fill-rule:nonzero;stroke:none"
         d="M 0,0 C -0.011,0.042 -0.039,0.076 -0.059,0.114 -0.148,0.468 -0.363,0.794 -0.742,0.967 -1.097,1.128 -1.475,1.125 -1.78,0.972 -1.795,0.965 -1.811,0.963 -1.825,0.956 -1.866,0.937 -1.895,0.902 -1.931,0.877 -1.971,0.846 -2.017,0.825 -2.052,0.786 -2.293,0.547 -2.412,0.184 -2.448,-0.149 c -0.055,-0.507 0.381,-0.943 0.839,-1.139 0.021,-0.01 0.043,-0.017 0.064,-0.025 0.098,-0.037 0.195,-0.067 0.289,-0.079 0.003,0 0.005,10e-4 0.008,0 0.139,-0.016 0.277,-0.007 0.41,0.023 0.067,0.015 0.125,0.041 0.185,0.066 0.07,0.029 0.135,0.062 0.199,0.102 0.023,0.017 0.048,0.033 0.07,0.053 C -0.062,-0.902 0.133,-0.5 0,0" />
    </g>
    <g
       transform="matrix(3.6387893,0,0,-3.6387893,318.08539,231.35756)"
       id="g2770">
      <path
         id="path2772"
         style="fill:#f6e1d0;fill-opacity:1;fill-rule:nonzero;stroke:none"
         d="M 0,0 C -1.002,0 -1.002,-1.555 0,-1.555 1.003,-1.555 1.003,0 0,0" />
    </g>
    <g
       transform="matrix(3.6387893,0,0,-3.6387893,325.85676,230.62544)"
       id="g2774">
      <path
         id="path2776"
         style="fill:#f6e1d0;fill-opacity:1;fill-rule:nonzero;stroke:none"
         d="M 0,0 C -0.71,0 -0.71,-1.102 0,-1.102 0.711,-1.102 0.711,0 0,0" />
    </g>
    <g
       transform="matrix(3.6387893,0,0,-3.6387893,323.13859,236.85467)"
       id="g2778">
      <path
         id="path2780"
         style="fill:#f6e1d0;fill-opacity:1;fill-rule:nonzero;stroke:none"
         d="M 0,0 C -0.569,0 -0.569,-0.883 0,-0.883 0.569,-0.883 0.569,0 0,0" />
    </g>
    <g
       transform="matrix(3.6387893,0,0,-3.6387893,427.77852,330.18379)"
       id="g2782">
      <path
         id="path2784"
         style="fill:#f38c6b;fill-opacity:1;fill-rule:nonzero;stroke:none"
         d="m 0,0 c -1.297,1.902 -3.239,2.928 -5.503,3.129 -1.582,0.14 -2.935,-0.688 -3.917,-1.85 -1.55,-1.285 -2.549,-3.266 -2.417,-5.382 0.264,-4.262 5.035,-7.879 9.149,-5.8 0.389,0.197 1.505,0.803 2.125,1.38 0.726,0.677 1.126,1.623 1.454,2.534 C 1.584,-4.057 1.131,-1.658 0,0" />
    </g>
    <g
       transform="matrix(3.6387893,0,0,-3.6387893,699.91667,333.61479)"
       id="g2786">
      <path
         id="path2788"
         style="fill:#f38c6b;fill-opacity:1;fill-rule:nonzero;stroke:none"
         d="m 0,0 c -1.55,-1.285 -2.549,-3.266 -2.417,-5.382 0.182,-2.943 2.513,-5.576 5.292,-6.241 1.108,4.407 1.637,8.899 1.162,13.456 C 3.996,1.837 3.958,1.846 3.917,1.85 2.335,1.99 0.982,1.162 0,0" />
    </g>
    <g
       transform="matrix(3.6387893,0,0,-3.6387893,194.1286,314.82374)"
       id="g2790">
      <path
         id="path2792"
         style="fill:#f0dac3;fill-opacity:1;fill-rule:nonzero;stroke:none"
         d="m 0,0 c -0.015,0.159 -0.082,0.291 -0.17,0.404 0.035,0.628 -0.293,0.985 -0.807,1.172 -0.301,-1.844 -1.762,-4.278 -3.606,-1.821 -0.382,0.508 -1.259,0.386 -1.26,-0.341 -0.002,-1.372 -1.874,-3.695 -3.136,-1.796 -0.295,0.445 -1.148,0.469 -1.254,-0.164 -0.217,-1.288 -1.633,-1.671 -2.573,-1.165 -0.396,-0.525 -0.543,-1.107 -0.67,-1.718 0.08,-0.063 0.159,-0.129 0.234,-0.178 1.452,-0.962 3.161,0.257 3.937,1.638 1.684,-1.169 3.87,0.15 4.576,2.099 1.627,-1.024 3.682,-0.413 4.745,0.953 0.006,0.307 0.013,0.613 0.021,0.922 C 0.025,0.003 0.013,0.001 0,0" />
    </g>
    <g
       transform="matrix(3.6387893,0,0,-3.6387893,457.44665,588.32315)"
       id="g2794">
      <path
         id="path2796"
         style="fill:#f0dac3;fill-opacity:1;fill-rule:nonzero;stroke:none"
         d="M 0,0 C 0.467,-0.235 1.053,0.049 1.054,0.605 1.058,2.135 1.971,4.91 4.629,3.382 4.887,3.235 5.296,3.247 5.496,3.495 6.524,4.764 6.146,6.12 7.845,7.217 8.279,7.498 8.658,7.624 8.987,7.645 9.026,8.072 9.039,8.506 9.029,8.944 8.911,8.947 8.804,8.966 8.679,8.96 7.56,8.907 6.656,8.202 5.868,7.486 5.446,7.103 5.114,6.481 4.908,5.953 4.861,5.832 4.662,5.365 4.517,4.977 2.167,5.718 0.19,3.879 -0.251,1.576 -1.471,1.927 -2.846,1.877 -3.839,0.995 -4.015,0.839 -4.214,0.623 -4.412,0.381 c 0.029,-0.471 0.058,-0.943 0.087,-1.419 0.013,0.003 0.024,0.006 0.037,0.009 0.017,-0.097 0.057,-0.179 0.105,-0.254 C -3.428,-0.12 -1.203,0.604 0,0" />
    </g>
    <g
       transform="matrix(3.6387893,0,0,-3.6387893,162.70145,898.01288)"
       id="g2798">
      <path
         id="path2800"
         style="fill:#f0dac3;fill-opacity:1;fill-rule:nonzero;stroke:none"
         d="M 0,0 C -0.743,1.527 -2.388,1.807 -3.899,1.716 -3.8,2.958 -4.364,4.09 -5.415,4.929 -6.349,5.674 -7.382,5.59 -8.422,5.402 c 0.029,1.342 -0.333,2.556 -1.513,3.161 -0.572,-0.365 -1.149,-0.752 -1.648,-1.184 1.086,0.013 2.014,-1.113 1.822,-2.051 -0.022,-0.254 -0.052,-0.507 -0.086,-0.76 -0.06,-0.479 0.479,-0.728 0.866,-0.659 1.839,0.326 4.52,-0.083 3.467,-2.821 -0.219,-0.569 0.408,-0.975 0.892,-0.892 1.834,0.312 3.484,-0.168 3.662,-2.256 0.012,-0.134 0.008,-0.253 0.007,-0.375 0.482,0.18 0.964,0.404 1.432,0.643 C 0.434,-1.191 0.286,-0.588 0,0" />
    </g>
    <g
       transform="matrix(3.6387893,0,0,-3.6387893,365.43587,882.20304)"
       id="g2802">
      <path
         id="path2804"
         style="fill:#f0dac3;fill-opacity:1;fill-rule:nonzero;stroke:none"
         d="M 0,0 C 0.314,-0.43 1.149,-0.489 1.268,0.166 1.761,2.908 4.537,3.186 6.09,1.239 6.43,0.812 7.16,1.073 7.281,1.554 7.7,3.22 9.53,5.614 11.28,4.854 11.282,5.332 11.287,5.81 11.292,6.287 11.26,6.292 11.229,6.302 11.195,6.306 8.825,6.6 7.121,5.054 6.276,3.039 4.247,4.575 1.286,4.129 0.247,1.647 -1.025,2.637 -2.553,2.82 -3.808,2.333 -4.011,1.635 -4.232,0.937 -4.465,0.236 -4.497,0.141 -4.504,0.042 -4.495,-0.055 -3.425,1.55 -1.514,2.072 0,0" />
    </g>
    <g
       transform="matrix(3.6387893,0,0,-3.6387893,570.03952,422.59629)"
       id="g2806">
      <path
         id="path2808"
         style="fill:#f6e1d0;fill-opacity:1;fill-rule:nonzero;stroke:none"
         d="M 0,0 C -0.037,0.449 -0.135,0.894 -0.236,1.332 -0.27,1.471 -0.282,1.614 -0.298,1.756 -1.526,1.61 -2.789,1.209 -4.033,0.975 c 0.018,-0.303 0.002,-0.612 0.027,-0.914 0.034,-0.406 -0.136,-0.809 -0.065,-1.202 0.124,-0.7 0.757,-0.996 1.414,-0.978 0.601,0.017 1.21,0.241 1.785,0.393 C -0.021,-1.5 0.062,-0.757 0,0" />
    </g>
    <g
       transform="matrix(3.6387893,0,0,-3.6387893,489.66269,373.13353)"
       id="g2810">
      <path
         id="path2812"
         style="fill:#f6e1d0;fill-opacity:1;fill-rule:nonzero;stroke:none"
         d="m 0,0 c -0.272,-0.132 -0.538,-0.275 -0.789,-0.415 -0.683,-0.379 -1.218,-0.695 -1.461,-1.47 -0.277,-0.884 0.464,-3.494 1.685,-3.36 0.704,0.078 1.59,0.227 2.294,0.59 C 1.023,-3.197 0.478,-1.625 0,0" />
    </g>
    <g
       transform="matrix(3.6387893,0,0,-3.6387893,212.60308,836.8641)"
       id="g2814">
      <path
         id="path2816"
         style="fill:#7e7a8c;fill-opacity:1;fill-rule:nonzero;stroke:none"
         d="M 0,0 C -1.429,0.563 -2.86,0.455 -4.217,1.346 -4.799,1.728 -5.305,2.269 -5.831,2.723 -6.229,3.066 -7.042,3.334 -7.211,3.846 -7.29,4.084 -7.689,4.207 -7.811,3.924 -7.968,3.554 -7.997,3.257 -7.72,2.912 -7.055,2.088 -6.092,1.398 -5.298,0.69 -4.006,-0.461 -1.722,-1.441 0,-0.844 0.429,-0.695 0.401,-0.158 0,0" />
    </g>
    <g
       transform="matrix(3.6387893,0,0,-3.6387893,210.0483,830.01808)"
       id="g2818">
      <path
         id="path2820"
         style="fill:#7e7a8c;fill-opacity:1;fill-rule:nonzero;stroke:none"
         d="m 0,0 c -0.335,0.534 -1.15,0.478 -1.687,0.773 -0.692,0.381 -1.4,0.966 -1.781,1.669 -0.2,0.371 -0.781,0.116 -0.671,-0.283 0.264,-0.943 0.93,-1.71 1.709,-2.278 C -1.803,-0.576 -0.581,-1.224 0,-0.426 0.084,-0.31 0.073,-0.117 0,0" />
    </g>
    <g
       transform="matrix(3.6387893,0,0,-3.6387893,207.03463,817.53666)"
       id="g2822">
      <path
         id="path2824"
         style="fill:#7e7a8c;fill-opacity:1;fill-rule:nonzero;stroke:none"
         d="m 0,0 c -0.795,0.334 -1.632,0.464 -2.487,0.332 -0.37,-0.057 -0.356,-0.661 0,-0.73 0.589,-0.115 1.176,-0.283 1.725,-0.525 0.641,-0.282 0.933,-0.757 1.44,-1.177 0.36,-0.297 0.803,-0.089 0.86,0.357 C 1.646,-0.893 0.667,-0.28 0,0" />
    </g>
    <g
       transform="matrix(3.6387893,0,0,-3.6387893,222.29353,820.74354)"
       id="g2826">
      <path
         id="path2828"
         style="fill:#7e7a8c;fill-opacity:1;fill-rule:nonzero;stroke:none"
         d="M 0,0 C -0.881,1.215 -1.988,2.069 -3.341,2.716 -4.78,3.405 -6.176,3.301 -7.72,3.202 -8.304,3.164 -8.304,2.333 -7.72,2.295 -6.41,2.211 -5.215,2.13 -4,1.588 -2.828,1.064 -1.861,0.137 -0.908,-0.701 -0.442,-1.11 0.406,-0.561 0,0" />
    </g>
    <g
       transform="matrix(3.6387893,0,0,-3.6387893,393.19218,782.45439)"
       id="g2830">
      <path
         id="path2832"
         style="fill:#7e7a8c;fill-opacity:1;fill-rule:nonzero;stroke:none"
         d="m 0,0 c -4.006,1.535 -9.073,-1.066 -11.209,-4.491 -0.222,-0.357 0.144,-0.826 0.543,-0.706 l 0.176,0.052 c 0.127,0.039 0.2,0.125 0.248,0.225 1.249,0.878 2.184,2.091 3.592,2.825 2.091,1.09 4.249,0.877 6.497,0.967 C 0.521,-1.101 0.594,-0.228 0,0" />
    </g>
    <g
       transform="matrix(3.6387893,0,0,-3.6387893,381.89228,793.80086)"
       id="g2834">
      <path
         id="path2836"
         style="fill:#7e7a8c;fill-opacity:1;fill-rule:nonzero;stroke:none"
         d="m 0,0 c -1.259,0.696 -2.579,0.5 -3.825,-0.123 -0.593,-0.296 -1.492,-0.962 -1.501,-1.683 -0.005,-0.471 0.685,-0.686 0.91,-0.246 0.204,0.399 0.927,0.612 1.276,0.883 0.721,0.558 2.048,0.217 2.863,0.143 C 0.279,-1.077 0.459,-0.253 0,0" />
    </g>
    <g
       transform="matrix(3.6387893,0,0,-3.6387893,383.11457,800.52933)"
       id="g2838">
      <path
         id="path2840"
         style="fill:#7e7a8c;fill-opacity:1;fill-rule:nonzero;stroke:none"
         d="m 0,0 c -1.476,-1.19 -3.177,-1.042 -4.898,-1.477 -0.377,-0.095 -0.378,-0.666 0,-0.76 1.943,-0.488 4.626,-0.269 5.646,1.659 C 1.014,-0.076 0.411,0.333 0,0" />
    </g>
    <g
       transform="matrix(3.6387893,0,0,-3.6387893,391.34804,800.46893)"
       id="g2842">
      <path
         id="path2844"
         style="fill:#7e7a8c;fill-opacity:1;fill-rule:nonzero;stroke:none"
         d="m 0,0 c -0.844,-0.972 -1.827,-1.918 -2.896,-2.637 -1.535,-1.033 -2.983,-0.967 -4.731,-1.122 -0.415,-0.037 -0.569,-0.681 -0.104,-0.775 1.752,-0.352 3.04,-0.551 4.732,0.274 1.709,0.835 2.931,1.958 3.784,3.654 C 1.029,-0.123 0.391,0.45 0,0" />
    </g>
    <g
       transform="matrix(3.6387893,0,0,-3.6387893,443.63089,495.64571)"
       id="g2846">
      <path
         id="path2848"
         style="fill:#7e7a8c;fill-opacity:1;fill-rule:nonzero;stroke:none"
         d="m 0,0 c -2.684,0.889 -5.378,-3.292 -4.894,-5.565 0.087,-0.409 0.642,-0.344 0.761,0 0.377,1.086 0.734,2.116 1.47,3.021 0.765,0.939 1.628,1.069 2.663,1.504 0.479,0.202 0.543,0.86 0,1.04" />
    </g>
    <g
       transform="matrix(3.6387893,0,0,-3.6387893,442.09207,505.50683)"
       id="g2850">
      <path
         id="path2852"
         style="fill:#7e7a8c;fill-opacity:1;fill-rule:nonzero;stroke:none"
         d="m 0,0 c 0.134,0.166 0.179,0.42 0,0.58 -0.034,0.025 -0.063,0.055 -0.088,0.09 -0.128,0.157 -0.385,0.203 -0.57,0.151 -0.626,-0.176 -1.01,-0.711 -1.297,-1.262 -0.139,-0.267 -0.242,-0.553 -0.336,-0.837 -0.042,-0.127 -0.08,-0.25 -0.127,-0.376 -0.082,-0.221 -0.03,-0.49 -0.123,-0.701 -0.186,-0.418 0.275,-0.808 0.638,-0.492 0.476,0.415 0.622,1.136 0.916,1.682 0.147,0.274 0.314,0.52 0.529,0.745 0.071,0.075 0.161,0.122 0.252,0.17 C -0.121,-0.205 0.189,0.233 0,0" />
    </g>
    <g
       transform="matrix(3.6387893,0,0,-3.6387893,450.05554,498.35699)"
       id="g2854">
      <path
         id="path2856"
         style="fill:#7e7a8c;fill-opacity:1;fill-rule:nonzero;stroke:none"
         d="m 0,0 c -0.426,-1.538 -1.061,-2.81 -2.225,-3.922 -0.83,-0.793 -2.225,-1.386 -2.508,-2.596 -0.079,-0.336 0.359,-0.649 0.614,-0.357 0.999,1.15 2.595,1.665 3.663,2.803 1.002,1.066 1.628,2.452 1.6,3.917 C 1.131,0.5 0.178,0.641 0,0" />
    </g>
    <g
       transform="matrix(3.6387893,0,0,-3.6387893,194.04307,378.07972)"
       id="g2858">
      <path
         id="path2860"
         style="fill:#7e7a8c;fill-opacity:1;fill-rule:nonzero;stroke:none"
         d="m 0,0 c -1.518,0.268 -3.114,-0.545 -4.325,-1.395 -1.271,-0.892 -2.132,-1.888 -2.401,-3.418 -0.035,-0.205 0.087,-0.402 0.31,-0.405 0.319,-0.005 0.63,0.093 0.78,0.419 0.312,0.677 0.703,1.148 1.248,1.652 1.303,1.203 2.831,1.442 4.388,2.092 0.436,0.182 0.599,0.949 0,1.055" />
    </g>
    <g
       transform="matrix(3.6387893,0,0,-3.6387893,188.94042,387.45214)"
       id="g2862">
      <path
         id="path2864"
         style="fill:#7e7a8c;fill-opacity:1;fill-rule:nonzero;stroke:none"
         d="m 0,0 c -0.3,-0.081 -0.499,-0.107 -0.75,-0.312 -0.194,-0.158 -0.392,-0.308 -0.612,-0.429 -0.2,-0.108 -0.468,-0.095 -0.684,-0.164 -0.275,-0.089 -0.447,-0.251 -0.615,-0.478 -0.18,-0.243 0.12,-0.632 0.402,-0.522 0.205,0.081 0.454,-0.002 0.665,-0.022 0.285,-0.029 0.553,0.019 0.819,0.124 0.268,0.106 0.48,0.26 0.705,0.44 0.102,0.083 0.202,0.172 0.302,0.257 0.137,0.117 0.162,0.32 0.262,0.463 C 0.724,-0.316 0.348,0.094 0,0" />
    </g>
    <g
       transform="matrix(3.6387893,0,0,-3.6387893,199.62934,388.19119)"
       id="g2866">
      <path
         id="path2868"
         style="fill:#7e7a8c;fill-opacity:1;fill-rule:nonzero;stroke:none"
         d="m 0,0 c -1.398,-1.424 -2.652,-3.133 -4.687,-3.64 -0.748,-0.186 -0.424,-1.273 0.313,-1.138 2.254,0.414 4.166,2.137 5.282,4.077 C 1.235,-0.132 0.465,0.473 0,0" />
    </g>
  </g>
</svg>
