<?xml version="1.0" encoding="UTF-8" standalone="no"?>
<svg
   xmlns:dc="http://purl.org/dc/elements/1.1/"
   xmlns:cc="http://creativecommons.org/ns#"
   xmlns:rdf="http://www.w3.org/1999/02/22-rdf-syntax-ns#"
   xmlns:svg="http://www.w3.org/2000/svg"
   xmlns="http://www.w3.org/2000/svg"
   version="1.1"
   id="svg6638"
   viewBox="0 0 711.77462 783.77784"
   height="221.19952mm"
   width="200.87862mm">
  <defs
     id="defs6640" />
  <metadata
     id="metadata6643">
    <rdf:RDF>
      <cc:Work
         rdf:about="">
        <dc:format>image/svg+xml</dc:format>
        <dc:type
           rdf:resource="http://purl.org/dc/dcmitype/StillImage" />
        <dc:title></dc:title>
      </cc:Work>
    </rdf:RDF>
  </metadata>
  <g
     transform="translate(-19.597441,-159.29413)"
     id="layer1">
    <g
       transform="matrix(3.3099008,0,0,-3.3099008,570.55118,673.61971)"
       id="g1658">
      <path
         id="path1660"
         style="fill:#b7ad91;fill-opacity:1;fill-rule:nonzero;stroke:none"
         d="m 0,0 c -0.662,-0.324 -0.995,-0.727 -1.366,-1.357 -0.691,-1.177 -1.406,-2.29 -2.166,-3.44 -1.221,-1.849 -3.443,-3.218 -5.517,-3.876 -1.402,-0.445 -4.982,-0.118 -5.772,1.58 0.007,0.043 0.026,0.077 0.026,0.125 10e-4,0.083 10e-4,0.167 0.002,0.25 0.007,0.888 -1.323,1.073 -1.546,0.209 -0.507,-1.961 -1.149,-4.55 0.782,-5.991 2.356,-1.758 5.477,-1.87 8.19,-0.989 5.516,1.788 8.582,7.222 8.616,12.772 C 1.253,-0.052 0.55,0.27 0,0" />
    </g>
    <g
       transform="matrix(3.3099008,0,0,-3.3099008,589.25674,466.78834)"
       id="g1662">
      <path
         id="path1664"
         style="fill:#b7ad91;fill-opacity:1;fill-rule:nonzero;stroke:none"
         d="m 0,0 c -1.476,1.639 -3.894,2.31 -5.956,2.854 -1.889,0.5 -3.572,1.053 -5.436,0.221 -1.872,-0.835 -1.778,-4.558 -2.39,-6.187 -2.43,-6.47 -7.453,-11.055 -14.303,-12.42 -6.084,-1.212 -13.663,-0.866 -18.137,3.772 -0.04,0.119 -0.089,0.233 -0.132,0.35 -0.012,0.039 -0.011,0.077 -0.029,0.118 -0.083,0.184 -0.165,0.368 -0.247,0.553 -0.107,0.239 -0.31,0.34 -0.528,0.356 -0.098,0.086 -0.222,0.15 -0.389,0.156 -0.09,0.004 -0.181,0.007 -0.27,0.011 -0.475,0.018 -0.792,-0.552 -0.545,-0.951 0.186,-0.301 0.392,-0.566 0.593,-0.842 1.407,-4.512 0.627,-10.101 4.96,-13.159 1.936,-1.367 4.97,-1.841 7.223,-2.307 3.144,-0.649 6.19,-0.328 9.304,0.264 3.183,0.605 6.281,1.618 9.27,2.858 2.873,1.192 5.169,3.018 7.525,5.015 4.633,3.924 7.897,8.347 9.724,14.213 C 0.654,-3.791 1.041,-1.156 0,0" />
    </g>
    <g
       transform="matrix(3.3099008,0,0,-3.3099008,352.34365,500.60956)"
       id="g1666">
      <path
         id="path1668"
         style="fill:#b7ad91;fill-opacity:1;fill-rule:nonzero;stroke:none"
         d="m 0,0 c -0.09,-0.003 -0.181,-0.007 -0.271,-0.01 -0.166,-0.007 -0.291,-0.071 -0.388,-0.157 -0.218,-0.016 -0.421,-0.116 -0.528,-0.356 -0.083,-0.185 -0.165,-0.37 -0.248,-0.553 -0.017,-0.041 -0.016,-0.078 -0.028,-0.118 -0.044,-0.117 -0.093,-0.231 -0.133,-0.35 -4.473,-4.639 -12.052,-4.986 -18.136,-3.775 -6.85,1.364 -11.873,5.948 -14.305,12.417 -0.612,1.629 -0.519,5.352 -2.391,6.187 -1.865,0.832 -3.547,0.278 -5.435,-0.222 -2.063,-0.545 -4.481,-1.216 -5.956,-2.855 -1.041,-1.156 -0.655,-3.791 -0.238,-5.125 1.829,-5.866 5.094,-10.288 9.727,-14.212 2.357,-1.996 4.653,-3.821 7.526,-5.013 2.99,-1.239 6.087,-2.253 9.271,-2.857 3.114,-0.591 6.16,-0.912 9.304,-0.262 2.252,0.466 5.287,0.942 7.222,2.308 4.333,3.059 3.552,8.647 4.958,13.16 0.201,0.276 0.407,0.542 0.594,0.843 C 0.792,-0.551 0.475,0.019 0,0" />
    </g>
    <g
       transform="matrix(3.3099008,0,0,-3.3099008,381.62204,798.49438)"
       id="g1670">
      <path
         id="path1672"
         style="fill:#b7ad91;fill-opacity:1;fill-rule:nonzero;stroke:none"
         d="m 0,0 c -0.576,3.529 -1.301,7.128 -2.681,10.441 -0.928,2.23 -1.789,4.982 -3.798,6.514 -1.786,1.362 -3.723,2.007 -5.93,1.357 -2.553,-0.752 -3.211,-3.482 -3.646,-5.715 -0.248,-1.279 -2.252,-11.92 -3.169,-15.491 -1.854,-7.22 -3.529,-15 -3.128,-22.491 0.293,-5.504 0.712,-10.977 6.523,-13.226 2.522,-0.976 5.738,-0.712 8.374,-0.422 2.413,0.264 4.895,0.773 7.058,1.904 5.296,2.773 3.496,11.377 3.024,16.094 C 1.926,-14.005 1.137,-6.975 0,0" />
    </g>
    <g
       transform="matrix(3.3099008,0,0,-3.3099008,531.95739,861.1594)"
       id="g1674">
      <path
         id="path1676"
         style="fill:#b7ad91;fill-opacity:1;fill-rule:nonzero;stroke:none"
         d="m 0,0 c -1.875,7.264 -5.816,14.177 -9.763,20.502 -1.949,3.128 -7.068,12.671 -7.691,13.814 -1.087,1.999 -2.537,4.403 -5.197,4.35 -2.301,-0.044 -3.954,-1.243 -5.246,-3.081 -1.455,-2.066 -1.444,-4.949 -1.658,-7.355 -0.317,-3.575 0.076,-7.225 0.592,-10.763 1.018,-6.993 2.385,-13.935 3.835,-20.849 0.973,-4.639 1.851,-13.388 7.736,-14.433 2.403,-0.427 4.923,-0.164 7.303,0.31 2.601,0.52 5.747,1.237 7.859,2.927 C 2.631,-10.682 1.38,-5.336 0,0" />
    </g>
    <g
       transform="matrix(3.3099008,0,0,-3.3099008,597.69005,461.89264)"
       id="g1678">
      <path
         id="path1680"
         style="fill:#a0977f;fill-opacity:1;fill-rule:nonzero;stroke:none"
         d="m 0,0 c -2.305,1.292 -4.352,2.408 -6.951,3.041 -2.36,0.574 -4.794,0.458 -7.16,0.923 -1.587,0.313 -3.667,0.109 -5.143,-0.574 -1.92,-0.888 -0.784,-3.478 -0.319,-4.789 0.053,-0.152 0.161,-0.254 0.286,-0.315 0.03,-0.09 0.055,-0.174 0.092,-0.27 0.518,-1.353 0.492,-2.405 1.674,-3.42 1.732,-1.491 3.636,-0.431 5.148,0.866 0.075,-0.952 0.484,-1.707 1.813,-2.176 2.08,-0.733 2.934,0.048 4.16,1.152 0.004,-0.434 -0.101,-0.89 0.151,-1.231 0.441,-0.598 0.901,-1.249 1.555,-1.637 1.497,-0.891 2.856,-0.803 4.396,-0.049 C 3.126,-6.8 3.165,-1.775 0,0" />
    </g>
    <g
       transform="matrix(3.3099008,0,0,-3.3099008,249.3551,450.69591)"
       id="g1682">
      <path
         id="path1684"
         style="fill:#a0977f;fill-opacity:1;fill-rule:nonzero;stroke:none"
         d="m 0,0 c -1.476,0.683 -3.556,0.886 -5.143,0.573 -2.366,-0.466 -4.8,-0.349 -7.16,-0.925 -2.599,-0.633 -4.644,-1.749 -6.949,-3.042 -3.165,-1.775 -3.126,-6.8 0.298,-8.478 1.54,-0.755 2.899,-0.842 4.396,0.049 0.654,0.389 1.114,1.039 1.555,1.637 0.252,0.342 0.148,0.798 0.151,1.231 1.226,-1.103 2.081,-1.884 4.16,-1.15 1.329,0.468 1.738,1.224 1.813,2.176 1.512,-1.298 3.416,-2.356 5.149,-0.866 1.181,1.016 1.155,2.068 1.673,3.421 0.037,0.096 0.062,0.18 0.092,0.27 0.125,0.061 0.233,0.163 0.286,0.314 C 0.786,-3.478 1.92,-0.888 0,0" />
    </g>
    <g
       transform="matrix(3.3099008,0,0,-3.3099008,366.16181,903.02432)"
       id="g1686">
      <path
         id="path1688"
         style="fill:#a0977f;fill-opacity:1;fill-rule:nonzero;stroke:none"
         d="M 0,0 C -1.33,1.12 -2.438,2.704 -4.504,2.188 -5.516,1.936 -6.63,1.603 -7.456,0.937 -8.239,0.306 -8.602,-0.588 -9.007,-1.477 c -2.418,1.907 -5.429,2.595 -8.202,0.705 -1.364,-0.93 -1.614,-2.479 -1.372,-4.015 -0.01,-0.081 -0.01,-0.167 0.014,-0.262 0.482,-1.987 0.706,-3.886 2.218,-5.424 1.448,-1.471 4.781,-1.589 6.704,-1.624 3.064,-0.056 6.156,0.903 9.081,1.688 2.787,0.748 5.502,1.357 8.028,2.805 3.937,2.26 5.469,6.086 1.954,9.583 C 6.276,5.105 2.275,2.853 0,0" />
    </g>
    <g
       transform="matrix(3.3099008,0,0,-3.3099008,545.75935,894.92098)"
       id="g1690">
      <path
         id="path1692"
         style="fill:#a0977f;fill-opacity:1;fill-rule:nonzero;stroke:none"
         d="m 0,0 c -0.231,1.537 -0.937,2.938 -2.519,3.413 -3.214,0.968 -5.877,-0.598 -7.609,-3.143 -0.653,0.725 -1.268,1.468 -2.205,1.833 -0.988,0.385 -2.151,0.368 -3.192,0.303 -2.125,-0.131 -2.704,-1.975 -3.635,-3.444 -3.029,2.034 -7.524,2.976 -9.576,-0.952 -2.296,-4.393 0.316,-7.58 4.752,-8.547 2.843,-0.619 5.617,-0.383 8.5,-0.256 3.025,0.134 6.262,0.151 9.167,1.129 1.823,0.612 4.965,1.729 5.902,3.569 0.979,1.923 0.619,3.801 0.48,5.841 C 0.06,-0.156 0.034,-0.074 0,0" />
    </g>
    <g
       transform="matrix(3.3099008,0,0,-3.3099008,533.03046,684.68408)"
       id="g1694">
      <path
         id="path1696"
         style="fill:#a0977f;fill-opacity:1;fill-rule:nonzero;stroke:none"
         d="m 0,0 c -0.444,6.396 -2.168,12.8 -4.698,18.673 -2.663,6.179 -6.392,11.68 -9.444,17.636 -3.036,5.928 -6.458,11.653 -9.54,17.553 -1.644,3.151 -2.872,6.51 -3.99,9.876 -1.201,3.618 -1.504,7.212 -1.622,10.979 0.058,0.087 0.092,0.189 0.099,0.304 0.195,0.346 0.079,0.847 -0.351,0.986 -2.212,4.338 -8.811,2.925 -12.705,2.925 -3.709,0 -7.322,-0.78 -11,-0.999 -2.114,-0.125 -4.958,-0.418 -6.32,-2.358 -1.956,-2.785 -2.517,-5.574 -3.2,-8.911 -0.807,-3.939 -1.477,-7.895 -2.413,-11.807 -1.795,-7.494 -4.757,-14.382 -7.665,-21.49 -5.561,-13.596 -8.255,-28.64 -3.998,-43.061 1.844,-6.244 5.837,-11.737 10.205,-16.473 2.105,-2.282 4.977,-3.979 7.738,-5.331 3.166,-1.551 6.023,-3.322 9.38,-4.498 5.84,-2.046 11.899,-1.825 17.965,-1.697 6.179,0.13 12.955,2.604 18.015,6.075 4.876,3.343 7.753,7.972 10.033,13.318 C -1.096,-12.641 0.429,-6.173 0,0" />
    </g>
    <g
       transform="matrix(3.3099008,0,0,-3.3099008,436.46146,612.36738)"
       id="g1698">
      <path
         id="path1700"
         style="fill:#f0dac3;fill-opacity:1;fill-rule:nonzero;stroke:none"
         d="m 0,0 c -2.276,6.56 -4.338,14.045 -8.308,19.801 -1.214,1.762 -2.892,4.186 -5.358,3.913 -0.122,-0.014 -0.222,-0.052 -0.333,-0.077 -2.604,-0.062 -3.025,-2.029 -3.982,-4.229 -1.364,-3.132 -2.769,-6.245 -3.99,-9.435 -2.432,-6.355 -4.259,-13.422 -4.643,-20.233 -0.313,-5.539 -0.082,-12.979 3.689,-17.46 3.839,-4.562 9.838,-5.189 15.434,-4.386 6,0.86 10.038,4.766 10.604,10.84 C 3.778,-14.137 2.335,-6.73 0,0" />
    </g>
    <g
       transform="matrix(3.3099008,0,0,-3.3099008,698.35406,201.64707)"
       id="g1702">
      <path
         id="path1704"
         style="fill:#a0977f;fill-opacity:1;fill-rule:nonzero;stroke:none"
         d="m 0,0 c -10.843,13.722 -32.305,16.251 -47.261,8.34 -7.7,-4.074 -12.805,-10.858 -16.311,-18.673 -3.501,-7.801 -5.814,-16.352 -5.841,-24.98 -0.002,-0.723 0.844,-0.865 1.229,-0.455 0.656,-2.42 0.667,-4.974 1.111,-7.44 0.655,-3.653 1.073,-7.028 2.632,-10.457 2.669,-5.864 7.234,-10.2 12.722,-13.421 11.555,-6.781 25.945,-7.501 38.303,-2.731 2.853,1.101 5.155,2.947 7.462,4.912 2.631,2.242 5.141,4.347 7.291,7.088 4.118,5.251 6.6,11.739 7.779,18.263 C 11.604,-25.802 8.728,-11.045 0,0" />
    </g>
    <g
       transform="matrix(3.3099008,0,0,-3.3099008,209.02232,174.07197)"
       id="g1706">
      <path
         id="path1708"
         style="fill:#a0977f;fill-opacity:1;fill-rule:nonzero;stroke:none"
         d="m 0,0 c -14.958,7.909 -36.418,5.376 -47.259,-8.348 -8.725,-11.047 -11.6,-25.804 -9.11,-39.556 1.181,-6.524 3.663,-13.011 7.783,-18.261 2.15,-2.74 4.66,-4.846 7.291,-7.086 2.309,-1.966 4.61,-3.811 7.464,-4.912 12.358,-4.768 26.748,-4.045 38.303,2.738 5.486,3.222 10.051,7.559 12.718,13.424 1.559,3.428 1.977,6.803 2.632,10.458 0.442,2.465 0.453,5.019 1.109,7.439 0.385,-0.41 1.231,-0.268 1.229,0.455 -0.029,8.628 -2.344,17.179 -5.845,24.98 C 12.808,-10.855 7.7,-4.072 0,0" />
    </g>
    <g
       transform="matrix(3.3099008,0,0,-3.3099008,603.43702,253.42715)"
       id="g1710">
      <path
         id="path1712"
         style="fill:#f38c6b;fill-opacity:1;fill-rule:nonzero;stroke:none"
         d="m 0,0 c -3.736,4.359 -9.764,5.209 -15.137,4.3 -6.505,-1.1 -12.425,-5.557 -16.465,-10.58 -2.072,-2.575 -3.616,-5.582 -4.948,-8.594 -0.984,-2.225 -2.392,-4.914 -2.895,-7.486 -2.36,-4.605 -3.731,-10.149 -0.02,-14.481 3.9,-4.55 11.395,-4.892 16.918,-4.289 13.284,1.45 22.446,12.364 25.713,24.684 C 4.649,-10.85 3.822,-4.459 0,0" />
    </g>
    <g
       transform="matrix(3.3099008,0,0,-3.3099008,268.50684,302.6765)"
       id="g1714">
      <path
         id="path1716"
         style="fill:#f38c6b;fill-opacity:1;fill-rule:nonzero;stroke:none"
         d="m 0,0 c -1.332,3.011 -2.876,6.018 -4.948,8.593 -4.042,5.022 -9.962,9.479 -16.467,10.577 -5.373,0.909 -11.4,0.058 -15.137,-4.302 -3.82,-4.46 -4.647,-10.851 -3.162,-16.447 3.269,-12.319 12.433,-23.231 25.717,-24.68 5.523,-0.602 13.018,-0.258 16.916,4.293 3.711,4.332 2.338,9.876 -0.022,14.481 C 2.395,-4.914 0.986,-2.225 0,0" />
    </g>
    <g
       transform="matrix(3.3099008,0,0,-3.3099008,510.92794,376.45119)"
       id="g1718">
      <path
         id="path1720"
         style="fill:#b7ad91;fill-opacity:1;fill-rule:nonzero;stroke:none"
         d="m 0,0 c -0.574,6.543 -2.936,13.147 -5.775,19.038 -1.388,2.877 -2.49,5.854 -4.098,8.623 -1.788,3.08 -3.939,6.073 -6.185,8.846 -1.943,2.399 -4.21,4.363 -6.86,5.942 -3.037,1.81 -6.058,4.066 -9.596,4.757 -2.236,0.437 -4.539,1.385 -6.815,1.548 -2.571,0.185 -5.071,0.377 -7.659,0.248 -4.993,-0.251 -10.13,-1.384 -14.438,-3.97 -4.172,-2.504 -7.395,-5.958 -10.305,-9.801 -3.503,-4.627 -6.248,-9.675 -8.6,-14.98 -2.132,-4.805 -4.05,-9.924 -5.118,-15.079 -1.076,-5.186 -0.584,-10.233 2.278,-14.641 3.598,-5.538 8.726,-8.343 11.684,-10.245 2.938,-1.891 5.598,-4.224 8.749,-5.819 2.819,-1.427 5.334,-2.723 8.396,-3.614 3.396,-0.989 6.895,-1.068 10.402,-0.841 3.195,0.208 6.269,1.395 9.212,2.564 3.832,1.523 7.757,2.817 11.624,4.248 3.227,1.194 6.46,2.425 9.668,3.67 2.859,1.108 5.095,2.913 7.45,4.818 C -1.189,-10.804 0.531,-6.027 0,0" />
    </g>
    <g
       transform="matrix(3.3099008,0,0,-3.3099008,419.62765,415.50241)"
       id="g1722">
      <path
         id="path1724"
         style="fill:#f6e1d0;fill-opacity:1;fill-rule:nonzero;stroke:none"
         d="m 0,0 c -0.34,1.035 -1.1,2.155 -1.772,3.004 -1.148,1.447 -1.77,3.098 -3.165,4.345 -0.613,0.549 -1.438,0.005 -1.309,-0.762 0.521,-3.093 0.904,-5.703 -0.75,-8.569 -1.615,-2.796 -4.87,-5.305 -8.303,-4.284 -0.637,0.189 -0.98,-0.426 -0.827,-0.911 -0.115,-0.354 -0.004,-0.807 0.444,-0.975 4.905,-1.832 11.273,-3.193 15.036,1.511 C 0.784,-4.853 0.668,-2.032 0,0" />
    </g>
    <g
       transform="matrix(3.3099008,0,0,-3.3099008,367.41263,392.75343)"
       id="g1726">
      <path
         id="path1728"
         style="fill:#c6bda6;fill-opacity:1;fill-rule:nonzero;stroke:none"
         d="m 0,0 c -1.479,3.838 -4.955,6.536 -8.713,7.914 -2.27,0.832 -4.148,0.768 -6.449,0.218 -1.021,-0.243 -4.769,-1.939 -6.109,-3.212 0,-0.001 -0.067,-0.052 -0.101,-0.078 -4.88,-3.822 -7.162,-11.143 -7.96,-17.01 -0.435,-3.193 0.247,-5.757 1.132,-8.794 1.012,-3.473 2.074,-6.934 3.062,-10.416 2.149,-7.572 1.219,-16.048 -5.708,-20.873 -3.163,-2.203 -7.443,-1.397 -10.906,-0.575 -3.185,0.757 -6.632,1.511 -9.921,1.156 -5.526,-0.595 -8.899,-5.633 -7.978,-10.993 0.395,-2.3 1.312,-4.267 3.244,-5.626 1.94,-1.368 5.264,-0.313 7.23,0.363 0.963,0.33 3.147,1.061 2.413,2.53 -0.872,1.746 -2.678,3.515 -1.61,5.648 1.291,2.578 3.83,1.969 6.064,1.308 5.139,-1.521 10.433,-3.808 15.8,-4.369 4.536,-0.473 9.647,1.065 13.21,3.945 4.12,3.331 6.416,7.869 8.151,12.812 1.812,5.167 1.333,10.694 0.449,15.997 -0.511,3.062 -1.043,6.199 -1.212,9.3 -0.208,3.797 1.523,5.839 3.795,8.58 C 0.781,-8.677 1.653,-4.294 0,0" />
    </g>
    <g
       transform="matrix(3.3099008,0,0,-3.3099008,426.15676,330.41977)"
       id="g1730">
      <path
         id="path1732"
         style="fill:#3f2322;fill-opacity:1;fill-rule:nonzero;stroke:none"
         d="M 0,0 C -0.342,-0.223 -0.613,-0.533 -0.823,-0.886 -0.916,-0.976 -1.005,-1.068 -1.081,-1.158 -2.058,-2.315 -1.883,-3.981 -1.005,-5.129 0.868,-7.58 4.817,-6.584 4.828,-3.394 4.837,-1.007 2.352,1.535 0,0" />
    </g>
    <g
       transform="matrix(3.3099008,0,0,-3.3099008,267.90876,325.40956)"
       id="g1734">
      <path
         id="path1736"
         style="fill:#3f2322;fill-opacity:1;fill-rule:nonzero;stroke:none"
         d="M 0,0 C -0.342,-0.223 -0.613,-0.533 -0.823,-0.886 -0.916,-0.976 -1.005,-1.067 -1.081,-1.158 -2.058,-2.314 -1.883,-3.981 -1.006,-5.129 0.868,-7.58 4.817,-6.584 4.828,-3.394 4.837,-1.007 2.352,1.535 0,0" />
    </g>
    <g
       transform="matrix(3.3099008,0,0,-3.3099008,455.72312,377.24623)"
       id="g1738">
      <path
         id="path1740"
         style="fill:#f38c6b;fill-opacity:1;fill-rule:nonzero;stroke:none"
         d="m 0,0 c -5.124,1.96 -8.263,-4.511 -7.233,-8.537 0.557,-2.183 1.875,-3.824 4.038,-4.492 1.154,-0.357 2.521,-0.245 3.686,0.257 0.067,-0.009 0.131,-0.019 0.196,-0.025 1.162,-0.122 2.455,1.233 3.089,2.026 0.582,0.728 0.981,1.673 1.125,2.645 C 6.176,-4.828 3.069,-1.174 0,0" />
    </g>
    <g
       transform="matrix(3.3099008,0,0,-3.3099008,261.88043,369.97207)"
       id="g1742">
      <path
         id="path1744"
         style="fill:#f38c6b;fill-opacity:1;fill-rule:nonzero;stroke:none"
         d="m 0,0 c -5.124,1.96 -8.263,-4.511 -7.233,-8.537 0.557,-2.183 1.875,-3.824 4.037,-4.492 1.943,-0.601 4.503,0.098 5.655,1.82 0.133,0.198 0.256,0.397 0.376,0.597 0.499,0.346 0.943,0.732 1.288,1.156 C 7.034,-5.876 3.488,-1.334 0,0" />
    </g>
    <g
       transform="matrix(3.3099008,0,0,-3.3099008,274.87443,335.97608)"
       id="g1746">
      <path
         id="path1748"
         style="fill:#643e39;fill-opacity:1;fill-rule:nonzero;stroke:none"
         d="M 0,0 C -0.011,0.042 -0.039,0.076 -0.059,0.114 -0.149,0.468 -0.363,0.794 -0.743,0.966 -1.097,1.127 -1.475,1.125 -1.78,0.971 -1.796,0.964 -1.812,0.962 -1.825,0.956 -1.866,0.936 -1.895,0.902 -1.931,0.876 -1.972,0.845 -2.017,0.825 -2.052,0.786 -2.294,0.546 -2.413,0.183 -2.448,-0.15 c -0.055,-0.507 0.381,-0.942 0.839,-1.139 0.021,-0.009 0.042,-0.016 0.064,-0.025 0.098,-0.036 0.195,-0.066 0.288,-0.078 0.004,0 0.006,10e-4 0.008,0 0.14,-0.017 0.277,-0.008 0.411,0.022 0.067,0.015 0.125,0.041 0.185,0.067 0.07,0.029 0.135,0.062 0.199,0.102 0.023,0.017 0.048,0.033 0.07,0.053 C -0.062,-0.902 0.133,-0.5 0,0" />
    </g>
    <g
       transform="matrix(3.3099008,0,0,-3.3099008,272.98348,334.72824)"
       id="g1750">
      <path
         id="path1752"
         style="fill:#f6e1d0;fill-opacity:1;fill-rule:nonzero;stroke:none"
         d="M 0,0 C -1.002,0 -1.002,-1.555 0,-1.555 1.002,-1.555 1.002,0 0,0" />
    </g>
    <g
       transform="matrix(3.3099008,0,0,-3.3099008,280.05243,334.06233)"
       id="g1754">
      <path
         id="path1756"
         style="fill:#f6e1d0;fill-opacity:1;fill-rule:nonzero;stroke:none"
         d="M 0,0 C -0.71,0 -0.71,-1.102 0,-1.102 0.71,-1.102 0.71,0 0,0" />
    </g>
    <g
       transform="matrix(3.3099008,0,0,-3.3099008,277.57994,339.72885)"
       id="g1758">
      <path
         id="path1760"
         style="fill:#f6e1d0;fill-opacity:1;fill-rule:nonzero;stroke:none"
         d="M 0,0 C -0.57,0 -0.57,-0.883 0,-0.883 0.568,-0.883 0.568,0 0,0" />
    </g>
    <g
       transform="matrix(3.3099008,0,0,-3.3099008,433.10325,341.91702)"
       id="g1762">
      <path
         id="path1764"
         style="fill:#643e39;fill-opacity:1;fill-rule:nonzero;stroke:none"
         d="M 0,0 C -0.011,0.042 -0.039,0.076 -0.059,0.114 -0.149,0.468 -0.363,0.794 -0.743,0.967 -1.097,1.128 -1.475,1.125 -1.78,0.972 -1.796,0.965 -1.812,0.963 -1.825,0.956 -1.866,0.937 -1.895,0.902 -1.931,0.877 -1.972,0.846 -2.017,0.825 -2.052,0.786 -2.294,0.547 -2.413,0.184 -2.448,-0.149 c -0.055,-0.507 0.382,-0.943 0.84,-1.139 0.021,-0.01 0.042,-0.017 0.064,-0.025 0.098,-0.037 0.195,-0.067 0.288,-0.079 0.004,0 0.006,10e-4 0.008,0 0.14,-0.016 0.277,-0.007 0.411,0.023 0.067,0.015 0.125,0.041 0.185,0.066 0.07,0.029 0.135,0.062 0.199,0.102 0.023,0.017 0.048,0.033 0.07,0.053 C -0.061,-0.902 0.134,-0.5 0,0" />
    </g>
    <g
       transform="matrix(3.3099008,0,0,-3.3099008,431.21229,340.66921)"
       id="g1766">
      <path
         id="path1768"
         style="fill:#f6e1d0;fill-opacity:1;fill-rule:nonzero;stroke:none"
         d="M 0,0 C -1.002,0 -1.001,-1.555 0.001,-1.555 1.003,-1.555 1.002,0 0,0" />
    </g>
    <g
       transform="matrix(3.3099008,0,0,-3.3099008,438.28127,340.0036)"
       id="g1770">
      <path
         id="path1772"
         style="fill:#f6e1d0;fill-opacity:1;fill-rule:nonzero;stroke:none"
         d="M 0,0 C -0.71,0 -0.71,-1.102 0.001,-1.102 0.71,-1.102 0.71,0 0,0" />
    </g>
    <g
       transform="matrix(3.3099008,0,0,-3.3099008,435.81174,345.66979)"
       id="g1774">
      <path
         id="path1776"
         style="fill:#f6e1d0;fill-opacity:1;fill-rule:nonzero;stroke:none"
         d="M 0,0 C -0.57,0 -0.57,-0.883 0,-0.883 0.568,-0.883 0.568,0 0,0" />
    </g>
    <g
       transform="matrix(3.3099008,0,0,-3.3099008,335.28342,434.62008)"
       id="g1778">
      <path
         id="path1780"
         style="fill:#a0977f;fill-opacity:1;fill-rule:nonzero;stroke:none"
         d="m 0,0 c -3.82,4.812 -11.57,5.854 -16.283,1.686 -0.161,-0.142 -0.161,-0.38 -0.072,-0.557 0.1,-0.201 0.311,-0.392 0.546,-0.269 2.16,1.128 3.708,2.129 6.298,2.11 1.438,-0.011 3.13,0.101 4.478,-0.481 C -3.37,1.771 -2.088,0.403 -0.691,-0.69 -0.194,-1.08 0.394,-0.497 0,0" />
    </g>
    <g
       transform="matrix(3.3099008,0,0,-3.3099008,328.24326,450.05282)"
       id="g1782">
      <path
         id="path1784"
         style="fill:#a0977f;fill-opacity:1;fill-rule:nonzero;stroke:none"
         d="m 0,0 c -2.489,-2.451 -5.021,-2.526 -8.284,-2.342 -1.718,0.097 -3.063,0.759 -4.539,1.571 0.088,-0.048 -1.868,1.218 -1.885,1.278 -0.095,0.34 -0.591,0.34 -0.686,0 -0.024,-0.074 -0.042,-0.151 -0.054,-0.229 -0.034,-0.179 0.019,-0.371 0.189,-0.465 0.614,-0.337 0.668,-0.747 1.166,-1.067 0.945,-0.609 1.896,-1.176 2.894,-1.692 1.237,-0.64 2.791,-0.674 4.161,-0.834 3.071,-0.358 6.091,0.545 7.743,3.236 C 0.977,-0.103 0.36,0.355 0,0" />
    </g>
    <g
       transform="matrix(3.3099008,0,0,-3.3099008,317.18556,445.72313)"
       id="g1786">
      <path
         id="path1788"
         style="fill:#a0977f;fill-opacity:1;fill-rule:nonzero;stroke:none"
         d="m 0,0 c -2.629,-0.328 -6.493,-1.416 -8.427,1.264 -0.078,0.109 -0.207,0.224 -0.355,0.204 -0.115,-0.015 -0.23,-0.031 -0.345,-0.047 -0.363,-0.05 -0.363,-0.679 0,-0.73 0.216,-0.03 0.622,-0.754 1.008,-1.01 1.01,-0.669 1.771,-0.984 2.967,-1.214 1.735,-0.333 4.022,-0.353 5.439,0.84 C 0.545,-0.477 0.348,0.043 0,0" />
    </g>
    <g
       transform="matrix(3.3099008,0,0,-3.3099008,315.92183,435.41211)"
       id="g1790">
      <path
         id="path1792"
         style="fill:#a0977f;fill-opacity:1;fill-rule:nonzero;stroke:none"
         d="m 0,0 c -1.545,1.587 -4.731,1.508 -6.418,0.257 -0.428,-0.317 -0.061,-0.999 0.426,-0.728 0.907,0.504 1.888,0.616 2.907,0.469 0.921,-0.133 1.708,-0.649 2.603,-0.827 C -0.007,-0.923 0.362,-0.372 0,0" />
    </g>
    <g
       transform="matrix(3.3099008,0,0,-3.3099008,198.13571,588.64533)"
       id="g1794">
      <path
         id="path1796"
         style="fill:#a0977f;fill-opacity:1;fill-rule:nonzero;stroke:none"
         d="M 0,0 C -1.287,-0.182 -2.009,0.097 -2.975,0.964 -3.479,1.418 -3.948,2.09 -4.562,2.383 -4.957,2.572 -5.415,2.074 -5.054,1.746 -4.68,1.405 -4.436,0.963 -4.095,0.592 -3.686,0.147 -3.164,-0.254 -2.675,-0.611 -1.75,-1.287 -0.509,-1.42 0.411,-0.705 0.789,-0.41 0.356,0.051 0,0" />
    </g>
    <g
       transform="matrix(3.3099008,0,0,-3.3099008,200.75088,581.65049)"
       id="g1798">
      <path
         id="path1800"
         style="fill:#a0977f;fill-opacity:1;fill-rule:nonzero;stroke:none"
         d="M 0,0 C -0.976,0.455 -2.082,1.355 -3.225,1.039 -3.65,0.922 -3.579,0.208 -3.117,0.249 -1.979,0.35 -1.302,-1.094 -0.09,-0.686 0.189,-0.592 0.316,-0.148 0,0" />
    </g>
    <g
       transform="matrix(3.3099008,0,0,-3.3099008,206.23935,578.74771)"
       id="g1802">
      <path
         id="path1804"
         style="fill:#a0977f;fill-opacity:1;fill-rule:nonzero;stroke:none"
         d="M 0,0 C -0.307,0.614 -0.985,0.99 -1.603,1.23 -1.96,1.369 -2.384,1.483 -2.762,1.532 -3.079,1.574 -3.354,1.44 -3.654,1.352 c -0.325,-0.096 -0.384,-0.659 0,-0.715 0.233,-0.035 0.418,-0.032 0.648,0.017 0.161,0.034 0.662,-0.239 0.824,-0.297 0.606,-0.211 1.01,-0.703 1.573,-0.966 C -0.203,-0.801 0.206,-0.414 0,0" />
    </g>
    <g
       transform="matrix(3.3099008,0,0,-3.3099008,213.8415,576.6274)"
       id="g1806">
      <path
         id="path1808"
         style="fill:#a0977f;fill-opacity:1;fill-rule:nonzero;stroke:none"
         d="M 0,0 C -0.262,1.033 -1.564,1.787 -2.491,2.144 -3.617,2.577 -4.687,2.637 -5.769,2.09 -6.099,1.924 -5.863,1.43 -5.524,1.512 -4.546,1.75 -3.524,1.439 -2.66,0.99 -1.894,0.592 -1.439,-0.121 -0.74,-0.569 -0.355,-0.816 0.104,-0.412 0,0" />
    </g>
    <g
       transform="matrix(3.3099008,0,0,-3.3099008,310.79515,560.32516)"
       id="g1810">
      <path
         id="path1812"
         style="fill:#a0977f;fill-opacity:1;fill-rule:nonzero;stroke:none"
         d="M 0,0 C -1.312,0.933 -3.479,2.385 -5.141,2.294 -5.441,2.278 -5.532,1.821 -5.215,1.75 -3.787,1.429 -2.377,0.4 -1.164,-0.39 0.361,-1.385 1.174,-2.506 2.034,-4.064 2.247,-4.45 2.889,-4.285 2.871,-3.837 2.805,-2.147 1.273,-0.906 0,0" />
    </g>
    <g
       transform="matrix(3.3099008,0,0,-3.3099008,316.8721,555.49138)"
       id="g1814">
      <path
         id="path1816"
         style="fill:#a0977f;fill-opacity:1;fill-rule:nonzero;stroke:none"
         d="m 0,0 c -0.758,0.599 -1.629,1.024 -2.42,1.572 -0.307,0.212 -0.678,-0.271 -0.398,-0.515 0.589,-0.517 1.229,-0.973 1.839,-1.463 0.32,-0.256 0.612,-0.54 0.883,-0.845 0.333,-0.373 0.5,-0.83 0.902,-1.143 0.256,-0.2 0.63,-0.087 0.646,0.268 C 1.494,-1.224 0.648,-0.513 0,0" />
    </g>
    <g
       transform="matrix(3.3099008,0,0,-3.3099008,314.26027,545.29489)"
       id="g1818">
      <path
         id="path1820"
         style="fill:#a0977f;fill-opacity:1;fill-rule:nonzero;stroke:none"
         d="m 0,0 c -0.422,0.066 -0.612,-0.536 -0.18,-0.655 1.323,-0.365 2.636,-1.127 3.159,-2.452 0.124,-0.315 0.589,-0.368 0.693,0 C 4.2,-1.232 1.394,-0.218 0,0" />
    </g>
    <g
       transform="matrix(3.3099008,0,0,-3.3099008,335.99439,551.52046)"
       id="g1822">
      <path
         id="path1824"
         style="fill:#a0977f;fill-opacity:1;fill-rule:nonzero;stroke:none"
         d="m 0,0 c -1.397,5.174 -6.993,6.904 -11.779,6.59 -0.52,-0.034 -0.518,-0.768 0,-0.805 C -9.396,5.616 -7.28,5.3 -5.147,4.181 -3.176,3.147 -2.135,1.403 -1.057,-0.446 -0.725,-1.015 0.171,-0.634 0,0" />
    </g>
    <g
       transform="matrix(3.3099008,0,0,-3.3099008,526.39445,539.19242)"
       id="g1826">
      <path
         id="path1828"
         style="fill:#a0977f;fill-opacity:1;fill-rule:nonzero;stroke:none"
         d="M 0,0 C -0.51,0.268 -1.037,0.419 -1.521,0.748 -2.067,1.12 -2.484,1.704 -2.849,2.242 -3.422,3.086 -3.702,4.31 -4.318,5.131 -4.31,5.281 -4.388,5.436 -4.565,5.494 -4.638,5.53 -4.713,5.553 -4.791,5.563 -5.082,5.606 -5.436,5.379 -5.316,5.038 -4.562,2.884 -3.246,-1.501 -0.127,-0.971 0.33,-0.893 0.385,-0.203 0,0" />
    </g>
    <g
       transform="matrix(3.3099008,0,0,-3.3099008,530.31866,533.72976)"
       id="g1830">
      <path
         id="path1832"
         style="fill:#a0977f;fill-opacity:1;fill-rule:nonzero;stroke:none"
         d="M 0,0 C -0.573,0.299 -1.097,0.487 -1.576,0.95 -2.035,1.394 -2.406,2.003 -2.52,2.636 -2.608,3.129 -3.291,2.957 -3.333,2.526 -3.421,1.621 -2.944,0.812 -2.384,0.141 -1.889,-0.452 -0.925,-1.178 -0.11,-0.85 0.23,-0.712 0.395,-0.206 0,0" />
    </g>
    <g
       transform="matrix(3.3099008,0,0,-3.3099008,533.57659,529.56492)"
       id="g1834">
      <path
         id="path1836"
         style="fill:#a0977f;fill-opacity:1;fill-rule:nonzero;stroke:none"
         d="m 0,0 c -0.436,0.471 -0.842,0.982 -1.308,1.424 -0.533,0.507 -1.284,-0.257 -0.8,-0.801 0.405,-0.456 0.722,-0.983 1.127,-1.439 0.344,-0.387 1.184,-1.041 1.588,-0.35 C 0.89,-0.685 0.273,-0.295 0,0" />
    </g>
    <g
       transform="matrix(3.3099008,0,0,-3.3099008,537.74641,524.56762)"
       id="g1838">
      <path
         id="path1840"
         style="fill:#a0977f;fill-opacity:1;fill-rule:nonzero;stroke:none"
         d="M 0,0 C -0.972,1.343 -2.115,2.169 -3.475,3.069 -3.893,3.347 -4.41,2.688 -4.014,2.37 -2.2,0.913 -0.336,-0.867 0.008,-3.291 0.055,-3.625 0.563,-3.735 0.771,-3.492 1.708,-2.398 0.703,-0.973 0,0" />
    </g>
    <g
       transform="matrix(3.3099008,0,0,-3.3099008,542.69504,516.21044)"
       id="g1842">
      <path
         id="path1844"
         style="fill:#a0977f;fill-opacity:1;fill-rule:nonzero;stroke:none"
         d="m 0,0 c -0.388,0.742 -1.503,0.087 -1.119,-0.654 0.239,-0.463 0.528,-0.894 0.79,-1.344 0.238,-0.408 0.337,-0.855 0.53,-1.281 C 0.41,-3.737 1.033,-3.538 1.173,-3.152 1.569,-2.05 0.474,-0.906 0,0" />
    </g>
    <g
       transform="matrix(3.3099008,0,0,-3.3099008,246.94716,506.91259)"
       id="g1846">
      <path
         id="path1848"
         style="fill:#a0977f;fill-opacity:1;fill-rule:nonzero;stroke:none"
         d="m 0,0 c -2.834,0.368 -5.81,-3.504 -5.703,-6.103 0.03,-0.747 1.13,-0.747 1.16,0 0.052,1.27 0.918,2.454 1.749,3.347 0.864,0.929 1.941,1.316 3.026,1.897 C 0.681,-0.619 0.413,-0.054 0,0" />
    </g>
    <g
       transform="matrix(3.3099008,0,0,-3.3099008,244.97213,517.29972)"
       id="g1850">
      <path
         id="path1852"
         style="fill:#a0977f;fill-opacity:1;fill-rule:nonzero;stroke:none"
         d="m 0,0 c -0.962,0.176 -1.834,-0.625 -2.295,-1.399 -0.524,-0.88 -0.476,-1.786 -0.383,-2.754 0.043,-0.452 0.641,-0.442 0.696,0 0.078,0.648 0.378,1.389 0.696,1.956 0.373,0.667 1.023,0.83 1.512,1.342 C 0.472,-0.598 0.396,-0.073 0,0" />
    </g>
    <g
       transform="matrix(3.3099008,0,0,-3.3099008,250.51556,522.90308)"
       id="g1854">
      <path
         id="path1856"
         style="fill:#a0977f;fill-opacity:1;fill-rule:nonzero;stroke:none"
         d="m 0,0 c -0.749,-0.262 -0.838,-1.038 -1.334,-1.571 -0.52,-0.558 -1.247,-0.753 -1.761,-1.311 -0.322,-0.351 0.109,-0.987 0.531,-0.688 0.35,0.249 0.695,0.194 1.049,0.362 0.349,0.165 0.647,0.376 0.944,0.621 0.297,0.245 0.576,0.49 0.733,0.846 0.159,0.362 0.399,0.709 0.487,1.093 C 0.733,-0.283 0.399,0.14 0,0" />
    </g>
    <g
       transform="matrix(3.3099008,0,0,-3.3099008,262.64964,522.96927)"
       id="g1858">
      <path
         id="path1860"
         style="fill:#a0977f;fill-opacity:1;fill-rule:nonzero;stroke:none"
         d="m 0,0 c -0.03,0.54 -0.85,0.885 -1.113,0.302 -0.417,-0.92 -0.417,-1.948 -0.898,-2.844 -0.265,-0.493 -0.878,-0.791 -1.335,-1.076 -0.471,-0.294 -0.891,-0.621 -1.332,-0.958 -0.298,-0.228 -0.141,-0.758 0.272,-0.642 1.208,0.337 2.383,0.693 3.339,1.542 C -0.169,-2.877 0.062,-1.117 0,0" />
    </g>
    <g
       transform="matrix(3.3099008,0,0,-3.3099008,506.49963,825.37738)"
       id="g1862">
      <path
         id="path1864"
         style="fill:#a0977f;fill-opacity:1;fill-rule:nonzero;stroke:none"
         d="m 0,0 c -1.689,1.769 -6.11,1.797 -8.335,1.43 -2.751,-0.456 -6.772,-2.703 -7.648,-5.544 -0.177,-0.574 0.674,-0.929 0.963,-0.407 1.397,2.517 4.886,4.358 7.64,4.542 2.403,0.161 4.693,-0.566 7.029,-0.868 C 0.106,-0.906 0.268,-0.28 0,0" />
    </g>
    <g
       transform="matrix(3.3099008,0,0,-3.3099008,496.07211,833.08974)"
       id="g1866">
      <path
         id="path1868"
         style="fill:#a0977f;fill-opacity:1;fill-rule:nonzero;stroke:none"
         d="m 0,0 c -2.324,0.953 -5.169,-0.298 -7.4,-0.956 -0.926,-0.274 -0.531,-1.727 0.398,-1.447 1.194,0.359 2.368,0.775 3.584,1.057 1.133,0.263 2.34,-0.016 3.418,0.426 0.451,0.186 0.451,0.734 0,0.92" />
    </g>
    <g
       transform="matrix(3.3099008,0,0,-3.3099008,484.95944,844.16368)"
       id="g1870">
      <path
         id="path1872"
         style="fill:#a0977f;fill-opacity:1;fill-rule:nonzero;stroke:none"
         d="m 0,0 c -0.358,0.57 -1.516,0.363 -2.07,0.28 -0.672,-0.101 -1.494,-0.503 -1.405,-1.298 0.043,-0.384 0.605,-0.521 0.714,-0.096 0.017,0.064 0.054,0.069 0.009,0.06 0.102,0.02 0.205,0.079 0.309,0.103 0.277,0.063 0.557,0.073 0.841,0.074 0.393,0.001 1.237,-0.155 1.514,0.193 C 0.068,-0.487 0.146,-0.231 0,0" />
    </g>
    <g
       transform="matrix(3.3099008,0,0,-3.3099008,506.28284,842.0142)"
       id="g1874">
      <path
         id="path1876"
         style="fill:#a0977f;fill-opacity:1;fill-rule:nonzero;stroke:none"
         d="m 0,0 c -1.552,-1.884 -3.408,-2.992 -5.818,-3.398 -2.854,-0.481 -5.35,0.734 -8.127,0.637 -0.409,-0.014 -0.518,-0.629 -0.099,-0.728 1.682,-0.401 3.327,-0.994 5.031,-1.397 1.476,-0.348 2.944,-0.098 4.422,0.133 2.184,0.342 4.95,1.927 5.649,4.139 C 1.241,-0.033 0.408,0.496 0,0" />
    </g>
    <g
       transform="matrix(3.3099008,0,0,-3.3099008,367.99451,841.80078)"
       id="g1878">
      <path
         id="path1880"
         style="fill:#a0977f;fill-opacity:1;fill-rule:nonzero;stroke:none"
         d="m 0,0 c -1.371,2.523 -4.232,2.701 -6.838,2.7 -2.736,-0.002 -6.39,-0.418 -8.011,-2.934 -0.346,-0.539 0.44,-1.13 0.877,-0.676 2.912,3.016 10.011,2.873 13.132,0.262 C -0.383,-1.031 0.303,-0.557 0,0" />
    </g>
    <g
       transform="matrix(3.3099008,0,0,-3.3099008,347.80842,846.64944)"
       id="g1882">
      <path
         id="path1884"
         style="fill:#a0977f;fill-opacity:1;fill-rule:nonzero;stroke:none"
         d="m 0,0 c -0.595,0.848 -1.643,0.738 -2.55,0.494 -0.973,-0.261 -2.079,-0.201 -2.837,-0.963 -0.324,-0.326 0.099,-0.9 0.497,-0.644 0.707,0.455 1.415,0.081 2.15,0.26 0.401,0.099 0.786,0.184 1.201,0.197 0.37,0.01 0.706,-0.138 1.077,-0.15 C -0.077,-0.818 0.233,-0.333 0,0" />
    </g>
    <g
       transform="matrix(3.3099008,0,0,-3.3099008,351.42216,852.95244)"
       id="g1886">
      <path
         id="path1888"
         style="fill:#a0977f;fill-opacity:1;fill-rule:nonzero;stroke:none"
         d="m 0,0 c -1.365,-0.36 -2.603,-0.744 -4.028,-0.856 -1.28,-0.101 -2.555,0.567 -3.868,0.535 -0.643,-0.016 -0.6,-0.889 0,-0.969 1.716,-0.229 3.063,-0.981 4.832,-0.873 1.278,0.079 2.646,0.332 3.629,1.19 C 1.021,-0.576 0.537,0.142 0,0" />
    </g>
    <g
       transform="matrix(3.3099008,0,0,-3.3099008,369.95627,853.4536)"
       id="g1890">
      <path
         id="path1892"
         style="fill:#a0977f;fill-opacity:1;fill-rule:nonzero;stroke:none"
         d="m 0,0 c -1.809,-2.026 -3.958,-3.388 -6.604,-4.015 -3.401,-0.803 -6.132,0.337 -9.084,1.83 -0.577,0.291 -0.982,-0.467 -0.493,-0.843 2.789,-2.143 5.723,-3.284 9.33,-2.692 3.282,0.54 6.159,2.029 7.759,5.019 C 1.209,-0.14 0.453,0.507 0,0" />
    </g>
    <g
       transform="matrix(3.3099008,0,0,-3.3099008,540.80411,703.90665)"
       id="g1894">
      <path
         id="path1896"
         style="fill:#a0977f;fill-opacity:1;fill-rule:nonzero;stroke:none"
         d="m 0,0 c -0.322,0.107 -0.514,-0.311 -0.312,-0.535 0.216,-0.239 0.142,-0.713 0.191,-1.006 0.024,-0.144 0.177,-0.288 0.317,-0.316 0.086,-0.019 0.156,-0.017 0.241,0 0.143,0.026 0.291,0.173 0.317,0.316 C 0.87,-0.935 0.632,-0.209 0,0" />
    </g>
    <g
       transform="matrix(3.3099008,0,0,-3.3099008,547.74398,701.12996)"
       id="g1898">
      <path
         id="path1900"
         style="fill:#a0977f;fill-opacity:1;fill-rule:nonzero;stroke:none"
         d="m 0,0 c -0.292,0.192 -0.72,-0.203 -0.497,-0.497 0.29,-0.383 0.211,-0.862 0.452,-1.26 0.201,-0.329 0.64,-0.23 0.765,0.1 C 0.956,-1.031 0.51,-0.336 0,0" />
    </g>
    <g
       transform="matrix(3.3099008,0,0,-3.3099008,555.75692,699.89207)"
       id="g1902">
      <path
         id="path1904"
         style="fill:#a0977f;fill-opacity:1;fill-rule:nonzero;stroke:none"
         d="m 0,0 c -0.218,0.296 -0.495,0.51 -0.844,0.625 -0.329,0.108 -0.634,-0.373 -0.349,-0.601 0.203,-0.163 0.34,-0.423 0.427,-0.669 0.089,-0.247 0.198,-0.345 0.371,-0.53 0.182,-0.193 0.54,-0.101 0.601,0.158 C 0.305,-0.598 0.262,-0.357 0,0" />
    </g>
    <g
       transform="matrix(3.3099008,0,0,-3.3099008,558.1619,693.97696)"
       id="g1906">
      <path
         id="path1908"
         style="fill:#a0977f;fill-opacity:1;fill-rule:nonzero;stroke:none"
         d="m 0,0 c -0.382,0.18 -0.854,-0.317 -0.483,-0.625 0.301,-0.25 0.44,-0.564 0.772,-0.784 0.235,-0.156 0.506,0.055 0.523,0.3 C 0.852,-0.557 0.474,-0.223 0,0" />
    </g>
    <g
       transform="matrix(3.3099008,0,0,-3.3099008,562.00832,689.81042)"
       id="g1910">
      <path
         id="path1912"
         style="fill:#a0977f;fill-opacity:1;fill-rule:nonzero;stroke:none"
         d="m 0,0 c -0.389,0.238 -0.771,-0.295 -0.474,-0.613 0.201,-0.214 0.348,-0.459 0.608,-0.601 0.237,-0.131 0.638,0.027 0.599,0.344 C 0.675,-0.396 0.388,-0.237 0,0" />
    </g>
    <g
       transform="matrix(3.3099008,0,0,-3.3099008,565.49928,685.67968)"
       id="g1914">
      <path
         id="path1916"
         style="fill:#a0977f;fill-opacity:1;fill-rule:nonzero;stroke:none"
         d="M 0,0 C -0.329,0.335 -0.858,-0.091 -0.638,-0.492 -0.511,-0.724 -0.44,-0.874 -0.21,-1.011 0.035,-1.155 0.354,-0.97 0.354,-0.687 0.354,-0.363 0.222,-0.225 0,0" />
    </g>
    <g
       transform="matrix(3.3099008,0,0,-3.3099008,567.92674,681.13485)"
       id="g1918">
      <path
         id="path1920"
         style="fill:#a0977f;fill-opacity:1;fill-rule:nonzero;stroke:none"
         d="M 0,0 C -0.032,0.023 -0.063,0.047 -0.095,0.069 -0.318,0.237 -0.699,0.014 -0.67,-0.261 l 0.012,-0.117 c 0.023,-0.224 0.181,-0.454 0.437,-0.437 0.185,0.012 0.274,0.064 0.377,0.216 C 0.303,-0.386 0.18,-0.135 0,0" />
    </g>
  </g>
</svg>
