<?xml version="1.0" encoding="UTF-8" standalone="no"?>
<svg
   xmlns:dc="http://purl.org/dc/elements/1.1/"
   xmlns:cc="http://creativecommons.org/ns#"
   xmlns:rdf="http://www.w3.org/1999/02/22-rdf-syntax-ns#"
   xmlns:svg="http://www.w3.org/2000/svg"
   xmlns="http://www.w3.org/2000/svg"
   version="1.1"
   id="svg6718"
   viewBox="0 0 605.26915 708.09669"
   height="199.84062mm"
   width="170.8204mm">
  <defs
     id="defs6720" />
  <metadata
     id="metadata6723">
    <rdf:RDF>
      <cc:Work
         rdf:about="">
        <dc:format>image/svg+xml</dc:format>
        <dc:type
           rdf:resource="http://purl.org/dc/dcmitype/StillImage" />
        <dc:title></dc:title>
      </cc:Work>
    </rdf:RDF>
  </metadata>
  <g
     transform="translate(-65.936848,-161.17101)"
     id="layer1">
    <g
       transform="matrix(4.5779046,0,0,-4.4361342,666.65706,800.97311)"
       id="g958">
      <path
         id="path960"
         style="fill:#5b7866;fill-opacity:1;fill-rule:nonzero;stroke:none"
         d="m 0,0 c -1.722,6.1 -5.822,12.008 -9.847,16.815 -4.671,5.58 -9.912,10.508 -15.143,15.55 -5.278,5.088 -11.871,8.466 -16.111,14.587 -0.555,0.802 -1.787,0.108 -1.318,-0.769 0.934,-1.746 1.22,-3.671 1.878,-5.521 0.234,-0.659 0.468,-1.317 0.7,-1.977 0.2,-1.18 0.388,-2.364 0.616,-3.539 0.719,-3.689 1.468,-7.292 2.537,-10.905 1.042,-3.519 1.711,-7.146 2.79,-10.666 1.177,-3.843 2.744,-7.565 4.183,-11.314 2.2,-5.728 5.896,-11.725 11.157,-15.076 4.663,-2.97 10.353,-3.403 15.363,-1.158 C 2.181,-11.563 1.319,-4.676 0,0" />
    </g>
    <g
       transform="matrix(4.5779046,0,0,-4.4361342,440.35933,609.85558)"
       id="g962">
      <path
         id="path964"
         style="fill:#e65f25;fill-opacity:1;fill-rule:nonzero;stroke:none"
         d="m 0,0 c -1.781,1.801 -4.064,0.625 -5.772,-0.546 -0.423,-0.29 -0.884,-0.68 -1.284,-0.999 -0.014,-0.012 -0.019,-0.027 -0.032,-0.04 -2.849,-1.821 -5.47,-3.697 -7.673,-6.312 -2.645,-3.14 -4.453,-10.164 -0.514,-13.163 4.81,-3.662 4.993,7.633 5.386,9.483 0.154,0.726 0.456,1.401 0.662,2.111 0.26,0.898 1.086,1.23 0.847,0.233 -0.331,-1.375 -0.774,-2.691 -1.023,-4.093 -0.368,-2.062 -1.069,-6.129 0.445,-7.882 1.207,-1.397 2.524,-1.166 3.861,-0.096 1.667,1.334 1.37,4.943 1.368,6.787 -0.002,0.992 -0.006,1.941 0.137,2.93 0.111,0.759 0.482,1.79 0.67,0.232 0.2,-1.648 -0.193,-3.34 -0.061,-5.003 0.128,-1.618 0.92,-3.563 2.703,-3.709 1.72,-0.141 2.082,2.472 2.137,3.596 0.067,1.332 -0.47,2.489 -0.819,3.745 -0.729,2.626 0.044,4.377 0.854,6.764 C 2.598,-3.878 1.44,-1.456 0,0" />
    </g>
    <g
       transform="matrix(4.5779046,0,0,-4.4361342,510.86547,621.83804)"
       id="g966">
      <path
         id="path968"
         style="fill:#36443b;fill-opacity:1;fill-rule:nonzero;stroke:none"
         d="m 0,0 c -1.437,3.846 -2.508,8.012 -2.999,12.089 -0.959,7.963 -0.245,16.529 0.842,24.439 1.024,7.457 1.938,15.105 1.649,22.64 -0.272,7.099 -2.258,13.933 -4.975,20.44 -2.54,6.085 -6.193,11.582 -10.458,16.588 -4.123,4.838 -9.91,7.526 -16.253,7.645 -5.643,0.105 -11.489,-2.326 -12.206,-8.487 -0.334,-2.865 0.891,-6.114 1.402,-8.894 0.675,-3.672 1.383,-7.334 1.952,-11.025 1.552,-10.062 0.106,-20.262 0.902,-30.364 0.348,-4.411 0.565,-8.85 0.872,-13.262 0.338,-4.878 1.767,-9.674 3.301,-14.287 2.525,-7.594 7.779,-14.594 14.628,-18.786 3.362,-2.055 7.634,-4.23 11.606,-4.632 2.283,-0.231 4.411,-0.481 6.714,-0.44 0.535,0.01 1.672,0.228 2.371,0.362 0.192,-0.005 0.381,0.008 0.549,0.103 0.007,0.001 0.028,0.005 0.032,0.005 0.136,0.003 0.243,0.048 0.335,0.106 0.357,0.062 0.625,0.377 0.633,0.742 0.009,0.371 0.277,1.03 0.258,1.58 C 1.114,-2.252 0.408,-1.091 0,0" />
    </g>
    <g
       transform="matrix(4.5779046,0,0,-4.4361342,573.53885,552.03412)"
       id="g970">
      <path
         id="path972"
         style="fill:#5b7866;fill-opacity:1;fill-rule:nonzero;stroke:none"
         d="m 0,0 c -0.151,3.691 -0.291,7.39 -0.696,11.07 -0.84,7.617 -2.52,14.734 -4.837,22.042 -1.821,5.744 -3.303,12.523 -8.155,16.609 -1.509,1.27 -4.208,0.917 -5.938,0.414 -1.189,-0.347 -2.075,-1.126 -2.77,-2.077 -0.929,-0.821 -1.542,-2.263 -2.014,-3.189 -1.557,-3.056 -1.825,-6.63 -2.068,-9.981 -0.536,-7.413 0.264,-14.834 2.43,-21.937 0.954,-3.13 2.356,-6.146 4.001,-8.968 1.69,-2.897 3.809,-5.133 5.901,-7.708 1.413,-1.739 4.408,-4.017 6.544,-4.762 2.432,-0.848 4.038,-1.374 5.908,0.883 C -0.108,-5.689 0.097,-2.344 0,0" />
    </g>
    <g
       transform="matrix(4.5779046,0,0,-4.4361342,413.98283,298.58091)"
       id="g974">
      <path
         id="path976"
         style="fill:#f0dac3;fill-opacity:1;fill-rule:nonzero;stroke:none"
         d="m 0,0 c -0.131,3.487 -0.541,6.951 -1.28,10.361 -0.599,2.764 -1.465,6.017 -3.324,8.236 -2.309,2.754 -6.013,4.032 -9.53,4.174 -4.509,0.181 -8.344,-1.137 -12.583,-2.354 -0.113,-0.032 -0.198,-0.093 -0.268,-0.164 -0.273,-0.08 -0.495,-0.3 -0.49,-0.67 0.002,-0.066 0.002,-0.133 0.002,-0.199 0,-0.01 0.005,-0.017 0.005,-0.027 0.028,-3.17 0.944,-6.096 1.572,-9.198 0.827,-4.082 1.202,-8.235 1.366,-12.391 0.067,-1.7 0.43,-3.379 0.484,-5.085 0.054,-1.704 -0.068,-3.417 -0.085,-5.122 -0.041,-4.071 0.104,-8.087 0.324,-12.148 0.396,-7.284 0.666,-14.416 2.3,-21.563 1.264,-5.527 3.97,-11.051 10.379,-10.81 6.057,0.229 8.678,5.476 9.7,10.877 0.62,3.274 1.257,6.44 1.457,9.776 0.243,4.065 0.088,8.152 0.085,12.22 C 0.108,-16.065 0.3,-8.016 0,0" />
    </g>
    <g
       transform="matrix(4.5779046,0,0,-4.4361342,338.04499,320.90886)"
       id="g978">
      <path
         id="path980"
         style="fill:#e66021;fill-opacity:1;fill-rule:nonzero;stroke:none"
         d="m 0,0 c -0.067,1.83 -0.473,3.935 -1.343,5.552 -0.504,0.936 -1.728,0.117 -2.287,-0.196 -4.501,-2.519 -8.322,-5.724 -12.413,-8.878 -4.014,-3.096 -7.981,-6.301 -11.701,-9.745 -1.948,-1.802 -4.068,-3.413 -6.006,-5.212 -1.093,-1.012 -2.598,-1.802 -3.702,-2.867 -0.323,0.052 -0.646,0.083 -0.963,0.063 -0.745,-0.049 -0.745,-1.108 0,-1.156 0.028,-0.002 0.063,-0.01 0.094,-0.013 -0.269,-0.735 0.85,-1.314 1.346,-0.585 0.043,0.063 0.101,0.126 0.151,0.188 0.733,-0.258 1.501,-0.572 2.1,-0.732 0.851,-0.229 1.646,-0.63 2.496,-0.869 1.376,-0.387 2.998,-0.345 4.403,-0.538 4.629,-0.639 8.005,1.209 11.752,3.622 4.156,2.677 7.866,6.351 11.645,9.516 1.49,1.247 3.231,2.519 3.874,4.415 C 0.271,-5.003 0.093,-2.515 0,0" />
    </g>
    <g
       transform="matrix(4.5779046,0,0,-4.4361342,332.35374,267.08169)"
       id="g982">
      <path
         id="path984"
         style="fill:#f8ad1c;fill-opacity:1;fill-rule:nonzero;stroke:none"
         d="m 0,0 c -0.409,2.521 -1.091,4.99 -1.761,7.451 -0.592,2.175 -1.075,4.471 -1.801,6.606 -0.141,0.416 -0.557,0.7 -1.003,0.57 -7.823,-2.279 -15.81,-6.006 -22.646,-10.43 -3.333,-2.157 -6.801,-4.205 -10.021,-6.52 -2.991,-2.149 -5.666,-4.781 -8.315,-7.325 -5.081,-4.884 -8.807,-10.888 -11.007,-17.574 -1.043,-3.174 -1.753,-6.688 -1.628,-10.041 0.061,-1.614 0.174,-3.263 0.439,-4.858 0.08,-0.484 0.213,-0.939 0.369,-1.379 0.293,-2.189 1.042,-5.096 2.989,-5.112 3.935,-0.034 8.197,1.956 11.662,3.695 8.564,4.3 16.239,10.648 23.373,16.961 3.785,3.348 7.662,6.647 11.324,10.127 2.529,2.404 5.68,4.361 6.944,7.751 0.476,1.276 1.478,2.907 1.532,4.278 C 0.526,-3.849 0.312,-1.922 0,0" />
    </g>
    <g
       transform="matrix(4.5779046,0,0,-4.4361342,362.39626,239.59853)"
       id="g986">
      <path
         id="path988"
         style="fill:#3f2322;fill-opacity:1;fill-rule:nonzero;stroke:none"
         d="M 0,0 C -0.837,0.301 -1.909,-0.074 -2.671,-0.422 -2.732,-0.451 -2.779,-0.5 -2.831,-0.541 -3.078,-0.666 -3.299,-0.856 -3.443,-1.07 -3.982,-1.866 -4.007,-2.891 -3.65,-3.766 c 0.826,-2.026 3.487,-2.423 4.929,-0.832 0.599,0.661 0.96,1.641 0.802,2.531 C 1.894,-1.011 0.953,-0.342 0,0" />
    </g>
    <g
       transform="matrix(4.5779046,0,0,-4.4361342,360.8494,248.43176)"
       id="g990">
      <path
         id="path992"
         style="fill:#643e39;fill-opacity:1;fill-rule:nonzero;stroke:none"
         d="M 0,0 C -0.011,0.042 -0.039,0.076 -0.059,0.114 -0.149,0.468 -0.363,0.794 -0.743,0.967 -1.097,1.128 -1.475,1.125 -1.78,0.972 -1.796,0.965 -1.812,0.963 -1.825,0.956 -1.866,0.937 -1.895,0.902 -1.931,0.877 -1.972,0.846 -2.017,0.825 -2.052,0.786 -2.294,0.547 -2.413,0.184 -2.448,-0.149 c -0.055,-0.507 0.381,-0.943 0.839,-1.139 0.021,-0.01 0.042,-0.017 0.064,-0.025 0.098,-0.037 0.195,-0.067 0.288,-0.079 0.004,0 0.006,10e-4 0.008,0 0.14,-0.016 0.277,-0.007 0.411,0.023 0.067,0.015 0.125,0.041 0.185,0.066 0.07,0.029 0.135,0.062 0.199,0.102 0.023,0.017 0.048,0.033 0.07,0.053 C -0.062,-0.902 0.133,-0.5 0,0" />
    </g>
    <g
       transform="matrix(4.5779046,0,0,-4.4361342,358.23403,246.75934)"
       id="g994">
      <path
         id="path996"
         style="fill:#f6e1d0;fill-opacity:1;fill-rule:nonzero;stroke:none"
         d="M 0,0 C -1.002,0 -1.002,-1.555 0,-1.555 1.002,-1.555 1.002,0 0,0" />
    </g>
    <g
       transform="matrix(4.5779046,0,0,-4.4361342,368.01151,245.86721)"
       id="g998">
      <path
         id="path1000"
         style="fill:#f6e1d0;fill-opacity:1;fill-rule:nonzero;stroke:none"
         d="M 0,0 C -0.71,0 -0.71,-1.102 0,-1.102 0.71,-1.102 0.71,0 0,0" />
    </g>
    <g
       transform="matrix(4.5779046,0,0,-4.4361342,364.59134,253.46145)"
       id="g1002">
      <path
         id="path1004"
         style="fill:#f6e1d0;fill-opacity:1;fill-rule:nonzero;stroke:none"
         d="M 0,0 C -0.57,0 -0.57,-0.883 0,-0.883 0.568,-0.883 0.568,0 0,0" />
    </g>
    <g
       transform="matrix(4.5779046,0,0,-4.4361342,397.78115,297.5282)"
       id="g1006">
      <path
         id="path1008"
         style="fill:#f38c6b;fill-opacity:1;fill-rule:nonzero;stroke:none"
         d="M 0,0 C -0.965,1.197 -2.649,1.805 -4.153,1.743 -4.338,1.735 -4.514,1.702 -4.692,1.675 -5.62,1.852 -6.504,1.48 -7.132,0.829 -8.003,0.286 -8.646,-0.597 -8.927,-1.604 c -0.371,-1.33 0.01,-2.626 0.569,-3.829 0.482,-1.04 1.36,-1.829 2.27,-2.484 1.351,-0.973 3.132,-0.897 4.573,-0.233 1.309,0.601 2.262,2.002 2.674,3.331 C 1.689,-3.105 1.077,-1.336 0,0" />
    </g>
    <g
       transform="matrix(4.5779046,0,0,-4.4361342,485.09234,373.04632)"
       id="g1010">
      <path
         id="path1012"
         style="fill:#36443b;fill-opacity:1;fill-rule:nonzero;stroke:none"
         d="m 0,0 c -0.132,0.713 -1.302,0.713 -1.434,0 -0.141,-0.762 0.195,-1.732 -0.914,-1.827 -0.4,-0.034 -0.818,0.165 -1.054,0.489 -0.171,0.234 -0.449,0.599 -0.791,0.39 -0.022,-0.014 -0.044,-0.027 -0.066,-0.04 -0.165,-0.101 -0.283,-0.285 -0.277,-0.484 0.047,-1.475 1.642,-2.02 2.882,-1.789 0.624,0.117 1.167,0.556 1.459,1.107 C 0.186,-1.437 0.141,-0.756 0,0" />
    </g>
    <g
       transform="matrix(4.5779046,0,0,-4.4361342,520.88375,360.28796)"
       id="g1014">
      <path
         id="path1016"
         style="fill:#36443b;fill-opacity:1;fill-rule:nonzero;stroke:none"
         d="m 0,0 c -0.328,0.274 -0.874,0.202 -0.992,-0.262 -0.188,-0.734 -0.024,-1.617 -0.938,-1.895 -0.635,-0.194 -1.431,0.283 -1.845,0.722 -0.37,0.392 -1.102,-0.009 -0.921,-0.536 0.444,-1.293 2.092,-1.919 3.35,-1.56 C -0.111,-3.18 1.211,-1.013 0,0" />
    </g>
    <g
       transform="matrix(4.5779046,0,0,-4.4361342,512.07224,392.1514)"
       id="g1018">
      <path
         id="path1020"
         style="fill:#36443b;fill-opacity:1;fill-rule:nonzero;stroke:none"
         d="m 0,0 c -0.222,0.326 -0.869,0.359 -0.942,-0.123 -0.117,-0.759 -0.264,-1.457 -0.942,-1.911 -0.832,-0.559 -1.819,0.607 -2.393,1.063 -0.34,0.271 -0.8,0.024 -0.718,-0.418 0.283,-1.532 2.033,-2.615 3.502,-2.157 0.679,0.212 1.246,0.794 1.597,1.391 C 0.541,-1.411 0.454,-0.669 0,0" />
    </g>
    <g
       transform="matrix(4.5779046,0,0,-4.4361342,538.91843,391.17634)"
       id="g1022">
      <path
         id="path1024"
         style="fill:#36443b;fill-opacity:1;fill-rule:nonzero;stroke:none"
         d="M 0,0 C -0.298,0.174 -0.659,0.05 -0.973,0.22 -1.26,0.376 -1.459,0.667 -1.606,0.949 -1.73,1.188 -2.013,1.405 -2.287,1.252 -2.901,0.907 -2.52,-0.032 -2.208,-0.456 c 0.462,-0.627 1.271,-1.024 2.044,-0.801 0.221,0.065 0.43,0.247 0.479,0.481 C 0.385,-0.456 0.293,-0.172 0,0" />
    </g>
    <g
       transform="matrix(4.5779046,0,0,-4.4361342,471.31834,397.76134)"
       id="g1026">
      <path
         id="path1028"
         style="fill:#36443b;fill-opacity:1;fill-rule:nonzero;stroke:none"
         d="M 0,0 C -0.17,0.25 -0.491,0.187 -0.6,-0.079 -0.925,-0.875 -0.76,-1.862 -1.421,-2.511 -1.442,-2.531 -1.8,-2.603 -1.856,-2.62 -2.108,-2.701 -2.351,-2.811 -2.591,-2.922 -2.958,-3.091 -2.964,-3.527 -2.83,-3.836 c 0.127,-0.294 0.481,-0.345 0.754,-0.307 1.024,0.146 1.879,0.541 2.26,1.556 C 0.507,-1.728 0.525,-0.771 0,0" />
    </g>
    <g
       transform="matrix(4.5779046,0,0,-4.4361342,502.16104,421.17259)"
       id="g1030">
      <path
         id="path1032"
         style="fill:#36443b;fill-opacity:1;fill-rule:nonzero;stroke:none"
         d="m 0,0 c -0.133,0.305 -0.64,0.357 -0.847,0.108 -0.697,-0.837 -0.849,-1.996 -2.149,-2.089 -1.011,-0.074 -1.552,1.2 -2.334,1.594 -0.275,0.139 -0.613,-0.03 -0.617,-0.354 -0.018,-1.56 1.781,-2.91 3.236,-2.844 C -1.028,-3.508 0.737,-1.694 0,0" />
    </g>
    <g
       transform="matrix(4.5779046,0,0,-4.4361342,537.13898,407.539)"
       id="g1034">
      <path
         id="path1036"
         style="fill:#36443b;fill-opacity:1;fill-rule:nonzero;stroke:none"
         d="m 0,0 c -0.324,0.309 -0.943,0.107 -0.92,-0.381 0.039,-0.814 -0.132,-1.774 -1.015,-2.061 -0.776,-0.253 -1.418,0.569 -1.901,1.025 -0.245,0.231 -0.567,0.1 -0.685,-0.181 -0.281,-0.667 0.355,-1.315 0.792,-1.748 0.621,-0.613 1.385,-0.779 2.22,-0.637 0.79,0.133 1.444,0.778 1.794,1.461 C 0.78,-1.56 0.813,-0.771 0,0" />
    </g>
    <g
       transform="matrix(4.5779046,0,0,-4.4361342,463.94195,427.23721)"
       id="g1038">
      <path
         id="path1040"
         style="fill:#36443b;fill-opacity:1;fill-rule:nonzero;stroke:none"
         d="M 0,0 C -0.177,0.176 -0.48,0.092 -0.549,-0.146 -0.693,-0.65 -0.632,-1.148 -0.89,-1.631 -1.178,-2.168 -1.672,-2.57 -1.724,-3.197 -1.771,-3.776 -1.016,-3.995 -0.644,-3.645 0.341,-2.717 1.119,-1.116 0,0" />
    </g>
    <g
       transform="matrix(4.5779046,0,0,-4.4361342,489.10672,447.71132)"
       id="g1042">
      <path
         id="path1044"
         style="fill:#36443b;fill-opacity:1;fill-rule:nonzero;stroke:none"
         d="m 0,0 c -0.211,0.134 -0.464,0.07 -0.64,-0.082 -0.615,-0.532 -0.324,-1.723 -1.241,-2.032 -1.047,-0.355 -1.735,0.606 -2.343,1.292 -0.257,0.292 -0.674,-0.023 -0.607,-0.354 0.336,-1.634 1.65,-2.819 3.368,-2.458 C -0.206,-3.369 1.447,-0.917 0,0" />
    </g>
    <g
       transform="matrix(4.5779046,0,0,-4.4361342,532.18572,437.58274)"
       id="g1046">
      <path
         id="path1048"
         style="fill:#36443b;fill-opacity:1;fill-rule:nonzero;stroke:none"
         d="m 0,0 c -0.232,0.45 -0.843,0.368 -1.094,0 -0.457,-0.672 -0.32,-2.11 -1.158,-2.461 -0.995,-0.416 -1.55,0.286 -2.227,0.862 -0.183,0.157 -0.503,0.166 -0.625,-0.08 -0.321,-0.643 0.103,-1.37 0.575,-1.835 0.593,-0.586 1.484,-0.748 2.28,-0.633 0.902,0.129 1.501,0.597 1.958,1.371 C 0.145,-2.04 0.396,-0.771 0,0" />
    </g>
    <g
       transform="matrix(4.5779046,0,0,-4.4361342,555.58017,441.55084)"
       id="g1050">
      <path
         id="path1052"
         style="fill:#36443b;fill-opacity:1;fill-rule:nonzero;stroke:none"
         d="m 0,0 c -0.062,0.239 -0.276,0.474 -0.524,0.524 -0.451,0.091 -0.773,0.23 -1.097,0.561 -0.277,0.284 -0.422,0.738 -0.612,1.085 -0.18,0.326 -0.75,0.366 -0.918,0 -0.278,-0.607 0.047,-1.44 0.391,-1.964 0.449,-0.686 1.212,-1.14 2.035,-1.157 C -0.374,-0.958 -0.11,-0.713 0,-0.399 0.046,-0.266 0.035,-0.135 0,0" />
    </g>
    <g
       transform="matrix(4.5779046,0,0,-4.4361342,475.47142,474.91281)"
       id="g1054">
      <path
         id="path1056"
         style="fill:#36443b;fill-opacity:1;fill-rule:nonzero;stroke:none"
         d="m 0,0 c -0.199,0.195 -0.517,0.098 -0.601,-0.158 -0.252,-0.773 -0.286,-1.534 -0.913,-2.116 -0.188,-0.174 -0.281,-0.497 -0.196,-0.742 0.044,-0.127 0.089,-0.248 0.196,-0.337 0.247,-0.203 0.631,-0.331 0.924,-0.119 C 0.446,-2.721 1.018,-0.996 0,0" />
    </g>
    <g
       transform="matrix(4.5779046,0,0,-4.4361342,517.54877,469.07308)"
       id="g1058">
      <path
         id="path1060"
         style="fill:#36443b;fill-opacity:1;fill-rule:nonzero;stroke:none"
         d="m 0,0 c -0.229,0.445 -0.855,0.381 -1.1,0 -0.526,-0.819 -0.385,-1.725 -1.53,-2.004 -0.992,-0.242 -1.804,0.155 -2.42,0.928 -0.183,0.23 -0.537,0.074 -0.614,-0.162 -0.217,-0.665 0.286,-1.258 0.738,-1.707 0.607,-0.601 1.447,-0.66 2.248,-0.634 C -1.012,-3.523 0.894,-1.736 0,0" />
    </g>
    <g
       transform="matrix(4.5779046,0,0,-4.4361342,553.92615,457.34171)"
       id="g1062">
      <path
         id="path1064"
         style="fill:#36443b;fill-opacity:1;fill-rule:nonzero;stroke:none"
         d="m 0,0 c -0.2,0.415 -0.866,0.396 -1.072,0 -0.479,-0.915 -0.266,-1.981 -1.493,-2.283 -0.444,-0.11 -1.026,-0.055 -1.44,0.129 -0.422,0.188 -0.668,0.569 -1.11,0.731 -0.219,0.08 -0.519,-0.133 -0.489,-0.373 0.202,-1.654 1.971,-2.368 3.478,-2.081 C -0.429,-3.554 0.795,-1.644 0,0" />
    </g>
    <g
       transform="matrix(4.5779046,0,0,-4.4361342,503.87775,498.83511)"
       id="g1066">
      <path
         id="path1068"
         style="fill:#36443b;fill-opacity:1;fill-rule:nonzero;stroke:none"
         d="m 0,0 c -0.121,0.415 -0.742,0.663 -1.051,0.277 -0.494,-0.614 -0.561,-1.496 -1.37,-1.824 -1.122,-0.454 -1.898,0.149 -2.592,0.952 -0.242,0.282 -0.757,0.132 -0.836,-0.22 -0.368,-1.642 1.81,-2.508 3.09,-2.468 C -1.172,-3.233 0.488,-1.665 0,0" />
    </g>
    <g
       transform="matrix(4.5779046,0,0,-4.4361342,544.93149,486.45386)"
       id="g1070">
      <path
         id="path1072"
         style="fill:#36443b;fill-opacity:1;fill-rule:nonzero;stroke:none"
         d="m 0,0 c -0.184,0.355 -0.68,0.38 -0.95,0.122 -0.532,-0.506 -0.677,-1.363 -1.052,-1.99 -0.569,-0.954 -1.637,-0.186 -2.222,0.28 -0.41,0.326 -0.917,0.022 -0.842,-0.49 0.212,-1.448 2.19,-2.277 3.442,-1.644 C -0.503,-3.155 0.632,-1.219 0,0" />
    </g>
    <g
       transform="matrix(4.5779046,0,0,-4.4361342,565.82688,488.63289)"
       id="g1074">
      <path
         id="path1076"
         style="fill:#36443b;fill-opacity:1;fill-rule:nonzero;stroke:none"
         d="m 0,0 c -0.223,0.452 -0.839,0.571 -1.203,0.906 -0.23,0.211 -0.401,0.656 -0.782,0.571 L -2.023,1.468 C -2.172,1.435 -2.283,1.306 -2.326,1.165 -2.631,0.173 -1.146,-1.256 -0.2,-0.765 0.083,-0.617 0.129,-0.263 0,0" />
    </g>
    <g
       transform="matrix(4.5779046,0,0,-4.4361342,497.56988,526.23178)"
       id="g1078">
      <path
         id="path1080"
         style="fill:#36443b;fill-opacity:1;fill-rule:nonzero;stroke:none"
         d="m 0,0 c -0.031,0.372 -0.538,0.572 -0.742,0.201 -0.267,-0.483 -0.366,-1.002 -0.582,-1.51 -0.149,-0.35 -0.366,-1.18 0.248,-1.273 0.637,-0.096 0.894,0.358 1.102,0.883 C 0.26,-1.108 0.049,-0.587 0,0" />
    </g>
    <g
       transform="matrix(4.5779046,0,0,-4.4361342,533.28072,516.83517)"
       id="g1082">
      <path
         id="path1084"
         style="fill:#36443b;fill-opacity:1;fill-rule:nonzero;stroke:none"
         d="M 0,0 C -0.177,0.358 -0.743,0.426 -1.006,0.13 -1.5,-0.428 -1.395,-1.309 -2.07,-1.718 c -0.643,-0.389 -2.643,-0.471 -2.766,0.614 -0.035,0.315 -0.423,0.568 -0.68,0.283 -0.48,-0.534 -0.275,-1.206 0.142,-1.73 0.551,-0.691 1.43,-0.947 2.288,-0.972 0.936,-0.029 1.955,0.266 2.573,0.993 C 0.043,-1.878 0.392,-0.792 0,0" />
    </g>
    <g
       transform="matrix(4.5779046,0,0,-4.4361342,562.75558,507.68122)"
       id="g1086">
      <path
         id="path1088"
         style="fill:#36443b;fill-opacity:1;fill-rule:nonzero;stroke:none"
         d="M 0,0 C -0.262,0.244 -0.609,0.223 -0.873,0 -1.321,-0.378 -1.189,-1.081 -1.556,-1.535 -2.061,-2.161 -3.033,-1.621 -3.567,-1.3 -3.885,-1.109 -4.358,-1.427 -4.222,-1.803 -3.794,-2.979 -2.078,-3.658 -0.97,-3.052 -0.121,-2.589 0.891,-0.834 0,0" />
    </g>
    <g
       transform="matrix(4.5779046,0,0,-4.4361342,523.95095,548.0571)"
       id="g1090">
      <path
         id="path1092"
         style="fill:#36443b;fill-opacity:1;fill-rule:nonzero;stroke:none"
         d="m 0,0 c -0.233,0.187 -0.544,0.227 -0.773,0 -0.451,-0.445 -0.449,-1.099 -0.976,-1.506 -0.529,-0.409 -0.895,-0.354 -1.246,0.203 -0.246,0.39 -0.771,0.285 -0.922,-0.12 -0.206,-0.553 0.136,-1.091 0.558,-1.433 0.515,-0.42 1.109,-0.566 1.749,-0.354 C -0.566,-2.863 1.291,-1.034 0,0" />
    </g>
    <g
       transform="matrix(4.5779046,0,0,-4.4361342,558.18225,536.28229)"
       id="g1094">
      <path
         id="path1096"
         style="fill:#36443b;fill-opacity:1;fill-rule:nonzero;stroke:none"
         d="m 0,0 c -0.324,0.451 -0.92,0.362 -1.121,-0.146 -0.299,-0.76 0.006,-1.516 -0.801,-2.042 -0.267,-0.176 -0.585,-0.169 -0.892,-0.176 -0.456,-0.01 -0.703,0.357 -1.024,0.62 -0.308,0.252 -0.749,0.019 -0.665,-0.388 0.129,-0.632 0.361,-1.182 0.958,-1.494 0.623,-0.324 1.414,-0.332 2.064,-0.107 C -0.082,-3.249 0.953,-1.328 0,0" />
    </g>
    <g
       transform="matrix(4.5779046,0,0,-4.4361342,550.65387,561.07939)"
       id="g1098">
      <path
         id="path1100"
         style="fill:#36443b;fill-opacity:1;fill-rule:nonzero;stroke:none"
         d="m 0,0 c -0.196,0.352 -0.687,0.316 -0.891,0 -0.506,-0.785 -0.505,-1.935 -1.551,-2.232 -1.052,-0.3 -1.531,0.498 -2.416,0.744 -0.284,0.079 -0.653,-0.213 -0.524,-0.524 0.62,-1.499 2.066,-2.085 3.615,-1.696 C -0.334,-3.349 0.734,-1.313 0,0" />
    </g>
    <g
       transform="matrix(4.5779046,0,0,-4.4361342,567.25291,558.67945)"
       id="g1102">
      <path
         id="path1104"
         style="fill:#36443b;fill-opacity:1;fill-rule:nonzero;stroke:none"
         d="M 0,0 C 0.081,-0.008 0.075,-0.014 -0.021,0.042 -0.124,0.102 -0.226,0.18 -0.316,0.254 -0.513,0.413 -0.696,0.608 -0.918,0.733 -1.309,0.953 -1.67,0.594 -1.61,0.2 -1.497,-0.543 -0.66,-1.607 0.179,-1.321 0.924,-1.066 0.75,-0.075 0,0" />
    </g>
    <g
       transform="matrix(4.5779046,0,0,-4.4361342,595.37315,847.19273)"
       id="g1106">
      <path
         id="path1108"
         style="fill:#36443b;fill-opacity:1;fill-rule:nonzero;stroke:none"
         d="m 0,0 c -3.931,1.268 -6.117,5.494 -7.879,8.903 -2.282,4.414 -3.85,9.144 -5.543,13.804 -1.489,4.099 -2.986,8.194 -4.362,12.333 -0.899,2.704 -1.667,5.47 -2.605,8.169 1.929,-2.99 3.915,-5.937 5.692,-9.035 2.279,-3.978 4.576,-7.943 6.869,-11.912 2.194,-3.796 4.484,-7.531 6.727,-11.297 C 0.15,8.863 1.424,6.706 2.313,4.425 2.723,3.371 2.971,2.289 3.214,1.188 3.677,-0.903 1.321,-0.426 0,0 m 3.106,5.469 c -1.725,4.427 -4.75,8.499 -7.172,12.568 -2.821,4.735 -5.596,9.508 -8.308,14.307 -1.375,2.433 -2.778,4.844 -4.233,7.229 -1.445,2.369 -2.899,5.017 -4.967,6.9 -0.03,0.027 -0.063,0.043 -0.095,0.058 -0.035,0.08 -0.066,0.163 -0.102,0.243 -0.161,0.365 -0.774,0.103 -0.642,-0.271 1.667,-4.733 2.932,-9.624 4.542,-14.384 1.694,-5.008 3.491,-9.994 5.323,-14.954 2.269,-6.142 6.236,-18.69 14.586,-18.803 4.313,-0.058 2.064,4.554 1.068,7.107" />
    </g>
    <g
       transform="matrix(4.5779046,0,0,-4.4361342,646.46348,824.39278)"
       id="g1110">
      <path
         id="path1112"
         style="fill:#36443b;fill-opacity:1;fill-rule:nonzero;stroke:none"
         d="m 0,0 c -1.056,0.453 -1.736,1.621 -2.417,2.496 -1.687,2.165 -3.292,4.374 -4.835,6.644 -2.735,4.023 -5.239,8.212 -7.861,12.31 -2.324,3.631 -4.648,7.262 -7.065,10.832 -2.553,3.774 -5.555,7.183 -8.244,10.836 6.325,-5.099 12.048,-10.719 17.596,-16.68 C -6.581,19.729 -1.539,12.067 0.999,3.24 1.161,2.678 2.253,-0.968 0,0 m 1.67,5.173 c -0.678,2.324 -1.538,4.351 -2.551,6.544 -2.057,4.452 -5.112,8.477 -8.263,12.2 -6.682,7.896 -14.014,15.692 -22.57,21.596 -0.502,0.345 -1.138,-0.473 -0.653,-0.847 0.438,-0.339 0.865,-0.688 1.298,-1.032 -0.129,-0.053 -0.218,-0.19 -0.132,-0.36 1.142,-2.247 2.887,-4.236 4.34,-6.287 1.575,-2.222 3.198,-4.397 4.706,-6.668 3.138,-4.729 6.219,-9.512 9.189,-14.351 2.682,-4.371 5.431,-8.76 8.576,-12.816 0.392,-0.505 5.672,-7.426 6.758,-3.989 0.644,2.035 -0.123,4.041 -0.698,6.01" />
    </g>
    <g
       transform="matrix(4.5779046,0,0,-4.4361342,651.35404,833.74149)"
       id="g1114">
      <path
         id="path1116"
         style="fill:#36443b;fill-opacity:1;fill-rule:nonzero;stroke:none"
         d="m 0,0 c -0.143,0.581 -0.661,1.086 -1.122,1.428 -0.916,0.678 -1.52,1.588 -2.296,2.401 -0.253,0.267 -0.633,-0.07 -0.484,-0.373 0.389,-0.795 0.872,-1.592 1.425,-2.284 1.104,-1.38 1.727,-2.493 0.873,-4.262 -0.582,-1.204 -2.455,-0.796 -3.434,-0.526 -1.185,0.325 -2.043,1.339 -3.096,1.926 -0.137,0.077 -0.334,0.066 -0.443,-0.058 -0.013,-0.014 -0.025,-0.027 -0.036,-0.041 -0.117,-0.131 -0.117,-0.305 0,-0.436 1.684,-1.897 5.345,-4.481 7.784,-2.043 C 0.209,-3.229 0.325,-1.333 0,0" />
    </g>
    <g
       transform="matrix(4.5779046,0,0,-4.4361342,386.84179,693.08054)"
       id="g1118">
      <path
         id="path1120"
         style="fill:#f8ad1c;fill-opacity:1;fill-rule:nonzero;stroke:none"
         d="M 0,0 C -0.264,1.02 -1.505,1.104 -2.36,0.926 -2.854,0.823 -3.185,0.567 -3.466,0.157 c -0.18,-0.261 -0.26,-0.606 -0.33,-0.91 -0.064,-0.279 0.1,-0.433 0.196,-0.658 0.164,-0.386 0.833,-0.194 0.793,0.215 -0.03,0.306 -0.035,0.407 0.117,0.71 0.138,0.277 0.326,0.345 0.606,0.41 0.387,0.088 0.943,0.081 1.123,-0.33 0.044,-0.102 0.144,-0.165 0.253,-0.208 0.17,-0.133 0.422,-0.14 0.544,0.079 C -0.012,-0.411 0.047,-0.18 0,0" />
    </g>
    <g
       transform="matrix(4.5779046,0,0,-4.4361342,381.36936,682.93468)"
       id="g1122">
      <path
         id="path1124"
         style="fill:#f8ad1c;fill-opacity:1;fill-rule:nonzero;stroke:none"
         d="m 0,0 c -0.321,0.6 -1.308,0.556 -1.873,0.419 -0.622,-0.151 -1.2,-0.784 -1.018,-1.45 0.078,-0.28 0.469,-0.334 0.615,-0.081 0.225,0.393 0.441,0.617 0.913,0.641 0.391,0.02 0.739,-0.201 1.125,-0.114 C 0.022,-0.527 0.116,-0.217 0,0" />
    </g>
    <g
       transform="matrix(4.5779046,0,0,-4.4361342,376.5548,675.7304)"
       id="g1126">
      <path
         id="path1128"
         style="fill:#f8ad1c;fill-opacity:1;fill-rule:nonzero;stroke:none"
         d="m 0,0 c -0.48,0.207 -0.964,0.147 -1.431,-0.071 -0.345,-0.163 -0.671,-0.574 -0.423,-0.938 0.105,-0.154 0.284,-0.169 0.423,-0.054 0.296,0.241 0.71,0.304 1.076,0.218 C 0.132,-0.958 0.499,-0.216 0,0" />
    </g>
    <g
       transform="matrix(4.5779046,0,0,-4.4361342,376.71547,671.35903)"
       id="g1130">
      <path
         id="path1132"
         style="fill:#f8ad1c;fill-opacity:1;fill-rule:nonzero;stroke:none"
         d="m 0,0 c -0.467,0.7 -1.181,0.53 -1.626,-0.103 -0.199,-0.284 0.182,-0.611 0.455,-0.455 0.272,0.156 0.502,0.132 0.805,0.081 C -0.111,-0.52 0.174,-0.261 0,0" />
    </g>
    <g
       transform="matrix(4.5779046,0,0,-4.4361342,410.97834,691.86774)"
       id="g1134">
      <path
         id="path1136"
         style="fill:#f8ad1c;fill-opacity:1;fill-rule:nonzero;stroke:none"
         d="m 0,0 c -0.874,0.287 -1.575,-0.254 -1.957,-1.002 -0.297,-0.58 0.559,-1.088 0.877,-0.512 0.194,0.353 0.37,0.608 0.795,0.481 0.389,-0.116 0.45,-0.422 0.765,-0.61 0.175,-0.103 0.396,-0.068 0.54,0.071 C 1.749,-0.875 0.559,-0.184 0,0" />
    </g>
    <g
       transform="matrix(4.5779046,0,0,-4.4361342,408.71183,684.4727)"
       id="g1138">
      <path
         id="path1140"
         style="fill:#f8ad1c;fill-opacity:1;fill-rule:nonzero;stroke:none"
         d="m 0,0 c -0.336,0.024 -0.65,-0.056 -0.955,-0.187 -0.164,-0.07 -0.32,-0.225 -0.441,-0.353 -0.047,-0.047 -0.081,-0.103 -0.098,-0.167 -0.005,-0.033 -0.009,-0.067 -0.014,-0.101 0.021,-0.116 0.021,-0.133 -10e-4,-0.051 -0.165,-0.258 0.173,-0.621 0.434,-0.434 0.083,0.06 0.144,0.115 0.195,0.18 0.29,0.135 0.545,0.194 0.88,0.18 0.343,-0.014 0.474,-0.307 0.779,-0.353 0.167,-0.026 0.35,0.012 0.437,0.178 C 1.605,-0.36 0.534,-0.039 0,0" />
    </g>
    <g
       transform="matrix(4.5779046,0,0,-4.4361342,410.95182,680.01481)"
       id="g1142">
      <path
         id="path1144"
         style="fill:#f8ad1c;fill-opacity:1;fill-rule:nonzero;stroke:none"
         d="m 0,0 c -0.54,0.484 -1.231,0.35 -1.748,-0.095 -0.084,-0.072 -0.122,-0.219 -0.086,-0.324 0.021,-0.057 0.044,-0.111 0.068,-0.165 0.078,-0.17 0.336,-0.181 0.457,-0.051 0.264,0.039 0.499,0.054 0.737,-0.106 C -0.126,-1.041 0.397,-0.356 0,0" />
    </g>
    <g
       transform="matrix(4.5779046,0,0,-4.4361342,404.33949,674.73802)"
       id="g1146">
      <path
         id="path1148"
         style="fill:#f8ad1c;fill-opacity:1;fill-rule:nonzero;stroke:none"
         d="m 0,0 c -0.237,-0.291 0.066,-0.783 0.427,-0.553 0.227,0.147 0.344,0.082 0.585,-0.005 0.206,-0.075 0.394,0.117 0.405,0.309 C 1.47,0.659 0.41,0.501 0,0" />
    </g>
    <g
       transform="matrix(4.5779046,0,0,-4.4361342,446.39898,686.52174)"
       id="g1150">
      <path
         id="path1152"
         style="fill:#f8ad1c;fill-opacity:1;fill-rule:nonzero;stroke:none"
         d="m 0,0 c -0.143,0.91 -1.472,1.03 -2.118,0.695 -0.606,-0.312 -1.501,-1.374 -0.82,-2.028 0.233,-0.224 0.715,-0.003 0.581,0.339 -0.134,0.341 0.649,0.795 0.872,0.857 0.214,0.06 0.006,0.094 0.205,0.012 0.074,-0.031 0.144,-0.062 0.217,-0.099 0.167,-0.083 0.206,-0.282 0.389,-0.367 0.184,-0.085 0.335,-0.06 0.492,0.064 0.018,0.013 0.036,0.028 0.054,0.042 C 0.019,-0.37 0.026,-0.164 0,0" />
    </g>
    <g
       transform="matrix(4.5779046,0,0,-4.4361342,442.48304,677.97863)"
       id="g1154">
      <path
         id="path1156"
         style="fill:#f8ad1c;fill-opacity:1;fill-rule:nonzero;stroke:none"
         d="m 0,0 c -0.395,0.521 -0.961,0.665 -1.591,0.538 -0.536,-0.107 -1.125,-0.615 -1,-1.208 0.069,-0.324 0.465,-0.295 0.628,-0.082 0.276,0.362 0.8,0.469 1.175,0.144 C -0.385,-0.959 0.364,-0.48 0,0" />
    </g>
    <g
       transform="matrix(4.5779046,0,0,-4.4361342,436.42965,668.89385)"
       id="g1158">
      <path
         id="path1160"
         style="fill:#f8ad1c;fill-opacity:1;fill-rule:nonzero;stroke:none"
         d="m 0,0 c -0.651,0.157 -1.463,-0.29 -1.376,-1.037 0.043,-0.366 0.526,-0.46 0.652,-0.088 0.131,0.386 0.514,0.162 0.775,0.162 C 0.615,-0.963 0.477,-0.115 0,0" />
    </g>
    <g
       transform="matrix(4.5779046,0,0,-4.4361342,436.94835,664.60947)"
       id="g1162">
      <path
         id="path1164"
         style="fill:#f8ad1c;fill-opacity:1;fill-rule:nonzero;stroke:none"
         d="M 0,0 C -0.232,0.271 -0.665,0.221 -0.929,0.024 -1.318,-0.268 -0.984,-0.893 -0.538,-0.644 -0.352,-0.539 -0.157,-0.597 0,-0.408 0.107,-0.28 0.11,-0.128 0,0" />
    </g>
  </g>
</svg>
