<?xml version="1.0" encoding="UTF-8" standalone="no"?>
<svg
   xmlns:dc="http://purl.org/dc/elements/1.1/"
   xmlns:cc="http://creativecommons.org/ns#"
   xmlns:rdf="http://www.w3.org/1999/02/22-rdf-syntax-ns#"
   xmlns:svg="http://www.w3.org/2000/svg"
   xmlns="http://www.w3.org/2000/svg"
   version="1.1"
   id="svg7063"
   viewBox="0 0 648.48543 438.68119"
   height="123.80558mm"
   width="183.017mm">
  <defs
     id="defs7065" />
  <metadata
     id="metadata7068">
    <rdf:RDF>
      <cc:Work
         rdf:about="">
        <dc:format>image/svg+xml</dc:format>
        <dc:type
           rdf:resource="http://purl.org/dc/dcmitype/StillImage" />
        <dc:title></dc:title>
      </cc:Work>
    </rdf:RDF>
  </metadata>
  <g
     transform="translate(-45.757288,-322.72745)"
     id="layer1">
    <g
       transform="matrix(3.6387423,0,0,-3.6387423,676.60718,530.97329)"
       id="g762">
      <path
         id="path764"
         style="fill:#6a7e0d;fill-opacity:1;fill-rule:nonzero;stroke:none"
         d="m 0,0 c -1.064,-0.293 -1.299,-1.975 -1.459,-2.82 -0.47,-2.494 -0.747,-4.637 -2.626,-6.532 -1.745,-1.76 -4.545,-2.321 -6.909,-2.54 -1.278,-0.118 -4.131,-0.004 -5.208,1.148 -0.034,0.243 -0.209,0.463 -0.528,0.526 -0.025,0.016 -0.037,0.037 -0.064,0.051 -2.878,1.47 -10.885,-3.698 -5.984,-6.166 6.961,-3.506 16.206,-4.183 22.558,0.931 2.715,2.184 3.178,6.23 3.278,9.446 C 3.105,-4.393 2.837,0.78 0,0" />
    </g>
    <g
       transform="matrix(3.6387423,0,0,-3.6387423,332.34792,532.61145)"
       id="g766">
      <path
         id="path768"
         style="fill:#bab115;fill-opacity:1;fill-rule:nonzero;stroke:none"
         d="m 0,0 c -0.329,0.13 -0.669,-0.048 -0.859,-0.322 -0.039,-0.03 -0.085,-0.052 -0.118,-0.088 -2.067,-0.255 -3.794,-1.815 -5.329,-3.131 -2.458,-2.11 -4.687,-4.489 -6.513,-7.164 -3.369,-4.937 -5.531,-11.024 -7.265,-16.711 -1.776,-5.824 -1.326,-12.309 0.469,-18.093 1.312,-4.228 4.643,-9.08 9.332,-9.625 5.523,-0.642 7.413,5.383 7.097,9.743 -0.216,3.005 -0.867,5.975 -1.335,8.945 -0.643,4.086 -0.563,8.099 0.304,12.147 1.332,6.214 7.457,10.915 10.895,15.993 C 9.588,-4.007 3.022,-1.189 0,0" />
    </g>
    <g
       transform="matrix(3.6387423,0,0,-3.6387423,291.36951,541.34228)"
       id="g770">
      <path
         id="path772"
         style="fill:#bab115;fill-opacity:1;fill-rule:nonzero;stroke:none"
         d="M 0,0 C 1.733,0.9 4.075,1.799 3.561,4.154 3.08,6.354 0.771,8.572 -1.428,9.165 -2.285,9.396 -2.691,9.337 -3.351,8.726 -3.438,8.645 -3.495,8.557 -3.535,8.468 -9.341,7.086 -14.036,3.065 -18.357,-0.93 c -5.057,-4.674 -9.253,-10.785 -12.094,-17.024 -2.84,-6.237 -5.323,-13.138 -4.802,-20.091 0.212,-2.822 0.878,-5.631 2.533,-7.97 1.253,-1.77 3.567,-3.937 5.911,-3.918 6.375,0.052 7.757,7.378 8.563,12.329 1.098,6.743 1.137,13.397 3.517,19.906 C -12.08,-10.458 -6.944,-3.609 0,0" />
    </g>
    <g
       transform="matrix(3.6387423,0,0,-3.6387423,570.06734,591.60967)"
       id="g774">
      <path
         id="path776"
         style="fill:#bab115;fill-opacity:1;fill-rule:nonzero;stroke:none"
         d="m 0,0 c -1.474,1.864 -2.874,3.637 -4.986,4.798 -1.463,0.805 -2.948,0.128 -4.452,-0.15 -0.167,-0.031 -0.296,-0.15 -0.397,-0.294 -0.378,0.132 -0.846,-0.243 -0.594,-0.689 1.013,-1.8 2.202,-3.527 3.236,-5.325 1.596,-2.778 2.433,-6.259 2.667,-9.429 0.48,-6.542 -0.363,-12.801 -1.32,-19.254 -0.682,-4.606 -1.109,-9.566 1.975,-13.434 2.182,-2.738 7.118,-4.121 9.933,-1.451 3.39,3.218 3.723,8.233 4.106,12.624 0.519,5.947 -1.027,11.821 -2.714,17.473 C 5.872,-9.83 3.438,-4.352 0,0" />
    </g>
    <g
       transform="matrix(3.6387423,0,0,-3.6387423,689.69789,673.91837)"
       id="g778">
      <path
         id="path780"
         style="fill:#bab115;fill-opacity:1;fill-rule:nonzero;stroke:none"
         d="m 0,0 c -1.715,5.976 -4.905,12.286 -8.676,17.202 -3.36,4.382 -7.142,9.21 -11.934,12.11 -2.274,1.375 -4.614,1.081 -7.089,1.057 -1.271,-0.013 -1.791,-1.757 -2.363,-2.505 -0.35,-0.455 0.127,-1.109 0.633,-1.104 0.115,10e-4 0.23,0.003 0.345,0.004 5.479,-2.805 8.429,-10.137 9.978,-15.664 1.949,-6.959 2.444,-13.746 2.451,-20.932 0.004,-4.201 -0.171,-10.019 4.773,-11.651 4.701,-1.553 9.356,0.937 11.465,5.271 C 1.995,-11.254 1.474,-5.134 0,0" />
    </g>
    <g
       transform="matrix(3.6387423,0,0,-3.6387423,689.69789,673.91837)"
       id="g782">
      <path
         id="path784"
         style="fill:#bab115;fill-opacity:1;fill-rule:nonzero;stroke:none"
         d="m 0,0 c -1.715,5.976 -4.905,12.286 -8.676,17.202 -3.36,4.382 -7.142,9.21 -11.934,12.11 -2.274,1.375 -4.614,1.081 -7.089,1.057 -1.271,-0.013 -1.791,-1.757 -2.363,-2.505 -0.35,-0.455 0.127,-1.109 0.633,-1.104 0.115,10e-4 0.23,0.003 0.345,0.004 5.479,-2.805 8.429,-10.137 9.978,-15.664 1.949,-6.959 2.444,-13.746 2.451,-20.932 0.004,-4.201 -0.171,-10.019 4.773,-11.651 4.701,-1.553 9.356,0.937 11.465,5.271 C 1.995,-11.254 1.474,-5.134 0,0" />
    </g>
    <g
       transform="matrix(3.6387423,0,0,-3.6387423,327.31991,515.73243)"
       id="g786">
      <path
         id="path788"
         style="fill:#6a7e0d;fill-opacity:1;fill-rule:nonzero;stroke:none"
         d="m 0,0 c -1.348,5.011 -2.56,9.915 -3.47,15.019 0.048,0.15 0.014,0.323 -0.082,0.434 -0.018,0.103 -0.04,0.201 -0.057,0.304 -0.162,0.933 -1.622,0.688 -1.618,-0.219 0.001,-0.152 0.001,-0.305 0.002,-0.457 -3.365,-1.144 -7.222,-2.001 -10.643,-2.233 -4.442,-0.302 -8.951,0.328 -12.757,2.745 -1.923,1.221 -3.75,2.933 -4.822,4.954 -0.889,1.674 -1.05,3.721 -1.407,5.55 -0.688,3.52 0.958,7.373 0.102,10.796 -0.062,0.25 -0.302,0.526 -0.567,0.568 -1.694,0.267 -3.15,-0.743 -4.722,-1.235 -1.554,-0.486 -4.428,-0.771 -5.657,-1.878 -0.918,-0.827 -1.117,-2.249 -1.194,-3.436 -0.19,-2.957 -0.122,-5.998 0.076,-8.954 0.315,-4.734 1.511,-9.863 3.799,-14.04 2.142,-3.907 6.001,-7.166 9.749,-9.437 8.751,-5.299 19.68,-7.611 29.728,-5.476 1.07,0.227 3.787,0.708 4.431,1.807 C 1.582,-4.009 0.312,-1.161 0,0" />
    </g>
    <g
       transform="matrix(3.6387423,0,0,-3.6387423,222.72391,366.75723)"
       id="g790">
      <path
         id="path792"
         style="fill:#bab115;fill-opacity:1;fill-rule:nonzero;stroke:none"
         d="m 0,0 c -0.529,2.621 -2.019,4.937 -3.751,6.937 -3.778,4.36 -10.353,5.88 -15.844,4.857 -3.436,-0.64 -6.523,-2.395 -10.001,-3.024 -3.092,-0.561 -6.538,-1.199 -9.696,-0.791 -1.404,0.181 -2.855,0.49 -4.255,0.609 -0.986,0.083 -1.611,0.046 -2.461,-0.45 -1.337,-0.781 -1.829,-2.27 -2.125,-3.757 -0.098,-0.297 -0.186,-0.588 -0.256,-0.854 -0.631,-2.435 0.022,-5.106 1.214,-7.248 1.243,-2.231 3.452,-3.919 5.566,-5.262 2.653,-1.687 5.793,-3.523 8.838,-4.375 6.229,-1.744 12.057,-2.954 18.531,-2.457 4.866,0.374 11.188,2.86 12.975,7.877 C -0.387,-5.474 0.54,-2.669 0,0" />
    </g>
    <g
       transform="matrix(3.6387423,0,0,-3.6387423,124.80826,376.76051)"
       id="g794">
      <path
         id="path796"
         style="fill:#f6e1d0;fill-opacity:1;fill-rule:nonzero;stroke:none"
         d="m 0,0 c -0.736,0.109 -1.425,0.171 -2.174,0.124 -1.334,-0.083 -2.374,0.364 -3.63,0.674 -2.275,0.561 -4.884,1.862 -6.312,3.817 -0.489,0.652 -1.5,0.205 -1.351,-0.481 -0.016,-0.036 -0.043,-0.069 -0.048,-0.109 -0.426,-3.104 0.488,-6.488 3.135,-8.429 2.829,-2.074 6.344,-1.532 9.186,0.161 C -0.396,-3.768 2.525,-0.375 0,0" />
    </g>
    <g
       transform="matrix(3.6387423,0,0,-3.6387423,649.64337,542.22719)"
       id="g798">
      <path
         id="path800"
         style="fill:#36443b;fill-opacity:1;fill-rule:nonzero;stroke:none"
         d="m 0,0 c -0.672,1.113 -1.8,2.058 -2.633,3.057 -1.312,1.57 -0.908,3.143 -0.296,4.921 1.088,3.16 2.184,6.08 2.276,9.46 0.187,6.903 -0.719,13.241 -3.804,19.499 -2.805,5.69 -7.551,10.353 -12.705,13.944 -5.545,3.861 -12.584,5.28 -19.156,6.129 -7.447,0.961 -14.656,1.004 -21.915,-1.205 -6.29,-1.914 -12.905,-5.332 -17.59,-10.022 -5.389,-5.394 -9.899,-11.91 -17.577,-14.085 -2.881,-0.816 -5.71,-0.216 -8.618,-0.028 -2.561,0.165 -6.058,0.438 -8.183,-1.311 -0.887,-0.729 -1.705,-1.673 -2.292,-2.729 -1.256,-1.752 -1.594,-3.939 -1.486,-6.149 0.142,-2.878 1.253,-5.649 2.665,-8.126 1.72,-3.02 4.491,-5.114 6.778,-7.66 2.072,-2.306 4.725,-3.867 7.223,-5.656 2.915,-2.087 5.877,-3.852 9.195,-5.229 7.046,-2.923 14.001,-5.713 21.34,-7.873 14.181,-4.174 29.246,-6.356 44.051,-4.78 3.042,0.324 6.085,0.653 9.081,1.281 3.398,0.714 6.739,2.514 9.732,4.209 2.277,1.29 3.735,3.071 4.792,5.433 C 1.992,-4.431 1.329,-2.2 0,0" />
    </g>
    <g
       transform="matrix(3.6387423,0,0,-3.6387423,611.89867,377.9649)"
       id="g802">
      <path
         id="path804"
         style="fill:#5b7866;fill-opacity:1;fill-rule:nonzero;stroke:none"
         d="m 0,0 c -2.073,2.141 -4.382,4.062 -6.789,5.738 -5.545,3.862 -12.584,5.281 -19.156,6.129 -3.071,0.397 -6.1,0.622 -9.11,0.612 -0.337,-1.353 -0.483,-2.745 -0.534,-3.817 -0.207,-4.371 1.613,-8.752 4.176,-12.204 5.229,-7.043 14.393,-9.792 22.448,-6.19 3.904,1.746 7.069,4.868 8.666,8.895 C -0.191,-0.565 -0.094,-0.284 0,0" />
    </g>
    <g
       transform="matrix(3.6387423,0,0,-3.6387423,444.93571,368.01877)"
       id="g806">
      <path
         id="path808"
         style="fill:#5b7866;fill-opacity:1;fill-rule:nonzero;stroke:none"
         d="M 0,0 C 0.631,2.668 0.16,5.605 -0.733,8.26 -1.147,8.148 -1.562,8.055 -1.976,7.929 -8.266,6.015 -14.88,2.597 -19.565,-2.093 c -1.669,-1.671 -3.253,-3.448 -4.874,-5.172 2.266,-2.272 5.764,-3.492 9.088,-3.489 C -8.704,-10.749 -1.604,-6.779 0,0" />
    </g>
    <g
       transform="matrix(3.6387423,0,0,-3.6387423,595.69136,450.23178)"
       id="g810">
      <path
         id="path812"
         style="fill:#5b7866;fill-opacity:1;fill-rule:nonzero;stroke:none"
         d="m 0,0 c -3.743,-5.579 -1.207,-14.013 5.305,-16.329 2.025,-0.72 4.215,-1.243 6.423,-1.493 0.054,0.171 0.11,0.343 0.17,0.517 1.088,3.16 2.184,6.08 2.276,9.461 C 14.321,-2.431 13.777,2.633 12.056,7.585 7.269,6.9 2.415,3.601 0,0" />
    </g>
    <g
       transform="matrix(3.6387423,0,0,-3.6387423,545.76529,472.04642)"
       id="g814">
      <path
         id="path816"
         style="fill:#5b7866;fill-opacity:1;fill-rule:nonzero;stroke:none"
         d="m 0,0 c 0.551,4.098 -2.257,8.962 -5.085,11.714 -2.969,2.89 -7.667,3.857 -11.657,3.268 -2.682,-0.395 -5.143,-1.267 -7.553,-2.491 -1.284,-0.651 -2.052,-1.429 -2.651,-2.441 -3.376,-3.596 -3.991,-10.702 -2.117,-14.838 4.056,-8.958 15.476,-9.895 23.312,-5.339 C -2.217,-8.072 -0.52,-3.871 0,0" />
    </g>
    <g
       transform="matrix(3.6387423,0,0,-3.6387423,388.67021,479.46945)"
       id="g818">
      <path
         id="path820"
         style="fill:#5b7866;fill-opacity:1;fill-rule:nonzero;stroke:none"
         d="m 0,0 c -0.094,3.759 -0.8,7.17 -3.964,9.469 -2.643,1.922 -6.372,2.068 -9.429,1.306 -3.71,-0.924 -6.954,-3.677 -8.294,-7.252 -0.371,-0.992 -0.473,-2.009 -0.371,-3.003 -0.295,-3.06 1.283,-6.036 3.776,-7.959 3.304,-2.55 7.307,-2.908 11.225,-1.584 C -3.53,-7.832 0.099,-3.947 0,0" />
    </g>
    <g
       transform="matrix(3.6387423,0,0,-3.6387423,499.22903,553.47749)"
       id="g822">
      <path
         id="path824"
         style="fill:#5b7866;fill-opacity:1;fill-rule:nonzero;stroke:none"
         d="m 0,0 c -1.903,-4.511 -1.611,-10.308 1.002,-14.313 -0.035,-0.134 -0.022,-0.285 0.066,-0.434 0.047,-0.079 0.106,-0.152 0.154,-0.231 5.791,-0.424 11.609,-0.388 17.388,0.227 1.632,0.174 3.263,0.354 4.887,0.575 2.987,5.589 0.655,13.362 -3.956,17.627 C 14.205,8.388 3.016,7.147 0,0" />
    </g>
    <g
       transform="matrix(3.6387423,0,0,-3.6387423,406.65433,589.76192)"
       id="g826">
      <path
         id="path828"
         style="fill:#5b7866;fill-opacity:1;fill-rule:nonzero;stroke:none"
         d="M 0,0 C 5.361,-1.578 10.85,-2.87 16.402,-3.783 16.64,0.78 14.931,5.343 12.221,8.955 7.191,15.655 -2.34,15.911 -8.171,10.162 -9.8,8.556 -11.034,6.369 -11.736,4.018 -7.887,2.546 -4.001,1.178 0,0" />
    </g>
    <g
       transform="matrix(3.6387423,0,0,-3.6387423,671.47944,698.71422)"
       id="g830">
      <path
         id="path832"
         style="fill:#6a7e0d;fill-opacity:1;fill-rule:nonzero;stroke:none"
         d="m 0,0 c -3.525,-0.111 -6.641,-1.707 -9.748,-3.189 -0.656,-0.314 -1.298,-0.695 -1.898,-1.135 0.019,-4.02 0.322,-8.875 4.771,-10.345 4.701,-1.553 9.355,0.938 11.465,5.272 1.306,2.686 1.748,5.713 1.647,8.741 C 4.179,-0.106 1.96,0.062 0,0" />
    </g>
    <g
       transform="matrix(3.6387423,0,0,-3.6387423,607.06607,710.24903)"
       id="g834">
      <path
         id="path836"
         style="fill:#6a7e0d;fill-opacity:1;fill-rule:nonzero;stroke:none"
         d="m 0,0 c 0.027,0.318 0.027,0.635 0.043,0.952 -3.03,0.705 -6.504,0.746 -8.187,0.553 -2.697,-0.312 -5.92,-1.432 -8.302,-3.062 -0.219,-3.412 0.164,-6.802 2.407,-9.616 2.182,-2.737 7.118,-4.121 9.934,-1.45 C -0.716,-9.405 -0.383,-4.391 0,0" />
    </g>
    <g
       transform="matrix(3.6387423,0,0,-3.6387423,320.75673,697.77618)"
       id="g838">
      <path
         id="path840"
         style="fill:#6a7e0d;fill-opacity:1;fill-rule:nonzero;stroke:none"
         d="m 0,0 c -0.168,2.324 -0.594,4.627 -0.995,6.925 -2.464,0.28 -4.986,0.034 -7.384,-0.582 -2.706,-0.696 -6.026,-2.368 -8.546,-4.669 0.154,-0.603 0.313,-1.203 0.495,-1.792 1.313,-4.229 4.644,-9.08 9.332,-9.625 C -1.574,-10.386 0.315,-4.36 0,0" />
    </g>
    <g
       transform="matrix(3.6387423,0,0,-3.6387423,200.32635,663.01999)"
       id="g842">
      <path
         id="path844"
         style="fill:#6a7e0d;fill-opacity:1;fill-rule:nonzero;stroke:none"
         d="m 0,0 c -3.702,0.141 -7.205,-1.032 -10.295,-2.971 0.006,-0.545 0.022,-1.09 0.063,-1.634 0.211,-2.823 0.878,-5.631 2.533,-7.97 1.253,-1.771 3.566,-3.938 5.911,-3.918 6.375,0.052 7.757,7.378 8.562,12.328 0.144,0.886 0.269,1.769 0.384,2.651 C 4.937,-0.5 2.483,-0.094 0,0" />
    </g>
    <g
       transform="matrix(3.6387423,0,0,-3.6387423,188.84504,367.81974)"
       id="g846">
      <path
         id="path848"
         style="fill:#3f2322;fill-opacity:1;fill-rule:nonzero;stroke:none"
         d="M 0,0 C -0.729,0.553 -1.871,0.649 -2.669,0.23 -2.951,0.082 -3.184,-0.177 -3.333,-0.477 -3.931,-1.203 -4.382,-1.993 -4.104,-2.979 -3.605,-4.739 -1.343,-5.142 0.084,-4.332 1.811,-3.352 1.361,-1.031 0,0" />
    </g>
    <g
       transform="matrix(3.6387423,0,0,-3.6387423,139.17475,327.78665)"
       id="g850">
      <path
         id="path852"
         style="fill:#3f2322;fill-opacity:1;fill-rule:nonzero;stroke:none"
         d="M 0,0 C -0.729,0.553 -1.871,0.649 -2.669,0.23 -2.951,0.082 -3.184,-0.177 -3.333,-0.477 -3.931,-1.203 -4.382,-1.993 -4.104,-2.979 -3.605,-4.739 -1.343,-5.142 0.084,-4.332 1.811,-3.352 1.361,-1.031 0,0" />
    </g>
    <g
       transform="matrix(3.6387423,0,0,-3.6387423,184.13686,375.12925)"
       id="g854">
      <path
         id="path856"
         style="fill:#643e39;fill-opacity:1;fill-rule:nonzero;stroke:none"
         d="M 0,0 C -0.012,0.041 -0.039,0.076 -0.059,0.113 -0.149,0.467 -0.363,0.793 -0.743,0.967 -1.097,1.127 -1.475,1.125 -1.78,0.971 -1.796,0.965 -1.812,0.963 -1.826,0.955 -1.866,0.936 -1.895,0.902 -1.931,0.877 -1.972,0.846 -2.017,0.824 -2.053,0.785 -2.294,0.547 -2.413,0.184 -2.449,-0.15 c -0.055,-0.506 0.381,-0.942 0.84,-1.139 0.021,-0.01 0.042,-0.016 0.064,-0.025 0.098,-0.036 0.195,-0.067 0.288,-0.079 0.003,0 0.005,0.002 0.008,0 0.14,-0.015 0.277,-0.007 0.411,0.024 0.067,0.014 0.125,0.041 0.185,0.066 0.07,0.028 0.135,0.061 0.198,0.102 0.024,0.017 0.049,0.033 0.071,0.053 C -0.062,-0.902 0.133,-0.5 0,0" />
    </g>
    <g
       transform="matrix(3.6387423,0,0,-3.6387423,182.05806,373.75779)"
       id="g858">
      <path
         id="path860"
         style="fill:#f6e1d0;fill-opacity:1;fill-rule:nonzero;stroke:none"
         d="M 0,0 C -1.003,0 -1.003,-1.555 0,-1.555 1.002,-1.555 1.002,0 0,0" />
    </g>
    <g
       transform="matrix(3.6387423,0,0,-3.6387423,189.8293,373.02568)"
       id="g862">
      <path
         id="path864"
         style="fill:#f6e1d0;fill-opacity:1;fill-rule:nonzero;stroke:none"
         d="M 0,0 C -0.711,0 -0.711,-1.102 0,-1.102 0.71,-1.102 0.71,0 0,0" />
    </g>
    <g
       transform="matrix(3.6387423,0,0,-3.6387423,187.10752,379.25849)"
       id="g866">
      <path
         id="path868"
         style="fill:#f6e1d0;fill-opacity:1;fill-rule:nonzero;stroke:none"
         d="M 0,0 C -0.569,0 -0.569,-0.883 0,-0.883 0.569,-0.883 0.569,0 0,0" />
    </g>
    <g
       transform="matrix(3.6387423,0,0,-3.6387423,134.86793,335.01793)"
       id="g870">
      <path
         id="path872"
         style="fill:#643e39;fill-opacity:1;fill-rule:nonzero;stroke:none"
         d="M 0,0 C -0.011,0.041 -0.039,0.076 -0.059,0.113 -0.148,0.467 -0.363,0.793 -0.742,0.967 -1.097,1.127 -1.475,1.125 -1.78,0.971 -1.795,0.965 -1.811,0.963 -1.825,0.955 -1.866,0.936 -1.895,0.902 -1.931,0.877 -1.971,0.846 -2.017,0.824 -2.052,0.785 -2.293,0.547 -2.412,0.184 -2.448,-0.15 c -0.055,-0.506 0.381,-0.942 0.839,-1.139 0.021,-0.01 0.043,-0.016 0.064,-0.025 0.098,-0.036 0.195,-0.067 0.289,-0.079 0.003,0 0.005,0.002 0.008,0 0.139,-0.015 0.277,-0.007 0.41,0.024 0.067,0.014 0.125,0.041 0.185,0.066 0.07,0.028 0.135,0.061 0.199,0.102 0.023,0.017 0.048,0.033 0.07,0.053 C -0.062,-0.902 0.133,-0.5 0,0" />
    </g>
    <g
       transform="matrix(3.6387423,0,0,-3.6387423,132.78913,333.64613)"
       id="g874">
      <path
         id="path876"
         style="fill:#f6e1d0;fill-opacity:1;fill-rule:nonzero;stroke:none"
         d="M 0,0 C -1.002,0 -1.002,-1.555 0,-1.555 1.003,-1.555 1.003,0 0,0" />
    </g>
    <g
       transform="matrix(3.6387423,0,0,-3.6387423,140.56076,332.91401)"
       id="g878">
      <path
         id="path880"
         style="fill:#f6e1d0;fill-opacity:1;fill-rule:nonzero;stroke:none"
         d="M 0,0 C -0.71,0 -0.71,-1.102 0,-1.102 0.711,-1.102 0.711,0 0,0" />
    </g>
    <g
       transform="matrix(3.6387423,0,0,-3.6387423,137.84224,339.14683)"
       id="g882">
      <path
         id="path884"
         style="fill:#f6e1d0;fill-opacity:1;fill-rule:nonzero;stroke:none"
         d="M 0,0 C -0.569,0 -0.569,-0.883 0,-0.883 0.569,-0.883 0.569,0 0,0" />
    </g>
    <g
       transform="matrix(3.6387423,0,0,-3.6387423,169.94067,394.69113)"
       id="g886">
      <path
         id="path888"
         style="fill:#f38c6b;fill-opacity:1;fill-rule:nonzero;stroke:none"
         d="M 0,0 C -0.221,1.378 -1.271,2.998 -2.552,3.599 -3.814,4.19 -4.932,4.158 -6.198,3.611 -6.669,3.408 -7.089,3.043 -7.446,2.631 -7.508,2.582 -7.569,2.534 -7.632,2.481 -8.147,2.051 -8.438,1.442 -8.653,0.824 c -0.381,-1.097 -0.032,-2.479 0.615,-3.399 1.346,-1.917 4.034,-3.458 6.297,-2.026 0.564,0.357 1.121,0.886 1.388,1.509 0.161,0.372 0.32,0.685 0.394,1.07 C 0.191,-1.244 0.126,-0.785 0,0" />
    </g>
    <g
       transform="matrix(3.6387423,0,0,-3.6387423,598.01544,365.29702)"
       id="g890">
      <path
         id="path892"
         style="fill:#bab115;fill-opacity:1;fill-rule:nonzero;stroke:none"
         d="m 0,0 c -0.95,-2.71 -2.155,-4.96 -5.014,-6.78 -3.664,-2.335 -9.078,-3.219 -13.083,-1.383 -4.421,2.026 -7.264,4.892 -8.657,9.673 -0.684,2.347 -0.836,4.877 -0.577,7.367 -0.462,0.027 -0.925,0.054 -1.386,0.071 -1.154,-7.863 2.613,-15.927 10.67,-18.949 4.512,-1.692 9.788,-0.544 13.873,1.783 2.862,1.63 4.619,4.122 5.577,7.022 C 0.942,-0.788 0.476,-0.389 0,0" />
    </g>
    <g
       transform="matrix(3.6387423,0,0,-3.6387423,435.17078,340.02447)"
       id="g894">
      <path
         id="path896"
         style="fill:#bab115;fill-opacity:1;fill-rule:nonzero;stroke:none"
         d="m 0,0 c -0.538,-0.173 -1.076,-0.343 -1.616,-0.537 0.697,-1.977 1.202,-3.936 0.735,-6.228 -0.697,-3.423 -3.745,-5.855 -6.903,-6.881 -2.777,-0.901 -6.459,-0.886 -9.143,0.269 -0.801,0.345 -1.502,0.785 -2.136,1.311 -0.313,-0.335 -0.627,-0.666 -0.938,-1.002 0.818,-0.811 1.797,-1.497 3.131,-2.039 3.276,-1.332 7.643,-0.925 10.887,0.347 C 0.334,-12.281 2.062,-5.706 0,0" />
    </g>
    <g
       transform="matrix(3.6387423,0,0,-3.6387423,642.7534,433.43427)"
       id="g898">
      <path
         id="path900"
         style="fill:#bab115;fill-opacity:1;fill-rule:nonzero;stroke:none"
         d="m 0,0 c -0.139,0.545 -0.288,1.089 -0.453,1.631 -4.894,-1.161 -9.333,-4.562 -10.384,-9.552 -1.314,-6.244 4.21,-11.885 10.237,-12.738 0.189,0.546 0.371,1.088 0.545,1.628 -1.654,0.499 -3.326,0.906 -4.854,1.901 -3.29,2.143 -4.955,4.706 -4.395,8.787 C -8.635,-3.471 -4.434,-1.129 0,0" />
    </g>
    <g
       transform="matrix(3.6387423,0,0,-3.6387423,372.58004,487.1734)"
       id="g902">
      <path
         id="path904"
         style="fill:#bab115;fill-opacity:1;fill-rule:nonzero;stroke:none"
         d="m 0,0 c -0.937,-3.253 -5.067,-4.77 -8.122,-3.946 -2.044,0.551 -3.597,1.646 -4.752,3.43 -1.3,2.007 -0.652,3.929 -0.005,5.974 0.004,0.013 0.002,0.023 0.005,0.035 1.745,1.925 4.452,2.843 7.006,2.968 C -1.237,8.689 1.161,4.029 0,0 m -4.077,9.938 c -3.739,0.943 -10.558,-1.639 -10.853,-6.067 -0.002,-0.026 0.007,-0.049 0.01,-0.073 -0.506,-1.283 -0.389,-2.656 0.295,-4.283 0.848,-2.018 2.64,-3.813 4.699,-4.594 4.033,-1.529 9.587,-0.442 11.286,4.013 1.767,4.632 -0.513,9.763 -5.437,11.004" />
    </g>
    <g
       transform="matrix(3.6387423,0,0,-3.6387423,562.66541,547.36911)"
       id="g906">
      <path
         id="path908"
         style="fill:#bab115;fill-opacity:1;fill-rule:nonzero;stroke:none"
         d="m 0,0 c -2.215,1.637 -4.594,1.779 -7.266,1.712 -4.538,-0.115 -7.674,-4.637 -8.074,-8.726 -0.36,-3.689 0.324,-7.174 2.48,-9.82 0.637,-0.026 1.274,-0.048 1.913,-0.062 -0.518,0.553 -1.012,1.131 -1.394,1.845 -0.956,1.79 -1.374,3.492 -1.464,5.51 -0.184,4.156 1.313,7.662 5.326,9.258 4.928,1.958 9.17,-1.629 10.747,-6.034 0.636,-1.781 0.731,-3.69 0.595,-5.557 -0.147,-2.028 -1.206,-3.203 -2.243,-4.602 0.185,0.019 0.371,0.027 0.557,0.046 0.618,0.066 1.235,0.135 1.851,0.204 1.945,2.952 1.911,6.771 0.843,10.351 C 3.229,-3.723 1.829,-1.351 0,0" />
    </g>
    <g
       transform="matrix(3.6387423,0,0,-3.6387423,454.16757,601.31746)"
       id="g910">
      <path
         id="path912"
         style="fill:#bab115;fill-opacity:1;fill-rule:nonzero;stroke:none"
         d="m 0,0 c 0.414,1.61 0.425,3.346 0.143,5.284 -0.589,4.043 -2.482,7.503 -6.278,9.241 -6.061,2.777 -14.986,-1.497 -16.582,-8.109 0.525,-0.194 1.051,-0.386 1.577,-0.575 2.429,5.282 7.451,9.518 13.687,7.407 C -2.212,11.474 -0.714,5.437 -1.814,0.364 -1.21,0.239 -0.605,0.117 0,0" />
    </g>
    <g
       transform="matrix(3.6387423,0,0,-3.6387423,530.32534,478.98623)"
       id="g914">
      <path
         id="path916"
         style="fill:#bab115;fill-opacity:1;fill-rule:nonzero;stroke:none"
         d="m 0,0 c -1.444,-6.857 -9.715,-8.236 -15.401,-6.562 -6.944,2.044 -8.005,11.522 -4.109,16.566 0.039,0.051 0.06,0.101 0.071,0.153 2.331,2.162 5.851,3.312 8.923,3.044 3.217,-0.28 6.07,-1.295 8.396,-3.585 C 0.521,7.016 0.713,3.386 0,0 m 0.635,8.701 c -1.788,3.362 -5.578,5.228 -9.173,5.866 -5.789,1.028 -14.358,-2.405 -14.587,-8.953 -0.26,-1.5 -0.252,-3.077 -0.164,-4.454 0.233,-3.636 2.872,-6.621 5.701,-8.584 3.019,-2.095 7.698,-1.771 11.036,-0.939 3.202,0.798 6.526,3.042 7.659,6.285 C 2.395,1.601 2.491,5.21 0.635,8.701" />
    </g>
    <g
       transform="matrix(3.6387423,0,0,-3.6387423,654.97375,583.55024)"
       id="g918">
      <path
         id="path920"
         style="fill:#bab115;fill-opacity:1;fill-rule:nonzero;stroke:none"
         d="M 0,0 C -0.187,0.383 -0.424,0.752 -0.811,0.959 -1.335,1.238 -1.979,0.502 -1.474,0.1 c 0.211,-0.168 0.33,-0.46 0.458,-0.694 0.129,-0.237 0.412,-0.328 0.664,-0.27 0.107,0.024 0.179,0.082 0.26,0.151 C 0.116,-0.532 0.11,-0.227 0,0" />
    </g>
    <g
       transform="matrix(3.6387423,0,0,-3.6387423,661.42306,576.2942)"
       id="g922">
      <path
         id="path924"
         style="fill:#bab115;fill-opacity:1;fill-rule:nonzero;stroke:none"
         d="m 0,0 c -0.395,0.52 -0.935,0.918 -1.609,0.819 -0.495,-0.073 -0.396,-0.771 0,-0.904 0.286,-0.096 0.505,-0.534 0.657,-0.768 0.238,-0.369 0.349,-0.686 0.743,-0.915 C -0.006,-1.885 0.286,-1.822 0.4,-1.607 0.714,-1.015 0.367,-0.483 0,0" />
    </g>
    <g
       transform="matrix(3.6387423,0,0,-3.6387423,663.34577,568.01825)"
       id="g926">
      <path
         id="path928"
         style="fill:#bab115;fill-opacity:1;fill-rule:nonzero;stroke:none"
         d="M 0,0 C -0.365,-0.085 -0.402,-0.59 -0.101,-0.771 0.14,-0.916 0.446,-1.228 0.607,-1.454 0.879,-1.837 1.012,-2.232 1.475,-2.408 1.741,-2.51 2.041,-2.298 2.113,-2.045 2.405,-1.032 0.966,0.223 0,0" />
    </g>
    <g
       transform="matrix(3.6387423,0,0,-3.6387423,675.98894,564.26924)"
       id="g930">
      <path
         id="path932"
         style="fill:#bab115;fill-opacity:1;fill-rule:nonzero;stroke:none"
         d="M 0,0 C -0.289,0.597 -1.104,0.869 -1.655,0.475 -1.812,0.361 -1.901,0.099 -1.722,-0.047 -1.491,-0.235 -1.215,-0.363 -1.061,-0.62 -0.647,-1.306 0.341,-0.706 0,0" />
    </g>
    <g
       transform="matrix(3.6387423,0,0,-3.6387423,676.69958,554.56838)"
       id="g934">
      <path
         id="path936"
         style="fill:#bab115;fill-opacity:1;fill-rule:nonzero;stroke:none"
         d="M 0,0 C -0.151,0.059 -0.306,0.083 -0.457,0.137 -0.786,0.254 -1.033,-0.147 -0.885,-0.42 -0.783,-0.605 -0.671,-0.755 -0.533,-0.916 -0.002,-1.54 0.918,-0.353 0,0" />
    </g>
    <g
       transform="matrix(3.6387423,0,0,-3.6387423,677.81885,547.18427)"
       id="g938">
      <path
         id="path940"
         style="fill:#bab115;fill-opacity:1;fill-rule:nonzero;stroke:none"
         d="m 0,0 c -0.159,0.108 -0.308,0.086 -0.487,0.062 -0.443,-0.06 -0.416,-0.71 -0.056,-0.863 0.002,-0.002 0.003,-0.004 0.005,-0.006 0.171,-0.145 0.428,-0.175 0.596,0 0.013,0.015 0.027,0.03 0.041,0.043 C 0.326,-0.525 0.262,-0.178 0,0" />
    </g>
    <g
       transform="matrix(3.6387423,0,0,-3.6387423,587.59298,742.35077)"
       id="g942">
      <path
         id="path944"
         style="fill:#36443b;fill-opacity:1;fill-rule:nonzero;stroke:none"
         d="m 0,0 c -1.512,1.54 -4.228,0.889 -5.44,-0.882 -1.075,0.936 -1.924,1.457 -3.758,1.143 -0.343,-0.059 -0.617,-0.192 -0.862,-0.353 0.204,-0.453 0.447,-0.894 0.721,-1.327 0.144,0.117 0.31,0.22 0.524,0.289 1.398,0.449 2.203,-0.745 3.08,-1.533 0.423,-0.38 1.116,-0.237 1.278,0.338 0.369,1.308 2.83,2.537 3.717,0.685 0.278,-0.58 1.028,-0.422 1.342,0 0.632,0.999 1.561,1.257 2.778,0.795 0.311,0.637 0.57,1.3 0.782,1.984 C 2.525,1.687 1.146,1.155 0,0" />
    </g>
    <g
       transform="matrix(3.6387423,0,0,-3.6387423,688.18054,732.90931)"
       id="g946">
      <path
         id="path948"
         style="fill:#36443b;fill-opacity:1;fill-rule:nonzero;stroke:none"
         d="m 0,0 c 0.113,0.233 0.212,0.473 0.312,0.711 -0.195,0.15 -0.405,0.29 -0.631,0.415 -0.832,0.458 -1.967,0.223 -2.828,0.026 -0.796,-0.181 -1.189,-0.796 -1.548,-1.431 -1.92,2.375 -5.301,1.404 -6.813,-1.271 -0.967,0.779 -1.813,1.207 -3.369,0.459 -0.198,-0.096 -0.357,-0.208 -0.497,-0.327 0.275,-0.721 0.64,-1.387 1.119,-1.97 0.415,1.854 1.265,0.993 2.472,-0.024 0.47,-0.397 1.148,-0.25 1.347,0.356 0.906,2.751 3.948,3.232 5.007,0.796 0.201,-0.461 0.992,-0.559 1.302,-0.168 0.145,0.179 0.287,0.36 0.427,0.542 0.533,0.979 1.835,0.884 2.731,0.269 C -0.606,-1.113 -0.279,-0.574 0,0" />
    </g>
    <g
       transform="matrix(3.6387423,0,0,-3.6387423,220.31434,695.70463)"
       id="g950">
      <path
         id="path952"
         style="fill:#36443b;fill-opacity:1;fill-rule:nonzero;stroke:none"
         d="m 0,0 c -0.753,0.262 -1.751,0.114 -2.447,-0.239 -0.64,-0.324 -0.878,-0.795 -1.18,-1.271 -0.769,0.758 -1.82,1.209 -2.974,0.729 -1.381,-0.575 -1.973,-1.168 -2.412,-2.206 -1.513,0.93 -3.204,0.605 -4.233,-0.523 0.019,-0.027 0.034,-0.055 0.054,-0.083 0.268,-0.379 0.593,-0.775 0.949,-1.166 0.72,0.922 1.791,1.259 3.048,-0.119 0.419,-0.458 1.157,-0.194 1.327,0.351 0.461,1.474 2.315,3.323 3.526,1.297 0.283,-0.473 0.894,-0.518 1.288,-0.166 0.947,0.843 1.896,1.717 2.75,1.618 0.208,0.547 0.397,1.105 0.559,1.675 C 0.169,-0.069 0.089,-0.03 0,0" />
    </g>
    <g
       transform="matrix(3.6387423,0,0,-3.6387423,307.32103,708.62507)"
       id="g954">
      <path
         id="path956"
         style="fill:#36443b;fill-opacity:1;fill-rule:nonzero;stroke:none"
         d="m 0,0 c -0.927,0.677 -1.74,1.013 -3.263,0.525 -1.415,-0.453 -1.484,-1.571 -1.681,-2.686 -1.258,0.578 -2.66,0.661 -3.827,-0.304 -0.243,-0.2 -0.438,-0.496 -0.597,-0.828 0.377,-0.434 0.779,-0.839 1.203,-1.213 0.397,1.19 1.995,1.341 3.334,0.411 0.474,-0.328 1.017,0.038 1.197,0.488 0.237,0.588 0.152,1.12 0.253,1.749 0.453,2.808 2.721,0.297 3.252,-0.117 0.451,-0.352 1.233,-0.306 1.381,0.365 0.333,1.509 1.407,2.288 2.392,2.197 C 3.708,1.192 3.731,1.791 3.717,2.372 3.66,2.384 3.609,2.401 3.552,2.413 1.615,2.791 0.558,1.489 0,0" />
    </g>
  </g>
</svg>
