<?xml version="1.0" encoding="UTF-8" standalone="no"?>
<svg
   xmlns:dc="http://purl.org/dc/elements/1.1/"
   xmlns:cc="http://creativecommons.org/ns#"
   xmlns:rdf="http://www.w3.org/1999/02/22-rdf-syntax-ns#"
   xmlns:svg="http://www.w3.org/2000/svg"
   xmlns="http://www.w3.org/2000/svg"
   version="1.1"
   id="svg10405"
   viewBox="0 0 661.38485 1007.4101"
   height="284.31351mm"
   width="186.6575mm">
  <defs
     id="defs10407" />
  <metadata
     id="metadata10410">
    <rdf:RDF>
      <cc:Work
         rdf:about="">
        <dc:format>image/svg+xml</dc:format>
        <dc:type
           rdf:resource="http://purl.org/dc/dcmitype/StillImage" />
        <dc:title></dc:title>
      </cc:Work>
    </rdf:RDF>
  </metadata>
  <g
     transform="translate(-57.909578,-24.371427)"
     id="layer1">
    <g
       transform="matrix(2.7967004,0,0,-2.7967004,533.17079,777.17631)"
       id="g22">
      <path
         id="path24"
         style="fill:#e65f25;fill-opacity:1;fill-rule:nonzero;stroke:none"
         d="m 0,0 c 0.259,3.73 -0.211,7.479 -0.209,11.209 0.002,4.229 -0.341,8.228 -0.923,12.409 -1.029,7.389 -4.981,13.755 -11.833,17.033 -2.848,1.364 -5.656,3.673 -8.935,3.649 -1.966,-0.015 -4.764,-0.578 -6.128,-2.235 -0.494,0.001 -1.039,-0.432 -0.821,-0.977 0.349,-0.872 1.035,-1.483 1.612,-2.222 1.227,-1.573 2.323,-3.218 3.369,-4.916 1.999,-3.25 3.511,-6.803 4.859,-10.352 2.638,-6.94 4.645,-13.991 6.005,-21.296 2.697,-14.488 3.588,-29.333 4.35,-44.025 0.354,-6.825 0.987,-13.673 0.717,-20.525 -0.101,-2.556 0.021,-4.747 1.648,-6.81 1.361,-1.726 2.389,-0.162 3.079,1.071 1.428,2.545 1.517,6.464 1.989,9.293 0.232,1.384 0.038,2.879 0.208,4.287 0.238,1.966 0.273,4.019 0.321,5.999 0.081,3.286 0.283,6.639 0.584,9.911 0.367,3.996 -0.118,8.065 -0.117,12.073 C -0.222,-17.644 -0.607,-8.759 0,0" />
    </g>
    <g
       transform="matrix(2.7967004,0,0,-2.7967004,392.0739,643.24037)"
       id="g26">
      <path
         id="path28"
         style="fill:#e65f25;fill-opacity:1;fill-rule:nonzero;stroke:none"
         d="m 0,0 c -2.424,1.928 -8.973,5.011 -9.489,0.344 -0.227,-0.192 -0.333,-0.499 -0.115,-0.839 0.039,-0.061 0.066,-0.13 0.103,-0.192 0.029,-0.207 0.127,-0.386 0.276,-0.512 1.629,-3.098 1.73,-7.218 2.101,-10.551 0.445,-3.993 0.457,-7.905 0.379,-11.92 -0.153,-7.843 -1.04,-15.469 -2.578,-23.167 -0.725,-3.62 -1.205,-7.285 -2.016,-10.887 -0.877,-3.897 -2.332,-7.627 -3.281,-11.497 -0.843,-3.434 -2.441,-6.764 -3.514,-10.144 -1.217,-3.832 -2.765,-7.552 -4.271,-11.277 -2.043,-5.053 -5.047,-10.474 -4.082,-16.105 0.205,-1.197 1.612,-1.846 2.626,-1.085 2.36,1.77 3.607,4.796 4.887,7.355 3.477,6.952 7.114,13.805 10.523,20.792 3.082,6.317 7.082,12.469 9.42,19.11 1.288,3.66 3.62,7.028 5.377,10.482 1.721,3.388 2.964,7.309 4.208,10.9 1.165,3.362 2.624,6.548 3.091,10.108 0.517,3.954 -0.542,8.126 -1.754,11.854 C 9.701,-10.504 5.524,-4.395 0,0" />
    </g>
    <g
       transform="matrix(2.7967004,0,0,-2.7967004,526.32923,952.27041)"
       id="g30">
      <path
         id="path32"
         style="fill:#e65f25;fill-opacity:1;fill-rule:nonzero;stroke:none"
         d="m 0,0 c -0.927,0.729 -2.041,0.672 -3.104,0.351 -1.677,-0.185 -3.354,-0.99 -5.042,-1.385 -3.029,-0.709 -5.981,-1.657 -8.99,-2.43 -5.958,-1.531 -12.374,-1.888 -18.159,-3.982 -0.872,-0.316 -2.483,-1.214 -2.146,-2.44 0.443,-1.609 2.314,-1.318 3.571,-1.07 2.854,0.563 5.721,1.065 8.557,1.722 1.404,0.325 2.797,0.686 4.2,1.02 0.735,0.176 2.796,0.806 4.067,0.762 -0.554,-0.325 -1.238,-0.55 -1.711,-0.764 -1.79,-0.806 -3.625,-1.434 -5.501,-2.008 -2.776,-0.849 -5.634,-1.736 -8.271,-2.964 -2.024,-0.942 -4.44,-2.023 -5.301,-4.235 -0.566,-1.453 1.375,-2.702 2.559,-2.767 2.442,-0.136 4.78,0.904 6.984,1.837 3.293,1.394 6.325,3.068 9.469,4.752 1.477,0.792 2.975,1.523 4.418,2.379 0.885,0.527 1.771,1 2.725,1.399 0.3,-0.176 0.6,-0.353 0.899,-0.529 -0.359,-0.325 -0.71,-0.659 -1.054,-1 -2.476,-2.395 -5.528,-4.236 -8.115,-6.526 -2.043,-1.809 -8.784,-7.666 -4.49,-10.222 1.801,-1.071 4.528,0.721 5.941,1.701 2.622,1.815 4.77,4.222 6.887,6.589 2.37,2.652 4.742,5.3 7.074,7.986 1.912,2.203 3.96,4.239 5.519,6.722 C 2.121,-3.293 1.618,-1.272 0,0" />
    </g>
    <g
       transform="matrix(2.7967004,0,0,-2.7967004,326.14672,931.90431)"
       id="g34">
      <path
         id="path36"
         style="fill:#e65f25;fill-opacity:1;fill-rule:nonzero;stroke:none"
         d="m 0,0 c -1.587,0.572 -3.446,0.588 -5.137,0.976 -3.031,0.697 -6.099,1.145 -9.14,1.776 -6.025,1.248 -11.942,3.752 -18.059,4.418 -0.922,0.101 -2.764,0.003 -3.001,-1.245 -0.31,-1.641 1.498,-2.203 2.735,-2.533 2.812,-0.751 5.606,-1.563 8.441,-2.221 1.404,-0.327 2.814,-0.616 4.221,-0.934 0.738,-0.165 2.865,-0.507 3.988,-1.106 -0.641,-0.048 -1.355,0.052 -1.873,0.067 -1.962,0.065 -3.887,0.308 -5.823,0.619 -2.867,0.459 -5.823,0.921 -8.732,0.981 -2.231,0.044 -4.877,0.137 -6.624,-1.47 -1.147,-1.056 0.045,-3.031 1.08,-3.612 2.132,-1.196 4.69,-1.291 7.079,-1.424 3.571,-0.198 7.03,-0.03 10.594,0.099 1.676,0.06 3.342,0.057 5.015,0.191 1.026,0.083 2.03,0.118 3.062,0.056 0.193,-0.29 0.383,-0.58 0.574,-0.87 -0.464,-0.134 -0.927,-0.28 -1.386,-0.434 -3.278,-1.062 -6.828,-1.37 -10.16,-2.288 -2.63,-0.725 -11.261,-3.016 -8.531,-7.201 1.146,-1.755 4.383,-1.346 6.083,-1.089 3.154,0.475 6.142,1.691 9.084,2.886 3.296,1.337 6.591,2.67 9.867,4.055 2.687,1.137 5.422,2.063 7.916,3.607 1.815,1.124 2.253,3.16 1.361,5.014 C 2.122,-0.619 1.097,-0.18 0,0" />
    </g>
    <g
       transform="matrix(2.7967004,0,0,-2.7967004,666.54655,483.53897)"
       id="g38">
      <path
         id="path40"
         style="fill:#36443b;fill-opacity:1;fill-rule:nonzero;stroke:none"
         d="m 0,0 c -0.234,3.172 -2.123,5.421 -4.349,7.529 -4.742,4.494 -11.878,6.701 -17.936,8.781 -7.473,2.563 -15.054,4.763 -22.786,6.393 -15.262,3.218 -30.88,3.069 -46.291,1.14 -4.957,-0.621 -9.91,-1.268 -14.828,-2.16 -5.413,-0.983 -10.508,-2.618 -15.732,-4.277 -2.308,-0.733 -4.32,-1.987 -6.582,-2.782 -2.19,-0.77 -4.39,-1.806 -6.373,-3.004 -1.732,-1.047 -3.603,-1.918 -5.337,-2.937 -0.186,0.3 -0.594,0.455 -0.922,0.121 -0.82,-0.834 -2.038,-1.356 -2.92,-2.18 -0.903,-0.844 -1.527,-2.056 -2.06,-3.146 -1.331,-2.724 -1.87,-5.879 -2.074,-8.875 -0.499,-7.353 2.161,-14.819 4.886,-21.513 5.33,-13.093 14.156,-25.67 25.323,-34.41 5.293,-4.144 11.496,-7.319 17.791,-9.622 3.408,-1.248 7.04,-1.874 10.594,-2.561 3.263,-0.631 6.585,-0.525 9.894,-0.738 3.18,-0.204 6.717,0.435 9.857,0.936 3.812,0.609 7.396,1.493 10.977,2.955 6.408,2.615 12.705,6.53 18.364,10.486 11.601,8.11 22.616,18.498 29.893,30.717 3.704,6.218 6.796,12.978 9.226,19.792 C -0.288,-6.282 0.241,-3.265 0,0" />
    </g>
    <g
       transform="matrix(2.7967004,0,0,-2.7967004,600.97988,602.12019)"
       id="g42">
      <path
         id="path44"
         style="fill:#5b7866;fill-opacity:1;fill-rule:nonzero;stroke:none"
         d="m 0,0 c -0.625,3.253 -2.438,6.331 -4.015,9.205 -1.739,3.168 -3.512,6.112 -5.763,8.959 -3.231,4.086 -6.751,8.224 -10.625,11.711 -3.722,3.349 -8.868,6.022 -13.363,8.169 -4.912,2.347 -9.662,4.572 -15.163,5.156 -5.397,0.572 -11.002,0.485 -16.366,-0.432 -3.94,-0.674 -8.942,-1.879 -11.293,-5.469 -2.876,-4.393 -4.516,-8.705 -5.727,-13.806 -0.985,-4.144 0.564,-9.099 2.062,-12.993 0.13,-0.407 0.266,-0.812 0.408,-1.21 1.175,-3.274 2.163,-6.385 4.089,-9.33 7.587,-11.607 21.423,-16.108 34.266,-18.783 3.479,-0.725 7.014,-1.317 10.538,-1.781 3.996,-0.528 7.867,-0.527 11.891,-0.49 5.502,0.052 11.014,1.426 15.357,4.908 C 1.384,-12.106 1.117,-5.819 0,0" />
    </g>
    <g
       transform="matrix(2.7967004,0,0,-2.7967004,717.49909,486.374)"
       id="g46">
      <path
         id="path48"
         style="fill:#5b7866;fill-opacity:1;fill-rule:nonzero;stroke:none"
         d="m 0,0 c -0.52,0.979 -1.097,1.704 -1.99,2.37 -0.383,0.285 -0.788,0.526 -1.195,0.776 0.276,-0.17 0.342,0.212 0.366,0.488 0.215,2.547 0.575,4.468 -0.989,6.69 -1.369,1.947 -3.7,3.115 -5.896,3.845 -1.033,0.344 -2.144,0.201 -3.182,-0.008 -1.347,-0.27 -1.189,1.662 -1.478,2.627 -0.598,1.991 -2.832,3.562 -4.825,3.77 -6.371,0.664 -10.418,-5.125 -11.514,-10.851 -1.722,-4.414 -2.814,-8.98 -3.237,-13.823 -0.445,-5.08 -0.415,-11.238 3.36,-15.111 3.217,-3.299 9.6,-4.791 13.276,-1.534 0.54,0.479 1.184,1.646 1.234,2.395 -0.018,-0.272 2.392,-0.331 2.889,-0.287 2.616,0.227 4.841,1.022 6.503,3.119 1.113,1.404 1.876,3.971 1.211,5.71 -0.095,0.248 2.059,0.806 2.477,1.045 1.261,0.717 2.077,1.55 2.772,2.827 C 0.773,-4.134 0.988,-1.864 0,0" />
    </g>
    <g
       transform="matrix(2.7967004,0,0,-2.7967004,627.19894,613.03124)"
       id="g50">
      <path
         id="path52"
         style="fill:#d7ceaf;fill-opacity:1;fill-rule:nonzero;stroke:none"
         d="m 0,0 c -0.08,1.067 -0.661,2.306 -1.383,3.097 -0.62,0.68 -3.772,2.202 -3.701,3.01 0.229,2.559 -0.914,4.55 -3.007,5.963 -2.464,1.664 -6.349,0.555 -8.871,-0.335 -6.703,-2.364 -10.446,-8.028 -14.126,-13.64 -2.06,-3.143 -3.683,-6.531 -4.485,-10.212 -0.373,-1.713 -0.806,-3.68 -0.869,-5.43 -0.043,-1.181 0.262,-2.322 0.61,-3.451 0.179,-1.367 0.635,-2.667 1.79,-3.53 2.053,-1.535 4.401,-1.837 6.877,-1.34 2.828,0.568 4.67,1.631 6.657,3.512 1.029,-0.626 1.877,-1.354 3.153,-1.531 1.739,-0.241 3.427,0.192 5.072,0.68 2.387,0.709 4.805,2.526 4.968,5.213 0.024,0.402 2.935,1.176 3.472,1.471 1.143,0.627 2.132,1.725 2.545,2.964 0.47,1.406 0.472,3.101 0.206,4.558 -0.264,1.443 -0.699,1.975 -1.566,2.746 C -0.95,-4.357 0.223,-2.966 0,0" />
    </g>
    <g
       transform="matrix(2.7967004,0,0,-2.7967004,335.6046,441.37285)"
       id="g54">
      <path
         id="path56"
         style="fill:#d7ceaf;fill-opacity:1;fill-rule:nonzero;stroke:none"
         d="m 0,0 c -0.898,1.23 -1.867,1.521 -3.107,1.887 0.213,0.904 0.406,1.681 0.169,2.709 -0.302,1.311 -1.721,2.755 -2.781,3.459 -1.267,0.842 -2.522,1.268 -4.039,1.35 -0.596,0.033 -1.513,-0.137 -2.041,-0.377 -0.107,-0.049 -1.099,1.239 -1.221,1.365 -2.013,2.097 -4.499,2.749 -7.323,1.961 -3.328,-0.926 -5.081,-2.96 -5.887,-6.063 -2.704,0.572 -5.683,0.55 -7.577,-1.749 -1.735,-2.104 -1.67,-4.342 -1.237,-6.655 -3.882,-0.947 -6.962,-4.493 -7.272,-8.593 -0.32,-4.224 2.267,-7.692 6.312,-8.244 -1.84,-6.469 5.51,-11.324 11.484,-7.9 0.692,0.397 0.138,1.092 0.711,0.391 0.598,-0.732 1.265,-1.144 2.086,-1.59 1.198,-0.65 3.212,-0.42 4.407,0.087 1.387,0.59 3.123,1.175 3.94,2.57 0.362,0.619 0.509,1.582 0.572,2.471 2.825,-0.85 5.778,-0.401 8.38,1.201 3.053,1.881 3.792,6.265 3.653,9.513 -0.027,0.632 -0.74,1.39 -0.041,1.839 0.546,0.352 0.862,0.594 1.325,1.081 1.058,1.115 2.024,2.711 1.709,4.311 C 1.844,-3.061 1.15,-1.574 0,0" />
    </g>
    <g
       transform="matrix(2.7967004,0,0,-2.7967004,299.81019,444.65003)"
       id="g58">
      <path
         id="path60"
         style="fill:#f0dac3;fill-opacity:1;fill-rule:nonzero;stroke:none"
         d="m 0,0 c -0.877,1.286 -2.137,2.287 -3.069,3.537 -1.163,1.561 -1.931,3.44 -2.923,5.11 -3.862,6.499 -6.608,13.409 -8.93,20.582 -2.285,7.06 -4.39,14.409 -6.078,21.63 -1.727,7.39 -2.784,15.124 -3.439,22.681 -0.686,7.909 -0.888,15.951 -0.14,23.86 0.325,3.445 1.256,6.605 1.933,9.973 0.344,1.708 0.88,3.34 2.115,4.615 1.335,1.378 3.088,2.469 4.497,3.796 4.962,4.671 8.787,10.571 10.656,17.142 1.072,3.768 0.494,7.9 -0.917,11.503 -1.221,3.116 -4.452,4.432 -7.441,5.202 -3.691,0.951 -7.622,0.824 -11.267,-0.201 -3.561,-1.003 -7.474,-2.596 -10.475,-4.769 -6.644,-4.811 -14.858,-9.565 -18.541,-17.288 -1.28,-2.686 -1.662,-6.418 -1.022,-9.435 0.553,-3.748 2.298,-7.316 6.008,-8.562 2.867,-0.964 6.045,-0.452 8.93,0.048 1.591,0.275 3.134,0.378 4.736,0.502 1.965,0.152 0.355,-4.709 0.157,-5.866 -1.076,-6.295 -0.687,-12.979 -0.687,-19.345 -0.001,-7.148 0.735,-14.373 1.418,-21.476 1.391,-14.45 3.817,-28.912 7.206,-43.048 1.627,-6.79 2.799,-13.581 5.937,-19.897 2.612,-5.258 5.835,-12.302 11.893,-14.377 5.048,-1.73 10.775,1.606 11.911,6.846 C 3.022,-4.678 1.363,-2 0,0" />
    </g>
    <g
       transform="matrix(2.7967004,0,0,-2.7967004,245.52286,75.313564)"
       id="g62">
      <path
         id="path64"
         style="fill:#3f2322;fill-opacity:1;fill-rule:nonzero;stroke:none"
         d="m 0,0 c -0.395,0.053 -0.795,-0.007 -1.271,-0.357 -0.879,-0.647 -1.324,-1.751 -1.57,-2.779 -0.482,-2.019 1.307,-4.821 3.666,-4.097 1.211,0.371 2.035,0.89 2.713,1.994 0.654,1.065 0.879,2.576 0.371,3.735 C 3.147,0.234 1.396,0.635 0,0" />
    </g>
    <g
       transform="matrix(2.7967004,0,0,-2.7967004,166.51607,53.639144)"
       id="g66">
      <path
         id="path68"
         style="fill:#3f2322;fill-opacity:1;fill-rule:nonzero;stroke:none"
         d="m 0,0 c -0.395,0.053 -0.795,-0.007 -1.271,-0.357 -0.879,-0.647 -1.324,-1.751 -1.57,-2.779 -0.482,-2.019 1.307,-4.821 3.666,-4.097 1.211,0.371 2.035,0.89 2.713,1.994 0.654,1.065 0.879,2.576 0.371,3.735 C 3.147,0.234 1.396,0.635 0,0" />
    </g>
    <g
       transform="matrix(2.7967004,0,0,-2.7967004,198.93766,105.94079)"
       id="g70">
      <path
         id="path72"
         style="fill:#e66021;fill-opacity:1;fill-rule:nonzero;stroke:none"
         d="m 0,0 c -2.871,0.741 -5.012,-0.688 -7.302,2.055 -0.197,0.236 -0.439,0.258 -0.641,0.164 -0.548,0.432 -1.096,0.877 -1.666,1.307 -1.726,1.304 -4.083,3.303 -6.329,3.536 -2.6,0.268 -4.622,-0.713 -6.874,-1.888 -3.219,-1.677 -6.403,-3.2 -9.827,-4.43 -3.145,-1.129 -6.365,-2.051 -9.59,-2.926 -2.504,-0.679 -5.428,-0.72 -7.528,-2.384 -1.421,-1.125 -0.274,-2.883 0.623,-3.815 1.471,-1.527 4.497,-2.258 6.424,-2.956 11.63,-4.21 25.173,-5.085 37.117,-1.559 4.25,1.255 7.43,4.386 7.409,9 C 1.811,-2.449 1.724,-0.444 0,0" />
    </g>
    <g
       transform="matrix(2.7967004,0,0,-2.7967004,245.46833,86.303774)"
       id="g74">
      <path
         id="path76"
         style="fill:#643e39;fill-opacity:1;fill-rule:nonzero;stroke:none"
         d="M 0,0 C -0.011,0.041 -0.039,0.076 -0.059,0.113 -0.149,0.467 -0.363,0.793 -0.743,0.967 -1.097,1.127 -1.475,1.125 -1.78,0.971 -1.796,0.965 -1.812,0.963 -1.825,0.955 -1.866,0.936 -1.895,0.902 -1.931,0.877 -1.972,0.846 -2.017,0.824 -2.052,0.785 -2.294,0.547 -2.413,0.184 -2.448,-0.15 c -0.055,-0.506 0.381,-0.942 0.839,-1.139 0.021,-0.01 0.042,-0.016 0.064,-0.025 0.098,-0.036 0.195,-0.067 0.288,-0.079 0.004,0 0.006,0.002 0.008,0 0.14,-0.015 0.277,-0.007 0.411,0.024 0.067,0.014 0.125,0.041 0.185,0.066 0.07,0.028 0.135,0.061 0.199,0.102 0.023,0.017 0.048,0.033 0.07,0.053 C -0.062,-0.902 0.133,-0.5 0,0" />
    </g>
    <g
       transform="matrix(2.7967004,0,0,-2.7967004,243.87057,85.249684)"
       id="g78">
      <path
         id="path80"
         style="fill:#f6e1d0;fill-opacity:1;fill-rule:nonzero;stroke:none"
         d="M 0,0 C -1.002,0 -1.002,-1.555 0,-1.555 1.002,-1.555 1.002,0 0,0" />
    </g>
    <g
       transform="matrix(2.7967004,0,0,-2.7967004,249.84376,84.686984)"
       id="g82">
      <path
         id="path84"
         style="fill:#f6e1d0;fill-opacity:1;fill-rule:nonzero;stroke:none"
         d="M 0,0 C -0.71,0 -0.71,-1.102 0,-1.102 0.71,-1.102 0.71,0 0,0" />
    </g>
    <g
       transform="matrix(2.7967004,0,0,-2.7967004,247.75433,89.477464)"
       id="g86">
      <path
         id="path88"
         style="fill:#f6e1d0;fill-opacity:1;fill-rule:nonzero;stroke:none"
         d="M 0,0 C -0.57,0 -0.57,-0.883 0,-0.883 0.568,-0.883 0.568,0 0,0" />
    </g>
    <g
       transform="matrix(2.7967004,0,0,-2.7967004,166.71016,65.713634)"
       id="g90">
      <path
         id="path92"
         style="fill:#643e39;fill-opacity:1;fill-rule:nonzero;stroke:none"
         d="M 0,0 C -0.011,0.041 -0.039,0.076 -0.059,0.113 -0.149,0.467 -0.363,0.793 -0.743,0.967 -1.097,1.127 -1.475,1.125 -1.78,0.971 -1.796,0.965 -1.812,0.963 -1.825,0.955 -1.866,0.936 -1.895,0.902 -1.931,0.877 -1.972,0.846 -2.017,0.824 -2.052,0.785 -2.294,0.547 -2.413,0.184 -2.448,-0.15 c -0.055,-0.506 0.381,-0.942 0.839,-1.139 0.021,-0.01 0.042,-0.016 0.064,-0.025 0.098,-0.036 0.195,-0.067 0.288,-0.079 0.004,0 0.006,0.002 0.008,0 0.14,-0.015 0.277,-0.007 0.411,0.024 0.067,0.014 0.125,0.041 0.185,0.066 0.07,0.028 0.135,0.061 0.199,0.102 0.023,0.017 0.048,0.033 0.07,0.053 C -0.062,-0.902 0.133,-0.5 0,0" />
    </g>
    <g
       transform="matrix(2.7967004,0,0,-2.7967004,165.11239,64.659544)"
       id="g94">
      <path
         id="path96"
         style="fill:#f6e1d0;fill-opacity:1;fill-rule:nonzero;stroke:none"
         d="M 0,0 C -1.002,0 -1.002,-1.555 0,-1.555 1.002,-1.555 1.002,0 0,0" />
    </g>
    <g
       transform="matrix(2.7967004,0,0,-2.7967004,171.08532,64.096854)"
       id="g98">
      <path
         id="path100"
         style="fill:#f6e1d0;fill-opacity:1;fill-rule:nonzero;stroke:none"
         d="M 0,0 C -0.71,0 -0.71,-1.102 0,-1.102 0.71,-1.102 0.71,0 0,0" />
    </g>
    <g
       transform="matrix(2.7967004,0,0,-2.7967004,168.99618,68.887334)"
       id="g102">
      <path
         id="path104"
         style="fill:#f6e1d0;fill-opacity:1;fill-rule:nonzero;stroke:none"
         d="M 0,0 C -0.57,0 -0.57,-0.883 0,-0.883 0.568,-0.883 0.568,0 0,0" />
    </g>
    <g
       transform="matrix(2.7967004,0,0,-2.7967004,235.30286,106.15112)"
       id="g106">
      <path
         id="path108"
         style="fill:#f38c6b;fill-opacity:1;fill-rule:nonzero;stroke:none"
         d="m 0,0 c -0.066,0.547 -0.232,1.095 -0.489,1.655 -1.125,2.455 -4.66,2.741 -6.648,1.279 -1.16,-0.856 -2.184,-2.09 -2.1,-3.626 0.06,-1.105 0.478,-2.134 1.155,-2.971 0.043,-0.081 0.079,-0.162 0.127,-0.243 0.511,-0.869 1.342,-1.272 2.226,-1.641 1.159,-0.484 2.523,-0.083 3.589,0.402 1.398,0.635 2.133,2.149 2.323,3.577 C 0.254,-1.035 0.179,-0.505 0,0" />
    </g>
    <g
       transform="matrix(2.7967004,0,0,-2.7967004,190.05059,117.01575)"
       id="g110">
      <path
         id="path112"
         style="fill:#f8ad1c;fill-opacity:1;fill-rule:nonzero;stroke:none"
         d="m 0,0 c -2.405,-2.066 -4.783,-3.375 -7.892,-4.118 -3.195,-0.765 -6.402,-1.072 -9.663,-1.406 -5.195,-0.534 -10.695,0.18 -15.854,0.803 -0.44,0.053 -0.504,-0.637 -0.102,-0.752 5.813,-1.648 12.476,-1.741 18.438,-1.078 5.206,0.578 12.71,1.045 15.913,5.902 C 1.193,-0.113 0.437,0.376 0,0" />
    </g>
    <g
       transform="matrix(2.7967004,0,0,-2.7967004,327.94108,918.56241)"
       id="g114">
      <path
         id="path116"
         style="fill:#f8ad1c;fill-opacity:1;fill-rule:nonzero;stroke:none"
         d="m 0,0 c -0.239,0.257 -0.541,0.298 -0.86,0.418 -0.423,0.158 -0.693,-0.512 -0.304,-0.722 0.292,-0.157 0.58,-0.289 0.915,-0.297 C 0.068,-0.608 0.201,-0.218 0,0" />
    </g>
    <g
       transform="matrix(2.7967004,0,0,-2.7967004,329.0852,910.37731)"
       id="g118">
      <path
         id="path120"
         style="fill:#f8ad1c;fill-opacity:1;fill-rule:nonzero;stroke:none"
         d="M 0,0 C -0.366,0.153 -0.519,-0.393 -0.25,-0.593 -0.023,-0.76 0.242,-0.858 0.514,-0.924 0.796,-0.991 1.056,-1.167 1.346,-1.179 1.464,-1.184 1.609,-1.087 1.628,-0.964 1.766,-0.053 0.533,-0.223 0,0" />
    </g>
    <g
       transform="matrix(2.7967004,0,0,-2.7967004,337.04378,904.26761)"
       id="g122">
      <path
         id="path124"
         style="fill:#f8ad1c;fill-opacity:1;fill-rule:nonzero;stroke:none"
         d="m 0,0 c -0.29,0.488 -0.979,0.489 -1.461,0.317 -0.377,-0.134 -0.374,-0.626 0,-0.761 0.351,-0.127 0.848,-0.241 1.216,-0.159 C 0.015,-0.545 0.13,-0.22 0,0" />
    </g>
    <g
       transform="matrix(2.7967004,0,0,-2.7967004,341.43013,896.25731)"
       id="g126">
      <path
         id="path128"
         style="fill:#f8ad1c;fill-opacity:1;fill-rule:nonzero;stroke:none"
         d="m 0,0 c -0.257,0.145 -0.539,0.243 -0.805,0.372 -0.136,0.066 -0.276,0.117 -0.42,0.164 -0.127,0.041 -0.219,-0.02 -0.339,0.054 -0.413,0.254 -0.868,-0.336 -0.516,-0.669 0.24,-0.229 0.504,-0.25 0.783,-0.391 0.39,-0.194 0.755,-0.434 1.2,-0.272 C 0.219,-0.628 0.327,-0.184 0,0" />
    </g>
    <g
       transform="matrix(2.7967004,0,0,-2.7967004,344.93969,887.55031)"
       id="g130">
      <path
         id="path132"
         style="fill:#f8ad1c;fill-opacity:1;fill-rule:nonzero;stroke:none"
         d="m 0,0 c -0.531,0.585 -1.692,0.649 -2.413,0.458 -0.348,-0.093 -0.331,-0.585 0,-0.686 0.318,-0.096 0.642,-0.167 0.962,-0.254 0.381,-0.105 0.735,-0.314 1.137,-0.278 C 0.072,-0.726 0.275,-0.302 0,0" />
    </g>
    <g
       transform="matrix(2.7967004,0,0,-2.7967004,349.35318,879.50141)"
       id="g134">
      <path
         id="path136"
         style="fill:#f8ad1c;fill-opacity:1;fill-rule:nonzero;stroke:none"
         d="M 0,0 C -0.447,0.695 -1.512,1.077 -2.322,0.987 -2.796,0.935 -2.989,0.2 -2.443,0.09 c 0.402,-0.082 0.761,-0.218 1.136,-0.38 0.355,-0.152 0.597,-0.286 0.99,-0.263 C -0.054,-0.537 0.159,-0.248 0,0" />
    </g>
    <g
       transform="matrix(2.7967004,0,0,-2.7967004,352.3957,869.68581)"
       id="g138">
      <path
         id="path140"
         style="fill:#f8ad1c;fill-opacity:1;fill-rule:nonzero;stroke:none"
         d="m 0,0 c -0.58,0.583 -1.617,0.564 -2.376,0.43 -0.4,-0.072 -0.4,-0.736 0,-0.807 0.369,-0.065 0.743,-0.08 1.11,-0.155 0.401,-0.082 0.696,-0.202 1.104,-0.082 C 0.102,-0.535 0.197,-0.199 0,0" />
    </g>
    <g
       transform="matrix(2.7967004,0,0,-2.7967004,356.34773,861.00351)"
       id="g142">
      <path
         id="path144"
         style="fill:#f8ad1c;fill-opacity:1;fill-rule:nonzero;stroke:none"
         d="m 0,0 c -0.172,0.071 -0.26,0.166 -0.456,0.204 -0.268,0.053 -0.534,0.111 -0.801,0.173 -0.486,0.113 -0.98,0.207 -1.447,-0.012 -0.233,-0.108 -0.21,-0.47 0,-0.586 0.404,-0.222 0.891,-0.31 1.329,-0.448 0.21,-0.065 0.416,-0.128 0.634,-0.161 0.315,-0.048 0.452,0.016 0.741,0.115 0.369,0.126 0.335,0.577 0,0.715" />
    </g>
    <g
       transform="matrix(2.7967004,0,0,-2.7967004,359.90904,850.50771)"
       id="g146">
      <path
         id="path148"
         style="fill:#f8ad1c;fill-opacity:1;fill-rule:nonzero;stroke:none"
         d="m 0,0 c -0.457,0.252 -1.051,0.217 -1.562,0.247 -0.472,0.028 -1,-0.034 -1.325,-0.408 -0.192,-0.222 -0.013,-0.652 0.312,-0.535 0.328,0.117 0.927,-0.064 1.255,-0.116 C -0.85,-0.886 -0.443,-0.99 0,-0.775 0.305,-0.628 0.28,-0.154 0,0" />
    </g>
    <g
       transform="matrix(2.7967004,0,0,-2.7967004,364.83068,840.71931)"
       id="g150">
      <path
         id="path152"
         style="fill:#f8ad1c;fill-opacity:1;fill-rule:nonzero;stroke:none"
         d="M 0,0 C -0.715,0.123 -1.408,0.238 -2.118,0.396 -2.851,0.558 -3.16,-0.576 -2.427,-0.728 -1.596,-0.899 -0.698,-1.27 0.111,-0.856 0.456,-0.681 0.398,-0.069 0,0" />
    </g>
    <g
       transform="matrix(2.7967004,0,0,-2.7967004,370.05268,831.04551)"
       id="g154">
      <path
         id="path156"
         style="fill:#f8ad1c;fill-opacity:1;fill-rule:nonzero;stroke:none"
         d="m 0,0 c -0.496,0.163 -1.031,0.169 -1.549,0.206 -0.625,0.046 -1.214,0.073 -1.834,-0.025 -0.373,-0.06 -0.361,-0.669 0,-0.739 0.562,-0.108 1.126,-0.207 1.687,-0.32 C -1.133,-0.992 -0.563,-1.112 0,-0.949 0.481,-0.81 0.457,-0.15 0,0" />
    </g>
    <g
       transform="matrix(2.7967004,0,0,-2.7967004,373.06781,823.37361)"
       id="g158">
      <path
         id="path160"
         style="fill:#f8ad1c;fill-opacity:1;fill-rule:nonzero;stroke:none"
         d="m 0,0 c -0.518,0.331 -1.218,0.37 -1.812,0.502 -0.594,0.133 -1.197,0.275 -1.796,0.107 -0.405,-0.113 -0.369,-0.654 0,-0.783 0.624,-0.219 1.289,-0.345 1.922,-0.539 C -1.119,-0.886 -0.535,-1.005 0,-0.709 0.279,-0.554 0.252,-0.162 0,0" />
    </g>
    <g
       transform="matrix(2.7967004,0,0,-2.7967004,376.40257,812.73861)"
       id="g162">
      <path
         id="path164"
         style="fill:#f8ad1c;fill-opacity:1;fill-rule:nonzero;stroke:none"
         d="m 0,0 c -0.577,0.367 -1.398,0.396 -2.063,0.516 -0.61,0.11 -1.23,0.208 -1.793,-0.095 -0.222,-0.119 -0.204,-0.443 0,-0.567 0.514,-0.311 1.15,-0.373 1.728,-0.515 0.647,-0.16 1.347,-0.454 2.008,-0.261 C 0.309,-0.796 0.367,-0.234 0,0" />
    </g>
    <g
       transform="matrix(2.7967004,0,0,-2.7967004,380.73972,802.84081)"
       id="g166">
      <path
         id="path168"
         style="fill:#f8ad1c;fill-opacity:1;fill-rule:nonzero;stroke:none"
         d="m 0,0 c -0.795,0.423 -1.675,0.432 -2.557,0.528 -0.672,0.076 -1.418,0.312 -2.085,0.215 -0.484,-0.07 -0.342,-0.702 0,-0.844 0.15,-0.061 0.196,-0.197 0.403,-0.222 0.51,-0.064 1.007,-0.258 1.519,-0.349 0.874,-0.155 1.735,-0.376 2.611,-0.163 C 0.27,-0.743 0.348,-0.185 0,0" />
    </g>
    <g
       transform="matrix(2.7967004,0,0,-2.7967004,383.27689,793.76801)"
       id="g170">
      <path
         id="path172"
         style="fill:#f8ad1c;fill-opacity:1;fill-rule:nonzero;stroke:none"
         d="m 0,0 c -0.772,0.312 -1.702,0.329 -2.524,0.44 -0.819,0.112 -1.626,0.154 -2.446,0.042 -0.404,-0.055 -0.389,-0.729 0,-0.798 0.832,-0.149 1.666,-0.282 2.497,-0.432 C -1.648,-0.898 -0.833,-1.129 0,-0.979 0.552,-0.88 0.411,-0.165 0,0" />
    </g>
    <g
       transform="matrix(2.7967004,0,0,-2.7967004,387.64952,782.67131)"
       id="g174">
      <path
         id="path176"
         style="fill:#f8ad1c;fill-opacity:1;fill-rule:nonzero;stroke:none"
         d="m 0,0 c -1.758,0.67 -4.112,0.921 -5.963,0.531 -0.409,-0.087 -0.398,-0.72 0,-0.814 0.918,-0.214 1.872,-0.258 2.805,-0.391 1.031,-0.145 1.992,-0.304 3.034,-0.239 C 0.416,-0.88 0.487,-0.186 0,0" />
    </g>
    <g
       transform="matrix(2.7967004,0,0,-2.7967004,391.29277,771.31251)"
       id="g178">
      <path
         id="path180"
         style="fill:#f8ad1c;fill-opacity:1;fill-rule:nonzero;stroke:none"
         d="m 0,0 c -0.869,0.256 -1.815,0.24 -2.715,0.346 -1.138,0.133 -2.29,0.312 -3.436,0.198 -0.488,-0.049 -0.693,-0.85 -0.126,-0.929 1.134,-0.156 2.265,-0.308 3.397,-0.49 C -1.93,-1.028 -0.946,-1.241 0,-1.002 0.51,-0.873 0.483,-0.143 0,0" />
    </g>
    <g
       transform="matrix(2.7967004,0,0,-2.7967004,394.35992,761.99111)"
       id="g182">
      <path
         id="path184"
         style="fill:#f8ad1c;fill-opacity:1;fill-rule:nonzero;stroke:none"
         d="M 0,0 C -1.121,0.52 -2.45,0.56 -3.669,0.682 -4.429,0.758 -5.692,0.974 -6.387,0.528 -6.51,0.449 -6.61,0.31 -6.601,0.156 c 0.003,-0.042 0.005,-0.083 0.008,-0.125 0.018,-0.28 0.278,-0.41 0.524,-0.3 0.135,0.061 0.507,-0.089 0.682,-0.106 0.662,-0.062 1.322,-0.132 1.979,-0.235 1.096,-0.173 2.198,-0.506 3.298,-0.233 C 0.256,-0.752 0.369,-0.172 0,0" />
    </g>
    <g
       transform="matrix(2.7967004,0,0,-2.7967004,398.36927,751.17287)"
       id="g186">
      <path
         id="path188"
         style="fill:#f8ad1c;fill-opacity:1;fill-rule:nonzero;stroke:none"
         d="M 0,0 C -1.017,0.43 -2.146,0.432 -3.241,0.396 -4.623,0.352 -6.013,0.58 -7.393,0.484 -7.746,0.46 -7.816,-0.016 -7.476,-0.13 -6.469,-0.467 -5.31,-0.832 -4.243,-0.873 -2.946,-0.924 -1.332,-1.354 -0.11,-0.85 0.204,-0.72 0.421,-0.178 0,0" />
    </g>
    <g
       transform="matrix(2.7967004,0,0,-2.7967004,400.86813,741.40091)"
       id="g190">
      <path
         id="path192"
         style="fill:#f8ad1c;fill-opacity:1;fill-rule:nonzero;stroke:none"
         d="m 0,0 c -1.207,0.513 -2.447,0.335 -3.733,0.381 -1.257,0.046 -2.692,0.125 -3.913,-0.139 -0.286,-0.062 -0.249,-0.462 0,-0.543 1.183,-0.383 2.146,-0.426 3.397,-0.552 1.296,-0.13 2.843,-0.394 4.122,-0.119 C 0.293,-0.881 0.427,-0.182 0,0" />
    </g>
    <g
       transform="matrix(2.7967004,0,0,-2.7967004,401.26414,732.22131)"
       id="g194">
      <path
         id="path196"
         style="fill:#f8ad1c;fill-opacity:1;fill-rule:nonzero;stroke:none"
         d="m 0,0 c -1.094,0.456 -2.448,0.253 -3.619,0.308 -1.277,0.059 -2.495,0.406 -3.768,0.197 -0.397,-0.066 -0.357,-0.668 0,-0.762 C -5.301,-0.802 -2.088,-1.765 0,-0.896 0.439,-0.714 0.438,-0.184 0,0" />
    </g>
    <g
       transform="matrix(2.7967004,0,0,-2.7967004,401.31614,722.02342)"
       id="g198">
      <path
         id="path200"
         style="fill:#f8ad1c;fill-opacity:1;fill-rule:nonzero;stroke:none"
         d="m 0,0 c -1.296,0.524 -2.73,0.392 -4.102,0.479 -0.84,0.055 -2.069,0.368 -2.867,0.072 -0.344,-0.128 -0.344,-0.573 0,-0.701 0.815,-0.302 1.532,-0.484 2.403,-0.554 1.45,-0.119 2.974,-0.433 4.423,-0.347 C 0.488,-1.014 0.551,-0.223 0,0" />
    </g>
    <g
       transform="matrix(2.7967004,0,0,-2.7967004,401.72866,711.95894)"
       id="g202">
      <path
         id="path204"
         style="fill:#f8ad1c;fill-opacity:1;fill-rule:nonzero;stroke:none"
         d="M 0,0 C -1.38,0.481 -2.9,0.212 -4.321,0.453 -5.32,0.623 -6.307,0.852 -7.286,0.485 -7.744,0.313 -7.72,-0.474 -7.162,-0.428 -4.822,-0.236 -2.362,-1.766 0,-1.07 0.548,-0.909 0.509,-0.178 0,0" />
    </g>
    <g
       transform="matrix(2.7967004,0,0,-2.7967004,400.93635,701.51772)"
       id="g206">
      <path
         id="path208"
         style="fill:#f8ad1c;fill-opacity:1;fill-rule:nonzero;stroke:none"
         d="m 0,0 c -1.225,0.375 -2.683,0.357 -3.956,0.38 -1.243,0.022 -2.505,0.071 -3.734,-0.15 -0.345,-0.062 -0.344,-0.629 0,-0.693 1.23,-0.224 2.486,-0.379 3.734,-0.455 C -2.666,-0.997 -1.278,-1.391 0,-1.092 0.565,-0.96 0.517,-0.157 0,0" />
    </g>
    <g
       transform="matrix(2.7967004,0,0,-2.7967004,399.32238,690.75966)"
       id="g210">
      <path
         id="path212"
         style="fill:#f8ad1c;fill-opacity:1;fill-rule:nonzero;stroke:none"
         d="m 0,0 c -2.194,0.76 -4.864,0.395 -7.161,0.665 -0.538,0.064 -0.643,-0.816 -0.127,-0.936 2.212,-0.512 4.877,-1.035 7.142,-0.803 C 0.465,-1.012 0.604,-0.209 0,0" />
    </g>
    <g
       transform="matrix(2.7967004,0,0,-2.7967004,381.97418,682.4297)"
       id="g214">
      <path
         id="path216"
         style="fill:#f8ad1c;fill-opacity:1;fill-rule:nonzero;stroke:none"
         d="M 0,0 C -0.382,0.104 -0.876,0.017 -1.214,0.225 -1.554,0.434 -1.881,-0.031 -1.626,-0.309 -1.21,-0.762 -0.575,-0.862 0,-0.709 0.352,-0.614 0.35,-0.096 0,0" />
    </g>
    <g
       transform="matrix(2.7967004,0,0,-2.7967004,520.31798,948.86461)"
       id="g218">
      <path
         id="path220"
         style="fill:#f8ad1c;fill-opacity:1;fill-rule:nonzero;stroke:none"
         d="m 0,0 c -0.555,0.42 -0.958,0.193 -1.571,0.11 -0.401,-0.054 -0.401,-0.752 0,-0.806 0.475,-0.065 0.92,0.043 1.399,0.063 C 0.188,-0.617 0.262,-0.198 0,0" />
    </g>
    <g
       transform="matrix(2.7967004,0,0,-2.7967004,520.96234,940.89511)"
       id="g222">
      <path
         id="path224"
         style="fill:#f8ad1c;fill-opacity:1;fill-rule:nonzero;stroke:none"
         d="m 0,0 c -0.539,0.19 -1.118,0.109 -1.672,0.026 -0.445,-0.066 -0.445,-0.83 0,-0.896 C -1.118,-0.953 -0.539,-1.034 0,-0.844 0.416,-0.697 0.416,-0.146 0,0" />
    </g>
    <g
       transform="matrix(2.7967004,0,0,-2.7967004,520.92433,932.22371)"
       id="g226">
      <path
         id="path228"
         style="fill:#f8ad1c;fill-opacity:1;fill-rule:nonzero;stroke:none"
         d="m 0,0 c -0.645,0.199 -1.283,0.186 -1.939,0.061 -0.431,-0.083 -0.431,-0.785 0,-0.868 0.29,-0.054 0.577,-0.084 0.872,-0.104 0.202,-0.015 0.377,-0.125 0.595,-0.054 0.204,0.068 0.373,0.163 0.565,0.258 C 0.408,-0.552 0.3,-0.093 0,0" />
    </g>
    <g
       transform="matrix(2.7967004,0,0,-2.7967004,522.04131,923.02791)"
       id="g230">
      <path
         id="path232"
         style="fill:#f8ad1c;fill-opacity:1;fill-rule:nonzero;stroke:none"
         d="m 0,0 c -0.866,0.393 -1.777,0.441 -2.56,-0.172 -0.292,-0.229 -0.107,-0.719 0.212,-0.803 0.322,-0.085 0.633,0.057 0.962,0.065 0.469,0.01 0.834,-0.045 1.284,0.132 C 0.199,-0.66 0.374,-0.171 0,0" />
    </g>
    <g
       transform="matrix(2.7967004,0,0,-2.7967004,522.54919,914.03141)"
       id="g234">
      <path
         id="path236"
         style="fill:#f8ad1c;fill-opacity:1;fill-rule:nonzero;stroke:none"
         d="M 0,0 C -0.392,0.203 -0.803,0.17 -1.23,0.118 -1.71,0.06 -2.204,0.012 -2.671,-0.118 c -0.447,-0.125 -0.463,-0.804 0,-0.92 0.416,-0.104 0.847,-0.097 1.272,-0.072 0.468,0.025 0.981,0.007 1.399,0.239 0.321,0.178 0.336,0.697 0,0.871" />
    </g>
    <g
       transform="matrix(2.7967004,0,0,-2.7967004,522.63953,903.28991)"
       id="g238">
      <path
         id="path240"
         style="fill:#f8ad1c;fill-opacity:1;fill-rule:nonzero;stroke:none"
         d="M 0,0 C -0.244,0 -0.465,0.071 -0.712,0.05 -0.957,0.028 -1.206,0.022 -1.452,0.018 -1.925,0.009 -2.386,0.01 -2.853,-0.071 c -0.484,-0.084 -0.474,-0.872 0,-0.965 0.524,-0.102 1.054,-0.153 1.586,-0.163 0.603,-0.012 0.984,0.114 1.474,0.434 C 0.54,-0.546 0.423,0 0,0" />
    </g>
    <g
       transform="matrix(2.7967004,0,0,-2.7967004,523.3496,895.61261)"
       id="g242">
      <path
         id="path244"
         style="fill:#f8ad1c;fill-opacity:1;fill-rule:nonzero;stroke:none"
         d="M 0,0 C -0.463,0.267 -0.901,0.067 -1.398,0.04 -1.955,0.01 -2.561,0.033 -3.09,-0.157 c -0.416,-0.15 -0.416,-0.695 0,-0.844 0.517,-0.186 1.144,-0.192 1.692,-0.197 0.439,-0.004 1.035,0.073 1.398,0.327 0.302,0.211 0.35,0.67 0,0.871" />
    </g>
    <g
       transform="matrix(2.7967004,0,0,-2.7967004,522.13948,888.02551)"
       id="g246">
      <path
         id="path248"
         style="fill:#f8ad1c;fill-opacity:1;fill-rule:nonzero;stroke:none"
         d="m 0,0 c -1.002,0.455 -2.111,-0.082 -3.147,0.11 -0.458,0.085 -0.712,-0.484 -0.317,-0.75 0.472,-0.316 0.99,-0.334 1.544,-0.363 C -1.273,-1.037 -0.6,-1.13 0,-0.857 0.325,-0.709 0.325,-0.148 0,0" />
    </g>
    <g
       transform="matrix(2.7967004,0,0,-2.7967004,522.96702,879.22291)"
       id="g250">
      <path
         id="path252"
         style="fill:#f8ad1c;fill-opacity:1;fill-rule:nonzero;stroke:none"
         d="m 0,0 c -0.633,0.244 -1.08,0.242 -1.75,0.122 -0.615,-0.11 -1.239,-0.362 -1.77,-0.688 -0.299,-0.185 -0.339,-0.67 -0.011,-0.855 0.207,-0.19 0.531,-0.142 0.66,0.17 -0.147,-0.353 0.199,-0.115 0.373,-0.063 0.283,0.085 0.573,0.142 0.863,0.198 0.3,0.057 0.597,0.083 0.902,0.097 0.252,0.012 0.484,0.132 0.733,0.167 0.481,0.07 0.354,0.715 0,0.852" />
    </g>
    <g
       transform="matrix(2.7967004,0,0,-2.7967004,524.17969,871.14151)"
       id="g254">
      <path
         id="path256"
         style="fill:#f8ad1c;fill-opacity:1;fill-rule:nonzero;stroke:none"
         d="m 0,0 c -0.592,0.259 -1.212,0.202 -1.85,0.185 -0.656,-0.018 -1.338,-0.007 -1.971,-0.197 -0.437,-0.13 -0.437,-0.751 0,-0.881 0.633,-0.189 1.315,-0.178 1.971,-0.196 0.638,-0.017 1.258,-0.074 1.85,0.185 0.344,0.15 0.344,0.754 0,0.904" />
    </g>
    <g
       transform="matrix(2.7967004,0,0,-2.7967004,523.82198,863.01911)"
       id="g258">
      <path
         id="path260"
         style="fill:#f8ad1c;fill-opacity:1;fill-rule:nonzero;stroke:none"
         d="m 0,0 c -0.56,0.225 -1.234,0.122 -1.828,0.106 -0.653,-0.016 -1.243,-0.099 -1.87,-0.287 -0.547,-0.164 -0.379,-0.863 0.126,-0.928 0.551,-0.073 1.179,0.031 1.744,0.016 C -1.234,-1.108 -0.56,-1.211 0,-0.986 0.485,-0.793 0.485,-0.193 0,0" />
    </g>
    <g
       transform="matrix(2.7967004,0,0,-2.7967004,521.74347,854.38311)"
       id="g262">
      <path
         id="path264"
         style="fill:#f8ad1c;fill-opacity:1;fill-rule:nonzero;stroke:none"
         d="m 0,0 c -0.573,0.283 -1.271,0.187 -1.896,0.167 -0.455,-0.014 -1.02,0.061 -1.436,-0.144 -0.155,-0.075 -0.229,-0.252 -0.238,-0.414 0,-0.013 -0.001,-0.027 -0.002,-0.041 -0.017,-0.301 0.288,-0.484 0.556,-0.427 -0.002,-0.009 0.021,-0.016 0.083,-0.023 0.092,-0.02 0.183,-0.042 0.275,-0.064 0.252,-0.06 0.504,-0.076 0.762,-0.084 C -1.271,-1.05 -0.573,-1.146 0,-0.863 0.327,-0.702 0.327,-0.161 0,0" />
    </g>
    <g
       transform="matrix(2.7967004,0,0,-2.7967004,521.43221,844.95801)"
       id="g266">
      <path
         id="path268"
         style="fill:#f8ad1c;fill-opacity:1;fill-rule:nonzero;stroke:none"
         d="m 0,0 c -1.133,0.234 -2.192,-0.039 -3.267,-0.361 -0.425,-0.128 -0.431,-0.742 0,-0.868 0.519,-0.15 0.957,-0.021 1.482,0.004 0.67,0.033 1.302,-0.093 1.911,0.261 C 0.502,-0.745 0.457,-0.096 0,0" />
    </g>
    <g
       transform="matrix(2.7967004,0,0,-2.7967004,521.83379,836.15001)"
       id="g270">
      <path
         id="path272"
         style="fill:#f8ad1c;fill-opacity:1;fill-rule:nonzero;stroke:none"
         d="m 0,0 c -0.544,0.223 -1.285,0.208 -1.845,0.046 -0.62,-0.18 -1.236,-0.153 -1.857,-0.389 -0.391,-0.148 -0.499,-0.807 0,-0.904 0.51,-0.099 1.071,-0.019 1.592,-0.024 0.316,-0.002 0.625,0.114 0.938,0.114 0.407,0 0.792,-0.016 1.172,0.139 0.499,0.206 0.499,0.813 0,1.018" />
    </g>
    <g
       transform="matrix(2.7967004,0,0,-2.7967004,521.83912,826.83391)"
       id="g274">
      <path
         id="path276"
         style="fill:#f8ad1c;fill-opacity:1;fill-rule:nonzero;stroke:none"
         d="m 0,0 c -0.615,-0.005 -1.228,-0.155 -1.835,-0.249 -0.72,-0.11 -1.447,-0.082 -2.137,-0.339 -0.382,-0.141 -0.382,-0.634 0,-0.775 1.204,-0.448 3.163,-0.386 4.248,0.343 C 0.712,-0.726 0.57,0.004 0,0" />
    </g>
    <g
       transform="matrix(2.7967004,0,0,-2.7967004,521.04709,819.26861)"
       id="g278">
      <path
         id="path280"
         style="fill:#f8ad1c;fill-opacity:1;fill-rule:nonzero;stroke:none"
         d="m 0,0 c -0.738,0.15 -1.54,-0.015 -2.266,-0.16 -0.794,-0.159 -1.533,0.001 -2.213,-0.49 -0.273,-0.198 -0.204,-0.677 0.181,-0.67 0.823,0.014 1.638,-0.189 2.463,-0.083 0.73,0.093 1.494,-0.036 2.078,0.482 C 0.543,-0.654 0.396,-0.081 0,0" />
    </g>
    <g
       transform="matrix(2.7967004,0,0,-2.7967004,519.00158,811.41941)"
       id="g282">
      <path
         id="path284"
         style="fill:#f8ad1c;fill-opacity:1;fill-rule:nonzero;stroke:none"
         d="m 0,0 c -0.732,0.211 -1.529,0.134 -2.283,0.115 -0.381,-0.009 -0.76,-0.021 -1.14,-0.047 -0.225,-0.014 -0.349,-0.171 -0.56,-0.212 -0.592,-0.116 -0.375,-0.906 0.13,-0.966 0.177,-0.021 0.397,-0.021 0.555,0.076 0.175,0.106 0.803,-0.026 1.015,-0.03 C -1.529,-1.083 -0.732,-1.16 0,-0.949 0.47,-0.813 0.47,-0.136 0,0" />
    </g>
    <g
       transform="matrix(2.7967004,0,0,-2.7967004,517.75061,803.19851)"
       id="g286">
      <path
         id="path288"
         style="fill:#f8ad1c;fill-opacity:1;fill-rule:nonzero;stroke:none"
         d="M 0,0 C -0.68,0.207 -1.307,0.307 -2.025,0.18 -2.326,0.126 -2.596,0.001 -2.894,-0.051 -3.19,-0.102 -3.392,-0.336 -3.657,-0.445 c -0.426,-0.176 -0.364,-0.751 0.108,-0.798 0.431,-0.043 0.957,0.107 1.372,0.217 0.329,0.086 0.707,0.051 1.042,0.038 C -0.71,-1.006 -0.402,-0.925 0,-0.814 0.411,-0.701 0.395,-0.121 0,0" />
    </g>
    <g
       transform="matrix(2.7967004,0,0,-2.7967004,519.44402,794.05471)"
       id="g290">
      <path
         id="path292"
         style="fill:#f8ad1c;fill-opacity:1;fill-rule:nonzero;stroke:none"
         d="m 0,0 c -0.84,0.339 -2.014,0.156 -2.887,-0.001 -0.399,-0.071 -0.801,-0.062 -1.181,-0.218 -0.139,-0.056 -0.274,-0.135 -0.381,-0.243 -0.058,-0.058 -0.076,-0.087 -0.081,-0.104 -0.328,-0.201 -0.307,-0.749 0.105,-0.854 0.46,-0.117 0.922,0.134 1.416,0.108 0.465,-0.024 0.963,0.073 1.432,0.082 0.53,0.01 1.08,-0.026 1.577,0.175 0.518,0.209 0.519,0.846 0,1.055" />
    </g>
    <g
       transform="matrix(2.7967004,0,0,-2.7967004,518.2367,783.81851)"
       id="g294">
      <path
         id="path296"
         style="fill:#f8ad1c;fill-opacity:1;fill-rule:nonzero;stroke:none"
         d="m 0,0 c -1.352,0.087 -2.812,-0.726 -4.149,-0.366 0.001,-0.006 0.002,-0.012 0.002,-0.018 -0.494,0.113 -1.004,-0.528 -0.536,-0.898 1.191,-0.939 3.779,-0.386 4.917,0.416 C 0.615,-0.598 0.477,-0.03 0,0" />
    </g>
    <g
       transform="matrix(2.7967004,0,0,-2.7967004,515.83348,773.99171)"
       id="g298">
      <path
         id="path300"
         style="fill:#f8ad1c;fill-opacity:1;fill-rule:nonzero;stroke:none"
         d="m 0,0 c -1.017,0.091 -2.125,-0.303 -3.149,-0.381 -0.58,-0.044 -1.449,-0.137 -1.756,-0.688 -0.145,-0.261 0.099,-0.682 0.424,-0.551 0.218,0.088 0.562,0.005 0.813,0.017 0.506,0.026 1.006,0.01 1.515,0.018 0.795,0.011 1.768,0.104 2.427,0.573 C 0.725,-0.691 0.551,-0.05 0,0" />
    </g>
    <g
       transform="matrix(2.7967004,0,0,-2.7967004,514.58783,765.01431)"
       id="g302">
      <path
         id="path304"
         style="fill:#f8ad1c;fill-opacity:1;fill-rule:nonzero;stroke:none"
         d="m 0,0 c -0.818,0.298 -1.812,0.002 -2.644,-0.149 -0.488,-0.088 -0.964,-0.226 -1.457,-0.285 -0.157,-0.011 -0.315,-0.029 -0.471,-0.051 -0.106,-0.03 -0.215,-0.187 -0.271,-0.204 -0.552,-0.18 -0.433,-0.954 0.134,-0.991 0.726,-0.047 1.512,0.14 2.243,0.217 0.846,0.089 1.875,0.075 2.579,0.592 C 0.454,-0.622 0.406,-0.148 0,0" />
    </g>
    <g
       transform="matrix(2.7967004,0,0,-2.7967004,513.43279,754.09262)"
       id="g306">
      <path
         id="path308"
         style="fill:#f8ad1c;fill-opacity:1;fill-rule:nonzero;stroke:none"
         d="m 0,0 c -0.993,0.103 -1.916,-0.191 -2.882,-0.402 -0.861,-0.188 -1.704,-0.148 -2.499,-0.569 -0.353,-0.186 -0.253,-0.716 0.108,-0.821 0.771,-0.224 1.792,-0.075 2.577,0.023 1.031,0.129 2.039,0.324 2.948,0.837 C 0.72,-0.668 0.465,-0.048 0,0" />
    </g>
    <g
       transform="matrix(2.7967004,0,0,-2.7967004,511.43063,744.25215)"
       id="g310">
      <path
         id="path312"
         style="fill:#f8ad1c;fill-opacity:1;fill-rule:nonzero;stroke:none"
         d="m 0,0 c -1.344,0.18 -2.572,-0.515 -3.866,-0.646 -0.496,-0.05 -1.167,0.042 -1.43,-0.434 -0.015,-0.012 -0.029,-0.02 -0.045,-0.032 -0.121,-0.102 -0.16,-0.218 -0.152,-0.329 -0.008,-0.112 0.031,-0.228 0.152,-0.33 0.105,-0.088 0.197,-0.148 0.332,-0.181 0.172,-0.041 0.395,-0.008 0.515,0.137 -0.068,-0.082 1.63,-0.025 1.796,0.012 0.935,0.208 2.182,0.16 2.992,0.718 C 0.802,-0.734 0.568,-0.076 0,0" />
    </g>
    <g
       transform="matrix(2.7967004,0,0,-2.7967004,511.82944,733.25915)"
       id="g314">
      <path
         id="path316"
         style="fill:#f8ad1c;fill-opacity:1;fill-rule:nonzero;stroke:none"
         d="m 0,0 c -1.499,-0.198 -2.924,-0.542 -4.394,-0.929 -0.726,-0.19 -1.882,-0.321 -2.235,-1.1 -0.156,-0.345 0.164,-0.711 0.524,-0.525 0.358,0.188 0.735,0.12 1.111,0.179 0.637,0.1 1.267,0.223 1.9,0.34 1.227,0.227 2.254,0.515 3.348,1.096 C 0.673,-0.717 0.508,0.067 0,0" />
    </g>
    <g
       transform="matrix(2.7967004,0,0,-2.7967004,508.62583,724.23281)"
       id="g318">
      <path
         id="path320"
         style="fill:#f8ad1c;fill-opacity:1;fill-rule:nonzero;stroke:none"
         d="m 0,0 c -1.12,-0.134 -2.212,-0.347 -3.318,-0.566 -1.104,-0.22 -2.36,-0.254 -3.386,-0.713 -0.575,-0.256 -0.138,-1.045 0.399,-0.95 0.939,0.167 1.951,0.158 2.908,0.297 1.21,0.179 2.392,0.396 3.551,0.788 C 0.741,-0.944 0.685,0.082 0,0" />
    </g>
    <g
       transform="matrix(2.7967004,0,0,-2.7967004,505.82382,714.40883)"
       id="g322">
      <path
         id="path324"
         style="fill:#f8ad1c;fill-opacity:1;fill-rule:nonzero;stroke:none"
         d="m 0,0 c -1.628,-0.031 -3.228,-0.648 -4.826,-0.955 -0.605,-0.116 -1.828,0.031 -1.867,-0.849 -0.013,-0.293 0.346,-0.499 0.593,-0.341 0.116,0.075 0.789,-0.109 0.928,-0.127 0.541,-0.069 1.193,0.06 1.736,0.114 1.279,0.125 2.597,0.543 3.697,1.197 C 0.694,-0.702 0.521,0.01 0,0" />
    </g>
    <g
       transform="matrix(2.7967004,0,0,-2.7967004,502.6199,702.92448)"
       id="g326">
      <path
         id="path328"
         style="fill:#f8ad1c;fill-opacity:1;fill-rule:nonzero;stroke:none"
         d="m 0,0 c -1.184,-0.089 -2.328,-0.53 -3.476,-0.82 -1.131,-0.285 -2.278,-0.517 -3.39,-0.867 -0.459,-0.145 -0.533,-0.898 0,-1.002 0.929,-0.182 1.919,0.129 2.839,0.272 1.437,0.224 3.088,0.499 4.337,1.274 C 0.797,-0.84 0.638,0.048 0,0" />
    </g>
    <g
       transform="matrix(2.7967004,0,0,-2.7967004,501.41846,691.34697)"
       id="g330">
      <path
         id="path332"
         style="fill:#f8ad1c;fill-opacity:1;fill-rule:nonzero;stroke:none"
         d="m 0,0 c -1.207,-0.093 -2.323,-0.541 -3.453,-0.954 -1.414,-0.517 -2.856,-0.936 -4.273,-1.437 -0.532,-0.187 -0.476,-1.038 0.138,-1.02 1.375,0.04 2.687,0.432 3.989,0.851 1.308,0.42 2.687,0.793 3.903,1.439 C 0.817,-0.849 0.601,0.046 0,0" />
    </g>
    <g
       transform="matrix(2.7967004,0,0,-2.7967004,497.41441,684.43436)"
       id="g334">
      <path
         id="path336"
         style="fill:#f8ad1c;fill-opacity:1;fill-rule:nonzero;stroke:none"
         d="m 0,0 c -2.557,-0.001 -4.835,-1.332 -7.271,-1.946 -0.401,-0.101 -0.415,-0.728 0,-0.821 1.07,-0.242 2.029,0.057 3.063,0.37 1.459,0.439 2.899,0.93 4.34,1.422 C 0.65,-0.797 0.579,0 0,0" />
    </g>
    <g
       transform="matrix(2.7967004,0,0,-2.7967004,431.14044,999.29811)"
       id="g338">
      <path
         id="path340"
         style="fill:#f8ad1c;fill-opacity:1;fill-rule:nonzero;stroke:none"
         d="m 0,0 c -0.31,0.323 -0.681,0.569 -1.107,0.705 -0.528,0.168 -0.849,-0.197 -1.298,-0.392 -0.299,-0.129 -0.21,-0.622 0.09,-0.685 0.237,-0.051 0.413,-0.039 0.645,0.038 0.105,0.034 0.193,0.13 0.305,0.103 0.146,-0.038 0.299,-0.165 0.412,-0.258 0.329,-0.269 0.87,-0.816 0.762,-1.301 -0.121,-0.531 0.637,-0.9 0.908,-0.383 C 1.126,-1.389 0.529,-0.555 0,0" />
    </g>
    <g
       transform="matrix(2.7967004,0,0,-2.7967004,437.95739,996.95751)"
       id="g342">
      <path
         id="path344"
         style="fill:#f8ad1c;fill-opacity:1;fill-rule:nonzero;stroke:none"
         d="m 0,0 c -0.153,0.234 -0.369,0.411 -0.6,0.564 -0.39,0.26 -0.814,0.225 -1.253,0.31 -0.337,0.065 -0.519,-0.354 -0.231,-0.55 0.412,-0.279 0.908,-0.402 1.183,-0.85 0.236,-0.389 0.074,-0.834 0.372,-1.209 0.196,-0.248 0.545,-0.114 0.699,0.089 C 0.503,-1.206 0.277,-0.424 0,0" />
    </g>
    <g
       transform="matrix(2.7967004,0,0,-2.7967004,441.59256,993.76481)"
       id="g346">
      <path
         id="path348"
         style="fill:#f8ad1c;fill-opacity:1;fill-rule:nonzero;stroke:none"
         d="m 0,0 c -0.325,0.284 -0.654,0.352 -1.085,0.315 -0.349,-0.029 -0.396,-0.464 -0.08,-0.59 0.129,-0.051 0.243,-0.121 0.364,-0.181 0.183,-0.278 0.327,-0.616 0.573,-0.818 0.213,-0.177 0.618,-0.15 0.679,0.178 C 0.535,-0.651 0.333,-0.292 0,0" />
    </g>
    <g
       transform="matrix(2.7967004,0,0,-2.7967004,443.36229,991.58261)"
       id="g350">
      <path
         id="path352"
         style="fill:#f8ad1c;fill-opacity:1;fill-rule:nonzero;stroke:none"
         d="m 0,0 c -0.388,-0.045 -0.443,-0.511 -0.089,-0.66 0.06,-0.025 0.223,-0.201 0.259,-0.257 0.144,-0.224 0.467,-0.18 0.55,0.071 C 0.883,-0.354 0.499,0.058 0,0" />
    </g>
    <g
       transform="matrix(2.7967004,0,0,-2.7967004,463.07288,1020.5983)"
       id="g354">
      <path
         id="path356"
         style="fill:#f8ad1c;fill-opacity:1;fill-rule:nonzero;stroke:none"
         d="m 0,0 c -0.896,0.331 -1.977,0.104 -2.18,-0.906 -0.067,-0.333 0.353,-0.514 0.543,-0.229 0.313,0.467 1.142,0.215 1.54,0.011 0.517,-0.266 0.683,-0.98 1.249,-1.097 0.166,-0.034 0.357,0.019 0.441,0.18 C 2.075,-1.122 0.716,-0.265 0,0" />
    </g>
    <g
       transform="matrix(2.7967004,0,0,-2.7967004,468.27306,1015.9116)"
       id="g358">
      <path
         id="path360"
         style="fill:#f8ad1c;fill-opacity:1;fill-rule:nonzero;stroke:none"
         d="m 0,0 c -0.337,0.108 -0.717,0.124 -1.067,0.122 -0.451,-0.002 -0.748,-0.257 -1.066,-0.538 -0.135,-0.12 -0.118,-0.309 -0.022,-0.439 10e-4,-0.008 -0.006,-0.001 -0.001,-0.017 0.065,-0.262 0.462,-0.262 0.527,0 0.016,0.067 0.014,0.046 -0.005,-0.066 0.164,0.042 0.283,0.092 0.457,0.086 0.225,-0.007 0.451,-0.044 0.67,-0.096 0.406,-0.096 0.663,-0.386 0.918,-0.698 0.187,-0.228 0.58,-0.092 0.647,0.171 C 1.253,-0.698 0.689,-0.222 0,0" />
    </g>
    <g
       transform="matrix(2.7967004,0,0,-2.7967004,467.72129,1013.2788)"
       id="g362">
      <path
         id="path364"
         style="fill:#f8ad1c;fill-opacity:1;fill-rule:nonzero;stroke:none"
         d="m 0,0 c -0.335,-0.345 0.121,-0.992 0.53,-0.687 0.301,0.223 0.635,0.126 0.728,-0.219 0.127,-0.473 0.886,-0.51 0.991,0 C 2.517,0.397 0.78,0.801 0,0" />
    </g>
    <g
       transform="matrix(2.7967004,0,0,-2.7967004,472.5909,1009.3925)"
       id="g366">
      <path
         id="path368"
         style="fill:#f8ad1c;fill-opacity:1;fill-rule:nonzero;stroke:none"
         d="M 0,0 C -0.543,-0.023 -0.512,-0.755 0,-0.82 0.376,-0.868 0.555,-1.138 0.894,-1.231 1.173,-1.309 1.376,-1.097 1.408,-0.84 1.5,-0.124 0.512,0.022 0,0" />
    </g>
    <g
       transform="matrix(2.7967004,0,0,-2.7967004,479.91322,1007.2021)"
       id="g370">
      <path
         id="path372"
         style="fill:#f8ad1c;fill-opacity:1;fill-rule:nonzero;stroke:none"
         d="m 0,0 c -0.232,0.41 -0.54,0.526 -0.999,0.452 -0.401,-0.064 -0.303,-0.599 0,-0.715 0.164,-0.063 0.324,-0.173 0.48,-0.256 C -0.186,-0.695 0.191,-0.339 0,0" />
    </g>
    <g
       transform="matrix(2.7967004,0,0,-2.7967004,432.97564,976.90541)"
       id="g374">
      <path
         id="path376"
         style="fill:#f8ad1c;fill-opacity:1;fill-rule:nonzero;stroke:none"
         d="m 0,0 c -0.266,0.574 -1.023,1.074 -1.664,0.862 -0.241,-0.08 -0.307,-0.414 -0.071,-0.55 0.293,-0.169 0.673,-0.37 0.776,-0.716 0.076,-0.257 -0.184,-0.614 -0.191,-0.885 -0.007,-0.253 0.282,-0.517 0.539,-0.41 C 0.033,-1.435 0.293,-0.631 0,0" />
    </g>
    <g
       transform="matrix(2.7967004,0,0,-2.7967004,433.57637,973.47221)"
       id="g378">
      <path
         id="path380"
         style="fill:#f8ad1c;fill-opacity:1;fill-rule:nonzero;stroke:none"
         d="M 0,0 C -0.175,-0.067 -0.251,-0.324 -0.056,-0.428 0.145,-0.534 0.319,-0.648 0.389,-0.873 0.468,-1.13 0.451,-1.298 0.632,-1.519 0.812,-1.738 1.139,-1.633 1.276,-1.436 1.803,-0.682 0.765,0.294 0,0" />
    </g>
    <g
       transform="matrix(2.7967004,0,0,-2.7967004,438.67558,972.01651)"
       id="g382">
      <path
         id="path384"
         style="fill:#f8ad1c;fill-opacity:1;fill-rule:nonzero;stroke:none"
         d="m 0,0 c -0.301,0.181 -0.724,-0.194 -0.503,-0.503 0.127,-0.176 0.273,-0.335 0.407,-0.505 0.151,-0.191 0.164,-0.413 0.347,-0.591 0.2,-0.193 0.466,-0.12 0.62,0.08 C 1.397,-0.833 0.481,-0.29 0,0" />
    </g>
    <g
       transform="matrix(2.7967004,0,0,-2.7967004,442.96069,971.60431)"
       id="g386">
      <path
         id="path388"
         style="fill:#f8ad1c;fill-opacity:1;fill-rule:nonzero;stroke:none"
         d="M 0,0 C -0.6,0 -0.6,-0.93 0,-0.93 0.6,-0.93 0.6,0 0,0" />
    </g>
    <g
       transform="matrix(2.7967004,0,0,-2.7967004,224.50118,933.97161)"
       id="g390">
      <path
         id="path392"
         style="fill:#f8ad1c;fill-opacity:1;fill-rule:nonzero;stroke:none"
         d="M 0,0 C -0.263,-0.106 -0.34,-0.441 -0.08,-0.607 0.347,-0.879 0.66,-1.393 0.698,-1.894 0.715,-2.104 0.688,-2.344 0.601,-2.538 0.521,-2.712 0.354,-2.785 0.262,-2.951 0.158,-3.139 0.19,-3.354 0.334,-3.51 0.672,-3.877 1.196,-3.687 1.476,-3.352 1.782,-2.983 1.861,-2.473 1.869,-2.007 1.883,-1.178 1.006,0.407 0,0" />
    </g>
    <g
       transform="matrix(2.7967004,0,0,-2.7967004,236.96354,937.78441)"
       id="g394">
      <path
         id="path396"
         style="fill:#f8ad1c;fill-opacity:1;fill-rule:nonzero;stroke:none"
         d="M 0,0 C -0.187,0.712 -0.941,1.182 -1.489,1.603 -1.735,1.792 -2.111,1.416 -1.922,1.169 -1.65,0.815 -1.386,0.463 -1.168,0.072 c 0.116,-0.207 0.139,-0.416 0.089,-0.645 -0.054,-0.249 -0.091,-0.418 -0.105,-0.675 -0.016,-0.31 0.345,-0.477 0.594,-0.341 0.283,0.155 0.449,0.257 0.559,0.581 C 0.084,-0.665 0.092,-0.35 0,0" />
    </g>
    <g
       transform="matrix(2.7967004,0,0,-2.7967004,243.33807,936.62371)"
       id="g398">
      <path
         id="path400"
         style="fill:#f8ad1c;fill-opacity:1;fill-rule:nonzero;stroke:none"
         d="m 0,0 c -0.299,0.6 -0.955,0.957 -1.479,1.326 -0.25,0.177 -0.612,-0.177 -0.427,-0.428 0.268,-0.364 0.552,-0.717 0.793,-1.101 0.294,-0.47 0.07,-0.809 0.166,-1.3 0.063,-0.32 0.439,-0.405 0.694,-0.282 C 0.423,-1.46 0.272,-0.546 0,0" />
    </g>
    <g
       transform="matrix(2.7967004,0,0,-2.7967004,245.63779,934.06451)"
       id="g402">
      <path
         id="path404"
         style="fill:#f8ad1c;fill-opacity:1;fill-rule:nonzero;stroke:none"
         d="m 0,0 c -0.33,0.164 -0.68,-0.245 -0.402,-0.521 0.223,-0.224 0.407,-0.536 0.515,-0.833 0.052,-0.144 0.093,-0.287 0.088,-0.439 -0.002,-0.078 0.176,-0.528 0.116,-0.315 0.067,-0.237 0.354,-0.365 0.569,-0.232 0.004,0.005 0.009,0.011 0.012,0.016 0.241,0.079 0.397,0.276 0.405,0.531 C 1.329,-0.972 0.689,-0.344 0,0" />
    </g>
    <g
       transform="matrix(2.7967004,0,0,-2.7967004,254.11515,935.54761)"
       id="g406">
      <path
         id="path408"
         style="fill:#f8ad1c;fill-opacity:1;fill-rule:nonzero;stroke:none"
         d="m 0,0 c -0.257,0.196 -0.689,-0.132 -0.562,-0.432 0.094,-0.224 0.07,-0.403 0.239,-0.601 0.125,-0.147 0.424,-0.158 0.547,0 C 0.533,-0.636 0.368,-0.279 0,0" />
    </g>
    <g
       transform="matrix(2.7967004,0,0,-2.7967004,243.16607,968.28571)"
       id="g410">
      <path
         id="path412"
         style="fill:#f8ad1c;fill-opacity:1;fill-rule:nonzero;stroke:none"
         d="m 0,0 c -0.392,-0.041 -0.515,-0.595 -0.097,-0.714 0.61,-0.172 1.077,-0.751 1.404,-1.265 0.32,-0.504 0.252,-1.479 1.049,-1.344 0.179,0.03 0.384,0.229 0.411,0.41 C 2.954,-1.646 1.304,0.138 0,0" />
    </g>
    <g
       transform="matrix(2.7967004,0,0,-2.7967004,248.64733,966.00531)"
       id="g414">
      <path
         id="path416"
         style="fill:#f8ad1c;fill-opacity:1;fill-rule:nonzero;stroke:none"
         d="M 0,0 C -0.354,-0.151 -0.156,-0.692 0.187,-0.691 0.638,-0.689 1.227,-1.244 1.544,-1.535 1.735,-1.71 1.896,-1.895 2.021,-2.12 2.13,-2.313 2.072,-2.543 2.098,-2.754 2.138,-3.094 2.531,-3.477 2.886,-3.206 4.597,-1.895 1.412,0.604 0,0" />
    </g>
    <g
       transform="matrix(2.7967004,0,0,-2.7967004,260.89938,965.26251)"
       id="g418">
      <path
         id="path420"
         style="fill:#f8ad1c;fill-opacity:1;fill-rule:nonzero;stroke:none"
         d="m 0,0 c -0.548,0.604 -1.368,0.729 -2.139,0.608 -0.341,-0.053 -0.323,-0.601 0,-0.67 0.774,-0.163 1.37,-0.5 1.587,-1.296 0.099,-0.365 0.078,-0.76 0.503,-0.906 0.278,-0.095 0.619,0.103 0.687,0.391 C 0.805,-1.164 0.465,-0.514 0,0" />
    </g>
    <g
       transform="matrix(2.7967004,0,0,-2.7967004,267.34746,963.73301)"
       id="g422">
      <path
         id="path424"
         style="fill:#f8ad1c;fill-opacity:1;fill-rule:nonzero;stroke:none"
         d="m 0,0 c -0.505,0.443 -1.176,0.65 -1.809,0.838 -0.442,0.131 -0.733,-0.535 -0.316,-0.75 0.377,-0.193 0.752,-0.394 1.086,-0.655 0.333,-0.262 0.437,-0.584 0.587,-0.961 0.114,-0.287 0.441,-0.406 0.685,-0.181 C 0.802,-1.187 0.509,-0.447 0,0" />
    </g>
    <g
       transform="matrix(2.7967004,0,0,-2.7967004,272.39747,962.24741)"
       id="g426">
      <path
         id="path428"
         style="fill:#f8ad1c;fill-opacity:1;fill-rule:nonzero;stroke:none"
         d="M 0,0 C -0.156,0.27 -0.388,0.409 -0.634,0.585 -1.068,0.896 -1.503,0.24 -1.178,-0.12 c 0.19,-0.211 0.297,-0.464 0.529,-0.629 0.142,-0.103 0.415,-0.074 0.525,0.067 0.015,0.019 0.028,0.037 0.043,0.055 C 0.065,-0.439 0.127,-0.22 0,0" />
    </g>
    <g
       transform="matrix(2.7967004,0,0,-2.7967004,238.02602,914.90821)"
       id="g430">
      <path
         id="path432"
         style="fill:#f8ad1c;fill-opacity:1;fill-rule:nonzero;stroke:none"
         d="m 0,0 c -0.192,0.33 -0.551,0.538 -0.796,0.823 -0.213,0.246 -0.64,-0.013 -0.542,-0.315 0.079,-0.246 0.435,-0.75 0.329,-0.991 -0.152,-0.348 -0.503,-0.525 -0.715,-0.83 -0.17,-0.245 -0.004,-0.641 0.285,-0.701 0.64,-0.132 1.363,0.446 1.508,1.077 C 0.142,-0.629 0.168,-0.286 0,0" />
    </g>
    <g
       transform="matrix(2.7967004,0,0,-2.7967004,241.98056,914.12991)"
       id="g434">
      <path
         id="path436"
         style="fill:#f8ad1c;fill-opacity:1;fill-rule:nonzero;stroke:none"
         d="m 0,0 c -0.26,0.191 -0.525,-0.166 -0.406,-0.406 0.182,-0.367 -0.147,-0.842 -0.259,-1.18 -0.085,-0.256 0.137,-0.469 0.373,-0.489 0.542,-0.046 0.831,0.381 0.92,0.868 C 0.732,-0.633 0.422,-0.311 0,0" />
    </g>
    <g
       transform="matrix(2.7967004,0,0,-2.7967004,247.94536,916.96211)"
       id="g438">
      <path
         id="path440"
         style="fill:#f8ad1c;fill-opacity:1;fill-rule:nonzero;stroke:none"
         d="m 0,0 c -0.175,0.271 -0.357,0.606 -0.707,0.639 -0.276,0.025 -0.408,-0.357 -0.221,-0.534 -0.1,0.095 -0.015,-0.327 0,-0.4 0.046,-0.225 0.086,-0.291 -0.013,-0.523 -0.182,-0.419 0.037,-0.779 0.471,-0.824 0.182,-0.018 0.39,0.117 0.473,0.272 C 0.245,-0.919 0.287,-0.443 0,0" />
    </g>
    <g
       transform="matrix(2.7967004,0,0,-2.7967004,251.1736,917.39361)"
       id="g442">
      <path
         id="path444"
         style="fill:#f8ad1c;fill-opacity:1;fill-rule:nonzero;stroke:none"
         d="M 0,0 C -0.359,-0.043 -0.45,-0.397 -0.252,-0.618 -0.259,-0.635 -0.265,-0.654 -0.269,-0.687 -0.29,-0.752 -0.305,-0.819 -0.313,-0.888 -0.338,-1.028 -0.37,-1.164 -0.364,-1.308 -0.337,-1.894 0.454,-1.991 0.641,-1.443 0.813,-0.934 0.779,0.092 0,0" />
    </g>
    <g
       transform="matrix(2.7967004,0,0,-2.7967004,255.97777,919.07861)"
       id="g446">
      <path
         id="path448"
         style="fill:#f8ad1c;fill-opacity:1;fill-rule:nonzero;stroke:none"
         d="M 0,0 C -0.635,0 -0.635,-0.984 0,-0.984 0.635,-0.984 0.635,0 0,0" />
    </g>
    <g
       transform="matrix(2.7967004,0,0,-2.7967004,418.14559,554.08212)"
       id="g450">
      <path
         id="path452"
         style="fill:#36443b;fill-opacity:1;fill-rule:nonzero;stroke:none"
         d="m 0,0 c -0.441,0.436 -1.178,-0.003 -1.025,-0.597 0.239,-0.928 0.66,-1.742 0.748,-2.716 0.103,-1.141 -0.632,-2.12 -1.39,-2.874 -0.726,-0.722 -1.842,-1.119 -2.79,-1.416 -0.526,-0.165 -2.292,-0.564 -2.696,0.124 -0.303,0.514 -1.04,0.161 -0.928,-0.391 0.56,-2.773 5.659,-0.715 6.975,0.169 C 1.367,-6.038 2.257,-2.229 0,0" />
    </g>
    <g
       transform="matrix(2.7967004,0,0,-2.7967004,433.39906,518.8283)"
       id="g454">
      <path
         id="path456"
         style="fill:#36443b;fill-opacity:1;fill-rule:nonzero;stroke:none"
         d="m 0,0 c -0.485,0.175 -0.986,-0.464 -0.684,-0.89 1.035,-1.455 2.967,-2.317 2.598,-4.438 -0.185,-1.061 -1.313,-1.803 -2.13,-2.375 -1.023,-0.718 -1.815,-0.685 -2.951,-0.798 -0.359,-0.036 -0.558,-0.518 -0.195,-0.721 1.264,-0.708 2.05,-0.591 3.416,-0.01 1.289,0.548 2.521,1.628 3.15,2.875 C 4.438,-3.911 2.317,-0.835 0,0" />
    </g>
    <g
       transform="matrix(2.7967004,0,0,-2.7967004,452.22757,486.95571)"
       id="g458">
      <path
         id="path460"
         style="fill:#36443b;fill-opacity:1;fill-rule:nonzero;stroke:none"
         d="m 0,0 c -0.486,0.216 -1.242,-0.285 -0.834,-0.834 0.55,-0.737 1.22,-1.352 1.711,-2.136 0.673,-1.072 0.224,-2.485 -0.352,-3.461 -0.773,-1.309 -3.093,-2.277 -4.555,-2.264 -0.451,0.004 -0.533,-0.553 -0.213,-0.786 1.718,-1.252 5.16,0.735 6.114,2.264 C 3.415,-4.742 2.848,-1.268 0,0" />
    </g>
    <g
       transform="matrix(2.7967004,0,0,-2.7967004,449.60005,552.25755)"
       id="g462">
      <path
         id="path464"
         style="fill:#36443b;fill-opacity:1;fill-rule:nonzero;stroke:none"
         d="m 0,0 c -0.388,0.411 -0.961,-0.026 -0.875,-0.51 0.37,-2.082 1.664,-3.613 -0.144,-5.479 -1.318,-1.362 -3.509,-1.156 -5.198,-1.532 -0.434,-0.097 -0.434,-0.777 0,-0.874 2.418,-0.539 5.203,-0.035 6.846,1.93 C 2.258,-4.516 1.628,-1.725 0,0" />
    </g>
    <g
       transform="matrix(2.7967004,0,0,-2.7967004,479.23306,523.08069)"
       id="g466">
      <path
         id="path468"
         style="fill:#36443b;fill-opacity:1;fill-rule:nonzero;stroke:none"
         d="m 0,0 c -0.52,1.228 -1.511,2.208 -2.637,2.901 -0.519,0.32 -1.179,-0.321 -0.844,-0.844 0.369,-0.575 0.83,-1.05 1.274,-1.568 1.033,-1.203 0.846,-2.206 0.228,-3.562 C -2.928,-5.158 -5.2,-4.512 -6.882,-5.289 -7.205,-5.438 -7.118,-5.837 -6.876,-5.996 -6.878,-6 -6.88,-6.005 -6.882,-6.01 c 2.375,-1.084 5.441,0.243 6.499,2.527 C 0.171,-2.291 0.55,-1.301 0,0" />
    </g>
    <g
       transform="matrix(2.7967004,0,0,-2.7967004,425.82559,591.24747)"
       id="g470">
      <path
         id="path472"
         style="fill:#36443b;fill-opacity:1;fill-rule:nonzero;stroke:none"
         d="m 0,0 c -0.459,0.511 -1.217,-0.034 -1.084,-0.631 0.425,-1.917 1.465,-3.789 -0.121,-5.472 -1.237,-1.311 -2.949,-1.07 -4.535,-1.341 -0.505,-0.087 -0.401,-0.778 0,-0.92 2.258,-0.803 4.742,-0.157 6.265,1.73 C 1.995,-4.813 1.479,-1.651 0,0" />
    </g>
    <g
       transform="matrix(2.7967004,0,0,-2.7967004,491.71445,496.03689)"
       id="g474">
      <path
         id="path476"
         style="fill:#36443b;fill-opacity:1;fill-rule:nonzero;stroke:none"
         d="M 0,0 C -0.053,0.394 -0.59,0.806 -0.92,0.381 -1.316,-0.127 -1.691,-0.767 -2.242,-1.13 -2.9,-1.564 -3.796,-1.612 -4.555,-1.507 -5.081,-1.434 -5.527,-2.172 -4.952,-2.449 -3.143,-3.321 0.341,-2.553 0,0" />
    </g>
    <g
       transform="matrix(2.7967004,0,0,-2.7967004,462.08146,582.61994)"
       id="g478">
      <path
         id="path480"
         style="fill:#36443b;fill-opacity:1;fill-rule:nonzero;stroke:none"
         d="m 0,0 c -0.301,0.377 -0.989,0.069 -0.953,-0.395 0.145,-1.856 0.839,-3.594 0.025,-5.421 -0.597,-1.341 -3.783,-3.018 -5.216,-2.144 -0.431,0.263 -1.022,-0.276 -0.716,-0.717 1.295,-1.862 5.107,-0.53 6.39,0.754 C 1.577,-5.874 1.81,-2.261 0,0" />
    </g>
    <g
       transform="matrix(2.7967004,0,0,-2.7967004,483.68765,548.99939)"
       id="g482">
      <path
         id="path484"
         style="fill:#36443b;fill-opacity:1;fill-rule:nonzero;stroke:none"
         d="m 0,0 c -0.382,0.391 -1.081,-0.006 -0.921,-0.536 0.447,-1.476 1.574,-2.805 0.763,-4.349 -0.778,-1.478 -2.393,-2.191 -3.986,-1.831 -0.319,0.072 -0.711,-0.298 -0.472,-0.614 1.38,-1.822 3.934,-0.41 5.175,0.789 C 2.685,-4.484 1.824,-1.868 0,0" />
    </g>
    <g
       transform="matrix(2.7967004,0,0,-2.7967004,504.74486,506.06277)"
       id="g486">
      <path
         id="path488"
         style="fill:#36443b;fill-opacity:1;fill-rule:nonzero;stroke:none"
         d="m 0,0 c -0.578,0.325 -1.219,-0.32 -0.897,-0.897 0.882,-1.59 2.75,-2.606 1.575,-4.622 -0.787,-1.349 -2.321,-1.866 -3.729,-1.907 -0.659,-0.019 -0.801,-0.967 -0.156,-1.151 2.014,-0.574 4.013,0.599 5.275,2.246 C 3.75,-4.14 2.131,-1.197 0,0" />
    </g>
    <g
       transform="matrix(2.7967004,0,0,-2.7967004,445.52526,626.46017)"
       id="g490">
      <path
         id="path492"
         style="fill:#36443b;fill-opacity:1;fill-rule:nonzero;stroke:none"
         d="M 0,0 C -0.22,0.898 -0.871,1.66 -1.802,1.823 -2.305,1.911 -2.564,1.307 -2.145,1.009 -0.813,0.065 -1.647,-1.336 -1.343,-2.629 -1.214,-3.177 -0.549,-3.145 -0.265,-2.77 0.275,-2.055 0.202,-0.825 0,0" />
    </g>
    <g
       transform="matrix(2.7967004,0,0,-2.7967004,473.38293,615.62575)"
       id="g494">
      <path
         id="path496"
         style="fill:#36443b;fill-opacity:1;fill-rule:nonzero;stroke:none"
         d="m 0,0 c -0.352,0.585 -1.191,0.31 -1.23,-0.333 -0.096,-1.56 0.749,-3.079 -0.155,-4.542 -0.835,-1.353 -2.731,-1.163 -4.029,-1.609 -0.426,-0.147 -0.43,-0.722 0,-0.868 1.841,-0.622 4.102,-0.064 5.322,1.48 C 1.13,-4.328 0.978,-1.628 0,0" />
    </g>
    <g
       transform="matrix(2.7967004,0,0,-2.7967004,495.89048,580.43766)"
       id="g498">
      <path
         id="path500"
         style="fill:#36443b;fill-opacity:1;fill-rule:nonzero;stroke:none"
         d="m 0,0 c -0.371,0.438 -1.118,0.078 -1.106,-0.459 0.037,-1.652 1.036,-2.905 0.173,-4.566 -0.983,-1.894 -2.77,-1.545 -4.509,-1.88 C -5.808,-6.976 -5.886,-7.552 -5.548,-7.712 -0.787,-9.977 3.255,-3.839 0,0" />
    </g>
    <g
       transform="matrix(2.7967004,0,0,-2.7967004,519.52316,535.98803)"
       id="g502">
      <path
         id="path504"
         style="fill:#36443b;fill-opacity:1;fill-rule:nonzero;stroke:none"
         d="m 0,0 c -0.428,0.55 -1.229,-0.055 -1.09,-0.635 0.394,-1.641 1.458,-3.465 0.66,-5.15 -0.801,-1.694 -2.778,-1.622 -4.326,-1.787 -0.418,-0.045 -0.717,-0.665 -0.24,-0.888 1.943,-0.91 4.55,-0.343 5.794,1.492 C 2.229,-4.854 1.477,-1.896 0,0" />
    </g>
    <g
       transform="matrix(2.7967004,0,0,-2.7967004,539.45497,521.42001)"
       id="g506">
      <path
         id="path508"
         style="fill:#36443b;fill-opacity:1;fill-rule:nonzero;stroke:none"
         d="m 0,0 c -0.629,-0.047 -1.08,-0.171 -1.676,-0.386 -0.362,-0.131 -1.542,-0.616 -1.891,-0.261 -0.161,0.163 -0.436,0.163 -0.596,0 -0.024,-0.024 -0.048,-0.048 -0.071,-0.073 -0.182,-0.184 -0.227,-0.561 0,-0.738 0.698,-0.549 1.398,-0.624 2.261,-0.506 0.469,0.065 0.913,0.237 1.351,0.408 0.408,0.16 0.648,0.412 0.986,0.676 C 0.718,-0.605 0.424,0.032 0,0" />
    </g>
    <g
       transform="matrix(2.7967004,0,0,-2.7967004,508.5794,612.44395)"
       id="g510">
      <path
         id="path512"
         style="fill:#36443b;fill-opacity:1;fill-rule:nonzero;stroke:none"
         d="m 0,0 c -0.406,0.545 -1.424,0.252 -1.178,-0.496 0.278,-0.846 0.7,-1.65 0.777,-2.549 0.076,-0.908 -0.552,-2.163 -1.157,-2.81 -1.16,-1.246 -3.331,-1.231 -4.869,-1.383 -0.466,-0.046 -0.8,-0.746 -0.268,-0.991 2.018,-0.924 4.669,-0.204 6.322,1.189 C 1.815,-5.197 1.533,-2.058 0,0" />
    </g>
    <g
       transform="matrix(2.7967004,0,0,-2.7967004,534.15941,570.59999)"
       id="g514">
      <path
         id="path516"
         style="fill:#36443b;fill-opacity:1;fill-rule:nonzero;stroke:none"
         d="m 0,0 c -0.357,0.421 -1.136,-0.024 -0.939,-0.547 0.665,-1.777 1.822,-4.106 0.25,-5.726 -1.305,-1.345 -3.238,-0.956 -4.864,-1.332 -0.519,-0.121 -0.519,-0.927 0,-1.047 2.339,-0.541 5.032,-0.157 6.598,1.833 C 2.715,-4.697 1.509,-1.774 0,0" />
    </g>
    <g
       transform="matrix(2.7967004,0,0,-2.7967004,561.53911,542.94425)"
       id="g518">
      <path
         id="path520"
         style="fill:#36443b;fill-opacity:1;fill-rule:nonzero;stroke:none"
         d="m 0,0 c -0.253,0.497 -0.942,0.218 -0.976,-0.265 -0.096,-1.409 -0.205,-3.548 -1.805,-4.033 -0.65,-0.197 -1.356,-0.207 -2.028,-0.178 -0.579,0.026 -1.041,0.373 -1.656,0.329 -0.635,-0.046 -0.743,-0.875 -0.147,-1.09 1.064,-0.384 1.807,-0.742 2.973,-0.765 0.859,-0.016 1.784,0.194 2.493,0.683 C 0.482,-4.196 0.838,-1.649 0,0" />
    </g>
    <g
       transform="matrix(2.7967004,0,0,-2.7967004,496.36845,649.02506)"
       id="g522">
      <path
         id="path524"
         style="fill:#36443b;fill-opacity:1;fill-rule:nonzero;stroke:none"
         d="M 0,0 C -0.321,0.674 -0.772,1.26 -1.493,1.517 -1.974,1.687 -2.394,0.979 -1.998,0.648 -1.583,0.3 -1.409,-0.214 -1.094,-0.64 -0.61,-1.291 0.356,-0.747 0,0" />
    </g>
    <g
       transform="matrix(2.7967004,0,0,-2.7967004,533.9382,604.45546)"
       id="g526">
      <path
         id="path528"
         style="fill:#36443b;fill-opacity:1;fill-rule:nonzero;stroke:none"
         d="m 0,0 c -0.427,0.34 -1.108,0.154 -1.113,-0.461 -0.009,-1.16 0.738,-2.105 0.461,-3.331 -0.224,-0.986 -1.034,-1.03 -1.756,-1.473 -0.577,-0.353 -0.97,-0.548 -1.637,-0.674 -0.531,-0.101 -0.531,-0.97 0,-1.071 0.352,-0.066 0.832,-0.212 1.186,-0.114 0.479,0.132 0.88,0.472 1.364,0.61 0.918,0.264 1.547,0.752 2.09,1.531 C 1.468,-3.734 1.211,-0.964 0,0" />
    </g>
    <g
       transform="matrix(2.7967004,0,0,-2.7967004,567.49301,572.8667)"
       id="g530">
      <path
         id="path532"
         style="fill:#36443b;fill-opacity:1;fill-rule:nonzero;stroke:none"
         d="m 0,0 c -0.126,0.479 -0.857,0.614 -1.092,0.143 -0.353,-0.707 -0.47,-1.469 -0.902,-2.149 -0.497,-0.783 -1.313,-0.988 -2.11,-1.332 -0.407,-0.175 -0.221,-0.73 0.111,-0.849 C -1.85,-4.956 0.523,-1.985 0,0" />
    </g>
    <g
       transform="matrix(2.7967004,0,0,-2.7967004,515.01125,646.39755)"
       id="g534">
      <path
         id="path536"
         style="fill:#36443b;fill-opacity:1;fill-rule:nonzero;stroke:none"
         d="M 0,0 C -0.446,0.072 -0.95,-0.5 -0.501,-0.861 0.043,-1.3 0.045,-2.253 0.732,-2.544 1.112,-2.704 1.538,-2.522 1.556,-2.071 1.584,-1.35 0.748,-0.121 0,0" />
    </g>
    <g
       transform="matrix(2.7967004,0,0,-2.7967004,575.63197,563.04554)"
       id="g538">
      <path
         id="path540"
         style="fill:#36443b;fill-opacity:1;fill-rule:nonzero;stroke:none"
         d="m 0,0 c -0.106,0.125 -0.265,0.196 -0.36,0.314 -0.328,0.403 -0.983,0.06 -0.981,-0.406 0.002,-0.388 0.245,-0.716 0.593,-0.877 C -0.107,-1.264 0.466,-0.546 0,0" />
    </g>
    <g
       transform="matrix(2.7967004,0,0,-2.7967004,668.90361,451.60095)"
       id="g542">
      <path
         id="path544"
         style="fill:#36443b;fill-opacity:1;fill-rule:nonzero;stroke:none"
         d="M 0,0 C -0.463,1.146 -1.598,1.643 -2.74,1.875 -3.176,1.964 -3.464,2.118 -3.909,1.989 -4.065,1.943 -4.161,1.852 -4.254,1.725 c 0.17,0.233 -0.017,-0.008 -0.129,-0.102 -0.184,-0.151 -0.184,-0.511 0,-0.662 0.206,-0.17 0.489,-0.29 0.745,-0.132 0.124,0.076 1.501,-0.65 1.742,-0.801 0.971,-0.607 0.634,-1.94 -0.167,-2.452 C -2.665,-2.808 -3.207,-2.968 -3.72,-3.478 -4.057,-3.813 -3.808,-4.403 -3.336,-4.404 -0.937,-4.412 0.975,-2.409 0,0" />
    </g>
    <g
       transform="matrix(2.7967004,0,0,-2.7967004,651.96764,479.4751)"
       id="g546">
      <path
         id="path548"
         style="fill:#36443b;fill-opacity:1;fill-rule:nonzero;stroke:none"
         d="M 0,0 C -0.498,-0.014 -0.629,-0.628 -0.242,-0.896 0.625,-1.497 1.656,-2.161 1.643,-3.322 1.627,-4.624 0.657,-5.09 -0.015,-6.008 -0.31,-6.409 0.083,-7.074 0.572,-7.03 2.536,-6.853 3.313,-4.614 3.281,-2.937 3.255,-1.503 1.396,0.038 0,0" />
    </g>
    <g
       transform="matrix(2.7967004,0,0,-2.7967004,653.5844,516.07523)"
       id="g550">
      <path
         id="path552"
         style="fill:#36443b;fill-opacity:1;fill-rule:nonzero;stroke:none"
         d="m 0,0 c -0.485,0.966 -1.915,0.118 -1.443,-0.844 0.402,-0.82 0.726,-1.516 0.297,-2.395 -0.376,-0.775 -1.144,-0.877 -1.78,-1.321 -0.461,-0.321 -0.446,-1.086 0.162,-1.242 1.274,-0.328 2.485,0.666 3.093,1.7 C 1.147,-2.711 0.671,-1.333 0,0" />
    </g>
    <g
       transform="matrix(2.7967004,0,0,-2.7967004,687.1613,475.10245)"
       id="g554">
      <path
         id="path556"
         style="fill:#36443b;fill-opacity:1;fill-rule:nonzero;stroke:none"
         d="M 0,0 C -0.27,1.077 -1.83,3.007 -3.112,2.544 -3.466,2.417 -3.585,1.921 -3.221,1.716 c 0.812,-0.457 1.455,-1.239 1.701,-2.135 0.235,-0.852 -0.415,-1.79 -0.823,-2.48 -0.236,-0.402 0.161,-1.038 0.649,-0.844 0.784,0.31 1.22,0.625 1.556,1.446 C 0.174,-1.536 0.199,-0.794 0,0" />
    </g>
    <g
       transform="matrix(2.7967004,0,0,-2.7967004,682.96345,508.85694)"
       id="g558">
      <path
         id="path560"
         style="fill:#36443b;fill-opacity:1;fill-rule:nonzero;stroke:none"
         d="m 0,0 c -0.153,1.065 -1.306,2.474 -2.473,2.022 -0.455,-0.175 -0.433,-0.931 0.122,-0.905 0.64,0.03 0.863,-1.04 0.854,-1.534 -0.018,-0.982 -0.98,-1.393 -1.427,-2.108 -0.287,-0.459 0.097,-0.958 0.573,-0.999 C -0.73,-3.663 0.185,-1.285 0,0" />
    </g>
    <g
       transform="matrix(2.7967004,0,0,-2.7967004,704.28019,490.93766)"
       id="g562">
      <path
         id="path564"
         style="fill:#36443b;fill-opacity:1;fill-rule:nonzero;stroke:none"
         d="M 0,0 C -0.152,0.857 -0.792,1.812 -1.782,1.595 -2.162,1.512 -2.175,1.006 -1.884,0.816 -0.815,0.125 -1.618,-1.435 -2.11,-2.279 -2.411,-2.795 -1.73,-3.288 -1.308,-2.9 -0.471,-2.133 0.216,-1.212 0,0" />
    </g>
    <g
       transform="matrix(2.7967004,0,0,-2.7967004,277.04308,535.11405)"
       id="g566">
      <path
         id="path568"
         style="fill:#5b7866;fill-opacity:1;fill-rule:nonzero;stroke:none"
         d="m 0,0 c -0.431,-0.506 -0.802,-1.218 -1.347,-1.604 -0.297,-0.209 -1.087,-0.332 -1.293,0.05 -0.214,0.396 -0.392,0.779 -0.667,1.139 -0.24,0.314 -0.772,0.239 -0.779,-0.211 -0.022,-1.504 0.926,-2.77 2.543,-2.529 0.649,0.095 1.215,0.424 1.632,0.929 C 0.578,-1.63 0.734,-1.081 0.82,-0.34 0.868,0.072 0.259,0.304 0,0" />
    </g>
    <g
       transform="matrix(2.7967004,0,0,-2.7967004,299.74195,531.12121)"
       id="g570">
      <path
         id="path572"
         style="fill:#5b7866;fill-opacity:1;fill-rule:nonzero;stroke:none"
         d="M 0,0 C -0.137,0.048 -0.258,0.035 -0.396,0 -0.636,-0.062 -0.86,-0.273 -0.915,-0.521 -1.096,-1.34 -1.354,-2.13 -2.23,-2.41 c -0.48,-0.153 -0.868,0.092 -1.216,0.389 -0.201,0.172 -0.56,0.273 -0.667,0.538 -0.211,0.516 -1.07,0.504 -1.044,-0.142 0.027,-0.706 0.493,-0.99 0.918,-1.475 0.519,-0.591 1.197,-0.876 1.977,-0.846 1.63,0.06 2.788,1.708 2.808,3.228 C 0.551,-0.37 0.312,-0.11 0,0" />
    </g>
    <g
       transform="matrix(2.7967004,0,0,-2.7967004,318.89264,524.39429)"
       id="g574">
      <path
         id="path576"
         style="fill:#5b7866;fill-opacity:1;fill-rule:nonzero;stroke:none"
         d="M 0,0 C -0.291,0.323 -0.78,0.192 -1,-0.129 -1.163,-0.367 -1.202,-0.654 -1.348,-0.901 -1.516,-1.186 -1.756,-1.415 -2.026,-1.603 -2.24,-1.75 -2.475,-1.892 -2.74,-1.884 c -0.478,0.015 -0.823,0.384 -1.289,0.343 -0.366,-0.032 -0.712,-0.538 -0.343,-0.827 0.518,-0.404 0.857,-0.831 1.561,-0.936 0.553,-0.082 1.088,0.093 1.564,0.368 C -0.367,-2.427 0.897,-0.998 0,0" />
    </g>
    <g
       transform="matrix(2.7967004,0,0,-2.7967004,335.00917,515.67112)"
       id="g578">
      <path
         id="path580"
         style="fill:#5b7866;fill-opacity:1;fill-rule:nonzero;stroke:none"
         d="m 0,0 c -0.148,0.506 -0.803,0.454 -0.973,0 -0.2,-0.538 -0.486,-0.995 -1.012,-1.244 -0.49,-0.232 -0.966,-0.444 -1.411,-0.081 -0.243,0.199 -0.68,0.022 -0.568,-0.331 0.156,-0.49 0.467,-0.721 0.883,-1.003 0.382,-0.259 1.121,-0.037 1.517,0.079 C -0.39,-2.233 0.354,-1.203 0,0" />
    </g>
    <g
       transform="matrix(2.7967004,0,0,-2.7967004,344.52189,504.96758)"
       id="g582">
      <path
         id="path584"
         style="fill:#5b7866;fill-opacity:1;fill-rule:nonzero;stroke:none"
         d="m 0,0 c -0.15,-0.225 -0.258,-0.47 -0.408,-0.694 -0.189,-0.283 -0.434,-0.538 -0.644,-0.805 -0.284,-0.359 0.104,-1.033 0.539,-0.699 0.639,0.49 1.504,1.032 1.394,1.96 C 0.826,0.223 0.277,0.415 0,0" />
    </g>
    <g
       transform="matrix(2.7967004,0,0,-2.7967004,288.66981,550.07807)"
       id="g586">
      <path
         id="path588"
         style="fill:#5b7866;fill-opacity:1;fill-rule:nonzero;stroke:none"
         d="m 0,0 c -0.428,-0.257 -0.72,-0.652 -1.137,-0.912 -0.578,-0.362 -1.214,0.338 -1.441,0.788 -0.33,0.655 -1.216,0.167 -1.107,-0.467 0.181,-1.046 1.191,-1.976 2.277,-1.984 1.112,-0.008 2.041,0.803 2.384,1.825 C 1.163,-0.189 0.482,0.29 0,0" />
    </g>
    <g
       transform="matrix(2.7967004,0,0,-2.7967004,312.16572,543.40852)"
       id="g590">
      <path
         id="path592"
         style="fill:#5b7866;fill-opacity:1;fill-rule:nonzero;stroke:none"
         d="m 0,0 c -0.184,-0.215 -0.42,-0.36 -0.598,-0.58 -0.185,-0.23 -0.37,-0.387 -0.657,-0.463 -0.575,-0.15 -1.098,0.416 -1.657,0.351 -0.498,-0.059 -0.799,-0.734 -0.276,-1.02 0.173,-0.095 0.296,-0.247 0.459,-0.359 0.209,-0.145 0.414,-0.188 0.64,-0.284 0.464,-0.198 0.9,-0.218 1.392,-0.138 0.426,0.069 0.813,0.382 1.1,0.684 0.37,0.391 0.423,0.78 0.497,1.285 C 0.97,-0.053 0.391,0.461 0,0" />
    </g>
    <g
       transform="matrix(2.7967004,0,0,-2.7967004,330.12056,534.53795)"
       id="g594">
      <path
         id="path596"
         style="fill:#5b7866;fill-opacity:1;fill-rule:nonzero;stroke:none"
         d="M 0,0 C -0.303,-0.278 -0.587,-0.572 -0.887,-0.854 -1.043,-1 -1.198,-1.152 -1.404,-1.227 c -0.095,-0.033 -0.533,-0.086 -0.582,0.015 -0.19,0.379 -0.673,0.145 -0.714,-0.193 -0.111,-0.92 1.073,-1.214 1.767,-1.038 0.854,0.217 1.458,1.008 1.829,1.752 C 1.185,-0.112 0.487,0.448 0,0" />
    </g>
    <g
       transform="matrix(2.7967004,0,0,-2.7967004,344.25144,525.04427)"
       id="g598">
      <path
         id="path600"
         style="fill:#5b7866;fill-opacity:1;fill-rule:nonzero;stroke:none"
         d="m 0,0 c -0.177,-0.167 -0.315,-0.344 -0.471,-0.53 -0.222,-0.267 -0.138,-0.137 -0.456,-0.164 -0.339,-0.03 -0.574,-0.54 -0.193,-0.714 0.392,-0.178 0.704,-0.53 1.163,-0.244 0.428,0.266 0.726,0.656 0.811,1.155 C 0.939,-0.008 0.393,0.376 0,0" />
    </g>
    <g
       transform="matrix(2.7967004,0,0,-2.7967004,289.92329,568.81375)"
       id="g602">
      <path
         id="path604"
         style="fill:#5b7866;fill-opacity:1;fill-rule:nonzero;stroke:none"
         d="m 0,0 c -0.5,-0.477 -0.969,-0.978 -1.578,-1.316 -0.729,-0.406 -1.357,0.132 -1.996,0.446 -0.471,0.231 -0.953,-0.234 -0.71,-0.71 C -3.039,-4.023 0.4,-2.894 1.084,-0.631 1.277,0.009 0.458,0.435 0,0" />
    </g>
    <g
       transform="matrix(2.7967004,0,0,-2.7967004,310.1012,561.61726)"
       id="g606">
      <path
         id="path608"
         style="fill:#5b7866;fill-opacity:1;fill-rule:nonzero;stroke:none"
         d="m 0,0 c -0.223,0.172 -0.52,0.274 -0.781,0.101 -0.669,-0.444 -0.446,-1.482 -1.14,-1.933 -0.412,-0.268 -2.066,1.234 -2.199,0.088 -0.072,-0.621 0.843,-1.201 1.282,-1.507 0.521,-0.363 1.344,-0.202 1.84,0.103 0.516,0.315 0.932,0.915 1.117,1.485 C 0.281,-1.164 0.495,-0.383 0,0" />
    </g>
    <g
       transform="matrix(2.7967004,0,0,-2.7967004,330.72686,551.61572)"
       id="g610">
      <path
         id="path612"
         style="fill:#5b7866;fill-opacity:1;fill-rule:nonzero;stroke:none"
         d="m 0,0 c -0.185,0.366 -0.688,0.378 -0.963,0.124 -0.308,-0.285 -0.356,-0.631 -0.478,-1.017 -0.121,-0.385 -0.336,-0.742 -0.613,-1.034 -0.553,-0.583 -1.208,0.044 -1.874,-0.146 -0.336,-0.095 -0.39,-0.549 -0.095,-0.728 0.48,-0.292 0.745,-0.692 1.346,-0.762 0.608,-0.069 1.059,0.048 1.536,0.428 C -0.344,-2.503 0.504,-0.999 0,0" />
    </g>
    <g
       transform="matrix(2.7967004,0,0,-2.7967004,342.63468,546.27373)"
       id="g614">
      <path
         id="path616"
         style="fill:#5b7866;fill-opacity:1;fill-rule:nonzero;stroke:none"
         d="m 0,0 c -0.181,-0.274 -0.396,-0.507 -0.573,-0.79 -0.086,-0.137 -0.206,-0.258 -0.322,-0.371 -0.02,-0.009 -0.035,-0.014 -0.084,-0.037 -0.078,-0.035 -0.181,-0.116 -0.272,-0.083 -0.351,0.132 -0.654,-0.394 -0.368,-0.633 0.457,-0.385 1.142,-0.319 1.617,-0.016 0.268,0.171 0.474,0.48 0.621,0.754 0.162,0.303 0.148,0.627 0.174,0.961 C 0.828,0.236 0.215,0.327 0,0" />
    </g>
    <g
       transform="matrix(2.7967004,0,0,-2.7967004,305.53448,580.82276)"
       id="g618">
      <path
         id="path620"
         style="fill:#5b7866;fill-opacity:1;fill-rule:nonzero;stroke:none"
         d="m 0,0 c -0.54,-0.496 -0.85,-1.18 -1.368,-1.703 -0.542,-0.548 -1.519,-0.368 -1.96,0.25 -0.368,0.515 -1.272,0.223 -1.071,-0.452 0.376,-1.259 1.894,-1.914 3.102,-1.569 1.229,0.352 2.265,1.792 2.41,3.013 C 1.186,0.146 0.374,0.344 0,0" />
    </g>
    <g
       transform="matrix(2.7967004,0,0,-2.7967004,327.53947,574.50277)"
       id="g622">
      <path
         id="path624"
         style="fill:#5b7866;fill-opacity:1;fill-rule:nonzero;stroke:none"
         d="m 0,0 c -0.067,0.546 -0.663,0.709 -0.997,0.271 -0.269,-0.353 -0.676,-0.707 -1.014,-0.997 -0.452,-0.388 -0.737,-0.365 -1.275,0.019 -0.499,0.356 -0.965,-0.386 -0.615,-0.798 0.595,-0.7 1.45,-1.169 2.337,-0.707 C -0.707,-1.766 0.13,-1.049 0,0" />
    </g>
    <g
       transform="matrix(2.7967004,0,0,-2.7967004,340.33214,565.56928)"
       id="g626">
      <path
         id="path628"
         style="fill:#5b7866;fill-opacity:1;fill-rule:nonzero;stroke:none"
         d="m 0,0 c -0.197,-0.246 -0.411,-0.479 -0.626,-0.706 -0.117,-0.123 -0.683,-0.046 -0.87,-0.089 -0.36,-0.083 -0.384,-0.568 -0.098,-0.75 -0.18,0.115 0.128,-0.121 0.136,-0.127 0.108,-0.079 0.211,-0.141 0.338,-0.189 0.332,-0.126 0.627,-0.162 0.974,-0.083 0.308,0.069 0.535,0.356 0.707,0.597 0.183,0.256 0.153,0.595 0.222,0.891 C 0.88,-0.038 0.312,0.393 0,0" />
    </g>
    <g
       transform="matrix(2.7967004,0,0,-2.7967004,303.7183,600.62622)"
       id="g630">
      <path
         id="path632"
         style="fill:#5b7866;fill-opacity:1;fill-rule:nonzero;stroke:none"
         d="m 0,0 c -0.288,-0.242 -0.472,-0.596 -0.783,-0.811 -0.105,-0.072 -0.294,-0.088 -0.196,-0.144 -0.149,0.086 -0.312,0.105 -0.476,0.125 -0.291,0.098 -0.62,-0.067 -0.632,-0.424 -0.025,-0.79 0.998,-0.989 1.589,-0.882 0.777,0.143 1.382,1.011 1.451,1.741 C 1.004,0.138 0.331,0.28 0,0" />
    </g>
    <g
       transform="matrix(2.7967004,0,0,-2.7967004,319.5672,594.23267)"
       id="g634">
      <path
         id="path636"
         style="fill:#5b7866;fill-opacity:1;fill-rule:nonzero;stroke:none"
         d="m 0,0 c -0.419,-0.3 -0.668,-0.744 -1.075,-1.054 -0.458,-0.347 -0.962,-0.122 -1.475,-0.259 -0.411,-0.112 -0.554,-0.767 -0.126,-0.964 0.777,-0.36 1.423,-0.506 2.228,-0.144 0.642,0.29 1.249,1.032 1.354,1.724 C 0.979,-0.228 0.495,0.354 0,0" />
    </g>
    <g
       transform="matrix(2.7967004,0,0,-2.7967004,341.02601,585.31258)"
       id="g638">
      <path
         id="path640"
         style="fill:#5b7866;fill-opacity:1;fill-rule:nonzero;stroke:none"
         d="m 0,0 c -0.048,0.484 -0.691,0.921 -1.08,0.447 -0.325,-0.395 -0.481,-0.991 -0.892,-1.305 -0.472,-0.361 -1.252,-0.114 -1.809,-0.204 -0.554,-0.092 -0.458,-0.877 0,-1.026 0.907,-0.292 1.663,-0.521 2.572,-0.076 C -0.477,-1.807 0.078,-0.79 0,0" />
    </g>
    <g
       transform="matrix(2.7967004,0,0,-2.7967004,356.487,574.51649)"
       id="g642">
      <path
         id="path644"
         style="fill:#5b7866;fill-opacity:1;fill-rule:nonzero;stroke:none"
         d="m 0,0 c -0.259,-0.299 -0.516,-0.613 -0.76,-0.924 -0.115,-0.147 -0.27,-0.328 -0.45,-0.398 -0.197,-0.076 -0.401,0.021 -0.612,-0.03 -0.348,-0.083 -0.329,-0.503 -0.09,-0.685 0.545,-0.41 1.192,-0.421 1.715,0.071 0.448,0.421 0.581,0.942 0.822,1.484 C 0.796,-0.1 0.319,0.37 0,0" />
    </g>
    <g
       transform="matrix(2.7967004,0,0,-2.7967004,316.84433,614.15356)"
       id="g646">
      <path
         id="path648"
         style="fill:#5b7866;fill-opacity:1;fill-rule:nonzero;stroke:none"
         d="m 0,0 c -0.274,-0.231 -0.54,-0.556 -0.884,-0.685 -0.328,-0.124 -0.583,0.126 -0.965,0.263 -0.544,0.194 -1.055,-0.631 -0.582,-0.999 0.264,-0.204 0.506,-0.427 0.786,-0.61 0.317,-0.207 0.808,-0.148 1.152,-0.068 0.703,0.163 1.397,0.791 1.499,1.513 C 1.09,0.012 0.487,0.408 0,0" />
    </g>
    <g
       transform="matrix(2.7967004,0,0,-2.7967004,338.07073,603.33286)"
       id="g650">
      <path
         id="path652"
         style="fill:#5b7866;fill-opacity:1;fill-rule:nonzero;stroke:none"
         d="m 0,0 c -0.052,0.508 -0.811,0.87 -1.077,0.292 -0.198,-0.43 -0.367,-0.907 -0.67,-1.276 -0.211,-0.257 -0.963,-0.704 -1.221,-0.254 -0.154,0.266 -0.643,0.246 -0.7,-0.092 -0.195,-1.159 1.209,-1.484 2.071,-1.202 C -0.601,-2.206 0.104,-1.017 0,0" />
    </g>
    <g
       transform="matrix(2.7967004,0,0,-2.7967004,355.92151,593.57182)"
       id="g654">
      <path
         id="path656"
         style="fill:#5b7866;fill-opacity:1;fill-rule:nonzero;stroke:none"
         d="m 0,0 c -0.307,-0.389 -0.696,-0.699 -1.052,-1.042 -0.194,-0.187 -0.989,-0.664 -1.274,-0.39 -0.407,0.392 -0.99,-0.1 -0.755,-0.582 0.361,-0.739 1.408,-0.768 2.085,-0.526 0.979,0.352 1.499,1.122 1.799,2.072 C 0.941,-0.031 0.304,0.386 0,0" />
    </g>
    <g
       transform="matrix(2.7967004,0,0,-2.7967004,324.33025,631.64945)"
       id="g658">
      <path
         id="path660"
         style="fill:#5b7866;fill-opacity:1;fill-rule:nonzero;stroke:none"
         d="m 0,0 c -0.286,-0.26 -0.57,-0.455 -0.9,-0.657 -0.351,-0.215 -0.24,-0.878 0.224,-0.83 0.673,0.069 1.488,0.341 1.463,1.161 C 0.775,0.086 0.299,0.271 0,0" />
    </g>
    <g
       transform="matrix(2.7967004,0,0,-2.7967004,338.98022,621.78464)"
       id="g662">
      <path
         id="path664"
         style="fill:#5b7866;fill-opacity:1;fill-rule:nonzero;stroke:none"
         d="m 0,0 c -0.062,0.436 -0.709,0.46 -0.899,0.117 -0.118,-0.21 -0.287,-0.374 -0.375,-0.598 -0.086,-0.217 -0.193,-0.425 -0.345,-0.602 -0.217,-0.252 -0.694,-0.461 -0.996,-0.187 -0.283,0.256 -0.847,0.013 -0.693,-0.403 0.308,-0.829 1.347,-1.126 2.114,-0.775 0.433,0.198 0.741,0.525 0.985,0.929 C 0.103,-1.006 0.082,-0.568 0,0" />
    </g>
    <g
       transform="matrix(2.7967004,0,0,-2.7967004,355.07494,612.34578)"
       id="g666">
      <path
         id="path668"
         style="fill:#5b7866;fill-opacity:1;fill-rule:nonzero;stroke:none"
         d="m 0,0 c -0.276,-0.272 -0.604,-0.53 -0.917,-0.759 -0.145,-0.106 -0.747,-0.413 -0.889,-0.214 -0.236,0.333 -0.752,0.308 -0.878,-0.114 -0.29,-0.973 0.823,-1.317 1.571,-1.231 0.444,0.05 0.819,0.225 1.163,0.509 0.397,0.33 0.545,0.735 0.742,1.199 C 1.004,-0.111 0.437,0.432 0,0" />
    </g>
    <g
       transform="matrix(2.7967004,0,0,-2.7967004,372.36582,604.03761)"
       id="g670">
      <path
         id="path672"
         style="fill:#5b7866;fill-opacity:1;fill-rule:nonzero;stroke:none"
         d="m 0,0 c -0.321,-0.218 -0.686,-0.351 -1.038,-0.512 -0.36,-0.163 -0.237,-0.714 0.105,-0.806 0.705,-0.19 1.081,0.292 1.441,0.81 C 0.719,-0.204 0.304,0.205 0,0" />
    </g>
    <g
       transform="matrix(2.7967004,0,0,-2.7967004,340.02368,641.94576)"
       id="g674">
      <path
         id="path676"
         style="fill:#5b7866;fill-opacity:1;fill-rule:nonzero;stroke:none"
         d="m 0,0 c -0.254,-0.161 -0.446,-0.369 -0.684,-0.546 -0.139,-0.103 -0.267,-0.174 -0.441,-0.184 -0.069,-0.008 -0.138,-0.011 -0.207,-0.008 -0.032,0.01 -0.033,0.01 -0.052,0.016 -0.285,0.302 -0.806,0.027 -0.806,-0.36 0,-0.771 0.887,-1.067 1.532,-0.939 0.699,0.137 1.368,0.638 1.524,1.354 C 0.972,-0.187 0.462,0.293 0,0" />
    </g>
    <g
       transform="matrix(2.7967004,0,0,-2.7967004,356.38044,633.03409)"
       id="g678">
      <path
         id="path680"
         style="fill:#5b7866;fill-opacity:1;fill-rule:nonzero;stroke:none"
         d="m 0,0 c -0.162,-0.123 -0.325,-0.229 -0.456,-0.386 -0.131,-0.159 -0.261,-0.354 -0.428,-0.478 -0.348,-0.26 -0.876,0.131 -1.243,0.219 -0.467,0.114 -0.845,-0.47 -0.478,-0.822 0.623,-0.599 1.153,-1.042 2.07,-0.876 0.719,0.13 1.345,0.957 1.465,1.628 C 1.015,-0.241 0.493,0.374 0,0" />
    </g>
    <g
       transform="matrix(2.7967004,0,0,-2.7967004,372.04366,621.02253)"
       id="g682">
      <path
         id="path684"
         style="fill:#5b7866;fill-opacity:1;fill-rule:nonzero;stroke:none"
         d="m 0,0 c -0.239,-0.403 -0.492,-0.794 -0.734,-1.195 -0.277,-0.458 -0.941,-0.168 -1.31,0.041 -0.371,0.211 -0.911,-0.239 -0.625,-0.625 0.597,-0.806 1.607,-1.309 2.56,-0.828 0.826,0.416 0.889,1.43 1.051,2.211 C 1.059,0.165 0.309,0.521 0,0" />
    </g>
    <g
       transform="matrix(2.7967004,0,0,-2.7967004,360.73937,653.37841)"
       id="g686">
      <path
         id="path688"
         style="fill:#5b7866;fill-opacity:1;fill-rule:nonzero;stroke:none"
         d="m 0,0 c -0.114,0.387 -0.616,0.535 -0.907,0.239 -0.328,-0.334 -0.45,-0.763 -0.866,-1.019 -0.151,-0.093 -0.367,-0.058 -0.529,-0.027 -0.148,0.029 -0.266,0.023 -0.386,-0.001 -0.071,-0.003 -0.136,-0.023 -0.197,-0.057 -0.011,-0.005 -0.018,-0.004 -0.029,-0.009 0.001,-0.003 0.003,-0.006 0.004,-0.009 -0.243,-0.158 -0.358,-0.528 -0.102,-0.748 0.523,-0.447 1.271,-0.556 1.895,-0.272 C -0.443,-1.597 0.229,-0.775 0,0" />
    </g>
    <g
       transform="matrix(2.7967004,0,0,-2.7967004,375.41395,638.50191)"
       id="g690">
      <path
         id="path692"
         style="fill:#5b7866;fill-opacity:1;fill-rule:nonzero;stroke:none"
         d="m 0,0 c -0.314,-0.492 -0.539,-1.057 -0.961,-1.47 -0.469,-0.459 -1.199,0.114 -1.751,-0.156 -0.256,-0.124 -0.315,-0.546 -0.095,-0.73 0.753,-0.626 1.757,-0.88 2.63,-0.353 0.821,0.496 1.236,1.489 1.32,2.399 C 1.202,0.336 0.304,0.476 0,0" />
    </g>
    <g
       transform="matrix(2.7967004,0,0,-2.7967004,391.74892,625.07551)"
       id="g694">
      <path
         id="path696"
         style="fill:#5b7866;fill-opacity:1;fill-rule:nonzero;stroke:none"
         d="m 0,0 c -0.243,-0.401 -0.355,-0.558 -0.79,-0.754 -0.356,-0.161 -0.185,-0.622 0.096,-0.735 -0.072,0.053 -0.048,0.035 0.07,-0.056 0.115,-0.067 0.238,-0.07 0.367,-0.077 0.218,-0.012 0.444,0.066 0.627,0.176 0.418,0.247 0.568,0.752 0.526,1.204 C 0.852,0.217 0.264,0.435 0,0" />
    </g>
    <g
       transform="matrix(2.7967004,0,0,-2.7967004,378.46459,659.35692)"
       id="g698">
      <path
         id="path700"
         style="fill:#5b7866;fill-opacity:1;fill-rule:nonzero;stroke:none"
         d="m 0,0 c -0.161,0.402 -0.63,0.583 -0.973,0.257 -0.301,-0.285 -0.403,-0.721 -0.59,-1.084 -0.173,-0.335 -0.591,-0.76 -1.022,-0.597 -0.47,0.177 -0.733,-0.459 -0.453,-0.777 0.567,-0.641 1.604,-0.537 2.203,0.018 C -0.321,-1.706 0.289,-0.723 0,0" />
    </g>
    <g
       transform="matrix(2.7967004,0,0,-2.7967004,393.92281,643.76223)"
       id="g702">
      <path
         id="path704"
         style="fill:#5b7866;fill-opacity:1;fill-rule:nonzero;stroke:none"
         d="M 0,0 C -0.434,-0.617 -0.702,-2.019 -1.651,-2.047 -2.068,-2.06 -2.146,-2.549 -1.849,-2.774 -0.379,-3.892 1.124,-1.613 1.07,-0.29 1.046,0.305 0.325,0.463 0,0" />
    </g>
    <g
       transform="matrix(2.7967004,0,0,-2.7967004,407.79724,631.43382)"
       id="g706">
      <path
         id="path708"
         style="fill:#5b7866;fill-opacity:1;fill-rule:nonzero;stroke:none"
         d="m 0,0 c -0.121,-0.121 -0.247,-0.272 -0.41,-0.335 -0.311,-0.12 -0.388,-0.624 0,-0.709 0.53,-0.115 0.916,0.164 1.024,0.687 C 0.687,-0.008 0.272,0.271 0,0" />
    </g>
    <g
       transform="matrix(2.7967004,0,0,-2.7967004,399.7156,662.54964)"
       id="g710">
      <path
         id="path712"
         style="fill:#5b7866;fill-opacity:1;fill-rule:nonzero;stroke:none"
         d="m 0,0 c -0.111,0.495 -0.849,0.588 -1.085,0.142 -0.484,-0.916 -0.688,-1.951 -1.802,-2.065 -0.245,0.154 -0.634,0.071 -0.715,-0.258 -0.01,-0.045 -0.021,-0.09 -0.033,-0.133 -0.052,-0.212 0.03,-0.462 0.232,-0.569 C -1.661,-3.791 0.407,-1.806 0,0" />
    </g>
    <g
       transform="matrix(2.7967004,0,0,-2.7967004,416.73073,644.57328)"
       id="g714">
      <path
         id="path716"
         style="fill:#5b7866;fill-opacity:1;fill-rule:nonzero;stroke:none"
         d="m 0,0 c -0.059,0.581 -0.764,0.656 -0.982,0.133 -0.205,-0.491 -0.398,-1.005 -0.627,-1.484 -0.102,-0.211 -0.207,-0.382 -0.373,-0.546 -0.077,-0.076 -0.185,-0.106 -0.297,-0.133 -0.177,0.032 -0.373,-0.024 -0.45,-0.189 -0.022,-0.038 -0.017,-0.039 0.014,-0.005 -0.162,-0.13 -0.196,-0.438 -0.078,-0.605 0.593,-0.838 1.726,-0.279 2.211,0.366 C -0.031,-1.731 0.09,-0.886 0,0" />
    </g>
    <g
       transform="matrix(2.7967004,0,0,-2.7967004,411.24107,676.11809)"
       id="g718">
      <path
         id="path720"
         style="fill:#5b7866;fill-opacity:1;fill-rule:nonzero;stroke:none"
         d="m 0,0 c -0.214,-0.261 -0.466,-0.47 -0.696,-0.718 -0.09,-0.096 -0.199,-0.216 -0.325,-0.265 -0.025,-0.008 -0.048,-0.016 -0.073,-0.024 -0.143,0.261 -0.59,0.25 -0.661,-0.071 -0.068,-0.313 -0.21,-0.592 0.064,-0.865 0.232,-0.233 0.692,-0.296 0.995,-0.221 0.399,0.101 0.738,0.311 0.999,0.63 0.279,0.34 0.34,0.683 0.448,1.097 C 0.856,-0.03 0.298,0.365 0,0" />
    </g>
    <g
       transform="matrix(2.7967004,0,0,-2.7967004,420.68553,662.62065)"
       id="g722">
      <path
         id="path724"
         style="fill:#5b7866;fill-opacity:1;fill-rule:nonzero;stroke:none"
         d="m 0,0 c -0.123,0.479 -0.842,0.478 -0.965,0 -0.049,-0.189 -0.11,-0.348 -0.181,-0.529 -0.089,-0.226 -0.087,-0.496 -0.13,-0.736 -0.037,-0.21 -0.095,-0.413 -0.196,-0.601 -0.034,-0.065 -0.055,-0.059 -0.125,-0.097 0.21,0.113 -0.126,0.061 -0.102,0.05 -0.393,0.178 -0.777,-0.182 -0.582,-0.582 0.498,-1.031 1.608,-0.829 2.14,0.071 0.226,0.383 0.279,0.864 0.334,1.294 C 0.245,-0.729 0.097,-0.38 0,0" />
    </g>
    <g
       transform="matrix(2.7967004,0,0,-2.7967004,430.24185,646.47951)"
       id="g726">
      <path
         id="path728"
         style="fill:#5b7866;fill-opacity:1;fill-rule:nonzero;stroke:none"
         d="M 0,0 C -0.229,0.247 -0.647,0.122 -0.747,-0.184 -0.783,-0.23 -0.819,-0.277 -0.854,-0.325 -0.958,-0.467 -0.97,-0.72 -1.03,-0.886 c -0.084,-0.232 -0.173,-0.467 -0.38,-0.615 -0.248,-0.178 -0.343,-0.635 0,-0.789 0.598,-0.27 1.093,0.121 1.429,0.599 C 0.399,-1.147 0.444,-0.479 0,0" />
    </g>
    <g
       transform="matrix(2.7967004,0,0,-2.7967004,433.25978,674.69235)"
       id="g730">
      <path
         id="path732"
         style="fill:#5b7866;fill-opacity:1;fill-rule:nonzero;stroke:none"
         d="m 0,0 c -0.194,0.221 -0.601,0.22 -0.795,0 -0.287,-0.322 -0.252,-0.659 -0.315,-1.059 -0.074,-0.463 -0.264,-0.593 -0.699,-0.755 -0.432,-0.163 -0.442,-0.731 0,-0.889 0.729,-0.261 1.4,0.016 1.818,0.651 C 0.356,-1.522 0.429,-0.483 0,0" />
    </g>
    <g
       transform="matrix(2.7967004,0,0,-2.7967004,439.63682,661.10764)"
       id="g734">
      <path
         id="path736"
         style="fill:#5b7866;fill-opacity:1;fill-rule:nonzero;stroke:none"
         d="m 0,0 c -0.279,0.292 -0.819,0.156 -0.914,-0.241 -0.11,-0.461 -0.033,-1.432 -0.594,-1.577 -0.422,-0.11 -0.43,-0.755 0,-0.86 0.742,-0.18 1.277,0.054 1.602,0.777 C 0.366,-1.297 0.496,-0.52 0,0" />
    </g>
    <g
       transform="matrix(2.7967004,0,0,-2.7967004,449.08407,673.5208)"
       id="g738">
      <path
         id="path740"
         style="fill:#5b7866;fill-opacity:1;fill-rule:nonzero;stroke:none"
         d="m 0,0 c -0.207,-0.258 -0.309,-0.514 -0.451,-0.806 -0.149,-0.305 -0.34,-0.36 -0.64,-0.172 -0.483,0.305 -0.911,-0.354 -0.577,-0.748 0.457,-0.538 1.224,-0.743 1.837,-0.347 0.535,0.345 0.801,1.074 0.765,1.686 C 0.908,0.038 0.324,0.404 0,0" />
    </g>
    <g
       transform="matrix(2.7967004,0,0,-2.7967004,458.5965,659.38711)"
       id="g742">
      <path
         id="path744"
         style="fill:#5b7866;fill-opacity:1;fill-rule:nonzero;stroke:none"
         d="M 0,0 C -0.037,0.332 -0.476,0.64 -0.747,0.31 -1.083,-0.101 -0.998,-0.632 -1.289,-1.043 -1.614,-1.501 -0.898,-2.029 -0.521,-1.635 -0.128,-1.222 0.063,-0.563 0,0" />
    </g>
    <g
       transform="matrix(2.7967004,0,0,-2.7967004,472.9651,668.06668)"
       id="g746">
      <path
         id="path748"
         style="fill:#5b7866;fill-opacity:1;fill-rule:nonzero;stroke:none"
         d="m 0,0 c -0.237,0.18 -0.62,0.041 -0.754,-0.197 -0.212,-0.378 -0.119,-0.809 -0.186,-1.222 -0.042,-0.253 -0.158,-0.842 -0.417,-0.97 -0.319,-0.156 -0.272,-0.749 0.104,-0.799 0.734,-0.1 1.171,0.362 1.465,0.999 C 0.521,-1.521 0.649,-0.492 0,0" />
    </g>
    <g
       transform="matrix(2.7967004,0,0,-2.7967004,488.01385,674.62132)"
       id="g750">
      <path
         id="path752"
         style="fill:#5b7866;fill-opacity:1;fill-rule:nonzero;stroke:none"
         d="M 0,0 C -0.168,-0.099 -0.271,-0.273 -0.391,-0.421 -0.464,-0.512 -0.53,-0.605 -0.595,-0.703 -0.609,-0.724 -0.625,-0.744 -0.64,-0.766 -0.88,-0.771 -1.127,-0.986 -1.021,-1.241 -0.595,-2.259 0.644,-1.402 0.85,-0.653 0.985,-0.157 0.444,0.261 0,0" />
    </g>
    <g
       transform="matrix(2.7967004,0,0,-2.7967004,490.92242,664.5297)"
       id="g754">
      <path
         id="path756"
         style="fill:#5b7866;fill-opacity:1;fill-rule:nonzero;stroke:none"
         d="M 0,0 C -0.099,0.501 -0.808,0.54 -1.045,0.137 -1.1,0.056 -1.143,-0.031 -1.174,-0.124 l -0.038,-0.135 c -0.017,-0.042 -0.029,-0.073 -0.035,-0.095 -0.368,-0.391 -0.002,-1.042 0.571,-0.94 0.014,0.002 0.028,0.005 0.04,0.007 0.105,0.018 0.183,0.072 0.247,0.139 0.34,0.25 0.468,0.75 0.389,1.148" />
    </g>
    <g
       transform="matrix(2.7967004,0,0,-2.7967004,508.05501,666.9989)"
       id="g758">
      <path
         id="path760"
         style="fill:#5b7866;fill-opacity:1;fill-rule:nonzero;stroke:none"
         d="m 0,0 c -0.164,0.523 -0.847,0.486 -1.025,0 -0.22,-0.602 -0.254,-1.285 -0.73,-1.763 -0.428,-0.428 0.135,-1.202 0.658,-0.852 C -0.279,-2.068 0.308,-0.986 0,0" />
    </g>
  </g>
</svg>
