<?xml version="1.0" encoding="UTF-8" standalone="no"?>
<svg
   xmlns:dc="http://purl.org/dc/elements/1.1/"
   xmlns:cc="http://creativecommons.org/ns#"
   xmlns:rdf="http://www.w3.org/1999/02/22-rdf-syntax-ns#"
   xmlns:svg="http://www.w3.org/2000/svg"
   xmlns="http://www.w3.org/2000/svg"
   version="1.1"
   id="svg8658"
   viewBox="0 0 698.01674 820.10165"
   height="231.45091mm"
   width="196.99583mm">
  <defs
     id="defs8660" />
  <metadata
     id="metadata8663">
    <rdf:RDF>
      <cc:Work
         rdf:about="">
        <dc:format>image/svg+xml</dc:format>
        <dc:type
           rdf:resource="http://purl.org/dc/dcmitype/StillImage" />
        <dc:title></dc:title>
      </cc:Work>
    </rdf:RDF>
  </metadata>
  <g
     transform="translate(-14.658302,-100.8828)"
     id="layer1">
    <g
       transform="matrix(3.7360576,0,0,-3.7360576,657.43839,493.66617)"
       id="g2474">
      <path
         id="path2476"
         style="fill:#4e5275;fill-opacity:1;fill-rule:nonzero;stroke:none"
         d="m 0,0 c -2.686,0.717 -2.332,-1.42 -2.97,-3.395 -1.181,-3.659 -2.467,-6.789 -5.332,-9.514 -3.346,-3.182 -7.546,-4.894 -12.152,-3.612 -0.949,0.265 -1.321,-1.151 -0.402,-1.461 0.151,-0.052 0.3,-0.09 0.451,-0.135 0.189,-1.681 1.236,-2.428 3.118,-2.446 1.492,-0.015 3.412,-0.3 4.858,0.098 1.443,0.397 2.564,1.194 3.857,1.909 5.347,2.954 9.928,8.503 11.113,14.552 C 3.04,-1.458 2.428,-0.649 0,0" />
    </g>
    <g
       transform="matrix(3.7360576,0,0,-3.7360576,687.13708,461.81852)"
       id="g2478">
      <path
         id="path2480"
         style="fill:#37364e;fill-opacity:1;fill-rule:nonzero;stroke:none"
         d="m 0,0 c -5.209,2.176 -12.361,3.219 -17.521,0.29 -0.272,-0.155 -0.461,-0.54 -0.345,-0.849 0.13,-0.343 0.318,-0.637 0.534,-0.906 0.777,-1.874 2.565,-3.56 3.796,-5.122 1.152,-1.463 2.355,-2.886 3.519,-4.339 0.508,-0.634 1.222,-1.501 2.018,-1.786 2.314,-0.83 5.243,1.353 7.295,2.218 2.162,0.912 4.538,2.114 6.365,3.608 C 9.679,-3.603 2.283,-0.954 0,0" />
    </g>
    <g
       transform="matrix(3.7360576,0,0,-3.7360576,564.36869,649.57)"
       id="g2482">
      <path
         id="path2484"
         style="fill:#d9d9d9;fill-opacity:1;fill-rule:nonzero;stroke:none"
         d="m 0,0 c -1.422,-0.399 -4.093,-1.004 -5.191,-2.103 -0.422,-0.421 -0.352,-1.436 -0.221,-2.361 -1.056,-5.564 -1.823,-11.697 -2.867,-17.421 -1.329,-7.298 -2.614,-14.571 -3.689,-21.913 -1.091,-7.449 -2.931,-14.613 -4.541,-21.957 -0.331,-1.508 -0.387,-3.028 -0.665,-4.538 -0.089,-0.481 -0.183,-1.245 0.205,-1.634 1.116,-1.116 4.418,-0.805 5.543,0.052 1.848,1.407 1.866,5.25 2.306,7.296 0.776,3.612 1.339,7.253 2.23,10.841 1.747,7.027 3.239,14.182 4.512,21.307 1.378,7.71 2.96,15.368 4.186,23.108 0.423,2.677 0.72,5.366 1.105,8.047 C 3.218,0.851 1.475,0.414 0,0" />
    </g>
    <g
       transform="matrix(3.7360576,0,0,-3.7360576,519.37574,887.13991)"
       id="g2486">
      <path
         id="path2488"
         style="fill:#37364e;fill-opacity:1;fill-rule:nonzero;stroke:none"
         d="m 0,0 c -1.376,-0.146 -2.744,-0.358 -4.111,-0.575 -0.118,-0.53 -0.239,-1.06 -0.355,-1.592 -0.331,-1.508 -0.387,-3.027 -0.665,-4.538 -0.089,-0.481 -0.183,-1.244 0.205,-1.633 1.116,-1.117 4.418,-0.806 5.543,0.051 1.848,1.407 1.866,5.25 2.306,7.296 0.086,0.402 0.163,0.804 0.245,1.206 C 2.116,0.33 0.935,0.1 0,0" />
    </g>
    <g
       transform="matrix(3.7360576,0,0,-3.7360576,256.34835,626.66495)"
       id="g2490">
      <path
         id="path2492"
         style="fill:#d9d9d9;fill-opacity:1;fill-rule:nonzero;stroke:none"
         d="m 0,0 c 0.268,-2.695 0.446,-5.395 0.753,-8.087 0.885,-7.788 2.129,-15.507 3.167,-23.27 0.96,-7.175 2.137,-14.388 3.574,-21.485 0.734,-3.623 1.136,-7.285 1.753,-10.928 0.349,-2.064 0.199,-5.904 1.983,-7.39 1.087,-0.906 4.372,-1.361 5.536,-0.295 0.406,0.372 0.343,1.138 0.277,1.624 -0.212,1.52 -0.201,3.041 -0.466,4.562 -1.286,7.407 -2.81,14.646 -3.574,22.135 -0.752,7.383 -1.716,14.705 -2.725,22.054 -0.792,5.765 -1.29,11.925 -2.1,17.53 0.172,0.919 0.286,1.928 -0.117,2.368 C 7.012,-0.036 4.37,0.686 2.967,1.147 1.512,1.625 -0.211,2.138 0,0" />
    </g>
    <g
       transform="matrix(3.7360576,0,0,-3.7360576,290.18095,860.37107)"
       id="g2494">
      <path
         id="path2496"
         style="fill:#37364e;fill-opacity:1;fill-rule:nonzero;stroke:none"
         d="M 0,0 C 0.063,-0.405 0.123,-0.811 0.191,-1.215 0.54,-3.28 0.391,-7.12 2.175,-8.606 3.262,-9.512 6.546,-9.967 7.71,-8.901 8.116,-8.529 8.054,-7.763 7.987,-7.277 7.775,-5.756 7.786,-4.236 7.521,-2.714 7.429,-2.178 7.332,-1.644 7.236,-1.109 5.88,-0.833 4.522,-0.561 3.154,-0.354 2.226,-0.214 1.056,0.068 0,0" />
    </g>
    <g
       transform="matrix(3.7360576,0,0,-3.7360576,280.52325,644.91448)"
       id="g2498">
      <path
         id="path2500"
         style="fill:#d9d9d9;fill-opacity:1;fill-rule:nonzero;stroke:none"
         d="m 0,0 c 0.961,-2.533 1.836,-5.092 2.834,-7.612 2.883,-7.288 6.095,-14.417 9.119,-21.641 2.796,-6.677 5.811,-13.334 9.047,-19.812 1.652,-3.307 2.995,-6.739 4.539,-10.094 0.875,-1.903 1.731,-5.649 3.841,-6.619 1.285,-0.591 4.574,-0.175 5.421,1.157 0.295,0.465 0.035,1.189 -0.155,1.641 -0.601,1.412 -0.987,2.883 -1.639,4.283 -3.171,6.816 -6.528,13.408 -9.217,20.44 -2.649,6.931 -5.487,13.75 -8.375,20.582 -2.267,5.36 -4.352,11.177 -6.595,16.378 C 8.747,-0.366 8.594,0.639 8.09,0.959 6.779,1.792 4.041,1.801 2.565,1.88 1.036,1.963 -0.761,2.009 0,0" />
    </g>
    <g
       transform="matrix(3.7360576,0,0,-3.7360576,410.54103,886.3408)"
       id="g2502">
      <path
         id="path2504"
         style="fill:#37364e;fill-opacity:1;fill-rule:nonzero;stroke:none"
         d="M 0,0 C 0.295,0.465 0.035,1.188 -0.155,1.64 -0.756,3.053 -1.142,4.523 -1.794,5.924 -2.023,6.417 -2.256,6.908 -2.487,7.399 -3.868,7.313 -5.25,7.222 -6.625,7.064 -7.559,6.958 -8.762,6.926 -9.764,6.585 -9.596,6.21 -9.434,5.834 -9.262,5.461 -8.387,3.559 -7.531,-0.187 -5.421,-1.157 -4.136,-1.749 -0.847,-1.333 0,0" />
    </g>
    <g
       transform="matrix(3.7360576,0,0,-3.7360576,569.24321,636.54311)"
       id="g2506">
      <path
         id="path2508"
         style="fill:#d9d9d9;fill-opacity:1;fill-rule:nonzero;stroke:none"
         d="m 0,0 c -1.183,-0.884 -3.457,-2.41 -4.086,-3.831 -0.242,-0.544 0.189,-1.465 0.645,-2.282 1.016,-5.571 2.508,-11.569 3.595,-17.284 1.387,-7.288 2.807,-14.536 4.447,-21.772 1.663,-7.343 2.524,-14.689 3.667,-22.121 0.234,-1.526 0.728,-2.963 1.013,-4.473 0.089,-0.481 0.277,-1.227 0.779,-1.45 1.443,-0.64 4.412,0.838 5.153,2.043 1.218,1.978 -0.149,5.569 -0.475,7.637 -0.576,3.649 -1.362,7.249 -1.822,10.917 -0.899,7.185 -2.084,14.397 -3.46,21.504 -1.49,7.688 -2.77,15.402 -4.413,23.065 -0.568,2.65 -1.26,5.266 -1.866,7.906 C 2.696,1.952 1.227,0.917 0,0" />
    </g>
    <g
       transform="matrix(3.7360576,0,0,-3.7360576,626.07941,902.43792)"
       id="g2510">
      <path
         id="path2512"
         style="fill:#37364e;fill-opacity:1;fill-rule:nonzero;stroke:none"
         d="M 0,0 C 1.218,1.978 -0.148,5.569 -0.475,7.637 -0.539,8.043 -0.612,8.446 -0.681,8.851 -1.703,8.58 -2.724,7.939 -3.559,7.509 -4.789,6.877 -5.989,6.187 -7.187,5.493 -7.107,4.955 -7.028,4.418 -6.945,3.88 -6.711,2.354 -6.217,0.917 -5.932,-0.593 -5.843,-1.074 -5.655,-1.82 -5.153,-2.043 -3.71,-2.683 -0.741,-1.205 0,0" />
    </g>
    <g
       transform="matrix(3.7360576,0,0,-3.7360576,559.37027,521.15943)"
       id="g2514">
      <path
         id="path2516"
         style="fill:#4e5275;fill-opacity:1;fill-rule:nonzero;stroke:none"
         d="m 0,0 c -0.325,1.084 -1.072,1.787 -1.738,2.686 -0.833,1.125 -0.885,2.172 -1.268,3.433 -0.585,1.93 -2.83,1.453 -4.2,0.886 -1.416,-0.586 -1.611,3.316 -3.775,2.815 -1.579,-0.365 -3.632,-1.776 -4.501,0.447 -0.325,0.827 -0.603,1.569 -1.231,2.216 -1.286,1.326 -3.247,0.203 -4.447,-0.557 -2.538,-1.605 -3.166,0.725 -3.5,2.409 -0.231,1.166 -0.613,2.174 -1.692,2.72 -1.935,0.979 -4.417,-4.861 -5.83,-1.157 -0.45,1.18 -0.589,4.465 -2.321,4.725 -0.632,0.094 -1.255,0.155 -1.78,-0.316 -0.841,-0.754 -3.86,-4.537 -4.357,-0.759 -0.259,1.973 1.205,5.433 -1.047,6.752 -1.499,0.879 -3.645,-2.165 -4.446,-2.946 -2.295,-2.239 -2.9,0.583 -2.979,1.634 -0.047,0.631 0.067,1.267 0.191,1.883 0.319,1.596 0.966,3.244 1.679,4.698 0.761,1.553 1.069,3.984 -0.375,5.22 -1.327,1.136 -3.535,-0.235 -4.865,-0.651 -1.659,-0.626 -3.005,0.197 -1.456,2.153 0.241,0.454 0.506,0.893 0.796,1.318 0.383,0.595 0.853,1.101 1.245,1.683 0.629,0.935 0.96,1.725 1.093,2.836 0.21,1.762 -1.688,3.339 -3.348,2.881 -3.694,-1.021 -1.752,2.616 -0.905,3.984 0.722,1.164 1.478,2.179 1.994,3.456 0.695,1.723 -0.464,3.048 -2.086,3.242 -2.078,0.248 -3.627,2.112 -1.124,3.187 0.821,0.353 1.972,0.844 2.444,1.68 1.159,2.055 -0.08,3.773 -1.706,5.114 -1.556,1.283 -0.394,1.792 0.78,2.481 0.973,0.571 1.446,1.174 1.727,2.271 0.174,0.685 -0.241,1.579 -0.677,2.078 -0.543,0.623 -4.202,3.055 -2.838,3.556 1.314,0.482 2.976,1.648 2.699,3.273 -0.153,0.904 -0.477,1.664 -1.264,2.213 -0.669,0.466 -1.252,0.951 -1.92,1.408 -1.697,1.162 -0.483,1.697 0.725,2.459 1.293,0.816 2.808,2.879 1.965,4.484 -0.402,0.765 -0.973,1.363 -1.84,1.612 -1.007,0.288 -2.64,0.3 -2.196,2.202 0.215,0.919 1.075,1.832 1.498,2.679 0.845,1.695 0.244,3.326 -1.332,4.217 -0.825,0.466 -1.861,0.309 -2.739,0.168 -0.504,-0.08 -1.227,-0.455 -1.68,-0.659 -1.756,-0.793 -1.954,0.983 -1.559,2.147 0.589,1.731 0.961,3.434 -1.047,4.244 -0.589,0.238 -1.732,-0.094 -2.23,-0.387 -0.917,-0.536 -3.049,-3.665 -3.709,-0.952 -0.296,1.219 -0.854,3.622 -2.699,3.176 -1.231,-0.297 -1.914,-0.88 -2.751,-1.838 -0.453,-0.52 -0.696,-0.968 -0.978,-1.593 -0.14,-0.328 -0.272,-0.659 -0.397,-0.993 -0.264,-1.864 -2.203,-2.329 -2.116,-0.124 -0.228,2.21 -0.085,4.988 -2.106,6.417 -1.951,1.381 -4.537,-2.711 -5.132,-3.974 -1.653,-3.507 -2.22,-7.571 -2.856,-11.355 -0.677,-4.03 -2.131,-8.174 -2.28,-12.254 -0.009,-0.238 0.123,-0.446 0.307,-0.583 0.058,-0.08 0.13,-0.153 0.239,-0.204 0.962,-0.453 1.603,-1.562 2.497,-2.169 0.938,-0.638 2.172,-0.862 3.242,-1.158 3.278,-0.908 6.556,-2.117 8.939,-4.654 4.613,-4.909 3.358,-12.497 2.658,-18.482 -0.707,-6.034 1.126,-12.395 2.632,-18.178 1.589,-6.101 3.571,-11.978 6.788,-17.418 3.004,-5.077 6.189,-9.502 10.896,-13.13 4.568,-3.52 11.179,-5.561 16.835,-6.224 2.953,-0.346 5.893,-0.452 8.863,-0.522 3.238,-0.077 6.447,-0.528 9.696,-0.551 6.065,-0.044 11.999,-1.36 17.943,-2.307 C -0.4,-1.04 0.186,-0.616 0,0" />
    </g>
    <g
       transform="matrix(3.7360576,0,0,-3.7360576,611.75542,591.72498)"
       id="g2518">
      <path
         id="path2520"
         style="fill:#d9d9d9;fill-opacity:1;fill-rule:nonzero;stroke:none"
         d="m 0,0 c -0.251,6.268 -1.545,12.23 -5.706,17.078 -4.763,5.547 -11.089,6.473 -17.975,7.412 -7.209,0.984 -14.725,1.154 -21.841,2.626 -3.311,0.685 -6.647,1.026 -9.915,1.959 -3.532,1.008 -7.031,3.269 -9.796,5.648 -5.86,5.04 -8.853,13.768 -10.261,21.172 -1.428,7.505 -2.21,15.118 -3.456,22.647 -0.37,2.237 -0.828,4.484 -1.375,6.687 -0.352,1.42 -0.508,3.515 -1.707,4.521 -0.364,0.306 -1.025,0.342 -1.263,-0.162 -1.562,-3.314 -3.029,-6.283 -5.221,-9.285 -2.578,-3.529 -5.784,-6.662 -9.346,-9.196 -0.007,0.02 -0.012,0.041 -0.019,0.061 -0.238,0.696 -1.287,0.419 -1.107,-0.305 1.743,-7.015 2.39,-14.413 2.529,-21.638 0.148,-7.697 0.219,-15.347 -0.232,-23.037 -0.436,-7.419 -0.137,-14.884 -0.479,-22.306 -0.325,-7.055 0.042,-14.139 2.647,-20.761 5.089,-12.943 18.499,-17.421 31.25,-18.706 14.476,-1.458 29.052,-0.547 42.715,4.778 6.132,2.39 12.095,6.546 15.761,12.048 1.721,2.584 2.332,5.509 3.127,8.46 C -0.779,-6.996 0.139,-3.458 0,0" />
    </g>
    <g
       transform="matrix(3.7360576,0,0,-3.7360576,370.99152,222.3152)"
       id="g2522">
      <path
         id="path2524"
         style="fill:#d9d9d9;fill-opacity:1;fill-rule:nonzero;stroke:none"
         d="m 0,0 c -1.202,0.029 -2.525,-0.568 -3.627,-0.963 -1.665,-0.596 -3.602,-1.132 -5.364,-1.258 -3.083,-0.219 -6.709,-1.049 -9.762,-0.211 -0.44,0.265 -1.155,0.074 -1.148,-0.596 -0.02,-2.3 -0.243,-5.46 0.508,-7.659 0.69,-2.018 3.337,-2.151 5.152,-2.302 2.898,-0.241 5.805,0.36 8.592,1.096 2.647,0.7 5.435,1.391 7.481,3.307 C 4.343,-6.235 4.317,-0.104 0,0" />
    </g>
    <g
       transform="matrix(3.7360576,0,0,-3.7360576,217.48812,199.94966)"
       id="g2526">
      <path
         id="path2528"
         style="fill:#d9d9d9;fill-opacity:1;fill-rule:nonzero;stroke:none"
         d="m 0,0 c -2.728,1.607 -4.658,4.786 -6.648,7.151 -1.138,1.352 -2.102,3.115 -2.834,4.725 -0.485,1.065 -0.978,2.43 -1.836,3.273 -3.082,3.025 -7.498,-1.228 -7.437,-4.667 0.051,-2.802 1.497,-5.284 2.839,-7.67 1.413,-2.513 3.007,-5.017 5.199,-6.929 1.372,-1.196 3.312,-3.003 5.24,-2.092 2.101,0.993 4.212,3.354 5.849,4.97 C 0.857,-0.778 0.496,-0.132 0,0" />
    </g>
    <g
       transform="matrix(3.7360576,0,0,-3.7360576,341.71574,240.08314)"
       id="g2530">
      <path
         id="path2532"
         style="fill:#f38c6b;fill-opacity:1;fill-rule:nonzero;stroke:none"
         d="m 0,0 c -1.225,0.097 -2.72,-0.426 -3.899,-0.69 -1.874,-0.419 -3.467,-0.924 -5.422,-0.872 -0.262,0.006 -0.423,-0.147 -0.49,-0.34 -0.145,-0.111 -0.241,-0.285 -0.217,-0.537 0.144,-1.57 2.116,-2.076 3.457,-2.252 2.077,-0.274 6.793,-0.62 8.234,1.446 C 2.79,-1.628 1.825,-0.144 0,0" />
    </g>
    <g
       transform="matrix(3.7360576,0,0,-3.7360576,191.14629,188.98245)"
       id="g2534">
      <path
         id="path2536"
         style="fill:#f38c6b;fill-opacity:1;fill-rule:nonzero;stroke:none"
         d="m 0,0 c -0.633,1.03 -1.299,2.467 -2.221,3.278 -1.375,1.209 -3.112,0.868 -3.487,-1.067 -0.478,-2.473 3.056,-5.616 4.698,-6.916 1.061,-0.838 2.797,-1.901 4.025,-0.911 0.197,0.159 0.255,0.349 0.233,0.531 0.092,0.181 0.09,0.404 -0.098,0.587 C 1.752,-3.131 1.005,-1.636 0,0" />
    </g>
    <g
       transform="matrix(3.7360576,0,0,-3.7360576,319.78472,242.15926)"
       id="g2538">
      <path
         id="path2540"
         style="fill:#d9d9d9;fill-opacity:1;fill-rule:nonzero;stroke:none"
         d="m 0,0 c -1.378,6.212 -5.962,11.512 -11.54,14.321 -1.008,0.508 -2.001,1.151 -3.028,1.582 -1.372,0.577 -2.641,0.625 -4.092,0.806 -3.766,0.469 -7.015,-0.524 -10.509,-1.804 -4.24,-1.554 -8.685,-5.16 -11.71,-8.469 -3.669,-4.017 -6.422,-9.604 -8.882,-14.412 -2.756,-5.385 -5.119,-11.115 -8.442,-16.18 -2.921,-4.451 -6.405,-10.568 -11.776,-12.36 -0.247,-0.082 -0.387,-0.252 -0.455,-0.444 -0.124,-0.098 -0.22,-0.229 -0.255,-0.386 -1.356,-5.993 4.383,-10.777 7.707,-14.969 3.979,-5.019 9.104,-8.127 15.71,-7.494 3.205,0.308 6.25,1.836 9.208,3.008 3.507,1.389 6.7,3.283 9.828,5.378 5.994,4.013 11.4,8.507 16.155,13.945 4.422,5.059 8.414,10.472 10.623,16.891 C 0.775,-14.094 1.495,-6.74 0,0" />
    </g>
    <g
       transform="matrix(3.7360576,0,0,-3.7360576,151.18054,448.79537)"
       id="g2542">
      <path
         id="path2544"
         style="fill:#4e5275;fill-opacity:1;fill-rule:nonzero;stroke:none"
         d="m 0,0 c -0.322,5.326 -3.272,9.723 -6.51,13.721 -3.825,4.723 -8.51,8.648 -14.497,10.247 -0.143,0.038 -0.275,0.012 -0.388,-0.048 -5.663,1.363 -11.529,0.08 -14.161,-6.225 -4.132,-9.903 5.572,-19.07 13.417,-23.416 C -15.289,-9.516 0.726,-12.004 0,0" />
    </g>
    <g
       transform="matrix(3.7360576,0,0,-3.7360576,56.221165,393.15202)"
       id="g2546">
      <path
         id="path2548"
         style="fill:#37364e;fill-opacity:1;fill-rule:nonzero;stroke:none"
         d="m 0,0 c -0.017,0.009 -0.027,0.022 -0.043,0.031 0.002,0.05 0.017,0.098 0.006,0.148 C -0.121,0.583 -0.897,2.487 0.18,2.207 0.704,2.07 0.984,1.375 1.015,0.893 1.048,0.378 0.592,-0.303 0,0 M -0.334,3.858 C -1.137,3.746 -1.651,3.099 -1.86,2.333 -2.596,1.109 -1.668,-0.98 -0.448,-1.475 1.228,-2.156 2.709,-0.569 2.633,1.036 2.561,2.554 1.29,4.084 -0.334,3.858" />
    </g>
    <g
       transform="matrix(3.7360576,0,0,-3.7360576,106.03775,419.30442)"
       id="g2550">
      <path
         id="path2552"
         style="fill:#37364e;fill-opacity:1;fill-rule:nonzero;stroke:none"
         d="m 0,0 c -0.017,0.009 -0.027,0.022 -0.043,0.031 0.002,0.05 0.017,0.098 0.006,0.148 C -0.121,0.583 -0.897,2.487 0.18,2.207 0.704,2.07 0.984,1.375 1.015,0.893 1.048,0.378 0.592,-0.303 0,0 M -0.334,3.858 C -1.137,3.746 -1.651,3.099 -1.86,2.333 -2.596,1.109 -1.668,-0.98 -0.448,-1.475 1.228,-2.156 2.709,-0.569 2.633,1.036 2.561,2.554 1.29,4.084 -0.334,3.858" />
    </g>
    <g
       transform="matrix(3.7360576,0,0,-3.7360576,111.99192,434.84158)"
       id="g2554">
      <path
         id="path2556"
         style="fill:#f6e1d0;fill-opacity:1;fill-rule:nonzero;stroke:none"
         d="m 0,0 c -1.138,0.047 -2.158,-0.415 -3.29,-0.548 -1.609,-0.188 -2.99,-0.009 -4.528,0.419 -2.96,0.823 -6.584,2.493 -8.216,5.189 -0.371,0.612 -1.378,0.373 -1.365,-0.37 0.011,-0.711 0.161,-1.484 0.407,-2.268 0.411,-4.075 4.682,-7.354 8.445,-8.285 2.303,-0.57 4.573,0.262 6.472,1.522 1.078,0.716 2.796,2.158 2.885,3.531 C 0.839,-0.356 0.419,-0.017 0,0" />
    </g>
    <g
       transform="matrix(3.7360576,0,0,-3.7360576,287.72899,407.95578)"
       id="g2558">
      <path
         id="path2560"
         style="fill:#37364e;fill-opacity:1;fill-rule:nonzero;stroke:none"
         d="m 0,0 c 2.761,1.329 5.242,3.181 7.998,4.53 0.875,0.428 2.148,1.102 3.303,1.855 -0.022,0.107 -0.045,0.216 -0.066,0.322 -0.387,2.039 -0.725,4.085 -1.041,6.136 -0.031,-0.017 -0.069,-0.04 -0.098,-0.056 C 7.683,11.462 5.277,10.023 2.942,8.556 1.124,7.414 -1.498,6.07 -2.701,4.215 -3.261,3.351 -4.891,0.831 -3.57,-0.205 -2.43,-1.101 -1.255,-0.604 0,0" />
    </g>
    <g
       transform="matrix(3.7360576,0,0,-3.7360576,285.66032,446.86717)"
       id="g2562">
      <path
         id="path2564"
         style="fill:#37364e;fill-opacity:1;fill-rule:nonzero;stroke:none"
         d="M 0,0 C 1.344,-0.495 3.194,0.519 4.274,1.184 6.729,2.695 9.289,4.03 11.74,5.583 12.528,6.082 13.608,6.7 14.507,7.452 13.641,9.679 12.952,11.97 12.416,14.206 11.076,13.251 9.82,12.129 8.458,11.243 6.342,9.867 4.341,8.539 2.393,6.928 0.724,5.548 -4.152,1.531 0,0" />
    </g>
    <g
       transform="matrix(3.7360576,0,0,-3.7360576,291.36304,474.27827)"
       id="g2566">
      <path
         id="path2568"
         style="fill:#37364e;fill-opacity:1;fill-rule:nonzero;stroke:none"
         d="m 0,0 c -1.345,-1.691 -4.71,-5.463 -2.953,-7.705 1.018,-1.299 3.458,-0.025 4.346,0.714 2.732,2.276 5.244,5.072 7.642,7.691 2.366,2.583 4.813,5.117 7.093,7.781 -0.905,1.42 -1.707,2.933 -2.403,4.503 C 13.313,12.595 12.898,12.206 12.453,11.846 10.847,10.549 9.205,9.295 7.646,7.941 4.948,5.6 2.223,2.797 0,0" />
    </g>
    <g
       transform="matrix(3.7360576,0,0,-3.7360576,368.03964,461.99749)"
       id="g2570">
      <path
         id="path2572"
         style="fill:#37364e;fill-opacity:1;fill-rule:nonzero;stroke:none"
         d="M 0,0 C -1.034,0.889 -1.974,1.898 -2.837,2.99 -3.175,2.545 -3.521,2.105 -3.854,1.695 -5.209,0.019 -6.217,-1.92 -7.506,-3.652 c -2.911,-3.912 -5.367,-8.257 -8.109,-12.301 -1.372,-2.022 -11.584,-19.963 -3.926,-19.422 1.078,0.075 1.861,1.2 2.451,1.977 1.399,1.839 2.704,4.164 3.683,6.251 2.349,5.006 5.114,9.885 7.992,14.607 2.31,3.79 4.722,7.478 6.935,11.314 C 0.995,-0.824 0.483,-0.416 0,0" />
    </g>
    <g
       transform="matrix(3.7360576,0,0,-3.7360576,404.64144,483.10024)"
       id="g2574">
      <path
         id="path2576"
         style="fill:#37364e;fill-opacity:1;fill-rule:nonzero;stroke:none"
         d="m 0,0 c -1.887,0.539 -3.761,1.44 -5.521,2.521 -0.417,-0.648 -0.828,-1.287 -1.173,-1.91 -1.403,-2.528 -2.715,-5.066 -3.974,-7.677 -2.267,-4.702 -4.399,-9.392 -6.303,-14.258 -2.032,-5.196 -4.408,-10.26 -6.266,-15.521 -0.941,-2.662 -1.522,-7.365 2.42,-7.499 4.073,-0.138 6.118,6.621 7.343,9.352 1.145,2.551 2.246,5.119 3.373,7.678 1.169,2.656 1.935,5.452 3.134,8.096 2.21,4.868 4.676,9.626 6.624,14.614 0.527,1.346 1.312,2.777 1.875,4.229 C 1.021,-0.255 0.509,-0.145 0,0" />
    </g>
    <g
       transform="matrix(3.7360576,0,0,-3.7360576,437.12757,529.27564)"
       id="g2578">
      <path
         id="path2580"
         style="fill:#37364e;fill-opacity:1;fill-rule:nonzero;stroke:none"
         d="m 0,0 c 0.49,1.472 1.019,2.936 1.424,4.434 0.417,1.543 0.516,3.17 1.148,4.654 0.149,0.35 0.248,0.682 0.323,1.003 -0.56,0.1 -1.122,0.195 -1.676,0.309 -1.798,0.372 -3.602,0.648 -5.399,0.968 -1.793,-3.745 -3.074,-7.663 -4.572,-11.579 -2.18,-5.699 -4.079,-11.411 -5.806,-17.276 -1.56,-5.302 -4.205,-10.431 -4.399,-16.046 -0.084,-2.417 1.28,-6.579 4.546,-4.993 3.803,1.846 4.937,8.012 6.251,11.608 2.13,5.835 3.296,11.994 5.253,17.89 C -1.911,-6.028 -0.999,-3 0,0" />
    </g>
    <g
       transform="matrix(3.7360576,0,0,-3.7360576,435.82891,662.12276)"
       id="g2582">
      <path
         id="path2584"
         style="fill:#37364e;fill-opacity:1;fill-rule:nonzero;stroke:none"
         d="m 0,0 c 0.169,-1.541 0.811,-2.781 2.104,-3.633 1.241,-0.817 2.615,0.498 3.422,1.286 1.438,1.403 1.973,4.056 2.537,5.89 0.88,2.853 1.351,5.716 1.832,8.653 0.922,5.644 2.004,11.25 3.158,16.849 0.527,2.563 1.151,5.099 1.61,7.677 0.439,2.469 0.443,4.99 0.742,7.467 -2.59,0.237 -5.184,0.476 -7.756,0.795 C 7.311,43.736 6.892,42.479 6.657,41.247 6.101,38.316 5.546,35.411 4.746,32.534 3.192,26.944 2.523,21.232 1.587,15.517 0.769,10.521 -0.56,5.083 0,0" />
    </g>
    <g
       transform="matrix(3.7360576,0,0,-3.7360576,523.28332,500.22818)"
       id="g2586">
      <path
         id="path2588"
         style="fill:#37364e;fill-opacity:1;fill-rule:nonzero;stroke:none"
         d="m 0,0 c -1.084,0.148 -2.177,0.274 -3.272,0.393 -1.521,-9.732 -3.264,-19.431 -3.826,-29.285 -0.154,-2.716 -0.173,-5.446 -0.269,-8.166 -0.07,-2.03 0.133,-3.78 1.508,-5.331 2.8,-3.159 4.991,0.529 5.872,3.038 1.773,5.056 2.01,10.554 3.09,15.76 1.008,4.869 1.248,10.021 1.494,14.98 0.127,2.568 0.344,5.074 0.257,7.649 -0.001,0.065 0.002,0.147 0.004,0.22 C 3.28,-0.453 1.657,-0.226 0,0" />
    </g>
    <g
       transform="matrix(3.7360576,0,0,-3.7360576,553.22628,568.47325)"
       id="g2590">
      <path
         id="path2592"
         style="fill:#37364e;fill-opacity:1;fill-rule:nonzero;stroke:none"
         d="m 0,0 c 0.092,-2.148 2.419,-13.403 6.372,-9.023 1.56,1.728 1.282,5.698 1.193,7.848 C 7.403,2.737 7.289,6.668 7.003,10.574 6.93,11.57 6.882,12.642 6.818,13.729 4.885,15.112 2.777,16.027 0.538,16.675 0.096,11.144 -0.231,5.48 0,0" />
    </g>
    <g
       transform="matrix(3.7360576,0,0,-3.7360576,263.34972,267.12768)"
       id="g2594">
      <path
         id="path2596"
         style="fill:#3f2322;fill-opacity:1;fill-rule:nonzero;stroke:none"
         d="m 0,0 c -0.619,0.167 -1.311,0.056 -1.888,-0.241 -0.27,-0.022 -0.545,-0.116 -0.784,-0.267 -0.83,-0.527 -1.091,-1.634 -0.917,-2.551 0.21,-1.105 0.883,-1.704 1.919,-2.045 0.478,-0.157 1.017,-0.202 1.511,-0.119 0.595,0.099 0.898,0.412 1.366,0.736 C 2.937,-3.29 1.721,-0.467 0,0" />
    </g>
    <g
       transform="matrix(3.7360576,0,0,-3.7360576,154.38013,237.23737)"
       id="g2598">
      <path
         id="path2600"
         style="fill:#3f2322;fill-opacity:1;fill-rule:nonzero;stroke:none"
         d="m 0,0 c -0.619,0.167 -1.311,0.056 -1.888,-0.241 -0.27,-0.022 -0.545,-0.116 -0.784,-0.267 -0.83,-0.527 -1.091,-1.634 -0.917,-2.551 0.21,-1.105 0.883,-1.704 1.919,-2.045 0.478,-0.157 1.017,-0.202 1.511,-0.119 0.595,0.099 0.898,0.412 1.366,0.736 C 2.937,-3.29 1.721,-0.467 0,0" />
    </g>
    <g
       transform="matrix(3.7360576,0,0,-3.7360576,260.44567,274.92448)"
       id="g2602">
      <path
         id="path2604"
         style="fill:#643e39;fill-opacity:1;fill-rule:nonzero;stroke:none"
         d="M 0,0 C -0.012,0.042 -0.039,0.076 -0.059,0.114 -0.148,0.468 -0.363,0.794 -0.742,0.967 -1.097,1.128 -1.475,1.125 -1.78,0.972 -1.795,0.965 -1.811,0.963 -1.826,0.956 -1.866,0.937 -1.895,0.902 -1.931,0.877 -1.971,0.846 -2.017,0.825 -2.053,0.786 -2.293,0.547 -2.412,0.184 -2.449,-0.149 c -0.055,-0.507 0.381,-0.943 0.84,-1.139 0.021,-0.01 0.043,-0.017 0.064,-0.025 0.098,-0.037 0.195,-0.067 0.289,-0.079 0.002,0 0.004,10e-4 0.008,0 0.139,-0.016 0.277,-0.007 0.41,0.023 0.067,0.015 0.125,0.041 0.185,0.066 0.07,0.029 0.135,0.062 0.198,0.102 0.024,0.017 0.049,0.033 0.071,0.053 C -0.062,-0.902 0.133,-0.5 0,0" />
    </g>
    <g
       transform="matrix(3.7360576,0,0,-3.7360576,258.31125,273.51637)"
       id="g2606">
      <path
         id="path2608"
         style="fill:#f6e1d0;fill-opacity:1;fill-rule:nonzero;stroke:none"
         d="M 0,0 C -1.003,0 -1.003,-1.555 0,-1.555 1.003,-1.555 1.003,0 0,0" />
    </g>
    <g
       transform="matrix(3.7360576,0,0,-3.7360576,266.29036,272.76468)"
       id="g2610">
      <path
         id="path2612"
         style="fill:#f6e1d0;fill-opacity:1;fill-rule:nonzero;stroke:none"
         d="M 0,0 C -0.711,0 -0.711,-1.102 0,-1.102 0.711,-1.102 0.711,0 0,0" />
    </g>
    <g
       transform="matrix(3.7360576,0,0,-3.7360576,263.49579,279.16042)"
       id="g2614">
      <path
         id="path2616"
         style="fill:#f6e1d0;fill-opacity:1;fill-rule:nonzero;stroke:none"
         d="M 0,0 C -0.568,0 -0.568,-0.883 0,-0.883 0.57,-0.883 0.57,0 0,0" />
    </g>
    <g
       transform="matrix(3.7360576,0,0,-3.7360576,151.53062,245.39357)"
       id="g2618">
      <path
         id="path2620"
         style="fill:#643e39;fill-opacity:1;fill-rule:nonzero;stroke:none"
         d="M 0,0 C -0.012,0.042 -0.039,0.076 -0.059,0.114 -0.148,0.468 -0.363,0.794 -0.742,0.967 -1.097,1.128 -1.475,1.125 -1.78,0.972 -1.795,0.965 -1.811,0.963 -1.826,0.956 -1.866,0.937 -1.895,0.902 -1.931,0.877 -1.971,0.846 -2.017,0.825 -2.053,0.786 -2.293,0.547 -2.412,0.184 -2.449,-0.149 c -0.055,-0.507 0.381,-0.943 0.84,-1.139 0.021,-0.01 0.043,-0.017 0.064,-0.025 0.098,-0.037 0.195,-0.067 0.289,-0.079 0.002,0 0.004,10e-4 0.008,0 0.139,-0.016 0.277,-0.007 0.41,0.023 0.067,0.015 0.125,0.041 0.185,0.066 0.07,0.029 0.135,0.062 0.198,0.102 0.024,0.017 0.049,0.033 0.071,0.053 C -0.062,-0.902 0.133,-0.5 0,0" />
    </g>
    <g
       transform="matrix(3.7360576,0,0,-3.7360576,149.39659,243.98544)"
       id="g2622">
      <path
         id="path2624"
         style="fill:#f6e1d0;fill-opacity:1;fill-rule:nonzero;stroke:none"
         d="M 0,0 C -1.003,0 -1.003,-1.555 0,-1.555 1.003,-1.555 1.003,0 0,0" />
    </g>
    <g
       transform="matrix(3.7360576,0,0,-3.7360576,157.37567,243.23374)"
       id="g2626">
      <path
         id="path2628"
         style="fill:#f6e1d0;fill-opacity:1;fill-rule:nonzero;stroke:none"
         d="M 0,0 C -0.711,0 -0.711,-1.102 0,-1.102 0.711,-1.102 0.711,0 0,0" />
    </g>
    <g
       transform="matrix(3.7360576,0,0,-3.7360576,154.58113,249.62952)"
       id="g2630">
      <path
         id="path2632"
         style="fill:#f6e1d0;fill-opacity:1;fill-rule:nonzero;stroke:none"
         d="M 0,0 C -0.568,0 -0.568,-0.883 0,-0.883 0.57,-0.883 0.57,0 0,0" />
    </g>
    <g
       transform="matrix(3.7360576,0,0,-3.7360576,280.14402,337.23334)"
       id="g2634">
      <path
         id="path2636"
         style="fill:#f38c6b;fill-opacity:1;fill-rule:nonzero;stroke:none"
         d="m 0,0 c -0.221,0.407 -0.502,0.756 -0.806,1.083 -0.079,0.091 -0.161,0.179 -0.245,0.263 -0.042,0.042 -0.083,0.086 -0.127,0.126 -0.417,0.395 -0.885,0.733 -1.43,1.143 -1.058,0.797 -3.058,1.231 -4.347,1.092 -1.677,-0.182 -2.014,-0.298 -3.568,-0.99 -0.68,-0.302 -1.285,-0.852 -1.799,-1.38 -1.335,-1.368 -2.357,-3.454 -2.224,-5.402 0.18,-2.639 1.406,-5.097 3.798,-6.4 1.894,-1.032 3.805,-1.166 5.887,-0.745 2.032,0.41 3.418,1.87 4.557,3.462 0.849,1.186 1.284,2.806 1.272,4.253 C 0.956,-2.198 0.61,-1.129 0,0" />
    </g>
    <g
       transform="matrix(3.7360576,0,0,-3.7360576,110.67124,330.54765)"
       id="g2638">
      <path
         id="path2640"
         style="fill:#f38c6b;fill-opacity:1;fill-rule:nonzero;stroke:none"
         d="M 0,0 C 2.032,0.41 3.418,1.871 4.558,3.462 5.406,4.649 5.842,6.269 5.829,7.715 5.817,9.012 5.472,10.082 4.861,11.21 4.719,11.475 4.545,11.708 4.361,11.934 2.369,7.803 0.418,3.612 -2.056,-0.217 -1.386,-0.214 -0.703,-0.142 0,0" />
    </g>
    <g
       transform="matrix(3.7360576,0,0,-3.7360576,313.3998,868.87728)"
       id="g2642">
      <path
         id="path2644"
         style="fill:#4e5275;fill-opacity:1;fill-rule:nonzero;stroke:none"
         d="m 0,0 c -0.109,0.572 -1.043,0.572 -1.152,0 -0.162,-0.848 -0.307,-1.704 -0.499,-2.545 -0.091,-0.398 -0.138,-0.946 -0.231,-1.464 -0.233,0.48 -0.421,0.999 -0.606,1.424 -0.437,0.995 -0.801,2.037 -1.43,2.93 -0.283,0.401 -1.026,0.17 -0.843,-0.355 0.405,-1.16 0.825,-2.315 1.299,-3.448 0.337,-0.807 0.662,-1.81 1.308,-2.422 0.321,-0.305 0.769,-0.211 1.012,0.13 0.53,0.744 0.555,1.983 0.729,2.863 C -0.235,-1.989 0.176,-0.918 0,0" />
    </g>
    <g
       transform="matrix(3.7360576,0,0,-3.7360576,401.28832,863.43949)"
       id="g2646">
      <path
         id="path2648"
         style="fill:#4e5275;fill-opacity:1;fill-rule:nonzero;stroke:none"
         d="m 0,0 c -0.133,0.409 -0.797,0.598 -1.007,0.131 -0.323,-0.717 -0.28,-1.445 -0.28,-2.223 -0.001,-0.574 -0.075,-1.145 -0.076,-1.721 0,-0.207 0.052,-0.72 0.041,-1.135 -0.512,0.488 -0.936,1.264 -1.265,1.746 -0.601,0.881 -1.348,1.742 -2.177,2.415 -0.257,0.208 -0.735,0.025 -0.607,-0.354 0.407,-1.202 1.406,-2.239 2.069,-3.318 0.517,-0.841 1.239,-1.794 2.172,-2.176 0.199,-0.082 0.526,0.007 0.661,0.175 0.664,0.827 0.471,2.095 0.47,3.096 C 0,-2.305 0.33,-1.018 0,0" />
    </g>
    <g
       transform="matrix(3.7360576,0,0,-3.7360576,523.37442,890.77398)"
       id="g2650">
      <path
         id="path2652"
         style="fill:#4e5275;fill-opacity:1;fill-rule:nonzero;stroke:none"
         d="m 0,0 c -0.778,-0.874 -1.173,-2.07 -1.725,-3.092 -0.295,-0.544 -0.52,-1.121 -0.824,-1.662 -0.008,-0.014 -0.022,-0.036 -0.037,-0.058 -0.418,1.32 -0.413,2.846 -1.037,4.095 -0.154,0.308 -0.609,0.208 -0.699,-0.092 -0.266,-0.888 0.144,-1.973 0.239,-2.87 0.101,-0.959 0.26,-2.036 0.781,-2.867 0.161,-0.258 0.471,-0.401 0.772,-0.314 0.86,0.249 1.309,1.635 1.664,2.368 0.61,1.263 1.708,2.681 1.8,4.105 C 0.964,0.082 0.311,0.348 0,0" />
    </g>
    <g
       transform="matrix(3.7360576,0,0,-3.7360576,621.18669,875.56527)"
       id="g2654">
      <path
         id="path2656"
         style="fill:#4e5275;fill-opacity:1;fill-rule:nonzero;stroke:none"
         d="m 0,0 c -0.14,0.348 -0.596,0.46 -0.814,0.106 -0.451,-0.73 -0.547,-1.713 -0.549,-2.566 -0.001,-0.685 -0.002,-1.369 -0.026,-2.053 -0.007,-0.22 0.026,-0.753 0.021,-1.248 -0.258,0.457 -0.484,0.971 -0.679,1.287 -0.544,0.879 -1.322,1.659 -1.813,2.56 -0.202,0.371 -0.877,0.226 -0.83,-0.224 0.111,-1.066 1.005,-2.087 1.521,-2.992 0.492,-0.863 0.919,-2.159 1.786,-2.703 0.257,-0.16 0.646,-0.117 0.851,0.11 0.708,0.785 0.522,2.234 0.568,3.21 0.04,0.864 -0.1,1.802 0.047,2.655 C 0.195,-1.211 0.246,-0.612 0,0" />
    </g>
    <g
       transform="matrix(3.7360576,0,0,-3.7360576,709.43313,473.86581)"
       id="g2658">
      <path
         id="path2660"
         style="fill:#d9d9d9;fill-opacity:1;fill-rule:nonzero;stroke:none"
         d="m 0,0 c -2.281,-1.552 -4.488,-3.224 -6.769,-4.772 -1.512,-1.027 -3.038,-2.035 -4.542,-3.074 3.033,3.089 6.284,6.034 8.654,9.623 -0.286,0.144 -0.574,0.282 -0.857,0.412 -1.909,-2.26 -3.749,-4.578 -5.827,-6.695 -0.71,-0.724 -1.629,-1.529 -2.518,-2.387 0.913,1.577 1.804,3.168 2.652,4.752 0.985,1.841 2.186,3.558 3.203,5.38 -0.367,0.153 -0.746,0.298 -1.131,0.438 -1.093,-1.726 -2.066,-3.59 -2.991,-5.315 -0.833,-1.552 -1.733,-3.064 -2.579,-4.605 1.038,3.577 2.085,7.197 2.487,10.851 -0.323,0.078 -0.65,0.149 -0.979,0.215 -0.615,-2.549 -1.127,-5.133 -1.737,-7.683 -0.205,-0.86 -0.463,-1.768 -0.717,-2.692 -0.093,1.525 -0.228,3.051 -0.271,4.556 -0.058,2.031 0.008,4.147 -0.12,6.224 -0.388,0.033 -0.775,0.056 -1.164,0.069 0.034,-1.849 0.194,-3.717 0.238,-5.52 0.054,-2.159 0.11,-4.34 0.217,-6.513 -0.378,1.35 -0.783,2.696 -1.154,4.063 -0.695,2.556 -1.116,5.326 -1.972,7.884 -0.414,-0.043 -0.824,-0.097 -1.229,-0.169 0.665,-2.973 1.698,-5.966 2.519,-8.833 0.081,-0.284 0.175,-0.564 0.265,-0.845 -0.7,1.181 -1.42,2.343 -2.049,3.478 -1.034,1.866 -1.979,3.758 -3,5.62 -0.248,-0.085 -0.489,-0.185 -0.732,-0.285 0.173,-0.284 0.348,-0.569 0.498,-0.869 0.699,-1.405 1.359,-2.829 2.048,-4.24 1.036,-2.123 2.121,-4.429 3.386,-6.541 0.062,-0.076 0.125,-0.152 0.187,-0.229 0.367,-0.458 0.844,-1.033 1.38,-1.427 0.112,-0.082 0.229,-0.139 0.345,-0.203 0.098,-0.052 0.192,-0.12 0.292,-0.156 0.087,-0.031 0.176,-0.05 0.264,-0.073 0.469,-0.121 0.957,-0.133 1.458,-0.064 0.26,0.196 0.511,0.392 0.745,0.551 1.539,1.042 3.164,1.955 4.688,3.019 2.374,1.658 5.22,3.18 7.495,5.119 C 0.532,-0.611 0.298,-0.298 0,0" />
    </g>
  </g>
</svg>
