<?xml version="1.0" encoding="utf-8"?>
<!-- Generator: Adobe Illustrator 16.0.0, SVG Export Plug-In . SVG Version: 6.00 Build 0)  -->
<!DOCTYPE svg PUBLIC "-//W3C//DTD SVG 1.1//EN" "http://www.w3.org/Graphics/SVG/1.1/DTD/svg11.dtd">
<svg version="1.1" id="Layer_1" xmlns="http://www.w3.org/2000/svg" xmlns:xlink="http://www.w3.org/1999/xlink" x="0px" y="0px"
	 width="500px" height="500px" viewBox="0 0 500 500" enable-background="new 0 0 500 500" xml:space="preserve">
<circle fill="#121F30" stroke="#FFFFFF" stroke-miterlimit="10" cx="253.647" cy="250.787" r="217.647"/>
<g id="layer1" transform="translate(-44.928587,-167.13353)">
	<g id="g1922" transform="matrix(5.7747714,0,0,-5.7747714,241.54437,316.93091)">
		<path id="path1924" fill="#37453C" d="M2.301,13.367c0.5,0.256,0.162,0.597-0.047,0.93c-0.208,0.332-0.621,0.734-1.041,0.503
			c-0.203-0.113-0.22-0.451-0.232-0.65c-0.015-0.265-0.085-0.502-0.016-0.766c0.021-0.081,0.082-0.109,0.144-0.103
			c0.012-0.012,0.026-0.022,0.044-0.029c0.058-0.022,0.111-0.047,0.174-0.027c0.093,0.029,0.168-0.031,0.278,0.017
			c0.077,0.034,0.269,0.026,0.361,0.037C2.08,13.294,2.198,13.314,2.301,13.367"/>
	</g>
	<g id="g1926" transform="matrix(5.7747714,0,0,-5.7747714,257.95507,306.46989)">
		<path id="path1928" fill="#37453C" d="M0.263,11.841c0.013-0.071,0.127-0.097,0.169-0.04c0.012,0.015,0.017,0.031,0.026,0.047
			c0.354-0.078,0.98,0.053,1.237,0.319c0.123,0.127,0.182,0.291,0.098,0.46c-0.111,0.224-0.255,0.451-0.393,0.661
			c-0.103,0.155-0.225,0.295-0.41,0.344c-0.219,0.058-0.379-0.194-0.473-0.345c-0.15-0.241-0.177-0.573-0.234-0.845
			C0.24,12.241,0.225,12.043,0.263,11.841"/>
	</g>
	<g id="g1930" transform="matrix(5.7747714,0,0,-5.7747714,337.189,275.19313)">
		<path id="path1932" fill="#37453C" d="M-9.771,6.98c0.376,0.334-0.058,0.783-0.308,1.057c-0.262,0.287-0.532,0.296-0.722-0.057
			c-0.197-0.367-0.426-0.805-0.455-1.223c-0.007-0.1,0.125-0.148,0.198-0.1c0.058-0.025,0.122-0.012,0.171,0.024
			c0.142,0.007,0.297,0.037,0.421,0.072C-10.227,6.82-9.967,6.806-9.771,6.98"/>
	</g>
	<g id="g1934" transform="matrix(5.7747714,0,0,-5.7747714,360.61494,272.79373)">
		<path id="path1936" fill="#37453C" d="M-12.804,6.437c0.005-0.002,0.012-0.003,0.017-0.004l-0.002-0.005
			c0.231-0.065,0.455-0.015,0.691-0.035c0.166-0.014,0.412,0.028,0.558,0.115c0.415,0.245,0.071,0.709-0.186,0.932
			c-0.219,0.19-0.476,0.48-0.787,0.322c-0.143-0.072-0.209-0.278-0.266-0.415c-0.105-0.25-0.196-0.498-0.213-0.771
			C-12.999,6.477-12.892,6.422-12.804,6.437"/>
	</g>
	<g id="g1938" transform="matrix(5.7747714,0,0,-5.7747714,410.56902,257.55873)">
		<path id="path1940" fill="#37453C" d="M-19.174,3.958c0.033-0.012,0.071-0.015,0.116,0.004c0.158,0.067,0.395,0.077,0.567,0.106
			c0.187,0.03,0.409,0.051,0.575,0.148c0.462,0.271,0.017,0.644-0.238,0.853c-0.161,0.132-0.254,0.213-0.458,0.271
			c-0.161,0.044-0.288-0.028-0.375-0.16c-0.114-0.174-0.173-0.38-0.24-0.576c-0.067-0.196-0.175-0.354-0.163-0.569
			C-19.384,3.917-19.246,3.882-19.174,3.958"/>
	</g>
	<g id="g1942" transform="matrix(5.7747714,0,0,-5.7747714,469.49539,205.47893)">
		<path id="path1944" fill="#37453C" d="M-26.352-3.418c-0.125,0.042-0.204,0.164-0.327,0.217c-0.165,0.071-0.337-0.001-0.396-0.168
			c-0.052-0.149-0.071-0.322-0.043-0.479c0.011-0.061-0.017-0.173-0.012-0.245c0.006-0.095,0.03-0.173,0.051-0.262
			c0.014-0.06,0.054-0.091,0.099-0.101c0.064-0.08,0.182-0.114,0.265-0.012c0.09,0.108,0.279,0.182,0.4,0.25
			c0.137,0.077,0.302,0.181,0.376,0.326C-25.8-3.611-26.156-3.483-26.352-3.418"/>
	</g>
	<g id="g1946" transform="matrix(5.7747714,0,0,-5.7747714,170.33507,356.80455)">
		<path id="path1948" fill="#37453C" d="M11.203,19.271c-0.008-0.069,0.016-0.141,0.088-0.175c0.013-0.006,0.025-0.012,0.037-0.017
			c0.102-0.048,0.192-0.011,0.254,0.075c-0.022-0.031,0.189,0.064,0.23,0.083c0.13,0.059,0.266,0.101,0.405,0.132
			c0.234,0.051,0.486,0.096,0.656,0.277c0.322,0.34-0.332,0.816-0.527,1.006c-0.202,0.198-0.611,0.674-0.871,0.258
			c-0.286-0.457-0.29-1.088-0.278-1.614C11.197,19.287,11.201,19.279,11.203,19.271"/>
	</g>
	<g id="g1950" transform="matrix(5.7747714,0,0,-5.7747714,137.09086,396.23525)">
		<path id="path1952" fill="#37453C" d="M15.154,24.744c-0.008-0.02-0.019-0.037-0.025-0.06c-0.041-0.191,0.204-0.264,0.304-0.115
			c-0.039-0.057,0.153,0.085,0.16,0.09c0.124,0.091,0.243,0.19,0.364,0.285c0.198,0.157,0.627,0.335,0.732,0.58
			c0.069,0.16,0.035,0.291-0.12,0.383c-0.298,0.176-0.59,0.364-0.892,0.533c-0.125,0.07-0.377,0.198-0.519,0.103
			c-0.166-0.112-0.172-0.295-0.205-0.477C14.888,25.702,14.865,25.054,15.154,24.744"/>
	</g>
	<g id="g1954" transform="matrix(5.7747714,0,0,-5.7747714,99.177183,427.19555)">
		<path id="path1956" fill="#37453C" d="M19.798,29.157c0.096-0.246,0.305-0.464,0.37-0.712c0.022-0.085,0.101-0.12,0.179-0.127
			c0.013-0.001,0.028-0.002,0.041-0.004c0.109-0.009,0.174,0.107,0.162,0.206c0.034,0.04,0.07,0.078,0.111,0.112
			c0.038,0.032,0.054,0.072,0.054,0.111c0.094,0.11,0.194,0.214,0.303,0.322c0.158,0.157,0.309,0.313,0.333,0.54
			c0.046,0.431-0.663,0.521-0.93,0.642c-0.374,0.17-0.746,0.113-0.782-0.345C19.621,29.658,19.711,29.38,19.798,29.157"/>
	</g>
	<g id="g1958" transform="matrix(5.7747714,0,0,-5.7747714,84.587803,477.69648)">
		<path id="path1960" fill="#37453C" d="M21.205,35.891c0.099-0.156,0.187-0.425,0.365-0.504c0.005-0.002,0.008-0.002,0.013-0.003
			c0.043-0.034,0.099-0.052,0.164-0.036c0.011,0.003,0.024,0.006,0.035,0.008c0.036,0.009,0.061,0.033,0.081,0.061
			c0.042,0.036,0.075,0.081,0.085,0.141c0.019,0.128,0.117,0.236,0.177,0.351c0.121,0.236,0.299,0.474,0.319,0.744
			c0.017,0.239-0.241,0.335-0.424,0.378c-0.284,0.065-0.597,0.187-0.889,0.196c-0.154,0.004-0.46-0.029-0.484-0.236
			c-0.022-0.183,0.062-0.331,0.158-0.481C20.938,36.302,21.074,36.099,21.205,35.891"/>
	</g>
	<g id="g1962" transform="matrix(5.7747714,0,0,-5.7747714,69.068073,524.63382)">
		<path id="path1964" fill="#37453C" d="M22.769,42.169c0.146-0.184,0.316-0.481,0.529-0.582c0.084-0.04,0.174,0.01,0.213,0.079
			c0.005,0.004,0.009,0.01,0.015,0.015c0.002,0.003,0.004,0.007,0.007,0.01c0.015,0.018,0.026,0.039,0.032,0.065
			c0.001,0.003,0.004,0.004,0.004,0.008c0.115,0.449,0.449,0.808,0.6,1.246c0.179,0.517-0.838,0.353-1.041,0.345
			c-0.328-0.014-0.847-0.081-0.718-0.541C22.479,42.569,22.613,42.366,22.769,42.169"/>
	</g>
	<g id="g1966" transform="matrix(5.7747714,0,0,-5.7747714,63.727613,577.22407)">
		<path id="path1968" fill="#37453C" d="M22.95,49.085c0.129-0.121,0.25-0.274,0.395-0.385c0.032-0.079,0.126-0.127,0.212-0.117
			c0.003,0,0.005-0.002,0.006-0.003c0.148-0.048,0.235,0.126,0.178,0.24c0.07,0.16,0.141,0.315,0.182,0.49
			c0.058,0.247,0.196,0.461,0.25,0.712c0.107,0.501-0.71,0.382-0.987,0.329c-0.352-0.067-1.077-0.117-0.836-0.634
			c0.04-0.086,0.177-0.183,0.239-0.257C22.701,49.326,22.823,49.204,22.95,49.085"/>
	</g>
	<g id="g1970" transform="matrix(5.7747714,0,0,-5.7747714,81.937183,636.07707)">
		<path id="path1972" fill="#37453C" d="M19.995,56.586c0.033-0.018,0.072-0.025,0.114-0.01c0.002,0,0.004,0.001,0.007,0.002
			c0.02,0.008,0.036,0.017,0.05,0.028c0.043,0.021,0.079,0.058,0.091,0.122c0.084,0.422,0.192,0.891,0.174,1.325
			c-0.024,0.564-0.663,0.244-0.935,0.079c-0.259-0.157-0.894-0.415-0.657-0.806c0.109-0.182,0.332-0.283,0.496-0.405
			C19.512,56.79,19.77,56.634,19.995,56.586"/>
	</g>
	<g id="g1974" transform="matrix(5.7747714,0,0,-5.7747714,95.398723,681.66603)">
		<path id="path1976" fill="#37453C" d="M17.79,62.403c0.2,0.126,0.143,0.416,0.146,0.612c0.003,0.22,0.022,0.432,0.039,0.65
			c0.019,0.222-0.079,0.752-0.428,0.552c-0.23-0.132-0.452-0.312-0.665-0.47c-0.114-0.085-0.23-0.164-0.344-0.247
			c-0.04-0.029-0.079-0.059-0.117-0.091c-0.009-0.007-0.119-0.099-0.154-0.139c-0.042-0.049-0.134-0.153-0.102-0.238
			c0.026-0.071,0.119-0.153,0.212-0.179c0.295-0.082,0.558-0.24,0.829-0.379C17.377,62.387,17.608,62.29,17.79,62.403"/>
	</g>
	<g id="g1978" transform="matrix(5.7747714,0,0,-5.7747714,121.83623,726.65787)">
		<path id="path1980" fill="#37453C" d="M13.898,68.016c0.14,0.159,0.053,0.495-0.036,0.659c-0.124,0.231-0.175,0.491-0.246,0.741
			c-0.056,0.195-0.238,0.443-0.472,0.369c-0.224-0.07-0.365-0.369-0.469-0.558c-0.075-0.135-0.142-0.274-0.215-0.41
			c-0.035-0.065-0.14-0.301-0.137-0.296c-0.088-0.157-0.02-0.234-0.019-0.236c0.125-0.145,0.377-0.194,0.531-0.257
			c0.029-0.015,0.061-0.023,0.093-0.022c0.007,0,0.009,0.001,0.014,0.001c0.005-0.003,0.008-0.005,0.016-0.008
			c0.113-0.054,0.263-0.034,0.383-0.053C13.545,67.916,13.744,67.842,13.898,68.016"/>
	</g>
	<g id="g1982" transform="matrix(5.7747714,0,0,-5.7747714,142.65714,749.66627)">
		<path id="path1984" fill="#37453C" d="M10.954,70.814c-0.069,0.149-0.147,0.294-0.182,0.456c-0.019,0.088-0.077,0.233-0.169,0.269
			c-0.195,0.078-0.317,0.011-0.423-0.161c-0.159-0.258-0.492-0.823-0.488-0.851c-0.01-0.023-0.018-0.045-0.025-0.064
			c-0.113-0.333,0.852-0.445,1.086-0.492c0.182-0.036,0.385-0.071,0.441,0.17C11.245,70.36,11.041,70.625,10.954,70.814"/>
	</g>
	<g id="g1986" transform="matrix(5.7747714,0,0,-5.7747714,171.99875,777.60983)">
		<path id="path1988" fill="#37453C" d="M6.85,74.172c-0.11,0.139-0.307,0.441-0.505,0.467c-0.257,0.033-0.308-0.206-0.38-0.404
			c-0.078-0.215-0.185-0.483-0.2-0.726c-0.009-0.034-0.015-0.066-0.014-0.096c0.009-0.221,0.204-0.21,0.373-0.225
			c0.174-0.015,1.319-0.044,1.129,0.378C7.156,73.785,6.999,73.984,6.85,74.172"/>
	</g>
	<g id="g1990" transform="matrix(5.7747714,0,0,-5.7747714,216.44893,807.64553)">
		<path id="path1992" fill="#37453C" d="M0.754,77.655c-0.075,0.104-0.184,0.174-0.262,0.276c-0.109,0.143-0.294,0.425-0.517,0.357
			c-0.223-0.067-0.251-0.344-0.284-0.542c-0.038-0.234-0.092-0.513-0.057-0.747c0.003-0.015,0.007-0.028,0.013-0.04
			c0.028-0.126,0.122-0.212,0.321-0.183c0.208,0.029,1.233,0.195,0.971,0.598C0.878,77.467,0.82,77.563,0.754,77.655"/>
	</g>
	<g id="g1994" transform="matrix(5.7747714,0,0,-5.7747714,260.80841,821.24225)">
		<path id="path1996" fill="#37453C" d="M-5.169,78.994c-0.119,0.077-0.236,0.159-0.356,0.234c-0.109,0.068-0.214,0.154-0.336,0.198
			c-0.093,0.034-0.187,0.04-0.281,0.063c-0.087,0.02-0.16-0.024-0.207-0.093c-0.108-0.161-0.009-0.458,0.038-0.62
			c0.043-0.148,0.065-0.411,0.19-0.533c0.001-0.001,0.001-0.001,0.001-0.003c0.034-0.046,0.089-0.086,0.149-0.078
			c0.216,0.025,0.437,0.159,0.638,0.24c0.157,0.064,0.408,0.193,0.342,0.408C-5.019,78.897-5.095,78.946-5.169,78.994"/>
	</g>
	<g id="g1998" transform="matrix(5.7747714,0,0,-5.7747714,303.00868,822.7789)">
		<path id="path2000" fill="#37453C" d="M-10.691,78.78c-0.214,0.078-0.43,0.14-0.649,0.2c-0.172,0.048-0.356,0.104-0.499-0.048
			c-0.136-0.145-0.039-0.41,0.014-0.569c0.062-0.188,0.167-0.468,0.343-0.576c0.021-0.012,0.045-0.015,0.067-0.013
			c0.151-0.037,0.338,0.145,0.451,0.211c0.173,0.101,0.449,0.211,0.548,0.395C-10.303,78.59-10.533,78.721-10.691,78.78"/>
	</g>
	<g id="g2002" transform="matrix(5.7747714,0,0,-5.7747714,346.10465,817.71733)">
		<path id="path2004" fill="#37453C" d="M-16.266,77.695c-0.167,0.102-0.432,0.089-0.62,0.087c-0.16-0.001-0.447-0.013-0.565-0.139
			c-0.132-0.139-0.017-0.322,0.066-0.453c0.113-0.175,0.247-0.447,0.452-0.524c0.002-0.001,0.005,0,0.008-0.001
			c0.106-0.068,0.218-0.004,0.303,0.079c0.097,0.098,0.184,0.228,0.249,0.35c0.072,0.134,0.18,0.245,0.197,0.403
			C-16.168,77.582-16.192,77.65-16.266,77.695"/>
	</g>
	<g id="g2006" transform="matrix(5.7747714,0,0,-5.7747714,378.24993,803.41613)">
		<path id="path2008" fill="#37453C" d="M-20.321,75.513c-0.133,0.034-0.294-0.045-0.419-0.082c-0.13-0.04-0.289-0.019-0.408-0.099
			c-0.107-0.071-0.179-0.21-0.093-0.33c0.085-0.12,0.183-0.226,0.301-0.315c0.111-0.083,0.254-0.204,0.399-0.163
			c0.009,0.003,0.015,0.009,0.022,0.014c0.246,0.039,0.325,0.484,0.365,0.671C-20.121,75.354-20.169,75.474-20.321,75.513"/>
	</g>
	<g id="g2010" transform="matrix(5.7747714,0,0,-5.7747714,408.39826,796.09021)">
		<path id="path2012" fill="#37453C" d="M-24.183,74.26c0.027,0.129,0.062,0.265,0.061,0.397c-0.001,0.105-0.092,0.216-0.202,0.212
			c-0.109-0.004-0.222-0.074-0.314-0.128c-0.201-0.118-0.561-0.321-0.399-0.594c0.064-0.11,0.185-0.19,0.284-0.267
			c0.105-0.08,0.214-0.144,0.343-0.125c0.008,0,0.016,0.001,0.024,0.003c0.004,0.001,0.007,0,0.011,0.001
			c0.004,0.001,0.005,0.004,0.009,0.006c0.011,0.003,0.023,0.005,0.035,0.012c0.004,0.002,0.009,0.005,0.013,0.007
			c0.049,0.026,0.078,0.088,0.075,0.141C-24.249,74.028-24.204,74.16-24.183,74.26"/>
	</g>
	<g id="g2014" transform="matrix(5.7747714,0,0,-5.7747714,428.81268,775.27794)">
		<path id="path2016" fill="#37453C" d="M-26.642,71.344c-0.003,0.071-0.013,0.141-0.025,0.21c-0.019,0.111-0.033,0.218-0.067,0.325
			c-0.028,0.089-0.086,0.183-0.188,0.194c-0.104,0.011-0.181-0.05-0.252-0.12c-0.131-0.13-0.485-0.376-0.347-0.596
			c0.056-0.09,0.19-0.136,0.279-0.182c0.127-0.064,0.273-0.134,0.418-0.115c0.005,0.001,0.007,0.004,0.013,0.005
			c0.099,0,0.205,0.09,0.163,0.202C-26.629,71.216-26.642,71.321-26.642,71.344"/>
	</g>
	<g id="g2018" transform="matrix(5.7747714,0,0,-5.7747714,436.55027,734.31291)">
		<path id="path2020" fill="#37453C" d="M-27.25,65.922c-0.145,0.264-0.401-0.035-0.508-0.158c-0.103-0.117-0.426-0.473-0.173-0.606
			c0.202-0.106,0.421-0.175,0.648-0.154c0.058,0.005,0.101,0.047,0.119,0.096c0.036,0.038,0.057,0.091,0.039,0.156
			C-27.183,65.474-27.138,65.718-27.25,65.922"/>
	</g>
	<g id="g2022" transform="matrix(5.7747714,0,0,-5.7747714,442.91121,716.77146)">
		<path id="path2024" fill="#37453C" d="M-27.908,63.57c-0.079,0.106-0.214,0.311-0.373,0.212c-0.126-0.079-0.153-0.266-0.209-0.391
			c-0.022-0.048-0.031-0.115,0.005-0.16c0.052-0.065,0.134-0.114,0.22-0.132c0.018-0.031,0.047-0.054,0.09-0.058
			c0.137-0.014,0.335-0.033,0.437,0.078C-27.598,63.272-27.825,63.459-27.908,63.57"/>
	</g>
	<g id="g2026" transform="matrix(5.7747714,0,0,-5.7747714,443.63305,694.63672)">
		<path id="path2028" fill="#37453C" d="M-27.784,60.674c-0.079,0.106-0.215,0.311-0.373,0.212
			c-0.126-0.079-0.153-0.266-0.209-0.389c-0.022-0.048-0.031-0.116,0.005-0.161c0.052-0.065,0.134-0.113,0.221-0.132
			c0.017-0.031,0.046-0.054,0.089-0.058c0.138-0.014,0.335-0.033,0.438,0.078C-27.474,60.376-27.701,60.563-27.784,60.674"/>
	</g>
	<g id="g2030" transform="matrix(5.7747714,0,0,-5.7747714,432.79958,672.10763)">
		<path id="path2032" fill="#37453C" d="M-26.149,57.84c-0.126-0.079-0.153-0.266-0.209-0.39c-0.022-0.048-0.031-0.115,0.005-0.161
			c0.052-0.065,0.134-0.113,0.22-0.132c0.017-0.031,0.046-0.054,0.089-0.058c0.138-0.014,0.336-0.033,0.438,0.079
			c0.14,0.152-0.088,0.34-0.171,0.45C-25.855,57.734-25.991,57.94-26.149,57.84"/>
	</g>
	<g id="g2034" transform="matrix(5.7747714,0,0,-5.7747714,693.13254,197.49649)">
		<path id="path2036" fill="#F6E1D0" d="M-55.46-6.657c-0.515,0.702-1.747,0.872-2.403,0.323c-0.849-0.326-1.386-1.287-1.214-2.237
			c0.216-1.197,1.797-1.816,2.843-1.43C-54.851-9.491-54.689-7.709-55.46-6.657"/>
	</g>
	<g id="g2038" transform="matrix(5.7747714,0,0,-5.7747714,662.45414,252.17609)">
		<path id="path2040" fill="#402422" d="M-51.994,0.78c0.181-0.087,0.4-0.047,0.548,0.083c0.324,0.284,0.249,0.773-0.078,1.022
			c-0.237,0.181-0.721,0.206-0.722-0.163c-0.094-0.137-0.128-0.317-0.089-0.475C-52.288,1.059-52.173,0.867-51.994,0.78"/>
	</g>
	<g id="g2042" transform="matrix(5.7747714,0,0,-5.7747714,665.70824,236.70141)">
		<path id="path2044" fill="#653F3A" d="M-52.266-1.272c-0.001,0.011-0.006,0.021-0.008,0.032c-0.002,0.092-0.036,0.185-0.12,0.249
			c-0.078,0.06-0.171,0.08-0.255,0.06c-0.004-0.001-0.008,0-0.012-0.001c-0.011-0.002-0.02-0.009-0.03-0.013
			c-0.012-0.005-0.024-0.008-0.035-0.016c-0.073-0.045-0.123-0.127-0.151-0.208c-0.042-0.122,0.04-0.254,0.142-0.328
			c0.005-0.003,0.01-0.006,0.015-0.01c0.022-0.015,0.044-0.027,0.066-0.035c0.001,0,0.002,0,0.002,0
			c0.033-0.012,0.068-0.018,0.102-0.018c0.018,0,0.033,0.003,0.05,0.006c0.019,0.003,0.037,0.008,0.055,0.014
			c0.007,0.003,0.014,0.005,0.02,0.009C-52.332-1.49-52.262-1.403-52.266-1.272"/>
	</g>
	<g id="g2046" transform="matrix(5.7747714,0,0,-5.7747714,662.40904,234.52492)">
		<path id="path2048" fill="#F6E1D0" d="M-51.814-1.523c-0.247,0.057-0.335-0.326-0.088-0.383
			C-51.655-1.963-51.567-1.58-51.814-1.523"/>
	</g>
	<g id="g2050" transform="matrix(5.7747714,0,0,-5.7747714,674.74224,233.36299)">
		<path id="path2052" fill="#F6E1D0" d="M-53.412-1.796c-0.175,0.04-0.238-0.232-0.063-0.271C-53.3-2.108-53.237-1.837-53.412-1.796
			"/>
	</g>
	<g id="g2054" transform="matrix(5.7747714,0,0,-5.7747714,670.42844,243.24885)">
		<path id="path2056" fill="#F6E1D0" d="M-52.946-0.464c-0.141,0.033-0.191-0.185-0.05-0.218
			C-52.856-0.714-52.806-0.496-52.946-0.464"/>
	</g>
	<g id="g2058" transform="matrix(5.7747714,0,0,-5.7747714,282.55444,500.26022)">
		<path id="path2060" fill="#37453C" d="M-4.852,36.89c-0.101,0.068-0.323,0.141-0.44,0.146c-0.037,0.002-0.133-0.012-0.227-0.019
			c0.159,0.142,0.266,0.315,0.013,0.515c-0.118,0.094-0.227,0.179-0.391,0.109c-0.062-0.026-0.252-0.171-0.264-0.069
			c-0.03,0.248-0.062,0.495-0.07,0.746c-0.01,0.374-0.087,1.02-0.419,1.254c-0.328,0.231-0.637-0.503-0.727-0.679
			c-0.048-0.094-0.002-0.206,0.095-0.242c-0.008-0.022-0.014-0.059-0.01-0.128c0.011-0.212,0.06-0.439,0.094-0.649
			c0.073-0.446,0.165-0.873,0.189-1.326c0.009-0.178,0.063-0.527,0.211-0.649c0.274-0.226,0.898-0.226,1.06-0.526
			c0.153-0.286,0.637-0.49,0.843-0.109c0.164,0.305,0.062,0.558-0.131,0.763c0.268-0.093,0.551-0.115,0.563,0.238
			C-4.452,36.568-4.613,36.727-4.852,36.89"/>
	</g>
	<g id="g2062" transform="matrix(5.7747714,0,0,-5.7747714,331.09833,464.43008)">
		<path id="path2064" fill="#37453C" d="M-10.835,31.737c-0.101,0.069-0.323,0.141-0.44,0.146c-0.037,0.002-0.132-0.012-0.226-0.018
			c0.158,0.142,0.266,0.315,0.013,0.515c-0.118,0.094-0.227,0.18-0.391,0.11c-0.062-0.026-0.252-0.171-0.264-0.07
			c-0.03,0.248-0.062,0.496-0.07,0.746c-0.01,0.375-0.086,1.02-0.419,1.255c-0.327,0.231-0.637-0.503-0.727-0.68
			c-0.047-0.093-0.002-0.206,0.095-0.241c-0.008-0.022-0.014-0.059-0.01-0.128c0.011-0.213,0.06-0.439,0.094-0.649
			c0.073-0.447,0.166-0.873,0.189-1.327c0.009-0.179,0.062-0.527,0.211-0.649c0.274-0.226,0.898-0.226,1.059-0.527
			c0.153-0.286,0.637-0.491,0.843-0.109c0.165,0.305,0.062,0.557-0.131,0.762c0.268-0.093,0.551-0.114,0.563,0.239
			C-10.435,31.414-10.596,31.573-10.835,31.737"/>
	</g>
	<g id="g2066" transform="matrix(5.7747714,0,0,-5.7747714,449.5545,459.43896)">
		<path id="path2068" fill="#37453C" d="M-26.245,29.921c-0.072,0.098-0.256,0.241-0.365,0.285c-0.034,0.014-0.128,0.034-0.22,0.059
			c0.196,0.08,0.356,0.207,0.185,0.481c-0.079,0.128-0.154,0.245-0.332,0.234c-0.067-0.004-0.295-0.078-0.272,0.023
			c0.055,0.243,0.108,0.488,0.184,0.725c0.116,0.357,0.26,0.991,0.025,1.322c-0.232,0.327-0.983-0.591-0.904-0.656
			c-0.015-0.018-0.033-0.051-0.052-0.117c-0.06-0.204-0.09-0.434-0.129-0.644c-0.08-0.445-0.136-0.878-0.265-1.313
			c-0.051-0.171-0.118-0.518-0.019-0.683c0.183-0.304,0.771-0.513,0.822-0.85c0.049-0.32,0.437-0.675,0.758-0.385
			c0.256,0.231,0.245,0.505,0.131,0.762c0.221-0.177,0.481-0.292,0.61,0.037C-25.976,29.484-26.075,29.687-26.245,29.921"/>
	</g>
	<g id="g2070" transform="matrix(5.7747714,0,0,-5.7747714,514.7799,439.28963)">
		<path id="path2072" fill="#37453C" d="M-34.56,26.651c-0.034,0.302-0.217,0.435-0.477,0.562c-0.11,0.053-0.339,0.093-0.456,0.08
			c-0.037-0.004-0.13-0.03-0.221-0.051c0.135,0.163,0.217,0.35-0.062,0.512c-0.131,0.075-0.251,0.144-0.403,0.051
			c-0.057-0.035-0.224-0.206-0.251-0.107c-0.065,0.241-0.133,0.481-0.177,0.727c-0.064,0.37-0.234,0.997-0.597,1.18
			c-0.358,0.181-0.592-0.982-0.491-1.003c-0.004-0.023-0.005-0.06,0.009-0.128c0.041-0.209,0.123-0.426,0.187-0.628
			c0.137-0.432,0.291-0.84,0.38-1.285c0.035-0.175,0.138-0.512,0.303-0.612c0.304-0.183,0.921-0.093,1.124-0.367
			c0.193-0.26,0.702-0.392,0.85,0.014c0.118,0.325-0.02,0.561-0.24,0.735C-34.803,26.279-34.52,26.3-34.56,26.651"/>
	</g>
	<g id="g2074" transform="matrix(5.7747714,0,0,-5.7747714,705.79894,349.74085)">
		<path id="path2076" fill="#5C7967" d="M-58.608,13.086c-0.189,1.02-0.333,2.049-0.503,3.072c-0.281,1.694-0.665,3.474-1.776,4.836
			c-1.026,1.258-2.486,1.631-4.035,1.209c-1.727-0.471-3.273-1.319-5.056-1.626c-1.922-0.332-3.908-0.2-5.847-0.426
			c-1.637-0.191-3.271-0.523-4.774-1.22c-1.56-0.724-3.18-1.8-4.281-3.133c-0.404-0.488-0.767-1.003-1.094-1.538
			c-0.502-0.748-0.906-1.562-1.259-2.431c-0.671-1.655-1.14-3.39-1.274-5.177c-0.125-1.662,0.174-3.317,0.965-4.787
			c0.395-0.734,0.822-1.434,1.336-2.093c0.51-0.655,1.134-1.155,1.745-1.701c0.578-0.518,1.339-0.755,2.017-1.1
			c0.822-0.417,1.678-0.638,2.59-0.755c1.695-0.215,3.247,0.214,4.609,1.225c1.344,0.998,2.109,2.492,2.324,4.132
			c0.18,1.368-0.158,3.176-1.323,4.057c-0.728,0.551-1.798,0.57-2.645,0.344C-77.865,5.715-78.503,4.917-78.823,4
			c-0.468-1.348,1.162-3.443,2.442-2.203c0.08,0.048,0.16,0.107,0.248,0.181c0.125,0.107,0.03,0.298-0.102,0.337
			c-0.202,0.057-0.659,0.699-0.252,0.836c0.349,0.117,0.656,0.065,0.934-0.167c0.477-0.395,0.419-1.122,0.19-1.628
			c-0.382-0.844-1.375-1.509-2.218-1.779c-0.997-0.32-2.132-0.085-3.014,0.43c-0.925,0.542-1.486,1.409-1.739,2.444
			c-0.853,3.493,0.313,7.541,2.988,9.965c1.491,1.35,3.667,1.567,5.57,1.339c1.595-0.192,3.151-0.485,4.73-0.788
			c1.834-0.35,3.609-0.968,5.45-1.256c0.819-0.127,1.634-0.214,2.462-0.238c0.769-0.022,1.595-0.01,2.286,0.358
			C-58.419,12.059-58.541,12.718-58.608,13.086"/>
	</g>
	<g id="g2078" transform="matrix(5.7747714,0,0,-5.7747714,568.46744,210.00751)">
		<path id="path2080" fill="#F6E1D0" d="M-39.313-3.8c-0.515,0.702-1.747,0.872-2.402,0.323c-0.849-0.326-1.386-1.287-1.214-2.237
			c0.216-1.196,1.797-1.816,2.843-1.43C-38.705-6.633-38.542-4.851-39.313-3.8"/>
	</g>
	<g id="g2082" transform="matrix(5.7747714,0,0,-5.7747714,616.43614,359.12772)">
		<path id="path2084" fill="#F6E1D0" d="M-47.039,15.19c-0.118,0.085-0.281,0.096-0.42,0.128c-0.312,0.07-0.599,0.419-0.769,0.67
			c-0.29,0.427-0.041,0.954-0.277,1.353c-0.03,0.05-0.1,0.095-0.161,0.085c-0.142-0.024-0.259-0.094-0.359-0.186
			c-0.251-0.051-0.496-0.425-0.586-0.599c-0.248-0.475-0.148-1.102,0.137-1.531c0.263-0.397,0.831-0.59,1.283-0.626
			c0.398-0.031,1.109,0.017,1.253,0.48C-46.908,15.058-46.968,15.14-47.039,15.19"/>
	</g>
	<g id="g2086" transform="matrix(5.7747714,0,0,-5.7747714,414.32493,241.28658)">
		<path id="path2088" fill="#7E9988" d="M-19.504,1.797c-0.165-0.029-0.331-0.05-0.498-0.072c-0.033-0.109-0.068-0.217-0.094-0.332
			c-0.156-0.674-0.32-1.572-0.166-2.257c0.091-0.41,0.253-1.373,0.803-1.483c0.623-0.126,0.839,0.31,0.947,0.856
			c0.155,0.783,0.102,1.594,0.242,2.384c0.08,0.45,0.274,0.889,0.407,1.335C-18.396,2.05-18.937,1.895-19.504,1.797"/>
	</g>
	<g id="g2090" transform="matrix(5.7747714,0,0,-5.7747714,345.49599,323.97151)">
		<path id="path2092" fill="#7E9988" d="M-11.334,13.265c0.18-0.502,0.424-0.848,0.927-1.035c0.456-0.169,0.779,0.229,0.863,0.62
			c0.147,0.679-0.134,1.488-0.159,2.174c-0.011,0.297,0.04,0.59,0.106,0.881c-0.661-0.037-1.325-0.056-1.987-0.084
			C-11.675,14.947-11.617,14.056-11.334,13.265"/>
	</g>
	<g id="g2094" transform="matrix(5.7747714,0,0,-5.7747714,255.45691,292.84489)">
		<path id="path2096" fill="#7E9988" d="M0.723,10.087C0.74,9.418,0.837,8.734,1.075,8.114C1.251,7.657,1.651,6.93,2.15,6.754
			c0.486-0.172,0.833-0.076,1.016,0.425c0.237,0.646-0.221,1.653-0.322,2.288c-0.049,0.305-0.057,0.6-0.048,0.893
			C2.584,10.343,2.371,10.325,2.16,10.3C1.679,10.243,1.199,10.173,0.723,10.087"/>
	</g>
	<g id="g2098" transform="matrix(5.7747714,0,0,-5.7747714,216.57883,361.44858)">
		<path id="path2100" fill="#7E9988" d="M5.122,19.422c0.257-0.539,1.74-2.223,2.123-0.94c0.058,0.195-0.076,0.481-0.138,0.656
			c-0.157,0.446-0.314,0.893-0.471,1.34c-0.144,0.407-0.244,0.823-0.303,1.249C5.72,21.573,5.116,21.38,4.53,21.136
			C4.659,20.54,4.852,19.99,5.122,19.422"/>
	</g>
	<g id="g2102" transform="matrix(5.7747714,0,0,-5.7747714,222.2462,404.24315)">
		<path id="path2104" fill="#7E9988" d="M3.962,24.951c-0.077,0.636-0.685,1.047-0.987,1.584c-0.262,0.465-0.535,0.904-0.741,1.375
			c-0.642-0.352-1.275-0.758-1.859-1.216c0.29-0.644,0.683-1.235,1.276-1.755c0.392-0.344,0.883-0.666,1.424-0.676
			C3.453,24.256,4.021,24.46,3.962,24.951"/>
	</g>
	<g id="g2106" transform="matrix(5.7747714,0,0,-5.7747714,124.22754,477.87148)">
		<path id="path2108" fill="#7E9988" d="M16.031,35.524c0.541-0.399,2.371-1.121,2.198,0.25c-0.074,0.588-0.727,0.994-1.111,1.361
			c-0.325,0.311-0.624,0.701-0.876,1.072c-0.032,0.047-0.059,0.096-0.084,0.146c-0.113-0.121-0.225-0.242-0.329-0.368
			c-0.369-0.447-0.703-0.917-1.008-1.402C15.171,36.177,15.61,35.834,16.031,35.524"/>
	</g>
	<g id="g2110" transform="matrix(5.7747714,0,0,-5.7747714,135.49471,526.38473)">
		<path id="path2112" fill="#7E9988" d="M14.084,41.744c0.883,0.112,0.492,1.019-0.074,1.287c-0.567,0.268-1.153,0.441-1.697,0.768
			c-0.037,0.023-0.072,0.049-0.108,0.073c-0.249-0.466-0.475-0.95-0.679-1.454c-0.023-0.057-0.044-0.114-0.066-0.171
			C12.255,41.826,13.197,41.632,14.084,41.744"/>
	</g>
	<g id="g2114" transform="matrix(5.7747714,0,0,-5.7747714,119.45064,561.17136)">
		<path id="path2116" fill="#7E9988" d="M15.835,46.442c-0.665,0.283-1.395,0.333-2.068,0.511c-0.18-0.567-0.335-1.142-0.457-1.724
			c0.81-0.346,1.648-0.448,2.562-0.212c0.325,0.083,0.572,0.35,0.638,0.671C16.592,46.083,16.118,46.322,15.835,46.442"/>
	</g>
	<g id="g2118" transform="matrix(5.7747714,0,0,-5.7747714,120.53921,624.84052)">
		<path id="path2120" fill="#7E9988" d="M15.067,54.74c-0.469,0.157-1.148-0.013-1.643,0.014c-0.168,0.01-0.349,0.029-0.532,0.059
			c-0.02-0.174-0.038-0.348-0.052-0.523c-0.034-0.459-0.033-0.917-0.002-1.372c0.685-0.042,1.422,0.092,1.937,0.382
			c0.371,0.209,0.754,0.396,0.8,0.859C15.611,54.492,15.332,54.651,15.067,54.74"/>
	</g>
	<g id="g2122" transform="matrix(5.7747714,0,0,-5.7747714,117.3417,745.4426)">
		<path id="path2124" fill="#7E9988" d="M14.299,70.511c0.433,0.143,0.841,0.354,1.116,0.546c0.406,0.284,1.242,1.289,0.467,1.708
			c-0.373,0.202-0.83-0.089-1.164-0.23c-0.236-0.1-0.644-0.269-1.056-0.374C13.813,71.594,14.025,71.041,14.299,70.511"/>
	</g>
	<g id="g2126" transform="matrix(5.7747714,0,0,-5.7747714,169.97412,742.22545)">
		<path id="path2128" fill="#7E9988" d="M7.462,69.574c-0.423-0.018-0.7-0.524-0.972-0.783c-0.134-0.128-0.274-0.24-0.416-0.344
			c0.161-0.24,0.328-0.478,0.508-0.709c0.201-0.258,0.419-0.492,0.648-0.713c0.283,0.197,0.522,0.426,0.736,0.747
			C8.31,68.284,8.445,69.615,7.462,69.574"/>
	</g>
	<g id="g2130" transform="matrix(5.7747714,0,0,-5.7747714,248.84193,810.61436)">
		<path id="path2132" fill="#7E9988" d="M-3.503,77.724c0.038,0.658-0.046,1.443-0.903,1.407c-0.348-0.014-0.405-0.564-0.537-0.783
			c-0.096-0.159-0.19-0.351-0.295-0.544c0.434-0.357,0.956-0.578,1.466-0.809C-3.642,77.229-3.515,77.5-3.503,77.724"/>
	</g>
	<g id="g2134" transform="matrix(5.7747714,0,0,-5.7747714,278.20087,834.27185)">
		<path id="path2136" fill="#7E9988" d="M-7.567,80.523c0.501-0.176,1.018-0.294,1.552-0.372c0.024,0.297,0.002,0.589-0.041,0.791
			c-0.071,0.335-0.157,0.605-0.455,0.793c-0.161,0.101-0.521,0.075-0.656-0.067c-0.22-0.233-0.168-0.584-0.281-0.858
			C-7.488,80.712-7.527,80.617-7.567,80.523"/>
	</g>
	<g id="g2138" transform="matrix(5.7747714,0,0,-5.7747714,368.47671,806.06906)">
		<path id="path2140" fill="#7E9988" d="M-19.071,75.955c-0.304,0.5-0.762,0.678-1.18,0.215c-0.191-0.212-0.103-0.533-0.042-0.772
			c0.018-0.068,0.029-0.136,0.039-0.203c0.499,0.027,0.983,0.117,1.451,0.262C-18.891,75.649-18.991,75.824-19.071,75.955"/>
	</g>
	<g id="g2142" transform="matrix(5.7747714,0,0,-5.7747714,423.3145,773.41961)">
		<path id="path2144" fill="#7E9988" d="M-25.907,71.155c-0.011,0.015-0.023,0.03-0.034,0.045c-0.161,0.215-0.31,0.48-0.576,0.579
			c-0.58,0.218-0.722-0.428-0.722-0.858c0-0.173,0.097-0.377,0.201-0.57c0.241,0.138,0.479,0.286,0.709,0.457
			C-26.18,70.917-26.04,71.035-25.907,71.155"/>
	</g>
	<g id="g2146" transform="matrix(5.7747714,0,0,-5.7747714,542.58834,237.66871)">
		<path id="path2148" fill="#402422" d="M-36.207,0.064c-0.237,0.181-0.721,0.206-0.722-0.163c-0.094-0.136-0.128-0.317-0.089-0.475
			c0.046-0.189,0.162-0.382,0.342-0.469c0.18-0.087,0.399-0.047,0.547,0.083C-35.806-0.675-35.881-0.185-36.207,0.064"/>
	</g>
	<g id="g2150" transform="matrix(5.7747714,0,0,-5.7747714,540.42804,248.33005)">
		<path id="path2152" fill="#653F3A" d="M-36.03,1.477c0,0.011-0.005,0.021-0.008,0.031c-0.003,0.092-0.037,0.185-0.12,0.249
			c-0.078,0.06-0.171,0.08-0.255,0.06c-0.004,0-0.008,0-0.012-0.002c-0.011-0.002-0.02-0.009-0.03-0.013
			c-0.012-0.005-0.024-0.008-0.035-0.015c-0.073-0.045-0.123-0.128-0.151-0.208c-0.042-0.122,0.041-0.254,0.142-0.328
			c0.004-0.004,0.009-0.006,0.014-0.009c0.022-0.015,0.044-0.028,0.066-0.036c0.001,0,0.002,0,0.002,0
			c0.034-0.012,0.068-0.018,0.103-0.018c0.017,0,0.033,0.003,0.049,0.005c0.019,0.004,0.037,0.008,0.055,0.014
			c0.007,0.003,0.014,0.005,0.02,0.009C-36.097,1.259-36.026,1.346-36.03,1.477"/>
	</g>
	<g id="g2154" transform="matrix(5.7747714,0,0,-5.7747714,537.12884,246.153)">
		<path id="path2156" fill="#F6E1D0" d="M-35.578,1.226c-0.247,0.056-0.335-0.327-0.088-0.384
			C-35.42,0.785-35.331,1.169-35.578,1.226"/>
	</g>
	<g id="g2158" transform="matrix(5.7747714,0,0,-5.7747714,549.46264,244.99167)">
		<path id="path2160" fill="#F6E1D0" d="M-37.176,0.953c-0.175,0.04-0.238-0.231-0.063-0.272
			C-37.064,0.641-37.001,0.913-37.176,0.953"/>
	</g>
	<g id="g2162" transform="matrix(5.7747714,0,0,-5.7747714,545.14824,254.87748)">
		<path id="path2164" fill="#F6E1D0" d="M-36.711,2.285c-0.14,0.032-0.19-0.185-0.05-0.218C-36.621,2.035-36.571,2.253-36.711,2.285
			"/>
	</g>
	<g id="g2166" transform="matrix(5.7747714,0,0,-5.7747714,530.22624,311.38191)">
		<path id="path2168" fill="#F48D6C" d="M-35.318,9.806c-0.1,0.452-0.553,0.779-0.986,0.856c-0.167,0.03-0.32,0.026-0.469-0.004
			c-0.228,0.041-0.46-0.044-0.666-0.151c-0.324-0.168-0.524-0.564-0.581-0.911c-0.062-0.376-0.011-0.77,0.204-1.093
			c0.252-0.379,0.756-0.653,1.219-0.579C-35.695,8.068-35.121,8.913-35.318,9.806"/>
	</g>
	<g id="g2170" transform="matrix(5.7747714,0,0,-5.7747714,442.06,484.86468)">
		<path id="path2172" fill="#5C7967" d="M-25.517,33.312c-0.115,0.068-0.272,0.044-0.372-0.041c-0.05-0.043-0.075-0.09-0.069-0.156
			c0.004-0.055,0.052-0.1,0.108-0.089c0.083,0.017,0.116,0.154,0.225,0.086C-25.501,33.036-25.39,33.239-25.517,33.312"/>
	</g>
	<g id="g2174" transform="matrix(5.7747714,0,0,-5.7747714,433.4088,479.06686)">
		<path id="path2176" fill="#5C7967" d="M-24.331,32.641c-0.084-0.004-0.142-0.066-0.187-0.13c-0.047-0.067,0.053-0.16,0.117-0.109
			c0.044,0.035,0.071,0.045,0.124,0.033c0.049-0.011,0.082,0.026,0.086,0.071C-24.185,32.588-24.251,32.645-24.331,32.641"/>
	</g>
	<g id="g2178" transform="matrix(5.7747714,0,0,-5.7747714,429.50621,474.76696)">
		<path id="path2180" fill="#5C7967" d="M-23.78,32.119c-0.141,0.116-0.314-0.037-0.306-0.194c0.004-0.079,0.121-0.113,0.156-0.036
			c0.026,0.057,0.088,0.057,0.136,0.087C-23.747,32.005-23.734,32.081-23.78,32.119"/>
	</g>
	<g id="g2182" transform="matrix(5.7747714,0,0,-5.7747714,450.51311,465.80336)">
		<path id="path2184" fill="#5C7967" d="M-26.433,30.742c-0.084,0.079-0.22,0.052-0.273-0.052c-0.061-0.12-0.117-0.23-0.052-0.359
			c0.039-0.078,0.143-0.053,0.183,0.005c0.03,0.045,0.037,0.086,0.048,0.138c0.011,0.049,0.033,0.093,0.057,0.104
			C-26.406,30.606-26.375,30.687-26.433,30.742"/>
	</g>
	<g id="g2186" transform="matrix(5.7747714,0,0,-5.7747714,440.45231,462.61102)">
		<path id="path2188" fill="#5C7967" d="M-25.089,30.424c-0.097-0.039-0.191-0.096-0.181-0.214c0.005-0.076,0.08-0.105,0.143-0.076
			c0.061,0.029,0.09,0.089,0.135,0.136C-24.93,30.336-24.999,30.461-25.089,30.424"/>
	</g>
	<g id="g2190" transform="matrix(5.7747714,0,0,-5.7747714,436.80958,463.75327)">
		<path id="path2192" fill="#5C7967" d="M-24.625,30.609l-0.007,0.04c-0.015,0.09-0.128,0.129-0.18,0.041l-0.02-0.034
			c-0.034-0.057,0.002-0.152,0.072-0.16c0.033-0.003,0.052,0,0.083,0.014C-24.645,30.526-24.619,30.575-24.625,30.609"/>
	</g>
	<g id="g2194" transform="matrix(5.7747714,0,0,-5.7747714,431.95937,442.30924)">
		<path id="path2196" fill="#5C7967" d="M-23.781,27.858c-0.011,0.064-0.118,0.073-0.143,0.014
			c-0.046-0.111-0.006-0.305,0.133-0.332c0.045-0.009,0.095,0.018,0.104,0.065C-23.666,27.708-23.764,27.762-23.781,27.858"/>
	</g>
	<g id="g2198" transform="matrix(5.7747714,0,0,-5.7747714,428.45751,446.80663)">
		<path id="path2200" fill="#5C7967" d="M-23.368,28.48c0.011,0.09-0.114,0.154-0.159,0.06c-0.043-0.089-0.029-0.16,0.032-0.235
			c0.038-0.045,0.111-0.031,0.148,0.005c0.018,0.017,0.027,0.035,0.028,0.061C-23.318,28.41-23.371,28.456-23.368,28.48"/>
	</g>
	<g id="g2202" transform="matrix(5.7747714,0,0,-5.7747714,482.56194,425.06692)">
		<path id="path2204" fill="#5C7967" d="M-30.215,25.111c-0.035,0.052-0.096,0.074-0.129,0.122
			c-0.023,0.033-0.051,0.062-0.089,0.076c-0.08,0.03-0.171-0.065-0.096-0.132c0.029-0.025,0.045-0.083,0.071-0.115
			c0.045-0.052,0.077-0.08,0.146-0.088C-30.24,24.966-30.166,25.039-30.215,25.111"/>
	</g>
	<g id="g2206" transform="matrix(5.7747714,0,0,-5.7747714,479.66933,427.99649)">
		<path id="path2208" fill="#5C7967" d="M-29.866,25.521c-0.042,0.037-0.084,0.053-0.131,0.084
			c-0.044,0.029-0.098-0.006-0.111-0.051c-0.042-0.142,0.144-0.238,0.245-0.139C-29.835,25.443-29.836,25.496-29.866,25.521"/>
	</g>
	<g id="g2210" transform="matrix(5.7747714,0,0,-5.7747714,509.64844,440.12411)">
		<path id="path2212" fill="#5C7967" d="M-33.898,26.81c-0.006,0.068,0.009,0.143,0.03,0.207c0.026,0.081-0.098,0.15-0.149,0.08
			c-0.079-0.107-0.16-0.274-0.102-0.407c0.022-0.05,0.063-0.09,0.122-0.086l0.016,0.001c0.045,0.003,0.084,0.034,0.094,0.078
			C-33.877,26.732-33.894,26.764-33.898,26.81"/>
	</g>
	<g id="g2214" transform="matrix(5.7747714,0,0,-5.7747714,502.30011,436.54315)">
		<path id="path2216" fill="#5C7967" d="M-32.904,26.414c0.048,0.072-0.053,0.165-0.122,0.115c-0.134-0.097-0.281-0.339-0.099-0.461
			c0.044-0.029,0.112-0.005,0.134,0.04c0.025,0.053,0.016,0.093,0.022,0.148C-32.964,26.313-32.934,26.369-32.904,26.414"/>
	</g>
	<g id="g2218" transform="matrix(5.7747714,0,0,-5.7747714,491.08319,437.96143)">
		<path id="path2220" fill="#5C7967" d="M-31.454,26.709c-0.054-0.101-0.088-0.249,0.059-0.286c0.036-0.009,0.069,0.009,0.087,0.04
			c0.027,0.044,0.028,0.095,0.049,0.141C-31.2,26.734-31.387,26.837-31.454,26.709"/>
	</g>
	<g id="g2222" transform="matrix(5.7747714,0,0,-5.7747714,508.55992,458.26036)">
		<path id="path2224" fill="#5C7967" d="M-33.934,29.187c-0.107,0.013-0.204,0.018-0.291-0.059c-0.092-0.08-0.172-0.201-0.104-0.32
			c0.034-0.058,0.114-0.059,0.159-0.015c0.085,0.081,0.082,0.183,0.218,0.197C-33.847,29.001-33.817,29.173-33.934,29.187"/>
	</g>
	<g id="g2226" transform="matrix(5.7747714,0,0,-5.7747714,503.58035,455.07439)">
		<path id="path2228" fill="#5C7967" d="M-33.253,28.821c-0.161,0.121-0.394-0.05-0.375-0.238c0.006-0.061,0.085-0.102,0.13-0.048
			c0.036,0.043,0.069,0.085,0.124,0.105c0.049,0.019,0.086,0.032,0.124,0.07C-33.222,28.738-33.22,28.795-33.253,28.821"/>
	</g>
	<g id="g2230" transform="matrix(5.7747714,0,0,-5.7747714,497.32055,454.32423)">
		<path id="path2232" fill="#5C7967" d="M-32.429,28.784c0.011,0.074-0.048,0.128-0.12,0.112c0.015,0.004-0.057-0.011-0.078-0.021
			c-0.038-0.018-0.072-0.044-0.098-0.077c-0.06-0.075-0.016-0.177,0.08-0.179c0.026-0.001,0.045,0.011,0.058,0.028
			c0.007-0.001,0.064,0.028,0.08,0.036C-32.469,28.702-32.435,28.74-32.429,28.784"/>
	</g>
	<g id="g2234" transform="matrix(5.7747714,0,0,-5.7747714,287.83263,529.37662)">
		<path id="path2236" fill="#5C7967" d="M-5.827,40.638c-0.125,0.345-0.762-0.111-0.511-0.326c0.028-0.024,0.063-0.028,0.096-0.009
			c0.003,0.001,0.005,0.003,0.008,0.004c0.026,0.014,0.034,0.04,0.037,0.067c0.031,0.058,0.059,0.103,0.126,0.131
			c0.058,0.023,0.118-0.006,0.18,0.011C-5.842,40.529-5.809,40.588-5.827,40.638"/>
	</g>
	<g id="g2238" transform="matrix(5.7747714,0,0,-5.7747714,278.05941,523.76243)">
		<path id="path2240" fill="#5C7967" d="M-4.496,40.001c-0.169,0.061-0.315-0.115-0.327-0.267c-0.003-0.038,0.03-0.071,0.067-0.082
			c0.043-0.021,0.099,0,0.11,0.051c0.001,0.001,0,0.002,0.001,0.004c0.042,0.063,0.119,0.076,0.178,0.122
			C-4.398,39.882-4.417,39.972-4.496,40.001"/>
	</g>
	<g id="g2242" transform="matrix(5.7747714,0,0,-5.7747714,272.07037,521.30926)">
		<path id="path2244" fill="#5C7967" d="M-3.691,39.74c-0.129,0.058-0.247-0.039-0.239-0.176c0.004-0.073,0.099-0.114,0.151-0.056
			c0.032,0.037,0.074,0.057,0.112,0.089C-3.625,39.634-3.641,39.717-3.691,39.74"/>
	</g>
	<g id="g2246" transform="matrix(5.7747714,0,0,-5.7747714,288.28422,510.42498)">
		<path id="path2248" fill="#5C7967" d="M-5.7,38.16c-0.003,0.047,0.048,0.104,0.065,0.148c0.021,0.054-0.006,0.123-0.073,0.118
			c-0.238-0.016-0.358-0.379-0.138-0.504c0.061-0.035,0.137,0.004,0.153,0.069C-5.677,38.052-5.696,38.099-5.7,38.16"/>
	</g>
	<g id="g2250" transform="matrix(5.7747714,0,0,-5.7747714,280.80584,510.26157)">
		<path id="path2252" fill="#5C7967" d="M-4.722,38.212c-0.005,0.037,0.021,0.094,0.022,0.133c0.002,0.051-0.067,0.089-0.109,0.057
			c-0.068-0.053-0.11-0.08-0.126-0.171c-0.016-0.092,0.022-0.164,0.093-0.214c0.063-0.045,0.134,0.023,0.136,0.085
			C-4.705,38.144-4.717,38.171-4.722,38.212"/>
	</g>
	<g id="g2254" transform="matrix(5.7747714,0,0,-5.7747714,275.05939,510.26735)">
		<path id="path2256" fill="#5C7967" d="M-3.972,38.269c-0.001,0.018-0.001,0.036,0.001,0.053c0.024,0.054-0.022,0.136-0.088,0.108
			c-0.074-0.031-0.12-0.087-0.115-0.17C-4.165,38.132-3.966,38.139-3.972,38.269"/>
	</g>
	<g id="g2258" transform="matrix(5.7747714,0,0,-5.7747714,263.84825,492.64967)">
		<path id="path2260" fill="#5C7967" d="M-2.336,36.08c-0.062,0.038-0.102,0.098-0.162,0.14c-0.035,0.026-0.098-0.004-0.103-0.047
			c-0.014-0.111,0.095-0.294,0.223-0.275C-2.284,35.912-2.25,36.028-2.336,36.08"/>
	</g>
	<g id="g2262" transform="matrix(5.7747714,0,0,-5.7747714,260.7466,497.68874)">
		<path id="path2264" fill="#5C7967" d="M-1.981,36.768c-0.033,0.074-0.112,0.086-0.148,0.154c-0.034,0.064-0.136,0.028-0.131-0.041
			c0.007-0.117,0.122-0.272,0.252-0.191C-1.986,36.706-1.968,36.741-1.981,36.768"/>
	</g>
	<g id="g2266" transform="matrix(5.7747714,0,0,-5.7747714,314.34918,458.05186)">
		<path id="path2268" fill="#5C7967" d="M-8.587,31.068c-0.014,0.045-0.061,0.07-0.099,0.091c-0.054,0.031-0.07,0.076-0.088,0.132
			c-0.022,0.067-0.11,0.072-0.145,0.014c-0.088-0.147,0.078-0.372,0.242-0.364C-8.61,30.944-8.568,31.007-8.587,31.068"/>
	</g>
	<g id="g2270" transform="matrix(5.7747714,0,0,-5.7747714,308.69859,461.30592)">
		<path id="path2272" fill="#5C7967" d="M-7.881,31.549c-0.034,0.027-0.086,0.051-0.102,0.095c-0.022,0.062-0.125,0.069-0.137-0.006
			c-0.018-0.12,0.059-0.233,0.19-0.222C-7.869,31.421-7.826,31.504-7.881,31.549"/>
	</g>
	<g id="g2274" transform="matrix(5.7747714,0,0,-5.7747714,330.04385,493.47316)">
		<path id="path2276" fill="#5C7967" d="M-10.983,35.537c-0.146,0.003-0.297-0.123-0.317-0.268c-0.014-0.098,0.12-0.161,0.17-0.064
			c0.016,0.031,0.074,0.107,0.13,0.113c0.062,0.008,0.118-0.035,0.177-0.047c0.032-0.007,0.07,0.007,0.085,0.038
			C-10.662,35.471-10.858,35.535-10.983,35.537"/>
	</g>
	<g id="g2278" transform="matrix(5.7747714,0,0,-5.7747714,327.60172,488.5415)">
		<path id="path2280" fill="#5C7967" d="M-10.616,34.917c-0.065,0.061-0.121,0.052-0.2,0.018c-0.097-0.041-0.113-0.083-0.151-0.172
			c-0.026-0.062,0.039-0.146,0.105-0.098c0.036,0.026,0.062,0.064,0.105,0.081c0.063,0.024,0.098,0.015,0.145,0.069
			C-10.587,34.845-10.586,34.89-10.616,34.917"/>
	</g>
	<g id="g2282" transform="matrix(5.7747714,0,0,-5.7747714,322.42522,484.03834)">
		<path id="path2284" fill="#5C7967" d="M-9.896,34.381c-0.151,0.085-0.301-0.04-0.333-0.19c-0.016-0.078,0.092-0.149,0.146-0.078
			c0.057,0.075,0.12,0.065,0.192,0.111C-9.833,34.261-9.836,34.347-9.896,34.381"/>
	</g>
	<g id="g2286" transform="matrix(5.7747714,0,0,-5.7747714,336.25866,469.73654)">
		<path id="path2288" fill="#5C7967" d="M-11.561,32.378c-0.217,0.029-0.312-0.216-0.245-0.391c0.03-0.079,0.147-0.062,0.146,0.025
			c0,0.127,0.065,0.145,0.141,0.227C-11.479,32.282-11.495,32.369-11.561,32.378"/>
	</g>
	<g id="g2290" transform="matrix(5.7747714,0,0,-5.7747714,329.497,468.09821)">
		<path id="path2292" fill="#5C7967" d="M-10.662,32.231c-0.195,0.045-0.274-0.234-0.223-0.372c0.032-0.086,0.169-0.069,0.162,0.029
			c-0.008,0.116,0.077,0.124,0.122,0.207C-10.571,32.15-10.599,32.216-10.662,32.231"/>
	</g>
	<g id="g2294" transform="matrix(5.7747714,0,0,-5.7747714,324.91184,469.52518)">
		<path id="path2296" fill="#5C7967" d="M-10.078,32.462c-0.009,0.03-0.04,0.053-0.071,0.05c-0.113-0.01-0.146-0.105-0.137-0.208
			c0.007-0.08,0.109-0.103,0.15-0.035C-10.095,32.337-10.054,32.382-10.078,32.462"/>
	</g>
</g>
<g>
	<path fill="#FFFFFF" d="M372.075,338.529c-0.816,1.365-1.225,3.131-1.225,5.307c0,2.182,0.134,4.49,0.408,6.941
		c0.268,2.449,0.408,4.834,0.408,7.143c0,2.316-0.549,4.428-1.633,6.328c-0.274,2.449-0.683,4.9-1.226,7.35
		c-0.548,2.449-1.499,4.764-2.857,6.939c1.085,1.365,1.225,2.928,0.408,4.695c-0.816,1.773-0.816,3.744,0,5.92
		c-1.365,0.549-2.315,1.225-2.857,2.041c-0.549,0.816-1.225,2.041-2.041,3.674c-1.091-0.543-2.042-0.611-2.858-0.203
		s-1.633,0.752-2.449,1.02c0.816,2.182,0.676,3.744-0.408,4.695c-1.091,0.957-2.315,1.838-3.675,2.654
		c-1.364,0.816-2.724,1.633-4.082,2.449c-1.365,0.816-2.315,2.041-2.857,3.674c-1.365,0.549-2.59,1.43-3.675,2.654
		c-1.091,1.225-2.449,1.568-4.082,1.02c-1.091,1.908-2.654,3.063-4.695,3.471s-2.794,1.428-2.245,3.063
		c-2.182,1.09-4.427,1.977-6.736,2.652c-2.315,0.684-3.744,2.246-4.286,4.695c-0.816-0.543-1.569-0.676-2.246-0.408
		c-0.682,0.273-1.429,0.141-2.245-0.408c-0.274,0.816-1.091,1.633-2.449,2.449c-1.365,0.816-2.315,0.549-2.857-0.816
		c-2.182,1.365-4.428,2.654-6.736,3.879c-2.315,1.225-4.562,1.287-6.736,0.203c-2.182,1.9-5.447,2.787-9.798,2.654
		c-4.356-0.141-7.757,0.473-10.206,1.836c-2.724-1.09-5.92-1.836-9.594-2.244c-3.675-0.408-7.011-0.613-10.003-0.613
		c-6.264-1.357-11.635-2.922-16.125-4.693c-4.491-1.768-9.187-3.063-14.085-3.879c-1.091-2.176-2.315-3.879-3.674-5.104
		c-1.365-1.225-2.724-2.654-4.083-4.287c-2.998-1.633-6.06-3.398-9.186-5.307c-3.132-1.9-5.103-4.35-5.919-7.348
		c-2.182-1.359-4.427-2.105-6.736-2.246c-2.315-0.135-4.631,0.273-6.94,1.225c-2.315,0.957-4.427,2.246-6.328,3.879
		c-1.907,1.633-3.266,3.266-4.083,4.898c-1.365-0.268-2.182-0.064-2.45,0.613c-0.274,0.682-1.091,0.887-2.449,0.611
		c-1.365,2.725-2.59,5.785-3.674,9.186c-1.091,3.406-3.406,5.652-6.94,6.736c-1.907-0.543-2.724-1.768-2.449-3.674
		c0.268-1.9,0.542-3.674,0.816-5.309c-1.633-1.357-2.246-3.061-1.837-5.102c0.408-2.041,0.204-3.879-0.613-5.512
		c0.542-2.449,0.613-4.146,0.204-5.104c-0.408-0.951-0.478-2.105-0.204-3.471c-0.816-0.541-1.703-0.816-2.653-0.816
		c-0.957,0-1.837-0.268-2.654-0.816c-0.274-2.174-0.07-5.166,0.612-8.98c0.676-3.809,2.105-6.393,4.287-7.758
		c0.268-1.633,0.064-2.99-0.612-4.082c-0.683-1.084-1.429-2.041-2.245-2.857c-0.817-0.816-1.569-1.768-2.246-2.857
		c-0.683-1.084-0.752-2.584-0.204-4.492c1.084,0,1.901-0.338,2.45-1.02c0.542-0.676,1.225-1.021,2.041-1.021
		c-0.548-3.807-0.479-7.207,0.204-10.205c0.676-2.992-0.07-5.85-2.245-8.574c-1.907,0.275-2.928-0.338-3.062-1.836
		c-0.14-1.494,0.204-2.514,1.021-3.063c0.542-1.9,1.155-3.471,1.837-4.695c0.676-1.225,1.289-2.379,1.837-3.469
		c0.542-1.086,1.021-2.176,1.429-3.268c0.408-1.084,0.338-2.309-0.204-3.674c1.359-1.359,2.175-3.533,2.45-6.531
		c0.268-2.992,0.676-5.717,1.225-8.166c0.542-2.717,0.472-5.032-0.204-6.939c-0.683-1.901-0.887-4.351-0.612-7.349
		c2.717-0.817,4.625-0.408,5.715,1.225c1.084,1.633,1.901,3.675,2.45,6.124c0.542,2.449,1.154,4.835,1.837,7.145
		c0.676,2.314,2.105,3.877,4.287,4.695c0.542,0.816,0.612,1.498,0.204,2.041c-0.408,0.549-0.344,1.365,0.204,2.449
		c-0.548,2.998-0.682,5.039-0.408,6.123c0.268,1.092,0.676,2.316,1.225,3.674c1.358,0.275,2.245,0.141,2.653-0.408
		c0.408-0.541,1.021-0.949,1.837-1.225c1.358,2.449,1.837,4.02,1.429,4.695c-0.408,0.682-1.021,1.16-1.837,1.43
		c-0.549,2.449-0.817,4.285-0.817,5.51c0,1.227,0.542,3.338,1.633,6.328c1.358,4.084,2.583,8.166,3.674,12.248
		c1.084,4.082,2.583,7.623,4.491,10.615c4.35,0,7.074,0.479,8.165,1.428c1.084,0.957,1.492,2.182,1.225,3.674
		c-0.274,1.5-0.816,3.063-1.633,4.695c-0.816,1.633-1.633,2.857-2.449,3.674c1.633,4.9,4.146,8.982,7.553,12.248
		c3.4,3.266,6.596,6.941,9.594,11.023c1.633,1.633,3.125,2.59,4.491,2.857c1.358,0.273,2.717,0.816,4.083,1.633
		c2.717,1.633,5.307,3.611,7.756,5.92c2.45,2.314,5.575,3.744,9.39,4.287c3.809,0.547,7.553,1.633,11.228,3.266
		c3.674,1.633,7.687,2.723,12.043,3.266c2.449,0.273,4.963,0.613,7.553,1.021c2.583,0.408,5.104,0.611,7.553,0.611
		c10.065-0.543,19.392-2.584,27.965-6.123c8.573-3.535,16.394-7.209,23.475-11.023c-0.274-1.084-0.549-2.176-0.816-3.266
		c-0.274-1.084-0.274-2.584,0-4.49c8.165-6.533,12.247-17.689,12.247-33.477c-1.091,1.09-2.182,2.041-3.266,2.857
		c-1.091,0.816-2.724,1.09-4.899,0.816c-0.816-2.992-1.773-4.49-2.857-4.49c0.268-1.359,1.358-2.449,3.266-3.268
		c1.633-1.633,2.041-2.787,1.225-3.469c-0.816-0.676-0.816-1.697,0-3.063c0.816-1.084,1.155-2.922,1.021-5.512
		c-0.14-2.582-1.021-4.42-2.653-5.512c-0.816,1.092-2.111,1.838-3.878,2.246c-1.773,0.408-3.61,1.021-5.512,1.838
		c-1.633-1.633-2.245-2.719-1.837-3.268c0.408-0.541,0.338-1.084-0.204-1.633c0.542-0.541,1.084-1.02,1.633-1.428
		c0.542-0.408,1.493-0.473,2.857-0.205c0.269-1.357,0.543-2.379,0.816-3.061c0.269-0.678,0.543-1.564,0.817-2.654
		c-0.817-1.9-1.838-2.787-3.063-2.654c-1.225,0.141-2.52,0.684-3.878,1.633c-1.365,0.957-2.724,1.979-4.083,3.063
		c-1.365,1.092-2.59,1.773-3.674,2.041c-2.724,0.549-4.766-0.338-6.124-2.652c-1.365-2.311-0.683-4.287,2.041-5.92
		c2.176-1.359,2.858-2.246,2.042-2.654s-0.816-0.881,0-1.43c3.266-1.084,4.963-1.225,5.103-0.408
		c0.134,0.818,0.473,1.227,1.021,1.227c0.543-0.818,0.269-1.43-0.816-1.838c-1.091-0.408-1.907-0.881-2.449-1.43
		c-2.182,0.275-4.287,1.092-6.328,2.449c-2.041,1.365-4.152,1.908-6.328,1.635c-3.54,0.816-5.581,0.682-6.123-0.408
		c-0.549-1.086-0.612-2.381-0.204-3.879c0.408-1.492,1.084-2.857,2.041-4.082c0.95-1.225,2.105-2.105,3.47-2.654
		c-0.816-2.717-1.907-3.738-3.266-3.063c-1.365,0.684-2.998,1.295-4.899,1.838c-1.633,0.549-3.406,0.682-5.307,0.408
		c-1.907-0.268-3.54-0.951-4.899-2.041c-0.549-2.176-0.14-3.535,1.225-4.082c1.359-0.543,2.718-0.543,4.083,0
		c0.268-1.635-0.141-2.654-1.225-3.063c-1.091-0.408-1.773-1.289-2.042-2.654c-2.181,0-3.948,0.613-5.307,1.838
		c-1.365,1.225-2.724,1.836-4.083,1.836c-0.273,0.816-0.956,1.5-2.041,2.043c-1.091,0.547-2.182,0.547-3.266,0
		c-0.549,2.998-2.041,4.898-4.491,5.715c-2.449,0.816-4.765,0.408-6.94-1.225c0-1.359,0.269-3.127,0.817-5.309
		c1.633-0.268,2.787-0.676,3.47-1.225c0.676-0.541,1.837-1.084,3.47-1.633c2.992-0.268,4.555-0.541,4.695-0.816
		c0.134-0.268,0.338-0.408,0.612-0.408c-1.091-0.268-1.773-0.88-2.041-1.836c-0.274-0.951-0.816-1.838-1.633-2.654
		c-1.908,0.549-3.407,0.479-4.491-0.204c-1.091-0.677-2.724-0.612-4.899,0.204c-0.816-0.816-1.772-1.563-2.857-2.246
		c-1.091-0.676-1.907-1.563-2.449-2.652c-3.814,0-7.081-0.747-9.798-2.246c-2.724-1.492-5.99-2.514-9.798-3.062
		c-1.634,0.274-3.407-0.269-5.308-1.634c-1.907-1.357-3.949-1.9-6.124-1.633c-1.633,0.275-2.999,0.887-4.083,1.838
		c-1.091,0.957-2.59,1.568-4.491,1.837c-0.817-0.542-1.569-1.085-2.246-1.634c-0.683-0.541-1.429-1.084-2.246-1.633l-4.899-6.531
		c-1.091,0.549-1.907,1.09-2.449,1.633c-0.549,0.549-1.365,0.957-2.45,1.225c-0.548-0.542-1.161-1.021-1.837-1.429
		c-0.683-0.408-1.703-0.339-3.062,0.204c-1.365-5.167-3.062-7.553-5.103-7.145c-2.042,0.408-4.153,1.295-6.328,2.654
		c-2.181,1.364-4.427,2.723-6.736,4.082c-2.315,1.365-4.561,1.365-6.736,0c1.084-3.809,2.246-6.462,3.47-7.961
		c1.225-1.492,2.921-1.563,5.103-0.204c-1.091-4.625-2.52-6.87-4.287-6.736c-1.773,0.141-3.61,0.753-5.511,1.837
		c-1.907,1.092-3.814,2.246-5.715,3.471c-1.907,1.225-3.815,1.977-5.716,2.245c-2.449-0.816-3.814-2.31-4.083-4.491
		c0.817-1.358,2.105-2.513,3.878-3.47c1.767-0.95,3.47-1.972,5.104-3.062c1.633-1.084,2.857-2.379,3.674-3.879
		c0.817-1.492,0.676-3.33-0.408-5.512c-1.633,0.549-3.336,1.092-5.103,1.634c-1.773,0.548-2.928,1.499-3.47,2.857
		c-1.365,0-2.182,0.07-2.449,0.204c-0.274,0.141-0.957,0.07-2.042-0.204c0.268-1.085,0.542-1.971,0.816-2.653
		c0.268-0.676,0.134-1.563-0.408-2.654c2.175-0.816,4.083-2.379,5.716-4.694c1.633-2.31,1.493-4.829-0.408-7.553
		c-1.633-2.449-2.724-4.491-3.266-6.124c-0.549-1.633-0.816-3.534-0.816-5.716c-1.633,0.274-2.724,0.683-3.266,1.225
		c-0.549,0.548-1.365,0.548-2.45,0c2.992-2.175,3.942-3.266,2.858-3.266c-1.091,0-1.633-0.408-1.633-1.225
		c1.633-1.084,2.245-1.901,1.837-2.45c-0.408-0.542-0.204-1.084,0.612-1.633c-1.091-0.542-2.111-0.747-3.062-0.612
		c-0.957,0.14-1.703,0.07-2.245-0.204c0.816-3.266,0.676-4.899-0.408-4.899c-1.091-3.266-1.499-5.167-1.225-5.715
		c0.268-0.542,0.408-1.767,0.408-3.674c1.633-0.542,2.992-1.901,4.083-4.083c0-5.441,0.612-11.157,1.837-17.146
		c1.225-5.983,3.33-10.882,6.328-14.697c1.359-3.808,2.788-7.687,4.287-11.635c1.493-3.942,3.196-7.553,5.104-10.818
		c0-1.901,0.408-3.47,1.225-4.695c0.816-1.225,1.767-2.309,2.858-3.266c1.084-0.951,2.105-1.971,3.062-3.062
		c0.951-1.084,1.563-2.449,1.837-4.083c4.35,0.816,6.94,0.479,7.757-1.021c0.816-1.493,2.449-2.513,4.899-3.062
		c2.717-2.992,6.124-5.511,10.206-7.552c4.083-2.042,8.573-3.674,13.472-4.899c4.899-1.225,10.002-2.175,15.31-2.857
		c5.307-0.676,10.41-1.021,15.31-1.021c1.9,0,3.941,0,6.123,0c2.176,0,3.534,0.957,4.083,2.857
		c4.624,1.365,8.777,2.111,12.451,2.246c3.675,0.14,6.736,1.978,9.186,5.511c4.899,0.274,8.299,2.724,10.206,7.349
		c2.176,0.816,4.351,1.499,6.532,2.041c2.176,0.549,4.083,1.499,5.716,2.858c0.268,1.907,1.084,3.266,2.449,4.083
		c1.359,0.816,2.992,1.295,4.899,1.429c1.9,0.141,3.878,0.07,5.919-0.204c2.042-0.268,3.879-0.676,5.512-1.225
		c4.083-1.084,7.482-3.062,10.206-5.92c2.718-2.857,5.167-5.371,7.349-7.552c-0.549-2.718,0-5.167,1.633-7.349
		c1.633-2.175,2.718-4.759,3.267-7.757c2.449-0.268,4.286,0.141,5.511,1.225c1.225,1.091,1.972,2.59,2.246,4.491
		c0.268,1.908,0.134,3.745-0.408,5.512c-0.549,1.773-1.365,3.062-2.45,3.878c0.542,1.365,0.677,3.266,0.408,5.715
		c-0.274,2.45-0.683,4.357-1.225,5.715c1.085,4.899,1.429,8.714,1.021,11.431c-0.408,2.724,0.338,5.856,2.246,9.39
		c-0.274,2.724-0.345,5.511-0.204,8.369c0.134,2.858,1.021,5.377,2.653,7.553c-1.633,7.081-1.703,13.204-0.204,18.371
		c1.492,5.173,1.837,9.798,1.021,13.88c-0.549,1.633-1.569,3.266-3.062,4.899c-1.499,1.633-3.611,2.182-6.328,1.633
		c-1.365-4.351-3.267-8.573-5.716-12.656s-5.581-7.617-9.39-10.615c-0.274-1.901-0.204-3.47,0.204-4.695
		c0.408-1.225,0.338-2.513-0.204-3.878c-2.998-1.901-4.49-4.083-4.49-6.532c-1.091-0.268-2.182-0.134-3.267,0.408
		c-1.091,0.549-2.041,0.14-2.857-1.225c0.816-1.359,1.084-2.309,0.816-2.858c-0.274-0.542-0.683-1.225-1.225-2.041
		c-0.816-0.542-1.633-1.155-2.449-1.837c-0.817-0.676-0.957-1.289-0.409-1.837c-1.364-0.542-2.449-1.359-3.266-2.45
		c-0.816-1.084-1.773-1.901-2.857-2.449c0-4.351-1.295-7.482-3.879-9.39c-2.59-1.901-4.152-4.216-4.694-6.94
		c-3.814-1.359-6.94-3.126-9.39-5.307c-2.45-2.175-5.448-3.942-8.981-5.308c-2.998-1.358-5.174-2.245-6.532-2.653
		c-1.365-0.408-2.653-0.951-3.879-1.633c-1.225-0.676-2.386-1.358-3.47-2.041c-1.091-0.676-2.449-1.289-4.082-1.837
		c-3.815-0.268-7.419-0.88-10.819-1.837c-3.406-0.95-7.01-1.837-10.818-2.654c-2.998,1.091-6.468,1.837-10.41,2.246
		c-3.949,0.408-7.553,0.344-10.819-0.204c-2.182,1.091-4.019,1.978-5.511,2.653c-1.499,0.683-2.928,1.429-4.287,2.246
		c2.175,2.724,2.717,4.287,1.633,4.695c-1.091,0.408-2.59,0.479-4.491,0.204c-1.633,0.549-3.132,0.549-4.491,0
		c-2.724,1.365-3.878,2.246-3.47,2.654c0.409,0.408,0.338,0.752-0.204,1.021c-1.633,0-2.857,0.548-3.674,1.633
		c-0.817,1.091-1.704,2.316-2.654,3.674c-0.957,1.365-1.978,2.59-3.062,3.674c-1.091,1.091-2.59,1.773-4.491,2.042
		c0,1.091-0.14,1.977-0.408,2.653c-0.274,0.683-0.408,1.569-0.408,2.654c2.45,1.365,3.196,2.59,2.245,3.674
		c-0.957,1.091-1.161,2.041-0.612,2.857c-0.816,1.633-1.907,2.724-3.266,3.266c0.816,2.182,1.358,4.427,1.633,6.736
		c0.268,2.315,1.084,4.427,2.45,6.328c-1.091,0.549-1.225,1.773-0.409,3.674c0.817,1.907,2.042,2.858,3.674,2.858
		c0.542,2.449,1.767,4.223,3.674,5.307c1.901,1.091,4.083,1.907,6.532,2.449c-0.274,1.365-0.753,2.316-1.429,2.858
		c-0.683,0.549-1.295,1.091-1.837,1.633c0.542,2.182,1.901,3.407,4.083,3.674c2.175,0.274,4.35,0.817,6.532,1.633
		c1.633,3.54,3.196,5.919,4.695,7.144c1.493,1.225,3.604,1.978,6.328,2.246c4.625,3.814,9.728,6.94,15.309,9.39
		c5.575,2.45,11.361,5.04,17.351,7.757c2.718,0,5.167,0.274,7.349,0.816c2.175,0.549,4.287,1.225,6.328,2.041
		c2.041,0.817,4.012,1.569,5.92,2.246c1.9,0.683,3.941,1.021,6.123,1.021c4.351,0.549,9.046,1.295,14.085,2.246
		c5.033,0.957,9.186,1.569,12.451,1.837c2.992,1.907,6.87,3.47,11.636,4.695c4.759,1.225,9.045,1.295,12.859,0.204
		c2.718,1.091,4.146,1.225,4.287,0.408c0.134-0.816,0.746-1.084,1.837-0.816c-0.816,2.998-0.816,4.224,0,3.675
		c0.816-0.542,1.358-0.269,1.633,0.816c1.358-2.992,1.563-4.217,0.612-3.675c-0.957,0.549-1.161,0.141-0.612-1.225
		c1.358-0.542,2.449-0.064,3.266,1.429c0.816,1.5,1.901,1.429,3.267-0.204c-0.549,3.815-1.161,5.786-1.837,5.92
		c-0.683,0.14-1.295,0.479-1.838,1.021c1.085,1.907,2.584,3.266,4.491,4.082c1.9,0.816,3.942,1.633,6.124,2.45
		c1.9,4.083,4.42,7.284,7.552,9.594c3.126,2.315,4.695,5.651,4.695,10.002c1.633,2.998,3.126,5.989,4.491,8.981
		c1.358,2.998,2.449,6.398,3.266,10.207c1.084,1.364,1.696,3.469,1.837,6.327c0.134,2.858,1.429,4.562,3.879,5.103
		c-0.817,1.633-1.091,2.857-0.817,3.676c0.269,0.816,0.409,1.633,0.409,2.449c0.542,5.172,1.084,8.918,1.633,11.227
		C371.801,331.658,372.075,334.721,372.075,338.529z M180.198,196.05c-2.182-1.633-3.132-2.857-2.858-3.674
		c0.268-0.816,0.134-1.901-0.408-3.266c-3.54,1.365-6.194,3.54-7.96,6.532c-1.773,2.998-4.427,5.173-7.961,6.532
		c0,2.724-0.683,4.287-2.042,4.695c-1.365,0.408-2.59,0.887-3.674,1.429c-1.091,0.549-1.907,1.225-2.449,2.042
		c-0.549,0.816-0.408,2.041,0.408,3.674c2.175-0.542,4.012-1.225,5.511-2.041c1.493-0.816,3.33-1.493,5.511-2.041
		c1.901-1.359,2.992-2.379,3.266-3.062c0.268-0.676,0.676-1.289,1.225-1.837c2.175-1.358,4.555-2.379,7.145-3.062
		C178.495,201.294,179.923,199.316,180.198,196.05z M172.033,182.578c-2.182,1.091-3.948,1.499-5.307,1.225
		c-2.998,1.633-4.765,3.407-5.307,5.308c-2.998,0.816-4.695,2.724-5.103,5.715c-0.408,2.998-1.161,5.715-2.246,8.165
		c3.266-1.359,5.307-3.674,6.124-6.94c1.358,0,2.379-0.268,3.062-0.816c0.676-0.542,1.289-1.154,1.837-1.837
		c0.542-0.676,1.084-1.359,1.633-2.042c0.542-0.676,1.359-1.154,2.45-1.429c0.542-2.717,1.429-4.491,2.653-5.307
		C173.053,183.802,173.117,183.127,172.033,182.578z M215.307,225.444c-1.091-0.268-2.315-0.612-3.674-1.021
		c-1.365-0.408-2.724-0.88-4.083-1.429c-2.724,2.181-5.855,4.491-9.39,6.94c-3.54,2.45-6.806,3.266-9.798,2.45
		c2.717-2.718,5.167-4.421,7.349-5.103c2.175-0.676,4.35-1.429,6.532-2.246c-0.816-1.084-0.612-1.837,0.612-2.245
		c1.225-0.409,1.289-1.289,0.204-2.654c-2.998,0.548-4.491,0.408-4.491-0.408c0.268-1.901,0.134-3.196-0.408-3.878
		c-0.548-0.676-1.499-1.289-2.857-1.837c-1.365,0.817-2.182,1.5-2.45,2.042c-0.274,0.548-1.225,0.816-2.858,0.816
		c-2.449,2.182-3.674,2.928-3.674,2.246c0-0.676-0.409-0.88-1.225-0.612c-0.816,0.274-0.887,0-0.204-0.817
		c0.676-0.816,1.493-1.429,2.45-1.837c0.95-0.408,1.971-0.88,3.062-1.429c1.084-0.542,1.901-1.493,2.449-2.858
		c-0.816-0.816-1.569-1.084-2.245-0.816c-0.683,0.274-1.295,0.683-1.837,1.225c-0.548,0.548-1.161,1.021-1.837,1.429
		c-0.683,0.408-1.429,0.345-2.246-0.204c-1.907,1.091-3.674,2.52-5.307,4.287c-1.633,1.773-3.406,1.837-5.307,0.204
		c2.992-1.633,4.899-2.788,5.715-3.47c0.816-0.676,1.633-0.747,2.45-0.205c1.633-1.633,2.857-2.175,3.674-1.633
		c0.817,0.549,1.493,0.549,2.042,0c-0.274-1.901-0.204-3.4,0.204-4.491c0.408-1.084,0.064-1.901-1.021-2.449
		c-0.274,0.816-2.042,1.225-5.307,1.225c-0.549,1.365-1.225,2.449-2.042,3.266c-0.816,0.816-1.773,1.633-2.858,2.449
		c0.542-1.901,1.021-3.534,1.429-4.899c0.408-1.359,1.429-1.633,3.062-0.816c-0.274-1.359,0.338-2.042,1.837-2.042
		c1.493,0,1.971-0.816,1.429-2.449c-2.998-0.542-5.447,0.14-7.349,2.041c-1.907,1.907-4.223,2.858-6.94,2.858
		c-0.816,1.633-1.978,3.062-3.47,4.287c-1.499,1.225-3.336,1.978-5.511,2.245c-0.274,1.908-1.773,2.724-4.491,2.45
		c0.816,1.365,1.697,2.59,2.653,3.674c0.951,1.091-0.204,1.633-3.47,1.633c0,1.633,0.268,2.654,0.816,3.062
		c0.542,0.408,0.408,1.569-0.408,3.47c0.816,0.548,1.563,0.957,2.245,1.225c0.676,0.274,1.289,0.683,1.837,1.225
		c-2.182,2.182-3.541,4.631-4.083,7.349c1.084,0.816,2.041,1.429,2.857,1.837c0.817,0.409,1.767,0.887,2.858,1.429
		c1.633-1.901,3.47-3.47,5.511-4.695c2.042-1.225,4.555-1.697,7.553-1.429c0.816-1.633,1.697-2.788,2.654-3.47
		c0.95-0.676,2.105-1.021,3.47-1.021c-0.274-1.358,0.338-2.309,1.837-2.857c1.493-0.542,2.513-1.084,3.062-1.633
		c0.542-1.633,1.225-2.309,2.041-2.041c0.816,0.274,1.767,0.683,2.858,1.225c2.449-0.816,4.146-1.563,5.103-2.245
		c0.95-0.676,1.697-0.747,2.245-0.205c-2.181,0.549-4.083,1.569-5.715,3.062c-1.633,1.499-3.674,1.978-6.124,1.429
		c-1.633,1.365-3.132,2.182-4.491,2.45c0.268,2.45-0.141,3.61-1.225,3.47c-1.091-0.134-2.315-0.204-3.674-0.204
		c-0.274,1.633-1.09,2.653-2.449,3.062c-1.365,0.408-2.45,1.021-3.266,1.837c-0.274,0.548-1.021,1.225-2.245,2.041
		c-1.225,0.817-2.794,1.091-4.695,0.817c0,1.633-0.613,2.724-1.837,3.266c-1.225,0.549-1.978,1.499-2.245,2.858
		c1.084-0.268,1.563,0.204,1.429,1.429c-0.14,1.225,0.064,2.112,0.612,2.654c3.534-3.266,7.891-5.575,13.064-6.94
		c-0.548-1.358-0.274-2.583,0.816-3.674c1.084-1.084,2.309-1.901,3.674-2.45c-1.091,4.357-2.998,7.214-5.715,8.573
		c-2.724,1.365-5.04,2.724-6.94,4.083c1.359,1.633,2.175,2.182,2.45,1.633c0.268-0.543,1.084-0.676,2.449-0.408
		c2.45-1.901,3.878-3.063,4.287-3.471s0.88-0.88,1.429-1.429c-1.365,2.45-2.724,4.694-4.083,6.736
		c-1.365,2.041-3.132,2.928-5.308,2.653c-0.548,1.091-0.612,1.907-0.204,2.449c0.409,0.549,0.747,1.225,1.021,2.041
		c5.983-3.266,10.818-6.123,14.493-8.572c3.674-2.45,7.278-5.167,10.819-8.166c1.358-1.084,2.309-1.837,2.857-2.245
		c0.542-0.408,1.155-0.676,1.837-0.816c0.676-0.134,1.358-0.408,2.041-0.816c0.676-0.409,1.021-1.021,1.021-1.837
		c-1.365,0.274-2.59,0.204-3.674-0.204c-1.091-0.408-1.908-0.338-2.45,0.204c-1.091,1.091-2.182,2.182-3.266,3.266
		c-1.091,1.091-2.724,1.499-4.899,1.225c3.266-2.717,6.532-5.103,9.798-7.145c3.266-2.041,7.349-3.47,12.248-4.287
		c1.359,0.817,2.042,0.613,2.042-0.612c0-1.225,0.676-2.105,2.041-2.653L215.307,225.444z M172.441,180.537
		c0.268-1.084,0.472-2.379,0.612-3.878c0.134-1.493-0.07-2.921-0.612-4.287c-2.449,1.365-4.765,3.132-6.94,5.307
		c-2.182,2.182-4.083,4.357-5.716,6.532c0.817,0.548,1.563,0.682,2.246,0.408c0.676-0.268,1.429-0.134,2.245,0.408
		c0-2.45,0.472-3.604,1.429-3.47c0.95,0.14,1.837,0.274,2.653,0.408c0.817,0.14,1.563,0.14,2.246,0
		C171.28,181.832,171.893,181.353,172.441,180.537z M170.4,215.646c0,1.091-0.753,1.703-2.246,1.837
		c-1.499,0.141-2.653,0.07-3.47-0.204c0.542-1.358,1.493-1.971,2.857-1.837C168.901,215.582,169.851,215.646,170.4,215.646z
		 M169.583,232.384c-0.274,1.091-0.957,1.703-2.042,1.837c-1.091,0.141-2.041,0.479-2.857,1.021
		c0.816-0.542,1.493-1.084,2.041-1.633C167.268,233.067,168.218,232.659,169.583,232.384z M167.95,352.818
		c-1.633-0.816-2.386-1.697-2.245-2.654c0.134-0.951-0.204-1.289-1.021-1.021C165.501,351.594,166.585,352.818,167.95,352.818z
		 M187.138,384.662c-4.357-2.451-7.489-2.043-9.39,1.225c-1.633-1.635-2.59-2.584-2.858-2.859c-0.274-0.268-0.549-0.816-0.816-1.633
		c0.816,0,1.767,0.205,2.857,0.613c1.084,0.408,1.901,0.479,2.45,0.203c2.175-1.084,3.33-2.174,3.47-3.266
		c0.134-1.084,1.021-1.357,2.653-0.816c-0.274-2.176-0.612-4.42-1.021-6.736c-0.408-2.309-1.295-4.42-2.653-6.328
		c-1.633-0.541-2.794-0.949-3.47-1.225c-0.683-0.268-1.429-0.541-2.246-0.816c-0.816-0.268-1.633-0.541-2.449-0.816
		c-0.817-0.268-1.365-0.816-1.633-1.633c2.175-0.268,3.47-0.133,3.878,0.408c0.408,0.549,1.021,0.816,1.837,0.816
		c0.816-2.176,0.95-3.941,0.408-5.307c-0.549-1.359-0.549-2.717,0-4.082c-1.365-0.543-1.907-1.768-1.633-3.676
		c0.268-1.9-0.408-2.99-2.041-3.266c-0.816,0.816-1.703,1.633-2.654,2.449c-0.957,0.816-2.245,1.092-3.878,0.816
		c1.901,2.998,1.901,4.492,0,4.492c-1.091,4.082-1.837,6.875-2.245,8.369c-0.408,1.498-0.479,3.201-0.204,5.102
		c1.633-0.541,2.583-0.338,2.857,0.613c0.268,0.957,0.817,1.16,1.633,0.613c1.901-1.635,3.33-2.451,4.287-2.451
		c0.95,0,1.697-0.268,2.245-0.816c0,1.633-0.274,3.133-0.816,4.492c-0.548,1.365-1.365,2.723-2.449,4.082
		c-1.908,1.633-3.132,2.723-3.674,3.266c-0.274,2.725-0.612,4.561-1.021,5.512c-0.408,0.957-1.429,1.428-3.062,1.428
		c2.717,1.635,4.35,1.908,4.899,0.816c0.542-1.084,1.359-1.357,2.449-0.816c-0.548,2.451-0.816,4.633-0.816,6.533
		c-2.182,2.449-3.674,3.539-4.491,3.266c-0.816,2.725-1.021,5.244-0.612,7.553c0.408,2.314,0.612,4.969,0.612,7.961
		c2.175,0.273,3.534-0.543,4.083-2.449c0.542-1.902,1.493-3.127,2.858-3.674c0-1.359,0.268-2.451,0.816-3.268
		c0.542-0.816,1.155-1.492,1.837-2.041c0.676-0.541,1.289-1.084,1.837-1.633c0.542-0.541,0.816-1.492,0.816-2.857
		c1.633-0.816,2.788-2.176,3.47-4.082C183.936,386.842,185.231,385.479,187.138,384.662z M172.441,334.039
		c-0.274-3.268-1.365-4.287-3.266-3.063c-1.908,1.225-2.998,2.793-3.266,4.695c3.266,0,4.899-0.408,4.899-1.225
		S171.35,333.496,172.441,334.039z M174.074,344.244c-0.549-1.357-0.957-2.309-1.225-2.857c-0.274-0.543-0.408-1.492-0.408-2.857
		c-2.449,1.365-3.674,1.773-3.674,1.225c0-0.543-0.274-0.676-0.816-0.408c-0.816,1.906-0.478,3.063,1.021,3.471
		c1.493,0.408,1.837,1.295,1.021,2.652L174.074,344.244z M176.932,225.036c-0.548,1.365-1.773,2.52-3.674,3.47
		c-1.908,0.957-3.674,1.295-5.308,1.021c1.633-0.542,3.266-1.359,4.899-2.45C174.482,225.993,175.841,225.31,176.932,225.036z
		 M183.464,222.586c-2.724,0.549-4.357,0.817-4.899,0.817C181.831,221.502,183.464,221.228,183.464,222.586z M234.495,235.242
		c-2.724-1.358-4.287-1.971-4.695-1.837c-0.408,0.14-1.021,0.204-1.837,0.204c-1.365-1.084-2.449-1.971-3.266-2.654
		c-0.817-0.676-1.908-0.746-3.266-0.204c-4.357,4.357-8.165,6.94-11.431,7.757c-0.816,1.365-1.978,2.654-3.47,3.878
		c-1.499,1.225-3.202,1.703-5.103,1.429c-0.548,2.45-1.907,3.878-4.083,4.287c-2.182,0.408-3.948,1.429-5.307,3.063
		c-2.724,2.998-5.856,5.447-9.39,7.348c0.816,0.816,1.429,0.957,1.837,0.408c0.408-0.542,1.084-1.084,2.042-1.633
		c0.95-0.542,1.837-1.021,2.653-1.429c0.816-0.408,1.359-0.612,1.633-0.612c1.084-0.542,2.105-0.881,3.062-1.021
		c0.951-0.134,1.837-0.472,2.654-1.021c1.084-1.9,2.041-3.266,2.858-4.083c0.816-0.817,1.767-1.493,2.857-2.042
		c2.45-0.816,3.942-1.225,4.491-1.225c2.992-1.359,4.829-1.901,5.512-1.633c0.676,0.274,1.289,0.549,1.837,0.817
		c1.633-0.542,2.717-1.225,3.266-2.042c0.542-0.816,1.493-0.95,2.857-0.408c0.268,1.633-0.344,2.45-1.837,2.45
		c-1.499,0-2.654,0.274-3.47,0.816c-1.365,1.365-2.998,2.724-4.899,4.083c-1.907,1.366-3.674,1.633-5.307,0.816
		c-4.357,3.266-8.165,6.06-11.431,8.37c-3.266,2.314-7.214,4.152-11.839,5.511c0.268,1.365-0.14,2.111-1.225,2.245
		c-1.091,0.141-1.365,0.887-0.816,2.246c1.084,1.09,2.105,1.498,3.062,1.225c0.95-0.268,1.837-0.613,2.653-1.021
		s1.633-0.816,2.45-1.225s1.633-0.338,2.449,0.205c1.084-1.901,2.718-3.33,4.899-4.287c2.175-0.95,3.266-2.245,3.266-3.879
		c2.45-0.268,4.555-1.084,6.328-2.449c1.767-1.358,3.604-1.633,5.511-0.816c1.633-2.992,3.47-5.645,5.511-7.96
		c2.042-2.31,4.829-3.878,8.369-4.695c-0.816-1.901-1.365-3.062-1.633-3.47c-0.274-0.408-0.274-0.88,0-1.429
		c1.633,0,2.858-0.338,3.674-1.021c0.816-0.676,2.175-0.88,4.082-0.612c0.269-1.901,0.881-2.45,1.838-1.633
		C232.792,236.875,233.679,236.607,234.495,235.242z M188.363,236.467c-1.633,0-2.724,0.478-3.266,1.429
		c-0.548,0.957-1.773,1.429-3.674,1.429c1.359-1.358,2.246-2.309,2.654-2.857c0.408-0.542,0.747-1.084,1.021-1.633L188.363,236.467z
		 M187.138,245.04c-0.816,0-1.429,0.344-1.837,1.021c-0.408,0.683-1.295,0.752-2.653,0.204c0.268-2.45,1.767-3.674,4.491-3.674
		V245.04z M194.486,393.234c-0.548-1.359-1.09-2.584-1.633-3.674c-0.548-1.084-1.633-1.768-3.266-2.041
		c-1.091,2.449-1.907,4.631-2.449,6.531c2.992,0.273,4.758,0.205,5.307-0.203C192.987,393.44,193.67,393.234,194.486,393.234z
		 M278.178,249.531c-0.274-1.084-0.816-1.697-1.633-1.837c-0.816-0.134-1.703,0-2.654,0.408c-0.956,0.408-1.907,0.753-2.857,1.021
		c-0.957,0.274-1.703,0.14-2.245-0.408c-1.091-1.359-1.773-2.788-2.041-4.287c-0.274-1.493-1.773-1.837-4.491-1.021
		c-0.549-1.358-1.633-2.245-3.266-2.653s-2.858,0.07-3.675,1.429v5.715c-2.182,1.365-3.406,1.978-3.674,1.837
		c-0.274-0.134-0.683,0.07-1.225,0.612c-0.816-1.359-1.161-1.021-1.021,1.02c0.134,2.042-0.753,2.795-2.654,2.246
		c-2.724,2.998-6.94,5.039-12.655,6.123c-2.449,1.633-3.948,3.541-4.491,5.716c-2.449,0.817-4.019,1.365-4.694,1.634
		c-0.683,0.273-0.887,1.09-0.612,2.449c-0.549-2.176-1.161-3.604-1.837-4.287c-0.683-0.676-0.345-1.971,1.021-3.879
		c0.268,0.817,0.88,0.549,1.837-0.816c0.95-1.357,2.104-1.492,3.47-0.408c2.176-2.175,3.604-3.533,4.287-4.082
		c0.676-0.542,1.696-0.542,3.062,0c2.718-1.9,4.217-3.266,4.491-4.082c0.268-0.816,1.084-1.085,2.449-0.816
		c0-2.718,0.408-4.013,1.225-3.879c0.816,0.141,0.676-0.204-0.408-1.021l4.082-3.266c1.085,0,1.838-0.268,2.246-0.816
		c0.408-0.542,1.154-0.676,2.245-0.408c-1.365-1.901-2.59-3.125-3.674-3.674c-2.182-0.268-4.083-0.408-5.716-0.408
		s-3.132-0.408-4.491-1.225c-0.816,2.724-1.569,4.356-2.245,4.899c-0.683,0.548-1.569,0.957-2.653,1.225
		c-1.907,1.365-3.202,2.386-3.879,3.062c-0.683,0.683-1.429,1.021-2.245,1.021c-1.091,0.816-2.182,1.295-3.266,1.429
		c-1.091,0.141-1.365,0.887-0.817,2.246c-1.365,0.817-2.998,0.817-4.899,0c-1.907,2.723-3.406,4.083-4.491,4.083
		c-1.091,0-1.907,0.408-2.45,1.225c-1.365,3.266-2.315,4.969-2.857,5.104c-0.549,0.141-0.816,0.479-0.816,1.021
		c2.992-0.542,4.287-1.021,3.878-1.429c-0.408-0.408-0.344-0.613,0.205-0.613c1.901,0,3.33-0.203,4.287-0.611
		c0.95-0.408,2.653-0.613,5.103-0.613c0.268-1.633,1.154-2.922,2.653-3.878c1.493-0.95,2.921-1.288,4.287-1.021
		c1.901-0.816,3.879-1.633,5.92-2.449c2.041-0.817,3.33-1.768,3.878-2.858c-1.091,2.999-2.449,4.632-4.082,4.899
		c-3.814,2.449-7.961,4.695-12.452,6.736s-8.644,4.561-12.452,7.553c-2.998,2.449-5.307,3.744-6.94,3.878
		c-1.633,0.14-3.132,0.887-4.491,2.245c1.084,2.998,2.246,4.082,3.47,3.266s2.513-0.816,3.878,0
		c0.542-0.541,1.289-0.676,2.245-0.408c0.951,0.275,1.697,0.141,2.246-0.408c-0.549-1.358-0.408-2.245,0.408-2.653
		s1.084-1.021,0.816-1.837c2.175,0,3.534,0.07,4.083,0.204c0.542,0.14,0.951,0.479,1.225,1.021
		c-2.181,0.549-3.266,1.773-3.266,3.674c1.358,0.275,2.245,0.07,2.653-0.611c0.408-0.677,1.289-1.155,2.654-1.43
		c-1.091-0.816-1.499-1.492-1.225-2.041c0.268-0.542,0.676-1.492,1.225-2.857c-1.907,0.816-2.928,1.225-3.062,1.225
		c-0.14,0-0.612,0.141-1.429,0.408c1.359-2.449,2.175-3.534,2.449-3.266c0.268,0.273,0.676,0.408,1.225,0.408
		c0.268-1.633,0.676-2.654,1.225-3.063c0.542-0.408,1.225-0.612,2.042-0.612c-0.549,3.814-0.549,5.989,0,6.532
		c0.542,0.549,1.225,1.365,2.041,2.449c-1.907,2.182-3.47,3.541-4.695,4.082c-1.225,0.549-2.52,0.816-3.878,0.816
		c-2.45,1.634-3.47,2.59-3.062,2.858c0.408,0.274,0.951,0.479,1.633,0.612c0.676,0.141,1.289,0.345,1.837,0.612
		c0.542,0.274,0.816,0.817,0.816,1.634c1.633,0.273,3.126,0.069,4.491-0.613c1.359-0.676,2.583-1.429,3.674-2.245
		c1.084-0.816,2.105-1.493,3.062-2.041c0.95-0.542,1.971-0.408,3.062,0.408c0.816-2.45,1.429-3.738,1.838-3.878
		c0.408-0.135,0.746-0.339,1.021-0.613c1.633-0.816,2.921-1.696,3.878-2.653c0.95-0.95,2.105-0.88,3.47,0.204
		c0.817-0.816,1.43-1.359,1.838-1.633c0.408-0.268,1.021-0.676,1.837-1.225c-0.549-1.359-0.07-2.449,1.429-3.266
		c1.493-0.816,3.062-1.359,4.695-1.634c1.358-1.901,2.379-3.062,3.062-3.47c0.676-0.408,1.837-0.338,3.47,0.204
		c0.816-2.175,2.654-3.604,5.512-4.286c2.857-0.677,5.104-1.563,6.736-2.654c-0.274-1.359,0.676-2.105,2.857-2.246
		c2.176-0.133,3.4-1.563,3.675-4.286L278.178,249.531z M207.142,261.369c-1.907,0-3.062,0.275-3.47,0.817
		c-0.409,0.548-0.753,1.091-1.021,1.633c-1.907,0.549-2.928,1.091-3.062,1.633c-0.141,0.549-0.479,1.499-1.021,2.858
		c1.633-1.085,3.266-1.085,4.899,0c-0.549-1.901-0.141-3.196,1.225-3.879C206.051,263.756,206.868,262.734,207.142,261.369z
		 M211.225,234.425c-0.816,0-1.978-0.268-3.47-0.816c-1.499-0.542-2.386,0.14-2.654,2.041c0-0.268,0.95-0.204,2.858,0.205
		C209.86,236.263,210.951,235.791,211.225,234.425z M286.751,256.471c-1.633,0.816-3.336,1.838-5.104,3.063
		c-1.773,1.225-3.744,1.295-5.919,0.203c-1.907,1.908-4.153,3.745-6.736,5.512c-2.59,1.773-5.243,2.794-7.961,3.063
		c-0.549,1.633-1.773,2.928-3.674,3.878c-1.908,0.957-3.949,1.021-6.124,0.204c-1.091,0.816-2.041,1.837-2.858,3.063
		c-0.816,1.225-2.041,1.568-3.674,1.02c-2.182,2.45-4.694,4.428-7.553,5.92c-2.857,1.499-5.243,3.611-7.145,6.328
		c2.176,1.633,4.491,1.837,6.94,0.612s4.625-1.972,6.532-2.245c4.082-3.534,7.208-5.441,9.39-5.716c0-1.633,0.408-2.513,1.225-2.653
		c0.816-0.135,1.767,0.07,2.857,0.612c0.269-1.901,1.155-3.399,2.654-4.491c1.492-1.084,3.062-1.9,4.694-2.449
		c1.634-0.542,3.33-1.084,5.104-1.633c1.767-0.543,3.195-1.492,4.286-2.857c1.634-2.718,3.604-4.217,5.92-4.491
		c2.31-0.269,3.879-1.493,4.695-3.675L286.751,256.471z M247.967,260.145c-1.364-0.541-2.245-0.268-2.653,0.816
		c-0.408,1.092-1.161,1.773-2.245,2.042c0.268-1.901,1.021-3.196,2.245-3.878C246.538,258.448,247.419,258.787,247.967,260.145z
		 M253.683,255.654c-1.091,0.549-2.111,0.816-3.062,0.816c-0.957,0-2.111,0.274-3.471,0.816c0.816-1.084,1.838-1.837,3.063-2.245
		S252.592,254.838,253.683,255.654z M320.636,258.512c-0.274-1.084-1.225-1.492-2.857-1.225c-1.634,0.274-2.725,0.141-3.267-0.408
		c-2.724,1.633-4.427,2.246-5.103,1.838c-0.683-0.408-1.569-0.339-2.654,0.203c-3.54-0.816-5.307-0.88-5.307-0.203
		c0,0.682-0.408,1.02-1.226,1.02c-1.364-1.633-2.794-1.836-4.286-0.611c-1.499,1.225-2.111,2.928-1.837,5.103
		c0,3.267-0.816,4.632-2.45,4.083c-1.633-0.543-3.132-0.816-4.49-0.816c0.268,1.365-0.345,2.111-1.837,2.244
		c-1.499,0.141-1.569,0.887-0.204,2.246c-1.091,0.274-2.182,0.344-3.267,0.204c-1.091-0.134-2.182,0.07-3.266,0.612
		c-1.907,1.091-3.266,2.246-4.082,3.471c-0.817,1.225-2.316,1.836-4.491,1.836c-3.54,3.541-7.081,6.265-10.614,8.166
		c-3.541,1.906-6.807,4.356-9.798,7.348c3.533,1.908,6.462,2.59,8.777,2.041c2.309-0.541,5.371-1.225,9.186-2.041
		c3.808-2.449,6.531-4.082,8.165-4.898c1.358-1.9,2.653-3.195,3.878-3.879c1.225-0.676,2.245-1.696,3.062-3.062
		c1.634,0,2.788-0.408,3.471-1.225c0.676-0.816,2.104-1.085,4.286-0.816c2.176-2.175,3.879-3.942,5.104-5.308
		c1.225-1.358,3.062-2.175,5.512-2.449c2.717-1.359,4.146-1.838,4.286-1.429c0.134,0.408,0.612,0.612,1.429,0.612
		c1.359-1.9,2.584-2.857,3.675-2.857c0.816-1.633,1.358-2.718,1.633-3.267c0.268-0.542,1.084-0.542,2.449,0
		c0-1.358,0.612-2.245,1.837-2.653c1.226-0.408,1.697-1.021,1.43-1.838L320.636,258.512z M256.132,285.865
		c-2.724-0.816-4.082,0.141-4.082,2.857C254.499,288.455,255.857,287.498,256.132,285.865z M259.807,252.797
		c-0.549,0.549-1.021,1.16-1.429,1.837c-0.408,0.683-1.161,1.021-2.246,1.021c0.269-1.084,0.747-1.697,1.43-1.837
		C258.237,253.684,258.99,253.346,259.807,252.797z M265.931,280.558c-0.549-0.542-0.957-1.288-1.226-2.245
		c-0.274-0.951-1.091-1.43-2.449-1.43c0,1.092-0.549,1.838-1.633,2.246c-1.091,0.408-1.365,1.021-0.816,1.837
		c0.816-0.816,1.837-0.95,3.062-0.408C264.093,281.106,265.113,281.106,265.931,280.558z M271.237,259.736
		c-0.549-1.358-1.365-2.041-2.449-2.041c-1.091,0-2.041,0.274-2.857,0.816c0.268,1.092,0.95,1.633,2.041,1.633
		C269.056,260.145,270.146,260.012,271.237,259.736z M365.543,330.363c0.542-2.99,0.268-4.963-0.816-5.918
		c-1.091-0.951-2.041-2.105-2.857-3.471c1.358-0.268,1.837-1.154,1.429-2.654c-0.408-1.492-0.07-2.652,1.021-3.471
		c-0.816-0.816-1.429-1.428-1.837-1.836s-1.021-0.881-1.838-1.43c1.359-2.175,1.359-5.166,0-8.98
		c-1.364-3.809-2.857-6.533-4.49-8.166c-0.549-2.175-1.365-3.674-2.449-4.49c-0.549,0.549-1.365,0.683-2.45,0.408
		c-1.091-0.268-2.041-0.134-2.857,0.408c1.633,0.549,2.857,0.683,3.674,0.408c0.817-0.268,1.359-0.134,1.634,0.408
		c0,1.908-1.091,3.133-3.267,3.674c-3.814-2.174-5.989-2.991-6.531-2.449c-0.274,3.541-0.887,5.92-1.838,7.145
		c-0.956,1.225-2.111,2.182-3.47,2.857c-1.365,0.684-2.928,0.957-4.695,0.816c-1.773-0.133-3.336-0.471-4.694-1.02
		c0.816-1.359,1.9-1.901,3.266-1.633c1.359,0.273,2.584,0.682,3.675,1.225c0.816-1.359,1.084-2.718,0.816-4.083
		c-0.274-1.358-0.141-2.31,0.408-2.858c4.082-2.717,6.258-4.758,6.532-6.123c2.717-0.543,4.35-1.154,4.898-1.838
		c0.542-0.676,1.358-0.611,2.449,0.205c1.085-4.899,0.408-8.573-2.041-11.023c-2.449-2.449-4.898-4.758-7.349-6.939
		c-1.365,0.549-2.315,0.549-2.857,0c-0.549-0.543-1.365-0.951-2.449-1.225c-1.634,0.549-2.45,1.16-2.45,1.836
		c0,0.684-0.683,0.613-2.041-0.203c-0.549,1.365-0.479,2.315,0.204,2.857c0.677,0.549,0.473,1.091-0.612,1.633
		c0-0.816-0.274-1.225-0.816-1.225c-0.549,0-1.161,0-1.837,0c-0.683,0-1.225-0.063-1.633-0.204
		c-0.408-0.134-0.612-0.612-0.612-1.429c1.358,0,2.245-0.543,2.653-1.633c0.408-1.084,1.288-1.359,2.653-0.816
		c-0.816-0.543-1.907-0.816-3.266-0.816c-1.365,0-2.041,0.682-2.041,2.041c-1.365-2.176-2.386-3.196-3.063-3.063
		c-0.683,0.141-1.295,0.345-1.837,0.613c-1.907,2.449-3.266,3.948-4.082,4.49c-0.817,0.549-1.634,1.021-2.45,1.429
		s-1.569,0.753-2.245,1.021c-0.683,0.274-1.429,0.141-2.245-0.408c-1.365,2.182-2.928,3.674-4.695,4.491
		c-1.773,0.816-4.152,1.499-7.145,2.041c-2.998,2.724-5.307,4.562-6.939,5.511c-1.634,0.957-2.858,1.021-3.675,0.205
		c0,2.182-1.161,3.948-3.47,5.307c-2.315,1.365-4.562,1.908-6.736,1.633c-2.182,1.908-3.47,3.267-3.879,4.083
		c-0.408,0.816-0.886,1.499-1.429,2.041c0.816,0.549,1.634,0.957,2.45,1.226c0.816,0.273,1.633,0.682,2.449,1.225
		c0.542-1.633,1.837-2.514,3.878-2.654c2.042-0.134,3.604-0.881,4.695-2.245c0.816,1.091,1.633,1.429,2.449,1.021
		s1.633-1.289,2.449-2.654c0.543-1.357,2.042-1.357,4.491,0c-0.549-3.533,0-5.44,1.633-5.715c1.633-0.268,3.126-1.359,4.491-3.266
		c2.449,1.365,3.399,2.385,2.857,3.062c-0.549,0.683-1.365,1.569-2.449,2.653c-0.816,0-1.703-0.203-2.654-0.611
		c-0.956-0.409-1.568,0.069-1.837,1.428c2.718,0.816,4.695,1.225,5.92,1.225s2.513-0.268,3.878-0.816
		c-0.816,0.816-1.978,1.773-3.47,2.858c-1.499,1.091-3.336,1.364-5.512,0.816c-1.633,2.724-2.998,4.631-4.082,5.716
		c-1.091,1.09-2.182,2.314-3.267,3.674c1.359,0.274,2.584,0.07,3.675-0.612c1.084-0.677,2.104-1.429,3.062-2.245
		c0.95-0.816,1.901-1.633,2.858-2.449c0.95-0.816,2.104-1.359,3.47-1.634c3.266,0.274,4.759,0.957,4.49,2.042
		c0.817-0.269,1.838-0.473,3.063-0.613c1.225-0.134,2.379-0.88,3.47-2.245c0.269-2.175,0.951-3.534,2.041-4.083
		c1.085-0.541,2.042-1.084,2.858-1.633c1.633,0,2.513,0.816,2.653,2.449c0.134,1.634,1.289,2.316,3.471,2.042
		c-0.274-1.085,0.338-1.429,1.837-1.021c1.492,0.408,2.513-0.064,3.062-1.43c-1.907,0.549-3.266,0.346-4.082-0.611
		c-0.816-0.951-0.816-2.105,0-3.471c0-2.717,0-4.35,0-4.898c1.633,0.549,2.787,0.203,3.47-1.021
		c0.676-1.225,1.563-1.154,2.653,0.205c0-1.633,0.269-2.788,0.816-3.471c0.543-0.676,1.085-1.429,1.634-2.245
		c2.449,0.274,3.808,0.408,4.082,0.408c0.268,0,0.612,0,1.021,0s0.816,0,1.225,0s0.747,0.408,1.021,1.225
		c-1.364,0.274-2.245,0.957-2.653,2.042c-0.408,1.09-1.295,1.633-2.653,1.633c-0.816-0.269-1.633-0.064-2.449,0.611
		c-0.817,0.684-1.499,1.57-2.042,2.654c-1.633,2.998-2.928,4.49-3.878,4.49c-0.957,0-1.569,0.408-1.837,1.225
		c1.084,0,2.175-0.338,3.266-1.02c1.084-0.677,2.041-0.747,2.857-0.205c0.816,2.998,0.677,4.695-0.408,5.104
		c-1.091,0.408-1.907,0.07-2.449-1.021c-1.091,2.449-2.724,4.223-4.899,5.308c-2.181,1.09-3.814,0.957-4.898-0.408
		c-1.091,3.266-2.182,5.173-3.266,5.715c-1.091,0.549-1.908,1.091-2.45,1.633c-0.549,0.549-2.041,1.021-4.49,1.43
		c-2.45,0.408-3.814,1.703-4.083,3.877c2.718-0.541,4.899-0.949,6.532-1.225c1.633-0.268,3.534-0.816,5.716-1.633
		c1.9-0.541,3.674-0.338,5.307,0.613c1.633,0.957,2.718,0.752,3.267-0.613c1.358,1.633,2.449,2.111,3.266,1.43
		c0.816-0.676,1.493-0.613,2.041,0.203c2.176-1.357,3.604-2.244,4.287-2.652c0.676-0.408,1.154-0.339,1.429,0.203
		c0,0.816,0.542,1.225,1.633,1.225c1.085,0,2.176-0.133,3.267-0.408c-0.549,4.084-1.569,6.125-3.063,6.125
		c-1.499,0-2.52,0.682-3.062,2.041c-1.365-0.268-2.52-0.473-3.471-0.613c-0.956-0.133-1.837-0.471-2.653-1.02
		c-0.274,1.906,0.063,2.793,1.021,2.652c0.95-0.133,2.105-0.203,3.471-0.203c1.358,1.633,2.309,2.244,2.857,1.836
		c0.542-0.408,1.225-0.338,2.041,0.205c2.176-0.268,3.534-0.613,4.083-1.021c0.542-0.408,1.084-0.746,1.633-1.02
		c-1.091,0.816-1.907,1.906-2.449,3.266c-0.549,1.365-1.773,2.182-3.675,2.449c-1.633,0.549-3.202,0.887-4.694,1.021
		c-1.499,0.141-2.654,0.611-3.471,1.428c-0.816,3.814-1.021,5.855-0.612,6.125c0.408,0.273,0.95,0.408,1.633,0.408
		c0.677,0,1.359,0,2.042,0c0.676,0,1.288,0.139,1.837,0.408c1.633-1.359,2.857-1.697,3.674-1.021
		c0.816,0.684,1.358,0.752,1.633,0.205c3.267-3.809,5.441-6.125,6.532-6.941c0.816,0.549,1.563,1.092,2.245,1.633
		c0.677,0.549,1.43,0.684,2.246,0.408c0,1.092,0.268,1.838,0.816,2.246c0.542,0.408,1.084,1.021,1.633,1.838
		c-1.091,0-1.907,0.344-2.449,1.02c-0.549,0.684-1.226,0.754-2.042,0.205c-1.364,1.09-2.315,1.428-2.857,1.02
		c-0.549-0.408-1.499-0.338-2.857,0.205c0.268,0.816,0.204,1.633-0.204,2.449s-0.612,1.498-0.612,2.041
		c-1.634,1.908-3.267,3.336-4.899,4.287c-1.633,0.957-2.59,2.385-2.857,4.285c2.175,0.275,3.808,0.346,4.898,0.205
		c1.085-0.135,2.31-0.473,3.675-1.021c0.542,2.451,0.676,4.225,0.408,5.309c-2.998,0-4.491,0.682-4.491,2.041
		c1.633,1.365,2.246,2.314,1.837,2.857c-0.408,0.549-0.752,1.09-1.021,1.633c0.816,1.365,1.768,1.908,2.858,1.633
		c1.084-0.268,2.449-0.408,4.082-0.408c1.358-2.717,2.38-4.012,3.063-3.879c0.676,0.141,1.696-0.063,3.062-0.611
		c1.358,2.723,1.288,4.287-0.204,4.695c-1.499,0.408-3.202,1.16-5.104,2.244c0,2.449-1.225,4.223-3.674,5.309
		c-0.274,0.273-0.274,1.568,0,3.877c0.268,2.316,0.268,4.02,0,5.104c0.816,0.549,1.971,0.408,3.47-0.408
		c1.493-0.816,2.654-0.541,3.471,0.816c1.358-1.9,2.104-3.33,2.245-4.287c0.134-0.949-0.345-1.695-1.429-2.244
		c1.084,1.906,2.175,3.061,3.266,3.469c1.085,0.41,1.358,1.295,0.816,2.654c-2.724,2.449-4.49,3.879-5.307,4.287
		c-0.817,0.408-1.634,0.887-2.45,1.428c1.901,0.818,3.471,0.684,4.695-0.408c1.225-1.084,2.922-1.9,5.103-2.449
		c0-1.084,0.269-2.244,0.817-3.469c0.542-1.225,1.021-2.381,1.429-3.471c0.408-1.084,0.542-2.041,0.408-2.857
		c-0.141-0.816-0.753-1.492-1.837-2.041c-2.182-0.543-3.407-0.543-3.675,0c-0.274,0.549-0.816,0.682-1.633,0.408
		c2.991-2.176,4.555-3.676,4.694-4.492c0.135-0.816,0.747-1.225,1.838-1.225c0.542-1.357,0.268-2.104-0.816-2.244
		c-1.091-0.135-1.907-0.613-2.45-1.43c0.816-1.9,1.697-3.266,2.654-4.082c0.95-0.816,1.971-0.543,3.062,0.816
		c1.358-4.082,1.9-8.166,1.633-12.248c-0.274-4.082-0.957-8.023-2.041-11.838L365.543,330.363z M293.283,248.714
		c-1.634,0.816-2.858,0.816-3.675,0c-0.816-0.817-2.315-1.084-4.49-0.817c-0.549,1.365-1.429,2.182-2.654,2.45
		c-1.225,0.274-2.52,0.682-3.878,1.225c1.633,1.09,4.013,1.498,7.145,1.225C288.855,252.529,291.376,251.164,293.283,248.714z
		 M293.691,259.736c-0.549-0.541-1.703-0.816-3.471-0.816c-1.773,0-2.386,0.684-1.837,2.041c0.542,0.549,1.358,0.549,2.449,0
		C291.918,260.42,292.875,260.012,293.691,259.736z M301.04,329.139c0.268-2.174-0.141-3.125-1.226-2.857
		c-1.091,0.275-2.315,0.549-3.674,0.816C296.408,329.547,298.042,330.231,301.04,329.139z M305.938,307.094
		c-0.274-1.633-1.365-2.857-3.266-3.674c-2.182,2.449-2.52,3.674-1.021,3.674C303.145,307.094,304.573,307.094,305.938,307.094z
		 M309.613,255.654c-1.091-0.268-1.703-0.881-1.838-1.837c-0.14-0.95-0.887-1.288-2.245-1.021c-0.549,0.549-1.091,1.021-1.633,1.429
		c-0.549,0.408-1.499,0.612-2.857,0.612c1.633,0.816,2.991,1.633,4.082,2.449c-0.274-1.358,0.134-1.837,1.225-1.429
		C307.432,256.267,308.522,256.203,309.613,255.654z M327.984,278.516c-1.365-0.816-2.928-1.02-4.695-0.611
		c-1.773,0.408-2.52,1.703-2.245,3.878c2.718,1.907,4.082,3.406,4.082,4.491c-1.364,0.273-2.315,0.273-2.857,0
		c-0.549-0.268-1.365-0.408-2.449-0.408c0,0.549-0.345,1.225-1.021,2.041c-0.683,0.816-1.569,1.091-2.654,0.816
		c-2.724,1.633-4.356,3.266-4.898,4.898c-1.365,0-2.315-0.338-2.858-1.02c-0.548-0.677-1.499-1.289-2.857-1.838
		c0.542-0.816,1.429-1.289,2.653-1.429c1.226-0.134,2.246-0.472,3.063-1.021c-0.549-1.359-0.887-2.379-1.021-3.063
		c-0.141-0.676-0.07-1.428,0.204-2.245c1.9,2.182,3.266,3.407,4.082,3.675c0.816,0.273,2.041,0.549,3.675,0.816
		c-1.634-1.901-2.59-2.787-2.858-2.654c-0.274,0.141-0.683-0.063-1.225-0.611c-0.274-2.176-0.07-3.738,0.612-4.695
		c0.677-0.951,2.105-1.021,4.287-0.204c0.816-0.542,1.429-1.226,1.837-2.042s1.021-1.357,1.837-1.633
		c1.358,0.275,2.175,0.549,2.449,0.816c0.269,0.275,1.085,0.141,2.45-0.408L327.984,278.516z M315.736,155.225
		c-1.365,0-2.52,0.204-3.47,0.612c-0.957,0.408-2.386,0.479-4.287,0.204c-0.548,0.816-0.344,1.499,0.612,2.041
		c0.951,0.549,1.43,1.225,1.43,2.042c0.816-0.816,1.837-1.493,3.062-2.042C314.308,157.541,315.188,156.59,315.736,155.225z
		 M314.92,333.223c-1.091,1.09-2.111,1.977-3.062,2.652c-0.957,0.684-1.021,1.295-0.204,1.838c0.542-0.543,1.225-1.084,2.041-1.633
		C314.512,335.537,314.92,334.586,314.92,333.223z M314.103,307.91c-1.091-0.542-1.569-1.225-1.429-2.041
		c0.134-0.816-0.345-1.492-1.429-2.041c0,2.449,0.268,3.948,0.816,4.49C312.604,308.867,313.287,308.727,314.103,307.91z
		 M319.411,268.719c0-1.901-0.816-2.718-2.45-2.449c-1.633,0.273-2.724,0.816-3.266,1.633c0.816,1.09,1.633,1.365,2.449,0.816
		C316.961,268.176,318.046,268.176,319.411,268.719z M326.352,317.301c-0.817-0.543-1.021-1.289-0.613-2.246
		c0.408-0.951-0.069-1.563-1.429-1.838c-2.182,0.549-3.878,1.365-5.103,2.451c-1.225,1.09-2.246,1.906-3.063,2.449
		c1.359,0.816,2.858,0.887,4.491,0.203C322.269,317.645,324.17,317.301,326.352,317.301z M328.393,265.044
		c0-1.358-0.479-2.041-1.429-2.041c-0.957,0-1.43-0.677-1.43-2.042c-1.364,0.817-2.52,1.226-3.47,1.226
		c-0.957,0-1.569,0.548-1.837,1.633c2.449,1.091,4.082,1.569,4.898,1.429C325.942,265.114,327.027,265.044,328.393,265.044z
		 M329.617,307.91c-0.549,1.365-1.569,1.838-3.062,1.43c-1.499-0.409-2.521,0.203-3.063,1.836
		C324.578,309.543,326.619,308.459,329.617,307.91z M331.25,280.15c-2.182,1.091-3.47,1.499-3.878,1.225
		c-0.408-0.269-1.021-0.269-1.838,0C326.619,280.016,328.526,279.608,331.25,280.15z M334.516,306.686
		c-2.449,0.549-5.173,0-8.164-1.633c0.542-1.359,1.358-1.768,2.449-1.225c1.084,0.549,1.9,0.549,2.449,0L334.516,306.686z
		 M336.558,154.817c-2.45,1.633-4.287,2.794-5.512,3.47c-1.225,0.682-2.245,1.161-3.062,1.429c1.633,1.365,2.309,2.928,2.041,4.695
		c-0.274,1.773-0.683,3.61-1.225,5.511c1.9,0,3.125-0.612,3.674-1.837c0.542-1.225,1.493-2.246,2.858-3.062
		c2.449,0.274,3.266-0.816,2.449-3.266C336.966,159.308,336.558,156.999,336.558,154.817z M337.782,323.424
		c-2.724-0.268-4.631-0.613-5.716-1.021c-1.091-0.408-1.499-0.063-1.225,1.021c0.816,0.816,1.767,1.16,2.857,1.021
		c1.085-0.135,2.31,0.068,3.675,0.611L337.782,323.424z M339.007,177.679c-0.549-1.359-0.612-2.583-0.204-3.674
		c0.408-1.084,0.338-2.175-0.204-3.266c-2.182-0.268-3.406,0.274-3.675,1.633c-0.273,1.365-1.364,1.907-3.266,1.633
		c0.542,3.541,1.563,5.103,3.062,4.695C336.213,178.291,337.642,177.953,339.007,177.679z M339.007,205.44
		c2.718-1.359,3.534-3.674,2.449-6.94c-1.091-3.266-2.041-5.85-2.857-7.757c-2.182,1.633-3.266,4.153-3.266,7.553
		C335.333,201.702,336.558,204.081,339.007,205.44z M359.011,305.869c-1.091,0.274-1.978,0.612-2.653,1.021
		c-0.683,0.408-1.703,0.479-3.062,0.204c-1.634,1.907-2.521,3.202-2.654,3.879c-0.14,0.682-0.612,1.02-1.429,1.02
		c-2.449,0.549-4.223,0.275-5.307-0.816c-1.091-1.084-2.858-1.492-5.308-1.225c1.633-2.449,3.534-3.125,5.716-2.041
		c1.358-0.542,2.653-1.154,3.878-1.837c1.225-0.677,2.379-1.563,3.47-2.653c2.992,0,4.963,0.141,5.92,0.408
		C358.532,304.102,359.011,304.785,359.011,305.869z M343.498,337.305c-1.365,0.549-2.112,0.408-2.246-0.408
		c-0.14-0.816-0.887-0.951-2.245-0.408C341.998,338.121,343.498,338.395,343.498,337.305z M345.131,398.949
		c-1.091-0.541-2.111-0.338-3.063,0.613c-0.956,0.957-1.703,1.977-2.245,3.063c1.358,0.273,2.105-0.205,2.245-1.43
		c0.135-1.225,1.021-1.563,2.654-1.021L345.131,398.949z M348.805,335.264c-0.274-0.543-0.479-1.289-0.612-2.246
		c-0.141-0.951-0.345-1.697-0.612-2.246c-1.091,1.633-1.295,2.654-0.612,3.063C347.644,334.242,348.256,334.721,348.805,335.264z
		 M354.112,315.668c-0.816,2.998-1.633,4.223-2.45,3.674c-0.816-0.543-1.772-0.543-2.857,0c2.449-2.176,3.809-3.471,4.083-3.879
		C353.155,315.055,353.563,315.125,354.112,315.668z M353.704,374.863c-0.549,0.816-1.225,1.365-2.042,1.633
		c-0.816,0.273-1.633,0.549-2.449,0.816c0.542-0.543,1.085-1.154,1.633-1.838C351.389,374.799,352.339,374.596,353.704,374.863z
		 M356.561,341.795c0.268,0.549,0.134,1.365-0.408,2.449c-0.549,1.092-1.499,1.5-2.857,1.225c-1.365,2.449-2.182,3.541-2.45,3.266
		c-0.274-0.268-0.683-0.408-1.225-0.408c0.542-0.268,1.289-1.428,2.245-3.469C352.817,342.817,354.38,341.795,356.561,341.795z
		 M361.053,324.24c-1.091,1.365-2.45,1.703-4.083,1.021c-1.633-0.678-2.724-1.564-3.266-2.654c2.717-0.816,4.351-0.881,4.898-0.205
		C359.145,323.086,359.962,323.697,361.053,324.24z M359.011,330.772c-1.365,0-2.182-0.408-2.449-1.225
		c-0.274-0.816-1.091-1.357-2.449-1.633c2.991-0.541,4.555-0.408,4.694,0.408C358.94,329.139,359.011,329.955,359.011,330.772z
		 M360.644,340.979c-1.907,1.633-3.062,1.908-3.47,0.816c-0.408-1.084-0.887-1.359-1.429-0.816c-0.549-1.9-0.204-2.379,1.021-1.43
		C357.99,340.506,359.279,340.979,360.644,340.979z M364.318,334.856c0.542,1.365,0.408,2.314-0.408,2.857
		c-0.816,0.549-1.365,1.365-1.633,2.449c-0.549-0.543-0.753-1.359-0.612-2.449c0.134-1.084-0.479-1.9-1.838-2.449
		c0.269-1.086,0.881-1.564,1.838-1.43C362.615,333.975,363.502,334.313,364.318,334.856z"/>
</g>
</svg>
